<svg id="Layer_1" data-name="Layer 1" xmlns="http://www.w3.org/2000/svg" xmlns:xlink="http://www.w3.org/1999/xlink" viewBox="0 0 375.31 280.47"><defs><style>.cls-1,.cls-9{fill:none;}.cls-2{clip-path:url(#clip-path);}.cls-3{fill:#f6d3d7;}.cls-4{clip-path:url(#clip-path-2);}.cls-5{fill:#cad6ec;}.cls-6{opacity:0.36;}.cls-7{fill:#fff;}.cls-8{fill:#7270af;}.cls-9{stroke:#8a89ca;stroke-width:2px;}.cls-10{fill:#6d6aab;}.cls-11{fill:#ff846b;}.cls-12{fill:#d7b99f;}.cls-13{fill:#d0b099;}.cls-14{fill:#8a89ca;}.cls-15{fill:#d9bb9f;}.cls-16{fill:#8a89cb;}.cls-17{fill:#8989cc;}.cls-18{fill:#8b8acb;}.cls-19{fill:#fdfdfd;}.cls-20{fill:#c6a48f;}.cls-21{fill:#d1d1d0;}.cls-22{fill:#6e6daf;}.cls-23{fill:#fcfcfb;}.cls-24{fill:#6f6eae;}.cls-25{fill:#6e6eae;}.cls-26{fill:#d2d2d1;}</style><clipPath id="clip-path"><rect class="cls-1" x="-0.35" y="-0.58" width="376.36" height="280.88"/></clipPath><clipPath id="clip-path-2"><rect class="cls-1" x="-0.39" y="-0.58" width="376.4" height="356.33"/></clipPath></defs><title>Artboard 1</title><g id="Layer_2" data-name="Layer 2"><g id="Layer_1-2" data-name="Layer 1-2"><g class="cls-2"><g id="header_bg" data-name="header bg"><g id="Group_518" data-name="Group 518"><g id="Group_254" data-name="Group 254"><rect id="Rectangle_5" data-name="Rectangle 5" class="cls-3" x="-0.39" y="-0.58" width="376.4" height="356.33"/><g class="cls-4"><g id="Mask_Group_1" data-name="Mask Group 1"><ellipse id="Ellipse_12" data-name="Ellipse 12" class="cls-5" cx="334.36" cy="155" rx="224.34" ry="242.91"/></g></g></g><g id="Group_253" data-name="Group 253" class="cls-6"><g id="Group_227" data-name="Group 227"><path id="Path_196" data-name="Path 196" class="cls-7" d="M303,131.46l-.22-.89a38.31,38.31,0,0,1,10.47-.7,54.6,54.6,0,0,0,7.12-.13,40.12,40.12,0,0,0,15.55-5c8.75-4.93,16.46-13.15,22.33-23.78a87.69,87.69,0,0,0,9.91-31.83c.25-2.07.42-4.18.61-6.43.54-6.81,1.1-13.79,4-19.72-7,6.93-15.66,12-24,16.88-10.64,6.25-21.65,12.71-29.31,23-7.37,9.9-10.58,23.4-9,38l-.92.11c-1.55-14.86,1.73-28.59,9.23-38.68,7.77-10.45,18.86-17,29.58-23.27,9.8-5.76,19.91-11.7,27.44-20.62l.71.59c-5.44,6.44-6.14,15.25-6.81,23.75-.18,2.25-.35,4.38-.6,6.47a88.69,88.69,0,0,1-10,32.12c-5.94,10.78-13.79,19.07-22.69,24.09a40.86,40.86,0,0,1-15.89,5.17,53.21,53.21,0,0,1-7.25.13A37.22,37.22,0,0,0,303,131.46Z"/><path id="Path_197" data-name="Path 197" class="cls-7" d="M318.8,122.09l-.57-.72c11.49-9.21,18.81-22.49,25.88-35.32,5.47-9.91,11.12-20.17,18.7-28.66l.7.61c-7.57,8.42-13.16,18.63-18.61,28.5C337.79,99.41,330.42,112.76,318.8,122.09Z"/><path id="Path_198" data-name="Path 198" class="cls-7" d="M339.88,95.78l-.32-.86c6.49-2.39,13-5,19.3-7.83l.37.84C352.93,90.76,346.38,93.39,339.88,95.78Z"/><path id="Path_199" data-name="Path 199" class="cls-7" d="M337.17,100.31l-.23-.89a157.28,157.28,0,0,0,19.34-6.58l.35.85A161,161,0,0,1,337.17,100.31Z"/><rect id="Rectangle_182" data-name="Rectangle 182" class="cls-7" x="330.42" y="106.35" width="18.22" height="0.92" transform="translate(-15.64 83.45) rotate(-13.7)"/><path id="Path_200" data-name="Path 200" class="cls-7" d="M328.15,113l-.2-.91c4.58-1,9.18-2.2,13.67-3.51l.27.88C337.37,110.84,332.75,112,328.15,113Z"/><path id="Path_201" data-name="Path 201" class="cls-7" d="M325.26,117.63a14.48,14.48,0,0,1-1.47-.08l.11-.92a21.46,21.46,0,0,0,7.09-.75l9.7-2.14.2.9-9.69,2.14A27.73,27.73,0,0,1,325.26,117.63Z"/></g><g id="Group_229" data-name="Group 229"><g id="Group_228" data-name="Group 228"><path id="Path_202" data-name="Path 202" class="cls-7" d="M181.74,214.43a29.77,29.77,0,0,1-8-1.07c-10.3-2.84-17.46-10.23-20.16-20.79-3.31-13,.85-27.93,10.36-37.14l.32.34-.32-.34a36.37,36.37,0,0,1,17.27-9.33c10.78-2.41,21.87-.46,29.69,5.22a25.65,25.65,0,0,1,10.57,18.9c1.13,12.15-5.11,25.85-15.89,34.88C198.27,211.21,189.91,214.43,181.74,214.43ZM190.32,146a41.83,41.83,0,0,0-8.92,1,35.32,35.32,0,0,0-16.84,9.11c-9.28,9-13.39,23.56-10.1,36.26,2.61,10.23,9.53,17.38,19.5,20.13,10.22,2.81,21.52-.13,31-8.08,10.56-8.85,16.67-22.23,15.56-34.08a24.75,24.75,0,0,0-10.22-18.25A34.15,34.15,0,0,0,190.32,146Z"/><path id="Path_203" data-name="Path 203" class="cls-7" d="M228.79,240.32c-2.09,0-4.6-.86-7-3.7a30.91,30.91,0,0,1-4.1-6.88c-1.07-2.35-2.12-4.71-3.16-7-2.68-6-5.46-12.36-8.73-18.15l.8-.45c3.29,5.83,6.08,12.13,8.78,18.22,1,2.35,2.07,4.7,3.15,7a30.28,30.28,0,0,0,4,6.66c4.37,5.15,8.88,3.26,10.26,2.1s1.91-3.6,2.33-5.41c.38-1.63.6-2.62,1.3-2.79.35-.1.7.08,1.06.48a10,10,0,0,0,8.57,3.66,16.08,16.08,0,0,0,9.15-4c4-3.43,4.85-7.41,5.42-10.32.37-1.88.67-3.37,1.68-4.22a6,6,0,0,1,2-1,5.9,5.9,0,0,0,2-.93c2-1.71,0-5.31-1-7.24-.64-1.18-.91-1.66-.5-2l.12-.1H265a10,10,0,0,0,5.37-2,3.87,3.87,0,0,0,1.63-3c0-1.44-.87-3.18-2.58-5.21-5.35-6.32-13.44-6-26.85-5.47-6.59.26-14.8.58-24.42.1v-.93c9.57.5,17.77.17,24.34-.09,13.21-.53,22-.86,27.59,5.8,1.88,2.22,2.8,4.12,2.8,5.81a4.81,4.81,0,0,1-2,3.75,10.41,10.41,0,0,1-5.38,2.17l.43.81c1.19,2.16,3.38,6.19.79,8.38a6.92,6.92,0,0,1-2.19,1.05,5.18,5.18,0,0,0-1.76.79c-.75.63-1,2-1.37,3.69-.6,3-1.42,7.2-5.73,10.85a17,17,0,0,1-9.68,4.18,10.89,10.89,0,0,1-9.34-4,.67.67,0,0,0-.14-.15,9.77,9.77,0,0,0-.61,2.06c-.44,1.93-1,4.56-2.63,5.9A7.37,7.37,0,0,1,228.79,240.32Z"/><path id="Path_204" data-name="Path 204" class="cls-7" d="M222.67,261c-1.93,0-4.21-.89-6.35-3.41-5.41-6.4-9.78-18.18-14.06-29.59-2.34-6.33-4.56-12.31-6.83-17.06l.82-.4c2.3,4.75,4.52,10.76,6.88,17.06,4.19,11.34,8.54,23.09,13.84,29.31,3.42,4,7.15,3.42,8.8,2,2.2-1.86,2-6.17,1.87-9.32-.1-2.26-.17-3.75.5-4.32.92-.78,3.3,2,3.32,2,.32.38.63.77.93,1.15A12.88,12.88,0,0,0,234.8,251c.28.2.55.31.65.24a.85.85,0,0,0,.18-.37,2.76,2.76,0,0,1,.2-.47,2,2,0,0,1,2.56-.58c.37.15.74.31,1.1.48a8,8,0,0,0,3,.91,3,3,0,0,0,2.35-1,6.2,6.2,0,0,0,1.39-4.47,12.65,12.65,0,0,0-.45-1.71c-.61-1.91-1.28-4.1-.17-5a6.61,6.61,0,0,1,.74-.53,4.18,4.18,0,0,0,.65-.45c.7-.59.53-1.3-.66-2.72l-.16-.19.7-.6.16.19c.66.78,2.22,2.62.56,4a6.86,6.86,0,0,1-.76.53,4.53,4.53,0,0,0-.63.45c-.64.54,0,2.66.45,4a10.48,10.48,0,0,1,.48,1.91,6.9,6.9,0,0,1-1.62,5.17,3.85,3.85,0,0,1-3,1.24,8.79,8.79,0,0,1-3.35-1c-.35-.16-.7-.32-1.07-.47s-1.2-.19-1.43.19a1.66,1.66,0,0,0-.12.31,1.49,1.49,0,0,1-.54.84c-.27.18-.84.39-1.71-.27a13.86,13.86,0,0,1-2.59-2.76c-.29-.38-.59-.76-.9-1.12a9.19,9.19,0,0,0-2.1-1.83,12.3,12.3,0,0,0-.11,3.48c.15,3.35.36,7.91-2.18,10A5.85,5.85,0,0,1,222.67,261Z"/><path id="Path_205" data-name="Path 205" class="cls-7" d="M156.93,165.81c-7.8-6.79-16.53-9.61-23.53-11.87-5.64-1.82-10.1-3.25-12.51-6.11-3.32-3.93-6-12.34.88-18.18a18.9,18.9,0,0,1,9.73-3.83h.06A4.5,4.5,0,0,0,132,124a8,8,0,0,1,2.5-5.52,5.42,5.42,0,0,1,7.62.69,16.26,16.26,0,0,1,1.16,1.6,16,16,0,0,0,1.13,1.57,4.42,4.42,0,0,0,1.45,1.2,1.07,1.07,0,0,0,1.27-.11c.58-.49.43-2,.27-3.59-.24-2.41-.54-5.4,1.47-7.12a4.5,4.5,0,0,1,2.85-1.08,3.82,3.82,0,0,1,2.84,1.48c1.3,1.53,2.36,5,3.71,9.54,2.14,7.11,5,16.83,10.63,23.4a29.51,29.51,0,0,0,3.39,3.41l-.6.7a29.84,29.84,0,0,1-3.5-3.52c-5.68-6.7-8.65-16.54-10.81-23.72-1.27-4.2-2.36-7.83-3.54-9.22a2.9,2.9,0,0,0-2.15-1.15,3.39,3.39,0,0,0-2.21.88c-1.66,1.39-1.4,4-1.17,6.32.2,1.92.36,3.57-.59,4.39a2,2,0,0,1-2.24.24,5.47,5.47,0,0,1-1.78-1.46,15.93,15.93,0,0,1-1.19-1.64,16.33,16.33,0,0,0-1.09-1.53,4.51,4.51,0,0,0-6.33-.58,7,7,0,0,0-2.17,4.94,3.93,3.93,0,0,1-.88,2.5c-.11.09-.18.1-.44.14a17.94,17.94,0,0,0-9.25,3.61c-6.4,5.41-3.88,13.23-.79,16.88,2.25,2.65,6.6,4,12,5.83,7.08,2.28,15.91,5.13,23.87,12Z"/><path id="Path_206" data-name="Path 206" class="cls-7" d="M175.89,148.06l-2.43-5.42c-7.36-16.26-17.45-38.52-6-48.18,4.35-3.68,8.78-1,11.71.68,1.43.85,2.8,1.67,3.32,1.2a6,6,0,0,0,1-1.54,8.11,8.11,0,0,1,1.75-2.46c2.66-2.26,4.82.11,6.38,1.84.81.88,1.63,1.83,2.21,1.75,6-.4,10.14.74,12.47,3.49,5.71,6.75,2.38,15.27-1.85,26.1a128.86,128.86,0,0,0-6.7,20.82l-.91-.19a128.37,128.37,0,0,1,6.76-21c4.26-10.91,7.35-18.8,2-25.09-2.13-2.51-6-3.55-11.71-3.17-1,.09-1.91-.92-3-2-1.89-2.09-3.26-3.32-5.11-1.76a7.45,7.45,0,0,0-1.51,2.06,6.68,6.68,0,0,1-1.25,1.83c-1,.86-2.51,0-4.39-1.13-3-1.78-6.79-4-10.63-.76-10.89,9.21-1,31.12,6.25,47.09.87,1.93,1.7,3.76,2.43,5.45Z"/><path id="Path_207" data-name="Path 207" class="cls-7" d="M214.67,154.89l-.62-.68a68.4,68.4,0,0,1,10-7.18c2-1.27,4.11-2.59,6-4,5.32-3.84,10.62-8.23,15.1-12.05,11-9.34,8.67-17.06,6.81-19.25a7.47,7.47,0,0,0-4.31-2.35,6.12,6.12,0,0,0-1.21,0c-1.25.06-2.94.13-3.3-1.48a5,5,0,0,1,.3-2.54,4.87,4.87,0,0,0,.3-2.14,2,2,0,0,0-1.27-1.6,3.33,3.33,0,0,0-2.26.63l-2.51,1.38a3.32,3.32,0,0,1-2.81.52,3.61,3.61,0,0,1-1.79-2.3,3.48,3.48,0,0,0-1.87-2.31c-5.29-2.14-11.68-.52-14.86,3.77-2.55,3.44-3.88,7.69-5.15,11.79-.26.86-.53,1.71-.81,2.54-.6,1.85-1.18,3.72-1.76,5.59-2.5,8-5.08,16.24-9.41,23.52l-.79-.47c4.28-7.18,6.84-15.39,9.31-23.33q.88-2.82,1.78-5.59c.27-.84.53-1.68.79-2.53,1.31-4.18,2.65-8.51,5.3-12,3.48-4.69,10.18-6.41,15.95-4.09a4.43,4.43,0,0,1,2.38,2.83c.32.81.61,1.51,1.29,1.81s1.34-.12,2-.48l2.5-1.39a4.07,4.07,0,0,1,3-.71,2.87,2.87,0,0,1,1.92,2.33,5.45,5.45,0,0,1-.32,2.56,4.38,4.38,0,0,0-.28,2.09c.18.79,1,.82,2.37.76a5.7,5.7,0,0,1,1.43,0,8.22,8.22,0,0,1,4.82,2.65c2,2.38,4.71,10.71-6.91,20.55-4.5,3.8-9.81,8.22-15.16,12-2,1.43-4.08,2.74-6.11,4A67.89,67.89,0,0,0,214.67,154.89Z"/><path id="Path_208" data-name="Path 208" class="cls-7" d="M218.65,160.54l-.62-.69.7-.6c8.33-7,20.5-9.39,30.29-11.26,5.88-1.13,11-2.1,13-3.83a7.94,7.94,0,0,0,2.46-4.1,5.14,5.14,0,0,0-.93-4.6,11.76,11.76,0,0,0-1.94-1.65c-1.31-1-2.66-2-3.11-3.49l-.06-.23a1.23,1.23,0,0,0-.14-.42,1.3,1.3,0,0,0-.48-.45c-2.26-1.48-5-.8-7.56-.13-.76.19-1.5.37-2.23.51l-.17-.91c.71-.13,1.44-.32,2.18-.5,2.66-.67,5.68-1.44,8.28.25a2.59,2.59,0,0,1,.8.78,3.33,3.33,0,0,1,.23.65l.05.2c.35,1.22,1.57,2.13,2.76,3a12.54,12.54,0,0,1,2.11,1.81,6,6,0,0,1,1.1,5.4,8.76,8.76,0,0,1-2.83,4.57c-2.22,1.89-7.17,2.85-13.42,4-9.68,1.86-21.72,4.16-29.87,11Z"/><path id="Path_209" data-name="Path 209" class="cls-7" d="M267.46,191.14a5.86,5.86,0,0,1-.94-.08l.16-.91a3.81,3.81,0,0,0,3.21-.82c2.87-2.43,2.08-4.53,1.25-6.74-.7-1.87-1.42-3.8.6-5.51a1.68,1.68,0,0,0,.42-2.35,1,1,0,0,0-.18-.22,6.42,6.42,0,0,0-.51-.54c-.18-.18-.4-.4-.58-.6a2.69,2.69,0,0,1-.68-1.84,2,2,0,0,1,.68-1.5,15.44,15.44,0,0,0,3.63-4.6c.69-1.35,1.27-3.21.22-4.45-6.82-8-21.07-1.09-33.7,5-8,3.94-15.06,7.33-19.07,6.35l.22-.9c3.74.91,10.88-2.58,18.45-6.28,12.91-6.31,27.52-13.45,34.82-4.83,1.07,1.27,1,3.16-.09,5.45a16.75,16.75,0,0,1-3.88,4.89,1.15,1.15,0,0,0-.36.83,1.8,1.8,0,0,0,.47,1.21c.16.19.34.36.52.54a6.55,6.55,0,0,1,.58.6,2.61,2.61,0,0,1-.16,3.7v0l-.18.16c-1.46,1.22-1.08,2.5-.34,4.47.83,2.19,1.85,4.92-1.51,7.77A4.56,4.56,0,0,1,267.46,191.14Z"/><path id="Path_210" data-name="Path 210" class="cls-7" d="M274.32,160.42l-.27-.88a3.75,3.75,0,0,0,1.3-.71,4.86,4.86,0,0,0,1.59-3.42,6.25,6.25,0,0,0-1.6-4.46A11.71,11.71,0,0,0,272,148.3a7.49,7.49,0,0,1-1.92-1.44,1,1,0,0,1-.06-1.23,3,3,0,0,1,.64-.74,10.33,10.33,0,0,1,.87-.6,7.66,7.66,0,0,0,.7-.46,1.65,1.65,0,0,0,.51-1.1,2.69,2.69,0,0,0-.52-1.8c-1.18-1.38-4.34-1.33-6.6-.47l-.32-.87c2-.76,5.93-1.25,7.62.75a3.56,3.56,0,0,1,.73,2.46,2.46,2.46,0,0,1-.83,1.73,9,9,0,0,1-.81.56,5.39,5.39,0,0,0-.76.52c-.38.32-.51.57-.51.64a6.69,6.69,0,0,0,1.74,1.25,13.22,13.22,0,0,1,3.55,2.85,7.32,7.32,0,0,1,1.82,5.11,5.69,5.69,0,0,1-1.92,4A4.62,4.62,0,0,1,274.32,160.42Z"/><path id="Path_211" data-name="Path 211" class="cls-7" d="M169.15,266.33a11.28,11.28,0,0,1-2.32-.24,14.55,14.55,0,0,1-7.9-4.8c-.25-.3-.47-.58-.62-.79-5.92,2.28-10.84,1.6-13.83-1.93a17.74,17.74,0,0,1-1.57-2.28c-.7-.85-1.6-.51-3.26.2-2.56,1.1-6.07,2.6-10.25-2.34-.5-.58-1-1.17-1.45-1.76s-1-1.19-1.47-1.77a52,52,0,0,0-5.6-5.41c-.24-.2-.38-.34-.41-.36-1.7-2-1.89-4.4-.55-7.12a21.25,21.25,0,0,1,5.35-6.32c4.11-3.5,8.93-5.8,13.59-8S148.1,219,152,215.63a32.07,32.07,0,0,0,4.13-4.27,25.69,25.69,0,0,1,3-3.16,11.06,11.06,0,0,1,2.82-1.77l.36.86a9.72,9.72,0,0,0-2.58,1.61,25.59,25.59,0,0,0-2.92,3.06,33.06,33.06,0,0,1-4.24,4.37c-4,3.39-8.76,5.67-13.36,7.88s-9.38,4.49-13.4,7.89a20.7,20.7,0,0,0-5.12,6c-1.14,2.35-1,4.41.44,6.11l.3.26a50.38,50.38,0,0,1,5.7,5.52c.51.59,1,1.18,1.48,1.78s.95,1.17,1.44,1.75c3.75,4.42,6.76,3.12,9.19,2.09,1.61-.7,3.14-1.36,4.32,0l.1.12a15,15,0,0,0,1.47,2.16c2.73,3.22,7.3,3.81,12.87,1.64.32-.12.57-.22.79,0s.4.56.8,1A13.48,13.48,0,0,0,167,265a8.12,8.12,0,0,0,7-1.4c4-3.41,3.61-9.87,3.14-17.35a72.18,72.18,0,0,1,0-14.4c.3-2.23.8-4.42,1.28-6.53.88-3.9,1.7-7.58,1.45-11.47l.92-.06c.26,4-.62,7.94-1.47,11.74A61.28,61.28,0,0,0,178.1,232a71.88,71.88,0,0,0-.06,14.22c.5,7.73.92,14.4-3.46,18.07A8.39,8.39,0,0,1,169.15,266.33Z"/><path id="Path_212" data-name="Path 212" class="cls-7" d="M117.69,240.84a7.81,7.81,0,0,1-5.88-2.78c-1.87-2.21-1.54-4.4-1.28-6.17a3.7,3.7,0,0,0-.11-2.56l-.31-.05c-1.44-.24-5.8-1-8-3.63-4.74-5.6-1-10.24,1.74-13.63a11.64,11.64,0,0,0,2.28-3.52c.06-.22-.19-.55-.44-.9-.62-.84-1.55-2.12.47-3.83a13.4,13.4,0,0,1,3.68-2,11.33,11.33,0,0,0,3-1.56,4.79,4.79,0,0,0,1.24-1.92,9,9,0,0,1,2.55-3.54c1.57-1.33,5.71-1.89,7.5-1.84v.93c-1.93-.08-5.64.57-6.87,1.61a8.08,8.08,0,0,0-2.31,3.23,5.62,5.62,0,0,1-1.49,2.23,11.86,11.86,0,0,1-3.22,1.71,12.4,12.4,0,0,0-3.44,1.84c-1.36,1.14-.93,1.74-.31,2.57a2.09,2.09,0,0,1,.59,1.66,11.83,11.83,0,0,1-2.47,3.88c-2.67,3.31-6,7.43-1.75,12.45,2,2.38,6.14,3.1,7.49,3.33.53.09.65.11.78.26.77.91.59,2.11.41,3.39-.26,1.67-.54,3.55,1.06,5.44a6.72,6.72,0,0,0,7,2.16l.3.87A6.51,6.51,0,0,1,117.69,240.84Z"/></g><path id="Path_213" data-name="Path 213" class="cls-7" d="M164.34,195.65l-.16-.36a2.66,2.66,0,0,1,0-2.14l.83.39a1.71,1.71,0,0,0-.13,1,12.9,12.9,0,0,0,1.17-.6c.25-.15.51-.29.77-.43l.42.83c-.25.12-.5.26-.74.4a7.33,7.33,0,0,1-1.8.82Z"/><path id="Path_214" data-name="Path 214" class="cls-7" d="M178.36,195.31l-.9-.2c.34-1.5,3-3.34,4.4-3,.27.06,1.11.36.81,1.75l-.9-.2c.13-.61-.06-.64-.12-.66C180.85,192.76,178.61,194.25,178.36,195.31Z"/><path id="Path_215" data-name="Path 215" class="cls-7" d="M170.66,190l-.84-.4a3.85,3.85,0,0,1,3.21-2.22c.49,0,1.36.32,1.77,1.73l-.88.25c-.19-.66-.52-1-1-1.05A3,3,0,0,0,170.66,190Z"/><path id="Path_216" data-name="Path 216" class="cls-7" d="M171.63,205l-.91-.1a4.53,4.53,0,0,1,3-3.58,2.12,2.12,0,0,1,2.37,1.15l-.8.48a1.23,1.23,0,0,0-1.37-.73A3.65,3.65,0,0,0,171.63,205Z"/><path id="Path_217" data-name="Path 217" class="cls-7" d="M202.86,159.58a4.37,4.37,0,0,1-1.19-4,3,3,0,0,1,2.38-2,1.93,1.93,0,0,1,2,1l-.78.48a1,1,0,0,0-1.08-.55,2.12,2.12,0,0,0-1.61,1.38,3.46,3.46,0,0,0,1,3.11Z"/><path id="Path_218" data-name="Path 218" class="cls-7" d="M211.53,167.68a2.67,2.67,0,0,1-1.07-2.8,2.46,2.46,0,0,1,1.62-2,1.36,1.36,0,0,1,1.41.55l-.74.58c-.2-.26-.36-.26-.47-.22a1.6,1.6,0,0,0-.88,1.26,1.79,1.79,0,0,0,.71,1.88Z"/><path id="Path_219" data-name="Path 219" class="cls-7" d="M199.21,173.89a2.36,2.36,0,0,1-1.29-2.14,3.7,3.7,0,0,1,2.21-2.86,3.28,3.28,0,0,1,3.34.1l-.54.76a2.39,2.39,0,0,0-2.4,0,2.81,2.81,0,0,0-1.69,2.07,1.45,1.45,0,0,0,.85,1.3Z"/><path id="Path_220" data-name="Path 220" class="cls-7" d="M190.17,184c-1.56-1.25-1.38-3.57-.42-5.13a3,3,0,0,1,3.9-1.46l-.38.84a2.19,2.19,0,0,0-2.74,1.1c-.75,1.24-.88,3,.22,3.92Z"/><path id="Path_221" data-name="Path 221" class="cls-7" d="M202.74,189.22c-1.59-1.18-1.53-2.36-1.35-2.95a3.63,3.63,0,0,1,3.2-2.25,1.92,1.92,0,0,1,2,1.09l-.85.37a1.09,1.09,0,0,0-1.13-.55,2.8,2.8,0,0,0-2.37,1.6c-.24.8.42,1.51,1,1.95Z"/><path id="Path_222" data-name="Path 222" class="cls-7" d="M191.57,197.16a2.48,2.48,0,0,1,.13-3c1-1.32,3.24-2.24,4.42-1.85a1.06,1.06,0,0,1,.79,1.06H196c0-.08,0-.15-.16-.2a4.11,4.11,0,0,0-3.39,1.53,1.54,1.54,0,0,0-.1,2Z"/><path id="Path_223" data-name="Path 223" class="cls-7" d="M161.59,183.91l-.7-.6c.75-.88.67-1.27.63-1.37a1.21,1.21,0,0,0-.85-.36,4.07,4.07,0,0,0-3.52,1.7l-.8-.46a4.92,4.92,0,0,1,4.38-2.15,1.76,1.76,0,0,1,1.65.91C162.65,182.22,162.39,183,161.59,183.91Z"/><path id="Path_224" data-name="Path 224" class="cls-7" d="M184.7,209.47l-.83-.41c.75-1.54,2.43-3,4.22-2.69l-.14.92C186.64,207.1,185.3,208.25,184.7,209.47Z"/><path id="Path_225" data-name="Path 225" class="cls-7" d="M209.06,191.8l-.87-.28a7.6,7.6,0,0,1,1.58-2.65l.55-.67.73.56c-.19.25-.38.47-.57.69A6.82,6.82,0,0,0,209.06,191.8Z"/><path id="Path_226" data-name="Path 226" class="cls-7" d="M214.48,178.31c-1.12-1.12-1.1-2.35-1.08-3.65v-.61h.92v.63a4,4,0,0,0,.8,3Z"/><path id="Path_227" data-name="Path 227" class="cls-7" d="M178.37,158.54l-.92,0a4.78,4.78,0,0,1,2.81-3.82,1.9,1.9,0,0,1,2.16,1l-.77.52c-.44-.69-.87-.66-1.15-.59A4,4,0,0,0,178.37,158.54Z"/><path id="Path_228" data-name="Path 228" class="cls-7" d="M169.84,163.44c-.81-1.3.09-3.21,1.41-4.11a2.09,2.09,0,0,1,3,.18l0,.06a1.09,1.09,0,0,1,.13.17l-.73.54A1.24,1.24,0,0,0,172,160l-.14.11c-.93.64-1.65,2.06-1.14,2.87Z"/><path id="Path_229" data-name="Path 229" class="cls-7" d="M163.12,173.94a4,4,0,0,1-.56-4,4.57,4.57,0,0,1,3.68-2.54l.13.91a3.68,3.68,0,0,0-3,2,3.16,3.16,0,0,0,.47,3.09Z"/><path id="Path_230" data-name="Path 230" class="cls-7" d="M183.51,168.3a3.4,3.4,0,0,1-.38-2.57,2.84,2.84,0,0,1,1.4-1.73,2.36,2.36,0,0,1,2.72.28c.2.23.57.87-.17,1.82l-.73-.57c.13-.17.34-.48.2-.66a1.54,1.54,0,0,0-1.58-.06A1.81,1.81,0,0,0,184,166a2.36,2.36,0,0,0,.28,1.85Z"/><path id="Path_231" data-name="Path 231" class="cls-7" d="M173.05,176.08a3,3,0,0,1,.4-4,3.56,3.56,0,0,1,4.53-.84l-.51.77a2.64,2.64,0,0,0-3.34.7,2.08,2.08,0,0,0-.35,2.75Z"/><path id="Path_232" data-name="Path 232" class="cls-7" d="M167.86,183a3,3,0,0,1-1-2.24c0-1.58,1.37-3,2.15-3.68l.61.7a4.8,4.8,0,0,0-1.83,3,2,2,0,0,0,.73,1.55Z"/><path id="Path_233" data-name="Path 233" class="cls-7" d="M178.9,183.93a3.5,3.5,0,0,1-.38-4.94l.21-.22c.54-.54,2.47-1.47,3.44-.94a1.13,1.13,0,0,1,.5,1.37l-.9-.18c0-.12.06-.33,0-.38a3.37,3.37,0,0,0-2.36.78,2.59,2.59,0,0,0-.17,3.65l0,0,.25.22Z"/><path id="Path_234" data-name="Path 234" class="cls-7" d="M185.69,154.41c0-1.33-.1-2.87,1-3.85a2.61,2.61,0,0,1,2.39-.61,1.8,1.8,0,0,1,1.24,1.33l-.88.24a.93.93,0,0,0-.62-.68,1.7,1.7,0,0,0-1.52.41c-.79.7-.74,1.94-.7,3l-.47.12Z"/><path id="Path_235" data-name="Path 235" class="cls-7" d="M192.69,160a2.69,2.69,0,0,1,.11-3.22,2.61,2.61,0,0,1,2.66-1,1.33,1.33,0,0,1,.89,1.34h-.92c0-.34-.15-.44-.27-.48a1.82,1.82,0,0,0-2,1.59,1.85,1.85,0,0,0,.33,1.27Z"/><path id="Path_236" data-name="Path 236" class="cls-7" d="M109.19,202.23a7.16,7.16,0,0,1-2.74-.54,11.28,11.28,0,0,1-6-7.19C99,190,98.84,183.6,102.67,179a15.06,15.06,0,0,1,2.67-2.37,9.86,9.86,0,0,0,3.26-3.35,7,7,0,0,0-.74-7.37c-3.53-4.74-3.79-9.72-.72-14,1.24-1.76,7.23-6.89,11.23-6.64a3.31,3.31,0,0,1,2.85,1.8l-.81.44a2.42,2.42,0,0,0-2.1-1.32h-.26c-3.44,0-8.85,4.4-10.19,6.26-2.81,3.95-2.56,8.53.72,12.93a8,8,0,0,1,.83,8.34,10.84,10.84,0,0,1-3.54,3.68,15.13,15.13,0,0,0-2.52,2.21c-3.58,4.32-3.42,10.39-2.07,14.64a10.51,10.51,0,0,0,5.51,6.61,6.6,6.6,0,0,0,5.73-.41l.43.81A7.88,7.88,0,0,1,109.19,202.23Z"/><path id="Path_237" data-name="Path 237" class="cls-7" d="M123,194l-.23-.9c1-.25,1.93-.42,2.88-.57a23.56,23.56,0,0,0,3.72-.84l.84-.28a32,32,0,0,1,7.13-1.86c1.07-.11,2.12-.19,3.18-.27,1.74-.14,3.54-.28,5.29-.53a21.73,21.73,0,0,1,4.56-.06c.92.06,1.88.12,2.84.09v.92c-1,0-2,0-2.91-.09a21.37,21.37,0,0,0-4.38,0c-1.77.26-3.59.4-5.35.53l-3.16.27a32.44,32.44,0,0,0-6.91,1.82l-.85.29a24.34,24.34,0,0,1-3.87.87C124.86,193.58,123.91,193.73,123,194Z"/><path id="Path_238" data-name="Path 238" class="cls-7" d="M191.32,268.43a17.66,17.66,0,0,1-2.29-.18,16.76,16.76,0,0,0-3.68-.15c-5.74.56-6.75-1.78-7.74-4a9.17,9.17,0,0,0-1.4-2.5l.69-.61a10.65,10.65,0,0,1,1.57,2.74c1,2.23,1.72,4,6.8,3.51a17.28,17.28,0,0,1,3.87.14,8.55,8.55,0,0,0,5.48-.6c.5-.25,1-.51,1.44-.76,2.27-1.21,4.41-2.34,7.21-2.13.53,0,1.07.1,1.62.15,2.43.24,4.94.5,7.14-.49a9.17,9.17,0,0,0,4-5.34,1.92,1.92,0,0,0-.57-1.87l.62-.69a2.87,2.87,0,0,1,.86,2.7,9.82,9.82,0,0,1-4.5,6c-2.43,1.1-5,.83-7.61.57l-1.6-.15c-2.54-.18-4.47.84-6.7,2l-1.47.77A7.85,7.85,0,0,1,191.32,268.43Z"/><path id="Path_239" data-name="Path 239" class="cls-7" d="M200.81,253.37c-1.67-1.67-2.47-4.4-3.18-6.8-.13-.47-.27-.92-.4-1.34-1.92-6-2.29-12.42-2.65-18.57A98.45,98.45,0,0,0,193,212.33l.9-.19a96.18,96.18,0,0,1,1.58,14.46c.36,6.1.73,12.42,2.62,18.35.14.43.27.89.41,1.36.68,2.3,1.45,4.91,2.94,6.42Z"/><path id="Path_240" data-name="Path 240" class="cls-7" d="M187.38,256.82a40.24,40.24,0,0,1,.38-5,34.51,34.51,0,0,0,.37-5.75c-.12-2.3-.32-4.62-.52-6.85-.3-3.37-.6-6.84-.6-10.36a38.2,38.2,0,0,1,.78-8.54,19.32,19.32,0,0,1,.78-2.37c.64-1.69,1.42-3.8,1.09-4.81l.87-.29c.44,1.31-.37,3.5-1.09,5.42a19.19,19.19,0,0,0-.76,2.25,37.64,37.64,0,0,0-.75,8.34c0,3.47.3,6.93.6,10.28.2,2.24.4,4.56.52,6.88a34.32,34.32,0,0,1-.37,5.91,37.89,37.89,0,0,0-.38,4.87Z"/><path id="Path_241" data-name="Path 241" class="cls-7" d="M162.08,236.06l-.92-.06c.26-4,1.94-8.72,3.28-12.46l.19-.54c0-.12,4.54-11.23,7.54-10.82l-.12.91H172c-1.72,0-5.52,7.54-6.47,10.22l-.19.54C164,227.54,162.33,232.15,162.08,236.06Z"/><path id="Path_242" data-name="Path 242" class="cls-7" d="M116.43,220.41h-.53l.06-.93c3.15.14,6.39-1.41,9.43-3a49.18,49.18,0,0,0,8.87-6.72,69.4,69.4,0,0,1,6.25-5.12,25.53,25.53,0,0,1,16.06-5.15v.92a24.47,24.47,0,0,0-15.52,5,67.7,67.7,0,0,0-6.18,5,49.22,49.22,0,0,1-9,6.84C122.83,218.85,119.65,220.41,116.43,220.41Z"/><path id="Path_243" data-name="Path 243" class="cls-7" d="M151.69,180.1c-3-4.38-6.1-7.58-11.65-8.95a38.65,38.65,0,0,0-8.44-1.09h-.84a34.59,34.59,0,0,0-3.81,0,10.55,10.55,0,0,0-2,.46,9.78,9.78,0,0,1-2.62.49v-.92a10.41,10.41,0,0,0,2.34-.45,10.85,10.85,0,0,1,2.23-.49,31.88,31.88,0,0,1,3.91,0h.83a39.33,39.33,0,0,1,8.64,1.17c6.19,1.53,9.52,5.38,12.19,9.32Z"/><path id="Path_244" data-name="Path 244" class="cls-7" d="M160.09,158c-4.6-9.43-15.61-15.57-28.06-15.65v-.92c12.8.08,24.09,6.43,28.88,16.17Z"/><path id="Path_245" data-name="Path 245" class="cls-7" d="M165.43,154.73l-.88-.3c.43-1.23-1.07-3-2.16-4.39a13.51,13.51,0,0,1-.92-1.16c-1.15-1.65-2.2-3.41-3.21-5.12-.36-.59-.71-1.18-1.06-1.78a82,82,0,0,1-5.89-12.51l-.6-1.5.85-.34.61,1.5A81.54,81.54,0,0,0,158,141.5l1.06,1.78c1,1.69,2,3.45,3.18,5.08.23.31.54.68.88,1.1C164.4,151,166,153,165.43,154.73Z"/><path id="Path_246" data-name="Path 246" class="cls-7" d="M184.56,146.54h-.93a28.58,28.58,0,0,0-1.56-8,47,47,0,0,1-1.24-4.84c-.8-4.45-1.34-9.35.2-14.94l.89.24a30.75,30.75,0,0,0-.17,14.54,48.35,48.35,0,0,0,1.2,4.74A29,29,0,0,1,184.56,146.54Z"/><path id="Path_247" data-name="Path 247" class="cls-7" d="M208.39,150.14l-.93-.1c1-9.39,7.92-15.13,14.57-20.68a83.13,83.13,0,0,0,7.56-6.85c1.87-2,5-5.93,5-9.49h.89c0,3.87-3.3,8-5.28,10.12a82.2,82.2,0,0,1-7.64,6.93C216.07,135.5,209.33,141.12,208.39,150.14Z"/><path id="Path_248" data-name="Path 248" class="cls-7" d="M225.74,180.46a12.92,12.92,0,0,1-4-.53l.29-.88c2.58.86,6.11.4,9,0h.17c4.68-.59,10.95-1.87,14.21-4.62l.6.71c-3.44,2.89-9.89,4.22-14.7,4.83h-.17A44.06,44.06,0,0,1,225.74,180.46Z"/><path id="Path_249" data-name="Path 249" class="cls-7" d="M220.69,166.35l-.78-.48c2.23-3.64,7-5,11.32-6.24,1.15-.33,2.23-.63,3.19-1a90.32,90.32,0,0,1,9.56-2.54,81.78,81.78,0,0,0,10.54-2.9l.33.86a80.72,80.72,0,0,1-10.67,3,87.63,87.63,0,0,0-9.45,2.51c-1,.34-2.09.65-3.25,1C227.39,161.68,222.74,163,220.69,166.35Z"/><path id="Path_250" data-name="Path 250" class="cls-7" d="M249.64,221.06a20.42,20.42,0,0,1-8.73-1.95c-3.78-2-6.31-6-8.75-10a53.87,53.87,0,0,0-3.12-4.65,15.43,15.43,0,0,0-7.6-5.32l-1.32-.5c-1.82-.71-4.29-1.67-5.84-1.45l-.12-.91c1.77-.25,4.27.71,6.29,1.49l1.3.49a16.56,16.56,0,0,1,8,5.69c1.13,1.52,2.18,3.1,3.16,4.72,2.38,3.84,4.85,7.79,8.39,9.64,2.9,1.51,8.43,2.45,11.71,1.39l.29.88A12.74,12.74,0,0,1,249.64,221.06Z"/><path id="Path_251" data-name="Path 251" class="cls-7" d="M223.36,223.84c-.12-.3-.31-.83-.56-1.54-4.83-13.28-8.28-20.47-10.24-21.37a.55.55,0,0,0-.4,0l-.33-.85a1.4,1.4,0,0,1,1.1.06c2.94,1.34,7.28,12.41,10.72,21.9.25.7.45,1.22.57,1.53Z"/></g><g id="Group_231" data-name="Group 231"><g id="Group_230" data-name="Group 230"><path id="Path_252" data-name="Path 252" class="cls-7" d="M334.72,217.3c-5.24,0-10.53-2.26-15-6.49-6-5.77-9.17-14.11-8-21.26a15.26,15.26,0,0,1,7-10.81c4.86-3.06,11.51-3.78,17.79-1.94a21.58,21.58,0,0,1,9.86,6.22,23.46,23.46,0,0,1,4.67,22.38,16.54,16.54,0,0,1-12.79,11.54A17.79,17.79,0,0,1,334.72,217.3Zm-5.1-40.59a19.55,19.55,0,0,0-10.35,2.8,14.38,14.38,0,0,0-6.62,10.18c-1.11,6.87,1.94,14.89,7.75,20.45,5.22,5,11.67,7.14,17.73,5.9a15.68,15.68,0,0,0,12.05-10.92,22.52,22.52,0,0,0-4.48-21.48h0a20.53,20.53,0,0,0-9.44-5.94,24,24,0,0,0-6.68-1Z"/><path id="Path_253" data-name="Path 253" class="cls-7" d="M305.17,230.62h-.24a4.49,4.49,0,0,1-2.77-1.12c-.93-.89-1.19-2.5-1.37-3.67-.05-.3-.11-.68-.17-.93-3.41,3.28-8.22,2-11.3-1a10.17,10.17,0,0,1-3-6.71,4,4,0,0,0-.6-2.11,3.46,3.46,0,0,0-.95-.5,3.9,3.9,0,0,1-1.37-.78c-1.56-1.5-.05-3.85.75-5.12l.15-.23a6.36,6.36,0,0,1-2.9-1.47,3,3,0,0,1-1.06-2.43,5.71,5.71,0,0,1,1.92-3.42c3.64-3.76,8.79-3.21,16.57-2.38,4,.43,8.64.91,14.27,1v.92c-5.68-.09-10.49-.6-14.36-1-7.79-.82-12.49-1.33-15.82,2.11a5,5,0,0,0-1.65,2.84,2.09,2.09,0,0,0,.77,1.7,5.73,5.73,0,0,0,3,1.34h.16l.11.11c.35.33.1.71-.34,1.4-.66,1-1.9,3-.89,4a3.42,3.42,0,0,0,1.08.58,3.82,3.82,0,0,1,1.23.69,4.34,4.34,0,0,1,.88,2.66,9.29,9.29,0,0,0,2.72,6.16c2.73,2.64,7,4,10.13.87a.77.77,0,0,1,.82-.29c.52.16.62.79.8,1.84a6.2,6.2,0,0,0,1.1,3.16,3.61,3.61,0,0,0,2.17.86,4.66,4.66,0,0,0,3.66-1.69,17.47,17.47,0,0,0,2.55-3.71c.72-1.34,1.44-2.68,2.14-4,1.82-3.48,3.69-7,5.86-10.35l.76.5c-2.12,3.25-4,6.82-5.81,10.27-.7,1.34-1.41,2.67-2.14,4a18.12,18.12,0,0,1-2.7,3.92A5.69,5.69,0,0,1,305.17,230.62Z"/><path id="Path_254" data-name="Path 254" class="cls-7" d="M307.94,243a3.73,3.73,0,0,1-2.54-1c-1.48-1.43-1.17-4.17-.94-6.16a12.47,12.47,0,0,0,.12-1.73,6.2,6.2,0,0,0-1,.83c-.2.2-.39.41-.57.62a8.2,8.2,0,0,1-1.67,1.55,1,1,0,0,1-1.23.09,1,1,0,0,1-.35-.62.66.66,0,0,0-.05-.15c-.06-.11-.35-.15-.6-.07l-.64.23a5.29,5.29,0,0,1-2.07.46,2.49,2.49,0,0,1-1.89-.91,4.27,4.27,0,0,1-.79-3.26,5,5,0,0,1,.36-1.13c.22-.57.74-1.91.47-2.17a2.88,2.88,0,0,0-.34-.27l-.44-.35c-1-1,.06-2.18.48-2.61l.11-.12.65.65-.1.1c-.82.85-.71,1.1-.5,1.31a1.69,1.69,0,0,0,.35.28,2.86,2.86,0,0,1,.43.35c.7.67.2,2-.25,3.15a8,8,0,0,0-.32.94,3.42,3.42,0,0,0,.59,2.52,1.64,1.64,0,0,0,1.21.6,3.74,3.74,0,0,0,1.73-.42c.22-.08.44-.17.67-.24a1.4,1.4,0,0,1,1.71.53,2,2,0,0,1,.12.34v.1a.39.39,0,0,1,.16-.1,7.85,7.85,0,0,0,1.48-1.4c.2-.22.39-.44.6-.65,0,0,1.2-1.22,1.88-1.23H305l.23.17c.44.43.33,1.34.18,2.71-.2,1.81-.48,4.27.67,5.38.86.84,2.91,1.31,5-.82,3.33-3.45,6.33-10.14,9.23-16.61,1.63-3.64,3.18-7.09,4.71-9.8l.8.45c-1.51,2.68-3,6.1-4.66,9.72-2.93,6.55-6,13.31-9.41,16.87A5.28,5.28,0,0,1,307.94,243Z"/><path id="Path_255" data-name="Path 255" class="cls-7" d="M350.09,189.66l-.56-.73c5-3.79,10.28-5.11,14.54-6.18,3.27-.83,5.85-1.48,7.23-2.9,1.91-2,3.65-6.35.22-9.68a10.51,10.51,0,0,0-5.2-2.43.7.7,0,0,1-.36-.14,2.5,2.5,0,0,1-.47-1.63,4,4,0,0,0-1-2.86,2.5,2.5,0,0,0-3.47.09,8,8,0,0,0-.69.85,11.36,11.36,0,0,1-.77.92,2.7,2.7,0,0,1-1.74.94,1.2,1.2,0,0,1-.94-.38c-.6-.58-.43-1.59-.23-2.77s.46-2.77-.38-3.58a1.52,1.52,0,0,0-2.15-.17h0l-.15.15c-.72.74-1.5,2.81-2.39,5.21-1.55,4.14-3.68,9.81-7.32,13.57a18.68,18.68,0,0,1-2.21,2l-.55-.74a17.69,17.69,0,0,0,2.11-1.85c3.49-3.62,5.58-9.19,7.11-13.26,1-2.59,1.74-4.64,2.6-5.52a2.41,2.41,0,0,1,3.4-.22h0l.2.2c1.2,1.15.88,3,.64,4.4-.13.8-.29,1.71,0,2a.4.4,0,0,0,.29.12,1.9,1.9,0,0,0,1.09-.65,10.06,10.06,0,0,0,.7-.86,9.51,9.51,0,0,1,.76-.92,3.37,3.37,0,0,1,4.77-.11,4.84,4.84,0,0,1,1.31,3.46,3.33,3.33,0,0,0,.13.94,11.25,11.25,0,0,1,5.6,2.67c3.92,3.79,2,8.74-.18,11-1.57,1.62-4.26,2.3-7.67,3.15C360.11,184.69,354.93,186,350.09,189.66Z"/><path id="Path_256" data-name="Path 256" class="cls-7" d="M339.72,178.44l-.83-.42c.51-1,1.06-2,1.64-3.1,4.58-8.55,11.48-21.44,5.55-27.18-2-2-4.27-.84-6,.07-1.18.59-2.18,1.09-2.84.45a4,4,0,0,1-.71-1.18,4.28,4.28,0,0,0-.77-1.28c-.9-.88-1.65-.27-2.81.83-.65.63-1.25,1.25-2,1.14-3.3-.44-5.54,0-6.83,1.35-3.31,3.42-1.83,8.13.23,14.64a75.93,75.93,0,0,1,3.16,12.6l-.91.12A75,75,0,0,0,323.5,164c-2.08-6.57-3.72-11.75,0-15.56,1.51-1.58,4-2.11,7.6-1.63.29,0,.81-.5,1.21-.89,1-1,2.48-2.39,4.08-.82a4.71,4.71,0,0,1,1,1.56,3.24,3.24,0,0,0,.5.89c.2.19,1.1-.27,1.78-.61,1.82-.92,4.6-2.33,7.1.09,6.44,6.22-.38,19-5.37,28.28C340.76,176.44,340.21,177.48,339.72,178.44Z"/><path id="Path_257" data-name="Path 257" class="cls-7" d="M316.38,181a39.87,39.87,0,0,0-5.52-4.52c-1.15-.83-2.33-1.69-3.43-2.61-3-2.48-6-5.28-8.45-7.69-2.84-2.75-4.38-5.48-4.58-8.13a5.91,5.91,0,0,1,1.32-4.46,5,5,0,0,1,3-1.43,4.51,4.51,0,0,1,.9,0c.87.1,1.13,0,1.21-.22a2.28,2.28,0,0,0-.08-1.13,3.37,3.37,0,0,1-.09-1.61,1.88,1.88,0,0,1,1.37-1.43,2.56,2.56,0,0,1,1.84.56l1.42.91c.36.23.73.43,1,.34s.48-.42.72-.9a2.77,2.77,0,0,1,1.64-1.69,8.26,8.26,0,0,1,9.43,3.1,23.58,23.58,0,0,1,2.66,7.35c.12.5.24,1,.37,1.52.28,1.1.55,2.23.82,3.35,1.14,4.75,2.32,9.66,4.55,14.05l-.84.41c-2.26-4.46-3.46-9.42-4.61-14.22-.26-1.11-.53-2.22-.82-3.34-.13-.5-.25-1-.37-1.53a22.57,22.57,0,0,0-2.54-7,7.37,7.37,0,0,0-8.36-2.72c-.58.19-.81.65-1.07,1.19a2.36,2.36,0,0,1-1.25,1.38,2.08,2.08,0,0,1-1.79-.44l-1.42-.91a1.8,1.8,0,0,0-1.17-.43,1,1,0,0,0-.66.75,2.93,2.93,0,0,0,.09,1.18,3.17,3.17,0,0,1,.09,1.59c-.33,1.1-1.5,1-2.21.89a2.51,2.51,0,0,0-.67,0,4.15,4.15,0,0,0-2.5,1.15,5,5,0,0,0-1.08,3.74c.19,2.38,1.68,5,4.32,7.54,2.48,2.4,5.42,5.19,8.39,7.64,1.07.9,2.25,1.75,3.38,2.57A39.2,39.2,0,0,1,317,180.4Z"/><path id="Path_258" data-name="Path 258" class="cls-7" d="M313.78,184.11l-.36-.36c-4.49-4.34-11.43-6.15-17.06-7.61-3.66-1-6.54-1.71-7.81-2.94a5.42,5.42,0,0,1-1.5-2.91A3.76,3.76,0,0,1,288,167a8.79,8.79,0,0,1,1.35-1,3.67,3.67,0,0,0,1.65-1.54,1.94,1.94,0,0,1,.23-.53,1.5,1.5,0,0,1,.56-.5c1.66-.92,3.45-.35,5,.16.42.14.83.28,1.23.39l-.22.88c-.42-.1-.86-.24-1.29-.38-1.47-.48-3-1-4.3-.23a.81.81,0,0,0-.24.17.68.68,0,0,0-.07.2v.15a4.54,4.54,0,0,1-2,2,6.19,6.19,0,0,0-1.17.86,2.85,2.85,0,0,0-.67,2.5,4.44,4.44,0,0,0,1.23,2.4c1.09,1.05,4,1.82,7.4,2.71,5.69,1.48,12.77,3.34,17.42,7.84l.39.38Z"/><path id="Path_259" data-name="Path 259" class="cls-7" d="M284.33,200.28a2.93,2.93,0,0,1-2.08-.83c-2-1.9-1.19-3.6-.63-4.83s.74-1.74,0-2.43a1.71,1.71,0,0,1-.17-2.43h0l.11-.12.37-.34c.11-.09.22-.18.32-.28a.83.83,0,0,0,.26-.6.38.38,0,0,0-.12-.32c-1.7-1.66-3.5-4.87-1.92-6.5,4.71-4.9,13.09-.08,20.47,4.16,4.28,2.45,8.3,4.79,10.47,4.38l.16.91c-2.51.44-6.47-1.85-11-4.49-7.1-4.08-15.14-8.68-19.36-4.32-1,1.07.41,3.75,1.91,5.19a1.4,1.4,0,0,1,.4,1,1.77,1.77,0,0,1-.52,1.25l-.39.34-.31.28a.84.84,0,0,0-.07,1.16l.11.1c1.23,1.17.67,2.4.18,3.46-.57,1.27-1.06,2.35.43,3.8a2,2,0,0,0,1.7.55l.1.92Z"/><path id="Path_260" data-name="Path 260" class="cls-7" d="M281.22,181.94a2.71,2.71,0,0,1-1-.62,3.57,3.57,0,0,1-1-2.6,4.45,4.45,0,0,1,1.33-3,7.76,7.76,0,0,1,2.23-1.57,4.42,4.42,0,0,0,.93-.56,1.63,1.63,0,0,0-.17-.2l-.41-.32a4.37,4.37,0,0,1-.48-.37,2,2,0,0,1,.11-2.74c1.14-1.17,3.49-.72,4.71-.17l-.38.84c-1.23-.56-3-.73-3.66,0a1.16,1.16,0,0,0-.13,1.44,3.44,3.44,0,0,0,.36.28,4,4,0,0,1,.51.41,1.46,1.46,0,0,1,.5.9.7.7,0,0,1-.2.5,4.66,4.66,0,0,1-1.26.85,6.76,6.76,0,0,0-2,1.37,3.58,3.58,0,0,0-1.07,2.44,2.72,2.72,0,0,0,.76,1.93,2.09,2.09,0,0,0,.66.43Z"/><path id="Path_261" data-name="Path 261" class="cls-7" d="M339.29,248.22a5.19,5.19,0,0,1-3.68-1.35c-2.5-2.41-2-6.36-1.38-10.93a42,42,0,0,0,.52-8.31c-.09-1.28-.29-2.58-.48-3.81a23.38,23.38,0,0,1-.41-7l.91.12a23.39,23.39,0,0,0,.4,6.73c.2,1.26.4,2.58.49,3.9a43.12,43.12,0,0,1-.52,8.5c-.56,4.32-1,8,1.1,10.14,2,1.89,5.85,1.31,8.3-1.24q.21-.21.39-.42h0l.14-.13a.53.53,0,0,1,.67,0c1.81.84,5.15,1.9,7.4-.42a9.65,9.65,0,0,0,.93-1.18l.08-.11c.84-.86,1.86-.35,2.76.11,1.4.71,3,1.53,5.25-.82.31-.32.61-.66.91-1l.94-1a30.28,30.28,0,0,1,3.59-3l.2-.15c2.07-2.15-.55-5.32-2.3-7a36.29,36.29,0,0,0-7.51-5.13,35.28,35.28,0,0,1-7.58-5.17,19.28,19.28,0,0,1-2.35-2.75,13.38,13.38,0,0,0-1.57-1.88,5.55,5.55,0,0,0-1.4-1l.42-.82a6.73,6.73,0,0,1,1.62,1.18,13.92,13.92,0,0,1,1.67,2,20.24,20.24,0,0,0,2.25,2.64,35,35,0,0,0,7.39,5,36.48,36.48,0,0,1,7.7,5.27c3.4,3.29,4.24,6.33,2.29,8.34l-.29.23a31.16,31.16,0,0,0-3.46,2.93c-.32.32-.62.65-.92,1s-.62.66-.94,1c-2.74,2.85-4.9,1.74-6.32,1-.95-.48-1.35-.63-1.69-.28a9.39,9.39,0,0,1-1,1.28c-1.93,2-4.86,2.24-8.28.7l-.31.33A8.47,8.47,0,0,1,339.29,248.22Z"/><path id="Path_262" data-name="Path 262" class="cls-7" d="M370.35,235.3a4.13,4.13,0,0,1-1.56-.3l.36-.85a3.75,3.75,0,0,0,4-1,3.34,3.34,0,0,0,.78-3,2.52,2.52,0,0,1,.43-2.11c.12-.15.24-.16.58-.2.79-.08,3.18-.33,4.4-1.6,2.58-2.67.92-5-.55-7.13a7,7,0,0,1-1.33-2.45,1.35,1.35,0,0,1,.45-1.1c.38-.46.55-.66-.07-1.28a7.43,7.43,0,0,0-1.9-1.17,7,7,0,0,1-1.87-1.17,3.46,3.46,0,0,1-.84-1.43A4.59,4.59,0,0,0,372,208.6a7.83,7.83,0,0,0-3.85-1.15v-.93c1.08,0,3.56.54,4.46,1.42a5.23,5.23,0,0,1,1.4,2.26,2.73,2.73,0,0,0,.62,1.1,6.53,6.53,0,0,0,1.63,1,7.74,7.74,0,0,1,2.13,1.34,1.58,1.58,0,0,1,.44,2.19h0a1.47,1.47,0,0,1-.29.32,1.78,1.78,0,0,0-.25.36,7,7,0,0,0,1.18,2.07c1.5,2.15,3.58,5.1.47,8.31-1.47,1.51-4.11,1.79-5,1.88h-.1a2.4,2.4,0,0,0-.09,1.3,4.28,4.28,0,0,1-1,3.72A4.83,4.83,0,0,1,370.35,235.3Z"/></g><path id="Path_263" data-name="Path 263" class="cls-7" d="M344.56,207l-.38-.13a5.16,5.16,0,0,1-1.08-.59c-.13-.09-.26-.18-.4-.26l.48-.79.43.28a3.34,3.34,0,0,0,.4.25.46.46,0,0,0-.05-.2l.87-.33a1.69,1.69,0,0,1-.08,1.41Z"/><path id="Path_264" data-name="Path 264" class="cls-7" d="M336.06,206a2.13,2.13,0,0,0-.9-1,1.46,1.46,0,0,0-.68-.31.43.43,0,0,0,0,.16l-.91.14c-.12-.79.29-1.15.71-1.22A3.16,3.16,0,0,1,337,205.9Z"/><path id="Path_265" data-name="Path 265" class="cls-7" d="M340.8,203.23a1.58,1.58,0,0,0-1.1-1h0c-.06,0-.26,0-.43.46l-.87-.32a1.38,1.38,0,0,1,1.29-1.06h0a2.38,2.38,0,0,1,1.95,1.54Z"/><path id="Path_266" data-name="Path 266" class="cls-7" d="M339.63,211.94a2,2,0,0,0-1.09-1.55.59.59,0,0,0-.62.31l-.75-.54a1.44,1.44,0,0,1,1.63-.65,2.84,2.84,0,0,1,1.75,2.39Z"/><path id="Path_267" data-name="Path 267" class="cls-7" d="M323.4,184.19l-.64-.66a1.87,1.87,0,0,0,.65-1.61,1,1,0,0,0-.75-.73.41.41,0,0,0-.46.2l-.75-.53a1.32,1.32,0,0,1,1.38-.57,2,2,0,0,1,1.47,1.41A2.72,2.72,0,0,1,323.4,184.19Z"/><path id="Path_268" data-name="Path 268" class="cls-7" d="M318,188.64l-.51-.78a.88.88,0,0,0,.41-.89.8.8,0,0,0-.36-.61l-.78-.55a1,1,0,0,1,1-.33,1.62,1.62,0,0,1,1,1.37A1.78,1.78,0,0,1,318,188.64Z"/><path id="Path_269" data-name="Path 269" class="cls-7" d="M324.93,192.77l-.42-.82c.43-.23.44-.48.44-.57a1.46,1.46,0,0,0-.81-1.11,1.26,1.26,0,0,0-1.22-.09l-.48-.78a2.12,2.12,0,0,1,2.16.07,2.38,2.38,0,0,1,1.28,1.93A1.58,1.58,0,0,1,324.93,192.77Z"/><path id="Path_270" data-name="Path 270" class="cls-7" d="M329.84,199l-.53-.77a1.62,1.62,0,0,0,.22-2,1.09,1.09,0,0,0-1.33-.67l-.33-.86a2,2,0,0,1,2.48,1.1A2.55,2.55,0,0,1,329.84,199Z"/><path id="Path_271" data-name="Path 271" class="cls-7" d="M322.28,201.62l-.5-.78c.31-.2.67-.52.58-.9a1.44,1.44,0,0,0-1.16-.88c-.25,0-.41,0-.48.17l-.83-.42a1.34,1.34,0,0,1,1.42-.67,2.36,2.36,0,0,1,2,1.6A1.73,1.73,0,0,1,322.28,201.62Z"/><path id="Path_272" data-name="Path 272" class="cls-7" d="M328.58,206.68l-.74-.57a.74.74,0,0,0-.07-1,2.23,2.23,0,0,0-1.65-.84l-.88-.14a.85.85,0,0,1,.66-.76,3,3,0,0,1,2.72,1.34A1.67,1.67,0,0,1,328.58,206.68Z"/><path id="Path_273" data-name="Path 273" class="cls-7" d="M346.38,200.06c-.47-.63-.6-1.16-.39-1.6a1.23,1.23,0,0,1,1.17-.58h0a3.13,3.13,0,0,1,2.65,1.55l-.82.4a2.21,2.21,0,0,0-1.66-1,.68.68,0,0,0-.52.07h0a1.44,1.44,0,0,0,.3.62Z"/><path id="Path_274" data-name="Path 274" class="cls-7" d="M331.85,214.11a1.93,1.93,0,0,0-1.64-1.28l-.08-.92a2.77,2.77,0,0,1,2.57,1.86Z"/><path id="Path_275" data-name="Path 275" class="cls-7" d="M318.18,202.77a3.6,3.6,0,0,0-.72-1.35l-.3-.45.77-.51.29.41a4.71,4.71,0,0,1,.86,1.68Z"/><path id="Path_276" data-name="Path 276" class="cls-7" d="M315.84,194.75l-.6-.69c.45-.39.48-.82.52-1.6v-.36l.92.06v.35A2.79,2.79,0,0,1,315.84,194.75Z"/><path id="Path_277" data-name="Path 277" class="cls-7" d="M338.4,184.41h-.92a2.07,2.07,0,0,0-1-1.64c-.08,0-.24-.08-.47.23l-.74-.57a1.32,1.32,0,0,1,1.52-.54A3,3,0,0,1,338.4,184.41Z"/><path id="Path_278" data-name="Path 278" class="cls-7" d="M342.65,187.72l-.75-.54c.24-.33,0-1.08-.53-1.46s-.73-.09-.83,0l-.7-.61a1.45,1.45,0,0,1,2-.23l.1.09A2.17,2.17,0,0,1,342.65,187.72Z"/><path id="Path_279" data-name="Path 279" class="cls-7" d="M346.18,194.15l-.72-.57a1.66,1.66,0,0,0,.36-1.62,1.94,1.94,0,0,0-1.53-1.16l.19-.91a2.88,2.88,0,0,1,2.21,1.75A2.55,2.55,0,0,1,346.18,194.15Z"/><path id="Path_280" data-name="Path 280" class="cls-7" d="M334.44,190l-.77-.51a1.24,1.24,0,0,0,.21-.93.91.91,0,0,0-.43-.6.72.72,0,0,0-.68-.06s0,.06.1.16l-.76.52a1,1,0,0,1,0-1.32,1.56,1.56,0,0,1,1.85-.08,1.84,1.84,0,0,1,.83,1.2A2.12,2.12,0,0,1,334.44,190Z"/><path id="Path_281" data-name="Path 281" class="cls-7" d="M340.25,195l-.67-.62a1,1,0,0,0-.1-1.38,1.4,1.4,0,0,0-1.7-.5l-.46-.8a2.28,2.28,0,0,1,2.87.72A1.93,1.93,0,0,1,340.25,195Z"/><path id="Path_282" data-name="Path 282" class="cls-7" d="M343,199.32l-.59-.7a1.1,1.1,0,0,0,.42-.76,2.57,2.57,0,0,0-.9-1.69l.65-.65a3.47,3.47,0,0,1,1.17,2.38A2,2,0,0,1,343,199.32Z"/><path id="Path_283" data-name="Path 283" class="cls-7" d="M336.5,199.43l-.61-.69a1.65,1.65,0,0,0,.59-1.08,1.22,1.22,0,0,0-.35-.9,1.91,1.91,0,0,0-1.13-.5l-.84.14a.85.85,0,0,1,.46-1c.71-.33,1.88.37,2.21.74a2.18,2.18,0,0,1,.58,1.56A2.57,2.57,0,0,1,336.5,199.43Z"/><path id="Path_284" data-name="Path 284" class="cls-7" d="M333.73,181.65h-.92c.07-.66.13-1.33-.24-1.7a.78.78,0,0,0-.7-.26.33.33,0,0,0-.25.26l-.88-.31a1.26,1.26,0,0,1,.92-.85,1.71,1.71,0,0,1,1.56.5A2.81,2.81,0,0,1,333.73,181.65Z"/><path id="Path_285" data-name="Path 285" class="cls-7" d="M329.37,184.84l-.76-.52a.84.84,0,0,0,0-1.19h0a.7.7,0,0,0-.62-.23h-.93a1,1,0,0,1,.71-.92,1.72,1.72,0,0,1,1.73.76A1.76,1.76,0,0,1,329.37,184.84Z"/><path id="Path_286" data-name="Path 286" class="cls-7" d="M376.86,212.94a4.8,4.8,0,0,1-2.55-.77l.48-.79a3.58,3.58,0,0,0,3.19.44,5.94,5.94,0,0,0,3.37-3.55c.95-2.39,1.27-5.87-.62-8.49a8.39,8.39,0,0,0-1.37-1.36,6.34,6.34,0,0,1-2-2.36,4.86,4.86,0,0,1,.83-5c2-2.39,2.36-5,.9-7.34-.73-1.2-3.83-4-5.72-4h0a1.2,1.2,0,0,0-1.1.62l-.78-.5a2.1,2.1,0,0,1,1.88-1h0c2.47,0,5.79,3.28,6.5,4.42,1.67,2.72,1.32,5.71-1,8.42a4,4,0,0,0-.69,4.1,5.62,5.62,0,0,0,1.74,2,8.69,8.69,0,0,1,1.5,1.53c2.11,2.91,1.77,6.74.75,9.36a6.92,6.92,0,0,1-4,4.1A4.8,4.8,0,0,1,376.86,212.94Z"/><path id="Path_287" data-name="Path 287" class="cls-7" d="M368.75,207.54c-.53-.17-1.07-.3-1.6-.42a15,15,0,0,1-2.28-.69l-.45-.19a18.77,18.77,0,0,0-4-1.33l-1.83-.28c-1-.14-2.09-.3-3.13-.52a12,12,0,0,0-2.53-.2,16.67,16.67,0,0,1-1.73-.06l.08-.92c.56,0,1.1.06,1.65.06a12.43,12.43,0,0,1,2.72.21c1,.22,2.06.37,3.07.52.62.09,1.24.17,1.86.29a19,19,0,0,1,4.18,1.38l.45.19a13.45,13.45,0,0,0,2.14.63,17,17,0,0,1,1.68.46Z"/><path id="Path_288" data-name="Path 288" class="cls-7" d="M330.71,248.77a8.39,8.39,0,0,1-1.41-.12,9.49,9.49,0,0,0-2.13-.06,5.75,5.75,0,0,1-3.59-.67l-.84-.51A7,7,0,0,0,319,246H318a8.78,8.78,0,0,1-4.53-.65,6,6,0,0,1-2.51-3.87,1.86,1.86,0,0,1,.69-1.72l.56.73a1,1,0,0,0-.33.9,5.29,5.29,0,0,0,2,3.14,8.11,8.11,0,0,0,4,.55h1a7.75,7.75,0,0,1,4.21,1.56l.81.51a4.92,4.92,0,0,0,3.08.54,10.6,10.6,0,0,1,2.32.07c2.81.46,3.28-.45,3.93-1.7a6.05,6.05,0,0,1,1.06-1.59l.65.65a5.23,5.23,0,0,0-.89,1.36A3.4,3.4,0,0,1,330.71,248.77Z"/><path id="Path_289" data-name="Path 289" class="cls-7" d="M320.94,239.32l-.62-.7a8.84,8.84,0,0,0,1.93-3.56c.1-.28.2-.54.3-.79a43.31,43.31,0,0,0,2.27-10.6,57.51,57.51,0,0,1,1.5-8.45l.89.25a55.76,55.76,0,0,0-1.48,8.32,44.65,44.65,0,0,1-2.29,10.84l-.28.77A9.94,9.94,0,0,1,320.94,239.32Z"/><path id="Path_290" data-name="Path 290" class="cls-7" d="M328.75,241.76l-.92-.07a22.58,22.58,0,0,0,0-2.85,20.69,20.69,0,0,1,0-3.52c.15-1.36.37-2.72.57-4,.31-1.95.63-4,.76-6a21,21,0,0,0-.12-4.88c-.09-.45-.21-.89-.34-1.32-.38-1.24-.77-2.54-.43-3.35l.86.34a6,6,0,0,0,.45,2.74,11.85,11.85,0,0,1,.37,1.45,22.14,22.14,0,0,1,.13,5.08c-.14,2.08-.46,4.12-.76,6-.2,1.3-.41,2.66-.57,4a20.82,20.82,0,0,0,0,3.35A21.89,21.89,0,0,1,328.75,241.76Z"/><path id="Path_291" data-name="Path 291" class="cls-7" d="M345,230.54H344a27.72,27.72,0,0,0-1.39-7.21l-.1-.35c-.55-1.95-2.49-6.12-3.24-6.12h0l-.06-.92h0c2,0,4.12,6.71,4.14,6.79l.1.35A29.14,29.14,0,0,1,345,230.54Z"/><path id="Path_292" data-name="Path 292" class="cls-7" d="M371.93,223.33c-2,0-4-1.14-5.79-2.27a28.83,28.83,0,0,1-5.08-4.4,41.24,41.24,0,0,0-3.42-3.19,14.12,14.12,0,0,0-8.81-3.48l.06-.93a15.25,15.25,0,0,1,9.34,3.69,44.6,44.6,0,0,1,3.48,3.26,28.2,28.2,0,0,0,4.92,4.27c1.69,1.06,3.5,2.1,5.32,2.12Z"/><path id="Path_293" data-name="Path 293" class="cls-7" d="M352.65,198.22l-.73-.56c1.75-2.24,3.88-4.4,7.63-5.07a24.76,24.76,0,0,1,5.16-.36h.48a22.41,22.41,0,0,1,2.31.16,7,7,0,0,1,1.34.38,4.18,4.18,0,0,0,1.3.35v.93a5.67,5.67,0,0,1-1.57-.4,5.07,5.07,0,0,0-1.15-.34,18.1,18.1,0,0,0-2.21-.16h-.49a22.93,22.93,0,0,0-5,.35C356.46,194.08,354.53,195.8,352.65,198.22Z"/><path id="Path_294" data-name="Path 294" class="cls-7" d="M348.6,184.87l-.8-.46c3.2-5.59,10.14-8.94,17.74-8.46l-.05.91C358.28,176.47,351.62,179.57,348.6,184.87Z"/><path id="Path_295" data-name="Path 295" class="cls-7" d="M345.24,182.73c-.31-1.14.76-2.27,1.61-3.19.21-.23.41-.43.55-.6a33.75,33.75,0,0,0,2-2.83l.71-1a48.14,48.14,0,0,0,3.89-7l.4-.81.83.4-.4.81a47.76,47.76,0,0,1-4,7.18l-.7,1c-.67,1-1.35,2-2.09,2.87-.15.19-.36.42-.59.67-.63.66-1.58,1.66-1.4,2.3Z"/><path id="Path_296" data-name="Path 296" class="cls-7" d="M335.25,177.16h-.92a17.12,17.12,0,0,1,1.27-4.89c.35-1,.67-1.86.89-2.71a18,18,0,0,0,.46-8.45l.9-.2a19.33,19.33,0,0,1-.46,8.88,28.62,28.62,0,0,1-.93,2.8A16.68,16.68,0,0,0,335.25,177.16Z"/><path id="Path_297" data-name="Path 297" class="cls-7" d="M320.22,178.31c-.23-5.25-3.93-8.78-7.5-12.21a47.27,47.27,0,0,1-4.24-4.37c-1.09-1.35-2.91-3.95-2.75-6.29l.92.06c-.14,2.1,1.74,4.65,2.54,5.65a49.56,49.56,0,0,0,4.16,4.29c3.71,3.54,7.55,7.21,7.8,12.83Z"/><path id="Path_298" data-name="Path 298" class="cls-7" d="M309.77,195.63a20.41,20.41,0,0,1-3.9-.5c-2.92-.56-6.69-1.61-8.63-3.47l.64-.67c1.78,1.7,5.37,2.7,8,3.22,1.74.33,3.77.73,5.27.34l.23.89A6.08,6.08,0,0,1,309.77,195.63Z"/><path id="Path_299" data-name="Path 299" class="cls-7" d="M312.35,187.42c-1-2-3.67-2.92-6-3.75-.66-.24-1.3-.46-1.86-.7a52.55,52.55,0,0,0-5.43-1.84,45.24,45.24,0,0,1-6.18-2.16l.38-.83a47.31,47.31,0,0,0,6,2.11,52.83,52.83,0,0,1,5.58,1.85c.55.23,1.17.46,1.81.7,2.49.88,5.31,1.9,6.52,4.19Z"/><path id="Path_300" data-name="Path 300" class="cls-7" d="M294.15,218.54a8.5,8.5,0,0,1-3-.47l.34-.87a10.45,10.45,0,0,0,6.78-.36c2.11-.91,3.7-3.12,5.22-5.26q.95-1.38,2-2.67a10,10,0,0,1,5-3.08l.76-.23a9.08,9.08,0,0,1,3.86-.64l-.2.9a8.91,8.91,0,0,0-3.38.61c-.29.09-.56.19-.8.25a9,9,0,0,0-4.57,2.81,32.1,32.1,0,0,0-2,2.6c-1.6,2.22-3.26,4.53-5.59,5.56A12.25,12.25,0,0,1,294.15,218.54Z"/><path id="Path_301" data-name="Path 301" class="cls-7" d="M308.89,221.06l-.83-.38c.08-.17.21-.47.38-.87,3.58-8.13,5.82-12,7.26-12.54a1,1,0,0,1,.8,0l-.38.83H316c-.78.29-2.59,2.63-6.75,12.05C309.11,220.59,309,220.89,308.89,221.06Z"/></g><g id="Group_234" data-name="Group 234"><g id="Group_233" data-name="Group 233"><g id="Group_232" data-name="Group 232"><path id="Path_302" data-name="Path 302" class="cls-7" d="M27.83,173.12a7.09,7.09,0,0,1-.92-.05c-3.57-.42-6.49-3.44-8.9-9.24a25.17,25.17,0,0,1-1.68-13.93c1.13-6.44,5.29-11.66,12-15.05a21.83,21.83,0,0,1,10.31-2.55c3.78.13,8.71,1.73,10.17,5.82,1.14,3.16-.38,6.36-1.73,9.18-.25.53-.48,1-.7,1.52a130.61,130.61,0,0,1-8.36,15.38l-.54.88c-1.73,2.86-3.69,6.09-6.72,7.46h0A7.19,7.19,0,0,1,27.83,173.12Zm10.3-40a20.89,20.89,0,0,0-9.34,2.46c-4.52,2.3-10.19,6.66-11.55,14.43a24.39,24.39,0,0,0,1.62,13.4c2.28,5.47,4.95,8.31,8.17,8.7a6.26,6.26,0,0,0,3.39-.51c2.76-1.23,4.64-4.34,6.31-7.08l.54-.9a127.84,127.84,0,0,0,8.3-15.26l.71-1.53c1.28-2.67,2.71-5.68,1.71-8.48-1.32-3.66-5.85-5.1-9.34-5.22h-.52Z"/><path id="Path_303" data-name="Path 303" class="cls-7" d="M36.11,205.41c-2.17,0-2.71-1.91-3.16-3.48l-.07-.24-.09.23a2.75,2.75,0,0,1-.58,1.14,2,2,0,0,1-1.37.48h0a2.07,2.07,0,0,1-1.56-.71c-6.83-7.9-2.89-23.7-.89-30.11l.89.28c-1.54,4.9-6,21.48.7,29.25a1,1,0,0,0,.87.4,1.26,1.26,0,0,0,.77-.26,7.35,7.35,0,0,0,.32-.77c.31-.84.5-1.38,1-1.33a.79.79,0,0,1,.66.65c.08.24.15.51.23.76.58,2,1,3.16,3.07,2.73,2.38-.52,5.1-2.86,5.36-5.55.2-2.06-.89-4.14-1.85-6l-.54-1c-3.12-5.95-6-11.57-6.51-18.47a31.06,31.06,0,0,1,0-3.61h.93a29.36,29.36,0,0,0,0,3.51c.42,6.71,3.32,12.25,6.39,18.07l.55,1c1,2,2.17,4.15,1.94,6.48-.3,3.19-3.4,5.79-6.08,6.36A4.66,4.66,0,0,1,36.11,205.41Z"/><path id="Path_304" data-name="Path 304" class="cls-7" d="M48.16,198.65a3.81,3.81,0,0,1-1.11-.2c-1.86-.62-3-2.12-4.1-3.58l-1-1.33a19.46,19.46,0,0,0-2.07-2.09l.52-.75a17.55,17.55,0,0,1,2.25,2.23c.38.45.73.92,1.09,1.39,1,1.4,2,2.72,3.66,3.26a1.63,1.63,0,0,0,1.78-.24,1.48,1.48,0,0,0,.24-1,7.14,7.14,0,0,0-.33-1.59c-.1-.36-.2-.71-.28-1.07a3.34,3.34,0,0,1,.68-2.54l.27-.47a2,2,0,0,0,0-2,3.31,3.31,0,0,1-.25-2,2.43,2.43,0,0,1,.77-1.17l.14-.15A5.07,5.07,0,0,0,51.8,182c0-2.62-2-4.34-3.75-5.56l-1.27-.81a38.14,38.14,0,0,1-7.68-6.25,16.8,16.8,0,0,1-2.47-3.77l.83-.39a15.27,15.27,0,0,0,2.34,3.55,37,37,0,0,0,7.5,6.1l1.2.82c1.81,1.23,4.21,3.24,4.16,6.33a6.06,6.06,0,0,1-1.64,4l-.16.16a1.64,1.64,0,0,0-.52.73,2.45,2.45,0,0,0,.22,1.46,2.93,2.93,0,0,1-.06,2.76c-.09.17-.19.33-.29.5a2.59,2.59,0,0,0-.58,1.89c.07.33.17.66.27,1a7.86,7.86,0,0,1,.37,1.81,2.3,2.3,0,0,1-.44,1.56A2.08,2.08,0,0,1,48.16,198.65Z"/><path id="Path_305" data-name="Path 305" class="cls-7" d="M42.85,172.66a4.45,4.45,0,0,1-.78-.72,4,4,0,0,1-1-2,59.15,59.15,0,0,0-2.64-7.28l.86-.35A63.64,63.64,0,0,1,42,169.68a3.08,3.08,0,0,0,.84,1.65,3.92,3.92,0,0,0,.62.6Z"/><path id="Path_306" data-name="Path 306" class="cls-7" d="M52.64,180.94H52l.12-.91a4.24,4.24,0,0,0,3.36-1c3.16-2.73,1.14-6.08-.49-8.77-1-1.73-1.85-3.09-.91-3.91l.21-.17c.34-.28.7-.56,1-.86,2.17-1.88,2.08-2.5,1.93-3.51a7,7,0,0,1,.68-4.36,3,3,0,0,0-.75-3.2c-2.19-2.53-4.26-1.69-6.89-.62-2.06.84-4.39,1.78-7.13,1.18l.2-.9c2.47.54,4.56-.31,6.59-1.14,2.74-1.11,5.32-2.15,7.93.88a3.89,3.89,0,0,1,.91,4.17,6,6,0,0,0-.61,3.85c.19,1.32.18,2.25-2.25,4.35l-1.08.88-.19.15c-.36.31.42,1.59,1.11,2.73,1.6,2.68,4,6.71.3,9.95A5.18,5.18,0,0,1,52.64,180.94Z"/><path id="Path_307" data-name="Path 307" class="cls-7" d="M49,138.08a7.46,7.46,0,0,1-1-.06l.12-.91a7.64,7.64,0,0,0,5.91-2,34.44,34.44,0,0,0,2.71-3,61.55,61.55,0,0,1,5.94-6.25c2.22-1.91,5.49-4.44,8.27-4a3.89,3.89,0,0,1,2.77,2l.06.1a2.26,2.26,0,0,0,.23.31c.35.31,1.24.2,2,.11a6.27,6.27,0,0,1,1.3-.08c1.79.19,4.35.66,5.75,2.65,1.51,2.17,1,5.25-.36,7.18a4.86,4.86,0,0,1-5.27,2.22l.23-.89a3.91,3.91,0,0,0,4.25-1.92c1.16-1.67,1.65-4.31.37-6.13s-3.33-2.08-5.09-2.27a6.58,6.58,0,0,0-1.09.08,3.46,3.46,0,0,1-2.7-.33,2.55,2.55,0,0,1-.4-.53,3,3,0,0,0-2.18-1.62c-2.65-.42-6.32,2.76-7.52,3.8a57.54,57.54,0,0,0-5.85,6.14,32,32,0,0,1-2.81,3A8.75,8.75,0,0,1,49,138.08Z"/><path id="Path_308" data-name="Path 308" class="cls-7" d="M48.1,145.17l-.37-.85c4.12-1.78,8.22-1.36,12.18-.94,5,.53,9.65,1,14-2.8a9.3,9.3,0,0,0,2.66-3.37,3,3,0,0,0-.52-3.35c-2-2.34-5.47-.57-10.24,1.85-4.48,2.29-10,5.12-16.86,5.88l-.1-.92c6.63-.73,12.13-3.53,16.54-5.78,5.15-2.61,8.87-4.51,11.37-1.63a4,4,0,0,1,.68,4.29,10.33,10.33,0,0,1-2.92,3.73c-4.73,4.09-9.84,3.53-14.78,3C56,143.89,52,143.47,48.1,145.17Z"/><path id="Path_309" data-name="Path 309" class="cls-7" d="M64.32,168.54a10.23,10.23,0,0,1-7.44-3.39l-.29-.33.72-.58.26.31c2.27,2.63,6.83,4.18,10.24,2.13a5.69,5.69,0,0,0,2.46-3,5.14,5.14,0,0,0,.11-1.18A3.33,3.33,0,0,1,71,160a4.88,4.88,0,0,1,1.33-.76,4.14,4.14,0,0,0,1.2-.71c1.24-1.24-.1-2.83-1.57-4.36-3.8-3.93-9.75-4.61-14.5-4.76-1.63,0-3.3,0-4.9,0h-3a7.19,7.19,0,0,1-3.8-.54l.47-.79a6.6,6.6,0,0,0,3.29.42h3c1.61,0,3.3-.06,4.94,0,4.93.16,11.11.86,15.14,5,1.15,1.19,3.54,3.67,1.57,5.64a4.64,4.64,0,0,1-1.49.9,4.11,4.11,0,0,0-1.1.62c-.25.22-.28,1.18-.31,1.82a5.4,5.4,0,0,1-.17,1.44,6.63,6.63,0,0,1-2.85,3.55A7.56,7.56,0,0,1,64.32,168.54Z"/><path id="Path_310" data-name="Path 310" class="cls-7" d="M73.56,155.55h-.18l.06-.92a1,1,0,0,0,.76-.19,2.67,2.67,0,0,0,.59-1.34,3.36,3.36,0,0,1,.9-1.86,10,10,0,0,1,1.77-1.08,9.42,9.42,0,0,0,1.77-1.08c.56-.47,1-1.19-.11-2.52s-3.18-1.41-5.11-1.37c-1.7,0-3.41,0-4.6-.93l.56-.73c.94.73,2.44.73,4,.73,2,0,4.35,0,5.82,1.69,1.65,1.92.72,3.22,0,3.82A9.82,9.82,0,0,1,77.9,151a10.2,10.2,0,0,0-1.6,1,2.62,2.62,0,0,0-.61,1.38,3.36,3.36,0,0,1-.88,1.81A1.87,1.87,0,0,1,73.56,155.55Z"/><path id="Path_311" data-name="Path 311" class="cls-7" d="M54.75,138.07l-.23-.89a52.72,52.72,0,0,0,10.58-4.49c5.72-3,10.66-5.51,14.45-1.14a7.12,7.12,0,0,1,1.29,2.29l-.87.3a6,6,0,0,0-1.12-2c-3.31-3.85-7.5-1.67-13.33,1.33A52.76,52.76,0,0,1,54.75,138.07Z"/><path id="Path_312" data-name="Path 312" class="cls-7" d="M22,165.34l-.07-.92a.42.42,0,0,0,.3-.13.25.25,0,0,0,0-.24l.91-.19a1.17,1.17,0,0,1-.21,1A1.27,1.27,0,0,1,22,165.34Z"/><path id="Path_313" data-name="Path 313" class="cls-7" d="M25.4,166.71l-.43-.82a.85.85,0,0,0,.5-.87l.92-.12A1.77,1.77,0,0,1,25.4,166.71Z"/><path id="Path_314" data-name="Path 314" class="cls-7" d="M29.43,161.71l-.74-.56c.41-.53.5-.86.35-1.17l.83-.4A2,2,0,0,1,29.43,161.71Z"/><path id="Path_315" data-name="Path 315" class="cls-7" d="M27,160.46l-.55-.74a.55.55,0,0,0,.23-.38.78.78,0,0,0-.17-.57l.71-.59a1.69,1.69,0,0,1,.37,1.28A1.4,1.4,0,0,1,27,160.46Z"/><path id="Path_316" data-name="Path 316" class="cls-7" d="M37.24,157.64l-.47-.79a2.6,2.6,0,0,0,1.2-2.37h.91A3.45,3.45,0,0,1,37.24,157.64Z"/><path id="Path_317" data-name="Path 317" class="cls-7" d="M36.44,153.88l-.44-.81a1.3,1.3,0,0,0,.54-1.58l.85-.36A2.25,2.25,0,0,1,36.44,153.88Z"/><path id="Path_318" data-name="Path 318" class="cls-7" d="M41.39,148.79l-.18-.9c.89-.17,1-1.16.88-1.71L43,146a2.25,2.25,0,0,1-1.6,2.75Z"/><path id="Path_319" data-name="Path 319" class="cls-7" d="M41.25,144.49l-.46-.8c.47-.27.57-.57.45-1.39l.92-.13A2,2,0,0,1,41.25,144.49Z"/><path id="Path_320" data-name="Path 320" class="cls-7" d="M44.65,143l-.62-.7a1.22,1.22,0,0,0,.22-1.58l.82-.45A2.19,2.19,0,0,1,44.65,143Z"/><path id="Path_321" data-name="Path 321" class="cls-7" d="M38.57,141.32l-.68-.61a1,1,0,0,0,.11-1.24l.79-.47A1.94,1.94,0,0,1,38.57,141.32Z"/><path id="Path_322" data-name="Path 322" class="cls-7" d="M34.62,142.36l-.73-.56a1,1,0,0,0,0-1l.79-.45A1.8,1.8,0,0,1,34.62,142.36Z"/><path id="Path_323" data-name="Path 323" class="cls-7" d="M28.15,151.93l-.4-.83A3.15,3.15,0,0,0,29,149.42l.17-.35.83.4-.16.34A4,4,0,0,1,28.15,151.93Z"/><path id="Path_324" data-name="Path 324" class="cls-7" d="M27.83,147.29l-.32-.87c.37-.13.42-.37.48-1v-.25l.92.1v.24A1.78,1.78,0,0,1,27.83,147.29Z"/><path id="Path_325" data-name="Path 325" class="cls-7" d="M30.93,168l-.11-.94a1.79,1.79,0,0,0,1.83-1.73v-.1l.91.12A2.68,2.68,0,0,1,30.93,168Z"/><path id="Path_326" data-name="Path 326" class="cls-7" d="M32.82,164.4l-.42-.83a1.81,1.81,0,0,0,.87-1.18l.87.31A2.75,2.75,0,0,1,32.82,164.4Z"/><path id="Path_327" data-name="Path 327" class="cls-7" d="M37.09,163.42l-.54-.74a1,1,0,0,0,.39-.56l.88.25A1.83,1.83,0,0,1,37.09,163.42Z"/><path id="Path_328" data-name="Path 328" class="cls-7" d="M22.92,156.21l-.43-.82a1.32,1.32,0,0,0,.7-1.1l.91.07A2.23,2.23,0,0,1,22.92,156.21Z"/><path id="Path_329" data-name="Path 329" class="cls-7" d="M21.81,150.4a1.64,1.64,0,0,1,.36-1.52,1.54,1.54,0,0,1,1.42-.46l-.15.9a.69.69,0,0,0-.6.17.79.79,0,0,0-.14.68Z"/><path id="Path_330" data-name="Path 330" class="cls-7" d="M23,146.54l-.8-.45A2.24,2.24,0,0,1,23.7,145l.18.91A1.38,1.38,0,0,0,23,146.54Z"/><path id="Path_331" data-name="Path 331" class="cls-7" d="M25.32,140.42l-.67-.64a1.14,1.14,0,0,1,1.42-.26l-.46.81C25.56,140.31,25.47,140.26,25.32,140.42Z"/><path id="Path_332" data-name="Path 332" class="cls-7" d="M32,138.18a3.48,3.48,0,0,0-.94-.57l-.13-.06.41-.83.12.05a4.55,4.55,0,0,1,1.18.75Z"/><path id="Path_333" data-name="Path 333" class="cls-7" d="M19.5,155.25a2,2,0,0,1-1.34-.54,1.2,1.2,0,0,1-.31-.9h.92a.36.36,0,0,0,.07.24,1.06,1.06,0,0,0,.7.24Z"/><path id="Path_334" data-name="Path 334" class="cls-7" d="M19.29,159.4a1.45,1.45,0,0,1-.67-.17,1.93,1.93,0,0,1-.8-.87l.86-.35a1.13,1.13,0,0,0,.4.44.54.54,0,0,0,.43,0l.39.83A1.58,1.58,0,0,1,19.29,159.4Z"/><path id="Path_335" data-name="Path 335" class="cls-7" d="M43.27,138.24a2.19,2.19,0,0,0-1.3-1.42l.34-.85a3.1,3.1,0,0,1,1.84,2Z"/><path id="Path_336" data-name="Path 336" class="cls-7" d="M30.35,191.45c-1.2-3.27-.7-6.74-.2-10.09.43-2.94.84-5.72.18-8.39l.9-.22c.7,2.85.26,5.84-.17,8.75-.48,3.23-1,6.58.16,9.64Z"/><path id="Path_337" data-name="Path 337" class="cls-7" d="M43.08,189.2a22.08,22.08,0,0,1-2.77-3.83A30.29,30.29,0,0,1,37,177.08a34.74,34.74,0,0,0-1.39-4.45c-.12-.32-.31-.68-.5-1.07a8.16,8.16,0,0,1-1-2.53l.92-.08a7.47,7.47,0,0,0,.86,2.2c.2.4.39.79.52,1.13a35,35,0,0,1,1.43,4.57,29,29,0,0,0,3.18,8,21.87,21.87,0,0,0,2.73,3.69Z"/></g><path id="Path_338" data-name="Path 338" class="cls-7" d="M52.35,176.08c-3.08-.92-5.08-5-6.4-7.64-1.48-3-4-6.67-6.17-8l.47-.78c2.68,1.61,5.33,6,6.48,8.28s3.19,6.44,5.89,7.25Z"/></g><path id="Path_339" data-name="Path 339" class="cls-7" d="M94.4,197.3c-2.86-6.32-12-10.92-18.21-14l-.25-.12a66.43,66.43,0,0,1-13-8.45c-.39-.34-.84-.7-1.32-1.09-2.54-2-6-4.89-6.74-7.72l.9-.22c.63,2.53,4,5.25,6.42,7.23.48.39.94.75,1.34,1.09a64.81,64.81,0,0,0,12.78,8.33l.25.12c6.23,3.11,15.64,7.8,18.64,14.42Z"/></g><g id="Group_235" data-name="Group 235"><path id="Path_340" data-name="Path 340" class="cls-7" d="M226.09,99.5c6.15-7,16.82-8.78,25.3-11.42.34-.11-.54-.51-.82-.43-8.52,2.65-19.23,4.47-25.41,11.48-.2.23.73.6.93.37Z"/></g><g id="Group_236" data-name="Group 236"><path id="Path_341" data-name="Path 341" class="cls-7" d="M218.72,97.79c3.37-3.54,7.73-5.28,12.1-7.27,6-2.75,11.88-5.89,18.54-6.89.6-.09.57-.52,0-.42-5.79.88-11,3.25-16.31,5.72s-11,4.4-15.21,8.74c-.27.29.72.32.92.12Z"/></g><g id="Group_237" data-name="Group 237"><path id="Path_342" data-name="Path 342" class="cls-7" d="M209.29,97.37c7.92-8,19.44-10.14,29.4-14.69.28-.13-.55-.37-.78-.26-10,4.55-21.55,6.69-29.49,14.76C208.26,97.34,209.09,97.57,209.29,97.37Z"/></g><g id="Group_241" data-name="Group 241"><g id="Group_240" data-name="Group 240"><g id="Group_239" data-name="Group 239"><g id="Group_238" data-name="Group 238"><path id="Path_343" data-name="Path 343" class="cls-7" d="M84.58,62.38a9,9,0,0,1-4.67-1.26h0c-3.57-2.1-5.57-6.4-7.34-10.21L72,49.72a163.82,163.82,0,0,1-8.33-20.43c-.2-.64-.45-1.31-.68-2-1.28-3.71-2.74-7.9-.9-11.66,2.41-4.87,8.77-6.17,13.47-5.81a26.93,26.93,0,0,1,12.52,4.6C96,19.64,100.5,26.72,101,34.92a31.83,31.83,0,0,1-4,17.16C93.2,59,89.15,62.35,84.65,62.38Zm-4.18-2a8,8,0,0,0,4.18,1.12h.06c4.14,0,7.92-3.24,11.56-9.81A30.88,30.88,0,0,0,100.1,35c-.5-7.9-4.84-14.74-12.52-19.79a26.05,26.05,0,0,0-12-4.46c-4.41-.34-10.36.85-12.54,5.31-1.66,3.42-.28,7.42.95,11,.24.7.47,1.37.68,2a164.58,164.58,0,0,0,8.26,20.29l.56,1.2c1.72,3.68,3.66,7.85,7,9.8Z"/><path id="Path_344" data-name="Path 344" class="cls-7" d="M69.13,101.67a5.29,5.29,0,0,1-1.67-.3c-3.25-1.07-6.71-4.71-6.66-8.7,0-2.91,1.77-5.5,3.31-7.78l.83-1.24c4.67-6.93,9-13.47,10.55-21.87a38,38,0,0,0,.53-4.4l.92.06a40,40,0,0,1-.54,4.5c-1.5,8.59-6,15.2-10.7,22.22l-.85,1.23C63.4,87.58,61.74,90,61.7,92.68c-.05,3.46,3.08,6.84,6,7.82,2.62.86,3.33-.52,4.37-3,.13-.3.25-.62.38-.93.24-.53.57-.64.81-.64.55,0,.72.64,1,1.71a6.74,6.74,0,0,0,.33,1.08,1.62,1.62,0,0,0,1,.45,1.53,1.53,0,0,0,1.24-.4c9.53-8.84,6.22-30.31,5-36.68l.91-.19c1.61,8.33,4.35,28.63-5.26,37.54a2.49,2.49,0,0,1-2,.66,2.65,2.65,0,0,1-1.6-.76,3.79,3.79,0,0,1-.51-1.54,2.83,2.83,0,0,0-.17-.63l-.26.62C72.22,99.63,71.39,101.67,69.13,101.67Z"/><path id="Path_345" data-name="Path 345" class="cls-7" d="M54.81,91.77H54.5a2.69,2.69,0,0,1-2-1.36,2.81,2.81,0,0,1-.3-2,9.19,9.19,0,0,1,.71-2.17c.17-.41.33-.82.46-1.23a3.3,3.3,0,0,0-.45-2.54c-.1-.21-.2-.43-.29-.65a3.55,3.55,0,0,1,.3-3.37,3.05,3.05,0,0,0,.49-1.86,2.32,2.32,0,0,0-.58-1l-.17-.22a7.48,7.48,0,0,1-1.47-5.18c.36-3.82,3.61-6,6-7.27l1.62-.85c3.58-1.89,7.28-3.84,10.28-6.62a19.65,19.65,0,0,0,3.44-4.16l.78.48a20.05,20.05,0,0,1-3.6,4.35C66.65,59,62.89,61,59.26,62.88l-1.62.86c-2.4,1.29-5.22,3.19-5.54,6.54a6.55,6.55,0,0,0,1.3,4.52l.15.21a3,3,0,0,1,.78,1.52,4.06,4.06,0,0,1-.52,2.36,2.64,2.64,0,0,0-.27,2.59c.09.22.18.43.28.63a4.15,4.15,0,0,1,.5,3.19c-.14.44-.32.88-.5,1.31a8.8,8.8,0,0,0-.64,2,2,2,0,0,0,.18,1.33,1.71,1.71,0,0,0,1.3.92h.15c2.07,0,5.13-3.14,6.63-4.67.35-.36.64-.66.85-.85a23.8,23.8,0,0,1,3.09-2.48l.44.82A21.69,21.69,0,0,0,62.91,86l-.81.82C60.31,88.67,57.31,91.77,54.81,91.77Z"/><path id="Path_346" data-name="Path 346" class="cls-7" d="M64.69,59.65l-.47-.81a4.72,4.72,0,0,0,.89-.65,4.18,4.18,0,0,0,1.31-2,80.83,80.83,0,0,1,4.36-8.86l.82.44a77.58,77.58,0,0,0-4.33,8.77,4.91,4.91,0,0,1-1.54,2.33A6.63,6.63,0,0,1,64.69,59.65Z"/><path id="Path_347" data-name="Path 347" class="cls-7" d="M52,68.68a6.31,6.31,0,0,1-4.71-2.1c-4.18-4.49-.61-9.17,1.75-12.27,1.16-1.51,2.23-2.91,1.76-3.43l-.13-.13c-.42-.42-.88-.87-1.31-1.33-2.73-2.94-2.62-4-2.18-5.65a7.78,7.78,0,0,0-.25-5,4.86,4.86,0,0,1,1.68-5c3.63-3.37,6.7-1.72,9.94,0,2.44,1.32,5,2.71,8.15,2.35l.1.92c-3.47.34-6.26-1.14-8.69-2.47-3.21-1.72-5.73-3.08-8.88-.16a4,4,0,0,0-1.46,4.2A8.6,8.6,0,0,1,48,44.06c-.33,1.29-.53,2.08,2,4.79.42.46.86.89,1.28,1.3l.12.12c1,1.12-.16,2.68-1.67,4.65-2.42,3.19-5.46,7.16-1.81,11a5.31,5.31,0,0,0,4.15,1.81v.92Z"/><path id="Path_348" data-name="Path 348" class="cls-7" d="M62.93,15.48a10.66,10.66,0,0,1-7.76-3.71,42.66,42.66,0,0,1-3.09-4.22A74,74,0,0,0,45.61-.94c-1.36-1.46-5.42-5.85-8.86-5.85h-.17a3.93,3.93,0,0,0-3,1.67L33.49-5a2.52,2.52,0,0,1-.55.58c-.87.62-2.18.3-3.33,0a6.62,6.62,0,0,0-1.33-.16h-.21c-2.06,0-4.88.25-6.57,2.15-1.89,2.1-1.64,5.55-.41,7.88a5,5,0,0,0,5.23,3l.13.92a6,6,0,0,1-6.17-3.54c-1.38-2.57-1.6-6.42.53-8.94,1.88-2.18,5-2.5,7.26-2.5h.22a8.52,8.52,0,0,1,1.59.27c.91.22,2.06.5,2.58.12a1.44,1.44,0,0,0,.35-.39l.09-.11a4.83,4.83,0,0,1,3.66-2c3.5-.09,7.21,3.45,9.72,6.14a76.16,76.16,0,0,1,6.53,8.64,40.07,40.07,0,0,0,3,4.11,9.74,9.74,0,0,0,7,3.42H63v.89Z"/><path id="Path_349" data-name="Path 349" class="cls-7" d="M62,24.46c-4.68-2.68-9.74-2.71-14.62-2.73-6.24,0-12.69-.06-18-5.81a12.63,12.63,0,0,1-3.12-5,4.77,4.77,0,0,1,1.43-5.15c3.45-3.22,7.81-.31,13.85,3.63,5.22,3.43,11.75,7.71,20,9.55l-.2.91C53,18,46.35,13.62,41.06,10.15c-5.69-3.7-9.8-6.44-12.73-3.7a3.9,3.9,0,0,0-1.16,4.23,12.14,12.14,0,0,0,2.9,4.65c5,5.45,11,5.48,17.35,5.51,5,0,10.18.05,15,2.85Z"/><path id="Path_350" data-name="Path 350" class="cls-7" d="M39.64,51.62a9.82,9.82,0,0,1-6-1.93,8.32,8.32,0,0,1-3-4.78,7.74,7.74,0,0,1,0-1.8c.07-.87.16-2.06-.17-2.4a5.35,5.35,0,0,0-1.31-1,5.87,5.87,0,0,1-1.7-1.31c-2.15-2.66,1-5.28,2.73-6.7,5.59-4.69,13.38-4.73,19.56-4.22,2.07.16,4.16.43,6.19.69l2.85.36.92.12c1.39.2,3.11.45,4.27-.07l.38.83c-1.41.65-3.27.38-4.78.15l-.89-.08c-1-.11-1.92-.24-2.87-.36-2-.26-4.09-.53-6.14-.69-6-.47-13.59-.45-18.92,4-2,1.67-4,3.61-2.61,5.41A4.85,4.85,0,0,0,29.56,39a6.38,6.38,0,0,1,1.52,1.11c.61.65.51,1.9.43,3.12a6.53,6.53,0,0,0,0,1.53A7.31,7.31,0,0,0,34.2,49c4,3.09,10,1.75,13.3-1.26.13-.11.25-.24.38-.36l.64.65-.4.39A12.8,12.8,0,0,1,39.64,51.62Z"/><path id="Path_351" data-name="Path 351" class="cls-7" d="M28.85,34a2.28,2.28,0,0,1-1.64-.68,4,4,0,0,1-.82-2.34,3.34,3.34,0,0,0-.61-1.88,10,10,0,0,0-1.88-1.43,13.44,13.44,0,0,1-2.27-1.77c-.76-.82-1.71-2.52.55-4.62,2-1.88,4.79-1.58,7.44-1.28,2,.22,3.9.44,5.23-.37l.48.78c-1.59,1-3.63.74-5.81.5-2.45-.27-5-.55-6.71,1s-1.11,2.66-.5,3.32a11.71,11.71,0,0,0,2.1,1.61,13.32,13.32,0,0,1,2,1.58,4.21,4.21,0,0,1,.85,2.39,3.27,3.27,0,0,0,.59,1.83,1.4,1.4,0,0,0,1,.39Z"/><path id="Path_352" data-name="Path 352" class="cls-7" d="M54.65,14.64A68.11,68.11,0,0,1,41.76,7.45C35.15,3,29.9-.5,25.14,3.91a7.69,7.69,0,0,0-1.7,2.37l-.84-.39a8.55,8.55,0,0,1,1.91-2.66C29.8-1.67,35.32,2,42.32,6.66A66.28,66.28,0,0,0,55,13.78Z"/><path id="Path_353" data-name="Path 353" class="cls-7" d="M91.88,53.36a1.51,1.51,0,0,1-1.06-.7,1.39,1.39,0,0,1-.1-1.16l.87.29a.47.47,0,0,0,0,.4.63.63,0,0,0,.44.26Z"/><path id="Path_354" data-name="Path 354" class="cls-7" d="M87.51,54.63a2.11,2.11,0,0,1-.94-2.28l.9.22A1.18,1.18,0,0,0,88,53.86Z"/><path id="Path_355" data-name="Path 355" class="cls-7" d="M83.19,47.83a2.41,2.41,0,0,1-.25-2.61l.77.49c-.26.42-.18.9.27,1.65Z"/><path id="Path_356" data-name="Path 356" class="cls-7" d="M86.34,46.6a1.72,1.72,0,0,1-.56-1.26,2,2,0,0,1,.6-1.46l.65.65a1.12,1.12,0,0,0-.34.79.8.8,0,0,0,.27.6Z"/><path id="Path_357" data-name="Path 357" class="cls-7" d="M73.93,41.58a4.24,4.24,0,0,1-1.57-4.12l.91.13a3.36,3.36,0,0,0,1.23,3.26Z"/><path id="Path_358" data-name="Path 358" class="cls-7" d="M75.44,37a2.7,2.7,0,0,1-.75-3.46l.8.45A1.77,1.77,0,0,0,76,36.21Z"/><path id="Path_359" data-name="Path 359" class="cls-7" d="M69.92,29.93a2.74,2.74,0,0,1-1.56-3.52h0l.9.24a1.87,1.87,0,0,0,.93,2.42Z"/><path id="Path_360" data-name="Path 360" class="cls-7" d="M70.72,24.58A2.44,2.44,0,0,1,70,21.67l.89.24c-.24.92-.24,1.44.41,1.92Z"/><path id="Path_361" data-name="Path 361" class="cls-7" d="M66.7,22.25a2.63,2.63,0,0,1-.14-3.34l.75.54a1.68,1.68,0,0,0,.07,2.17Z"/><path id="Path_362" data-name="Path 362" class="cls-7" d="M74.56,21a2.3,2.3,0,0,1,0-2.81l.73.57a1.41,1.41,0,0,0,0,1.7Z"/><path id="Path_363" data-name="Path 363" class="cls-7" d="M79.38,22.86a2.17,2.17,0,0,1,.19-2.47l.74.54a1.3,1.3,0,0,0-.14,1.46Z"/><path id="Path_364" data-name="Path 364" class="cls-7" d="M86.1,35.72a5,5,0,0,1-1.79-2.81l-.16-.47.88-.31.16.48a4,4,0,0,0,1.41,2.33Z"/><path id="Path_365" data-name="Path 365" class="cls-7" d="M87.14,29.94a2.18,2.18,0,0,1-1-2.32v-.29h.92v.31c0,.8,0,1.2.53,1.46Z"/><path id="Path_366" data-name="Path 366" class="cls-7" d="M80.36,55.44a3.23,3.23,0,0,1-2.84-3.52h.92a2.36,2.36,0,0,0,2,2.64h.08Z"/><path id="Path_367" data-name="Path 367" class="cls-7" d="M78.52,50.7a3.37,3.37,0,0,1-1.35-2.24l.89-.21a2.41,2.41,0,0,0,1,1.68Z"/><path id="Path_368" data-name="Path 368" class="cls-7" d="M73.32,48.9a2.34,2.34,0,0,1-.73-1.36l.9-.14a1.49,1.49,0,0,0,.45.81Z"/><path id="Path_369" data-name="Path 369" class="cls-7" d="M92.07,41.8A2.67,2.67,0,0,1,91,39.43h.92A1.76,1.76,0,0,0,92.64,41Z"/><path id="Path_370" data-name="Path 370" class="cls-7" d="M94.09,34.73l-.86-.32a1,1,0,0,0-.1-1,.93.93,0,0,0-.82-.35v-.92a1.87,1.87,0,0,1,1.61.72A2,2,0,0,1,94.09,34.73Z"/><path id="Path_371" data-name="Path 371" class="cls-7" d="M93.37,29.72a1.85,1.85,0,0,0-1-1.06l.28-.88a2.63,2.63,0,0,1,1.62,1.59Z"/><path id="Path_372" data-name="Path 372" class="cls-7" d="M91.29,21.7c-.24-.3-.42-.22-.5-.19l-.36-.84a1.28,1.28,0,0,1,1.58.47Z"/><path id="Path_373" data-name="Path 373" class="cls-7" d="M83.06,18l-.56-.72A4.62,4.62,0,0,1,84,16.49l.17-.06.3.86-.17.06A4.35,4.35,0,0,0,83.06,18Z"/><path id="Path_374" data-name="Path 374" class="cls-7" d="M96.65,41.07h-.22l.07-.93a1.42,1.42,0,0,0,1-.24.48.48,0,0,0,.17-.37h.93a1.45,1.45,0,0,1-.48,1A2.2,2.2,0,0,1,96.65,41.07Z"/><path id="Path_375" data-name="Path 375" class="cls-7" d="M96.3,46.3a1.56,1.56,0,0,1-.82-.23l.48-.8a.66.66,0,0,0,.64,0,1.29,1.29,0,0,0,.62-.53l.78.48a2.34,2.34,0,0,1-1.07.92A2,2,0,0,1,96.3,46.3Z"/><path id="Path_376" data-name="Path 376" class="cls-7" d="M68.87,16.49l-.85-.4A3.79,3.79,0,0,1,70.53,14l.25.88A2.81,2.81,0,0,0,68.87,16.49Z"/><path id="Path_377" data-name="Path 377" class="cls-7" d="M77.68,85l-.78-.41c1.85-3.69,1.69-8,1.55-12.12-.13-3.68-.27-7.48,1-10.94l.86.32c-1.2,3.28-1.07,7-.93,10.59C79.49,76.71,79.65,81.1,77.68,85Z"/><path id="Path_378" data-name="Path 378" class="cls-7" d="M62.07,80.37l-.59-.7a27.37,27.37,0,0,0,3.86-4.26,36.84,36.84,0,0,0,5.12-9.68,46.06,46.06,0,0,1,2.42-5.53c.22-.4.51-.85.81-1.33a9.29,9.29,0,0,0,1.41-2.68l.9.18a10.36,10.36,0,0,1-1.53,3c-.29.45-.58.88-.78,1.26a44.12,44.12,0,0,0-2.35,5.42A38.33,38.33,0,0,1,66.08,76,27.84,27.84,0,0,1,62.07,80.37Z"/></g><path id="Path_379" data-name="Path 379" class="cls-7" d="M52.33,62.58l-.17-.91c3.56-.65,6.59-5.39,8.4-8.22l.08-.11c1.75-2.73,5.66-7.75,9.23-9.44l.39.84c-2.93,1.35-6.62,5.66-8.83,9.09l-.07.12C59.32,57.1,56.27,61.85,52.33,62.58Z"/></g><path id="Path_380" data-name="Path 380" class="cls-7" d="M-3.4,83.44-4.2,83c4.65-7.84,17.07-12.4,25.28-15.41l.35-.13a81.61,81.61,0,0,0,17.22-8.69c.54-.36,1.16-.75,1.81-1.17,3.36-2.16,8-5.11,9.11-8.23l.87.32c-1.27,3.4-6,6.45-9.48,8.68-.65.42-1.26.81-1.79,1.18a83.26,83.26,0,0,1-17.43,8.77l-.35.13C13.3,71.38,1.07,75.88-3.4,83.44Z"/></g><path id="Path_381" data-name="Path 381" class="cls-7" d="M-7.52,95.78a.52.52,0,0,1-.49-.3c-.14-.3-.35-.76,4.76-4.6a78.63,78.63,0,0,1,8.6-5.59c3.64-2.07,7.44-3.93,11.11-5.74,2.91-1.43,5.93-2.92,8.82-4.49l.43.82c-2.9,1.56-5.92,3-8.85,4.49-3.65,1.81-7.44,3.67-11,5.73a76.27,76.27,0,0,0-8.5,5.52A36.62,36.62,0,0,0-7.15,95.4a.4.4,0,0,0,0-.37.32.32,0,0,0-.33-.17l.22.89A.57.57,0,0,1-7.52,95.78Z"/><path id="Path_382" data-name="Path 382" class="cls-7" d="M-3.51,98.79l-.67-.64c5.9-6,13.52-9.67,20.91-13.23,2.84-1.36,5.78-2.79,8.55-4.32l.44.82c-2.79,1.53-5.74,3-8.59,4.33C9.82,89.27,2.26,92.91-3.51,98.79Z"/><path id="Path_383" data-name="Path 383" class="cls-7" d="M.86,101.93l-.69-.62C2.85,98.3,6.92,96,10.52,94c.56-.31,1.12-.62,1.65-.93l2.43-1.41c4-2.36,8.55-5,12.79-6l.2.91c-4.1.9-8.57,3.53-12.51,5.86l-2.42,1.47-1.67,1C7.44,96.79,3.43,99.05.86,101.93Z"/><path id="Path_384" data-name="Path 384" class="cls-7" d="M5.56,106,5,105.23a66.06,66.06,0,0,1,23.17-11.6l.23.91A64.77,64.77,0,0,0,5.56,106Z"/></g><g id="Group_246" data-name="Group 246"><path id="Path_427" data-name="Path 427" class="cls-7" d="M110,251.26C95,246.42,87.7,238.83,80.3,227.33l.87-.56c7.27,11.29,14.38,18.76,29.16,23.51Z"/></g><g id="Group_247" data-name="Group 247"><path id="Path_428" data-name="Path 428" class="cls-7" d="M103.55,254.55c-11.65-2.07-19.08-4.82-27.3-14.05l.79-.69c8,9,15,11.66,26.7,13.74Z"/></g><g id="Group_248" data-name="Group 248"><path id="Path_429" data-name="Path 429" class="cls-7" d="M98.91,261.19c-9.79,0-20.9-4.53-28.35-11.68l.71-.75c7.85,7.54,19.85,12.05,29.88,11.3l.08,1A20,20,0,0,1,98.91,261.19Z"/></g><path id="Path_430" data-name="Path 430" class="cls-7" d="M285.9,121.88a4.19,4.19,0,0,1-3.64-1.84,1.44,1.44,0,0,1-.41-1.73c.56-1.83,3.58-4.63,5.88-4.45,1,.08,2.28.73,2.61,3.35a4.28,4.28,0,0,1-2.39,4.23A5,5,0,0,1,285.9,121.88Zm1.58-7c-1.75,0-4.2,2.33-4.64,3.73-.15.49,0,.58.06.61l.14.07.07.13c.79,1.44,3,1.76,4.39,1.07a3.15,3.15,0,0,0,1.81-3.15c-.2-1.55-.75-2.38-1.67-2.46Z"/><path id="Path_431" data-name="Path 431" class="cls-7" d="M202.29,87.81a2.94,2.94,0,0,1-2.56-1.3,1.18,1.18,0,0,1-.31-1.34c.4-1.31,2.49-3.28,4.16-3.13.6,0,1.67.43,1.92,2.42a3,3,0,0,1-1.72,3A3.49,3.49,0,0,1,202.29,87.81Zm1.11-4.75a3.65,3.65,0,0,0-2.2,1.24c-.72.75-.85,1.3-.82,1.4l.13.07.07.12a2.19,2.19,0,0,0,2.75.66,2,2,0,0,0,1.13-2c-.07-.57-.26-1.31-.78-1.48a1.31,1.31,0,0,0-.28,0Z"/><path id="Path_432" data-name="Path 432" class="cls-7" d="M79.52,204.19a4.19,4.19,0,0,1-3.63-1.83,1.45,1.45,0,0,1-.41-1.74c.56-1.81,3.53-4.63,5.88-4.44,1,.09,2.27.74,2.61,3.35a4.22,4.22,0,0,1-2.4,4.22A4.85,4.85,0,0,1,79.52,204.19Zm1.58-7c-1.75,0-4.2,2.32-4.64,3.72-.15.5,0,.59.06.62l.14.07.07.13c.79,1.44,3,1.75,4.39,1.07a3.2,3.2,0,0,0,1.8-3.1c-.2-1.55-.75-2.37-1.67-2.46h-.16Z"/></g></g></g></g><g class="cls-2"><g id="header_girl" data-name="header girl"><g id="Group_255" data-name="Group 255"><path id="Path_86" data-name="Path 86" class="cls-8" d="M.89,299.54S-56.68,258.22-21.35,235c18.29-7,10.89-31.54,10.89-31.54S-13.72,188.13,11,182.78c22.56-9.25-4-39.49-4-39.49S-.78,131,18.79,118.39c1-.67,2.6-4.19,2.6-4.19a22.56,22.56,0,0,0,.47-4.42c-.34-22.58,22-27.1,22-27.1s18.23-19.36,34.8,3.16c22.79-.25,25.82,16.33,25.82,16.33s19.49,37,4,47.83,15.06,22.28,15.06,22.28,29.4,7.94,20.25,35.94c-5,16.45,24.93,33.12,24.93,33.12s39.64,27.48-35.94,54.8c-7-2.28-65.68-26.2-84.31,1.77S.89,299.54.89,299.54Z"/><path id="Path_88" data-name="Path 88" class="cls-9" d="M85.4,90.93s13-2.29,14,12.46c-1.28,14.28,7,18.86,7,18.86s8.7,7.33,0,19.23c-11.36,26.1,3.3,31.68,3.3,31.68s16.36,7.14,23.77,17.2-2.06,21.08,4.86,31.34"/><path id="Path_14" data-name="Path 14" class="cls-10" d="M18.75,162.93l.14-1c.24.63.41,1.13.95,1.29,1.11,3.24.25,6.27-1.12,9.16A12.49,12.49,0,0,1,10.34,179c-3.44,1-6.94,1.66-10.43,2.34a69.49,69.49,0,0,0-9.55,2.4,17.06,17.06,0,0,0-11.89,16.59c0,4.91,1.09,9.65,2,14.42,1.07,5.37,2.49,10.7,2.38,16.24a4.14,4.14,0,0,1-.75,2.89c-.57,0-.81.84-1.48.59,1.18-5.58,0-11-1.15-16.41-1.4-6.58-3.16-13.14-2.53-19.94.67-7,4.41-12,10.81-15,5.6-2.59,11.74-3.19,17.65-4.64,1.7-.41,3.41-.8,5.07-1.35,5.59-1.83,7.71-5.93,8.24-11.62A21.45,21.45,0,0,0,18.75,162.93Z"/><path id="Path_87" data-name="Path 87" class="cls-11" d="M45.41,209.41A109.18,109.18,0,0,1,21.19,222c-.57-.13-23.85,1.36-25.5,23s6.59,55.56,6.59,55.56S31.53,327,50,296c26.38-24.91,68.48-1.83,68.48-1.83s13.2,4.33,17.37,1.13c.74-.54,4.57-25.44,8.44-50.92,3.78-17.38.06-33.93-9.25-33.86-10-2-23.49-1.81-23.49-1.81S91,206.84,91,204.19C90.82,202.69,45.41,209.41,45.41,209.41Z"/><path id="Path_15" data-name="Path 15" class="cls-12" d="M32.73,142.48c2.47-1,3.82,1,5.64,2.19.24-2,.13-3.86.84-5.67,1.67-4.36,4.45-7.53,9-9,3.88-1.22,7.88-2,11.8-3,8.41-2.32,12.82-8.23,15.16-16.14a27.65,27.65,0,0,1,2.15-5.33,1.08,1.08,0,0,1,1.31-.69c5.33.64,7.32,2.44,8.74,7.91,1,3.87,2.78,7.18,6.5,8.83,2.81,1.24,3.83,3.32,4.4,6A75,75,0,0,1,100,144.79a68.66,68.66,0,0,1-1.71,15.12c-.1.4-.52.93.11,1.16s.86-.35,1-.83a2.87,2.87,0,0,1,3-2.19c.36-.23.49.14.7.28,1.39,1,1.86,2.34.84,3.75-.87,1.2.2,2.08.14,3.11-.28.53,0,1.17-.32,1.69-2.66,6.12-5,12.36-7.47,18.57-1,3.11-2.1,6.22-3,9.4-.62,2.78-.8,5.7-2.51,8.15a2.46,2.46,0,0,0-.2,1.49c-2.32,3.31-3.41,7.22-5.13,10.82-.62,1.31-1,2.75-1.71,4-2.52,5.1-1.68,10.22-.27,15.36.47,1.75,1.19,3.42,1.52,5.2q3.42,9.78,7.26,19.38c2.95,7.42,5.93,12.77,9,20.15.9,2.18,1.94,4.33,2.82,6.54.3.75.89,1.48.55,2.39-5.44-1.45-11.19-2.44-16.72-3.54a82.34,82.34,0,0,0-11.54-.28c-.33-1.71-.34-2.47-.59-3.44-2.15-7.86-4-13.77-5.83-21.71-1-4.51-2-9-2.92-13.59-.46-2.15-.54-2.12-2.68-2a36.43,36.43,0,0,1-3.91,0,2.36,2.36,0,0,0-2.6,1.88c-2.55,7.37-5.19,14.72-7.63,22.08-.94,2.84-2.13,5.6-2.87,8.51-.12.45-6.09,29.77-10.48,32.47-.19.05-6.69,4.53-21,0-3.41-1-9.46-3.95-9.88-5-.84-2.09,18.42-26.79,18-29a17.37,17.37,0,0,1,2.19-4.75c.7-.85,5.68-13.1,5.91-13.62q3.88-8.58,7.86-17.14a75.92,75.92,0,0,1,5.25-10.81,20.34,20.34,0,0,0,2.64-10.53q.09-9,.83-17.92c.1-1.19-.18-2.37-.12-3.55a3.63,3.63,0,0,1,.45-2.12C46.78,183.7,42.41,173.83,37.8,164c-.28-.6-.56-1.31-.27-1.8.83-1.4,0-1.89-.94-2.74-3.71-3.43-6.87-11.52-4.86-15.74C32.19,143.43,32,142.61,32.73,142.48Z"/><path id="Path_25" data-name="Path 25" class="cls-13" d="M40.27,239.65c-.15-.83-.93-.94-1.51-1.22a43.55,43.55,0,0,1-17-14.74A12.32,12.32,0,0,1,21,222a65.75,65.75,0,0,0,6.63-2.7,43.82,43.82,0,0,1,5-2.3c2.88-1.69,3-1.65,5.42-3s4-2.46,6.37-3.94c1-.65,2.32-1.45,2-3a58.27,58.27,0,0,1-1.49-11.54c0-1.82,1-2.46,2.69-1.52a2,2,0,0,0,1.39.31,129.74,129.74,0,0,1-.6,16.49c-.14,1.92,0,3.86,0,5.78a55.28,55.28,0,0,1-.65,7.39,9.11,9.11,0,0,1-1.27,2.91C44.37,231.16,42.34,235.4,40.27,239.65Z"/><path id="Path_26" data-name="Path 26" class="cls-14" d="M20.44,187.34c5.37-4.52,9.6-9.86,11.44-16.77.73-2.79-.22-5.44-1.54-7.95C28,158.11,25,154,22.46,149.57a23.6,23.6,0,0,1-3.38-10.51c-.17-3.46-.23-6.82,1.29-10,1.2-2.53,3.33-4.21,5.32-6s4.58-3.13,6.32-5.33,2.13-4.62,2.4-7.12a15.51,15.51,0,0,1,11.3-13.37c3.68-1,7.51-1.68,10.7-4,2.14-1.55,4.27-3.11,6.41-4.65,4.26-3,8.55-2.8,12.46.72a20.51,20.51,0,0,1,4.38,5.55c.25.47.61,1,0,1.67a39.19,39.19,0,0,0-4.14-5.69c-3.74-4.07-7.94-4.47-12.48-1.3-3.48,2.44-6.66,5.37-10.78,6.85-2.13.78-4.42.85-6.52,1.72-3.65,1.52-7,3.35-8.86,7.12a27.67,27.67,0,0,0-2,7.8,10.61,10.61,0,0,1-4.31,7.33c-2.23,1.63-4.37,3.38-6.45,5.2-3,2.65-4.15,6-4.31,10-.22,5.93,1.74,11,4.84,15.93,2.06,3.24,4.14,6.46,6,9.8,3.38,5.85,2.44,11.29-1,16.73a55.13,55.13,0,0,1-7.38,9c-.42.45-1,.88-1.39,1.35-.78.67-1.23,1.12-2.23,2a79.94,79.94,0,0,1-10.41,6.57c-1,.5-2.09.83-3.12,1.28-3.43,1.52-4.77,4.34-4.69,7.9.09,4,1,8,.65,12a15.74,15.74,0,0,1-3.49,9.4c0-1.59,1-2.82,1.56-4.21a21,21,0,0,0,1.1-9.62A47.77,47.77,0,0,1-.2,204c.34-3.22,2.33-5.25,5.22-6.54a47.58,47.58,0,0,0,12.77-7.81A21.83,21.83,0,0,0,20.44,187.34Z"/><path id="Path_31" data-name="Path 31" class="cls-15" d="M72.68,113.35c-2.44,7.52-7.83,11-14.66,12.72-2.57.68-5.16,1.25-7.74,1.86-4,1-7.67,2.66-10.25,6.38-.37-1.51.62-2,1.35-2.62a54.47,54.47,0,0,1,13.15-7.31,50.44,50.44,0,0,1,6.08-2.15,19.84,19.84,0,0,0,10.73-7.3C71.68,114.49,72.06,114.08,72.68,113.35Z"/><path id="Path_34" data-name="Path 34" class="cls-16" d="M32.73,142.48c-.38.4-.17,1.27-1,1.28-1.55-10.59,1.91-19.21,10.36-25.75,3-2.32,6.61-3.62,10.2-4.8,4.28-1.41,8.68-2.47,12.79-4.33,4.52-2,8.41-4.85,10.56-9.56.06-.12.22-.2.46-.42a4.46,4.46,0,0,1-1,3.22A20.29,20.29,0,0,1,69,107.83c-4.29,2.65-9.15,3.79-13.85,5.37-5.29,1.76-10.64,3.46-14.89,7.34a25.31,25.31,0,0,0-6.33,9.5,26.7,26.7,0,0,0-1.83,10A3.68,3.68,0,0,0,32.73,142.48Z"/><path id="Path_35" data-name="Path 35" class="cls-16" d="M.45,284.89c.38.4.26.89.23,1.37A20,20,0,0,1-3.57,283c-4.83-4.24-9.52-8.59-13-14.14-2.49-4-2.72-8.21-2.25-12.57.61-5.74,3.13-10.88,5.56-16.06.16-.34.32-.9.77-.73.67.26.18.77,0,1.12a89,89,0,0,0-4.66,11.57c-2.17,7.41-1.17,14,3.93,19.91A103.9,103.9,0,0,0-.46,284.49,1.46,1.46,0,0,0,.45,284.89Z"/><path id="Path_36" data-name="Path 36" class="cls-17" d="M28.66,204.37c.11-.24,2.47-3.39,3.32-4.79a51.4,51.4,0,0,0,7.26-18.91,10.09,10.09,0,0,1,.34-1.31,3.33,3.33,0,0,1,.36-.56c.66,1.51,0,2.8-.25,4A53.33,53.33,0,0,1,33.39,199c-.3.53-.53.92-.91,1.7-.92,1.47-1.54,2.94-2.47,4.39a22.72,22.72,0,0,1-2.14,2.46c-1.59,1.48-2.8,3.32-4.4,4.8a51.23,51.23,0,0,1-4.6,3.85c-1.34.4-2.15,1.59-3.32,2.21-.31.17-.63.67-1,.14s.26-.51.43-.76c.56-.8,1.64-.93,2.1-1.79a18.43,18.43,0,0,1,4.77-4.16l4.72-4.55C26.83,207,28.34,204.69,28.66,204.37Z"/><path id="Path_50" data-name="Path 50" class="cls-18" d="M163.92,251.68l-1-.17a20.06,20.06,0,0,0-4.84-6.21,38.28,38.28,0,0,0-7-5.52c-.31-.17-.77-.48-.48-.93s.6-.13.89.08a44.06,44.06,0,0,1,12,11.48A1.64,1.64,0,0,1,163.92,251.68Z"/><path id="Path_53" data-name="Path 53" class="cls-13" d="M111.37,208.58A42.46,42.46,0,0,1,108,218.83,38.24,38.24,0,0,1,96.5,233a48.31,48.31,0,0,1-10.57,6c-.5.2-1.12.33-1.18,1.05a58.3,58.3,0,0,1-3-12.55c-.34-3.67,1.14-6.83,2.48-10,1.54-3.69,3.16-7.33,4.68-11a5.8,5.8,0,0,1,1.8-2.33,4.62,4.62,0,0,1,1.46.37,47.49,47.49,0,0,0,14.5,3.55C107,208,109,208.35,111.37,208.58Z"/><path id="Path_61" data-name="Path 61" class="cls-19" d="M41.58,155.34c-.81-.24-.9-.47-.3-1.2,1.43-1.72,3.35-1.68,5.3-1.37A2.89,2.89,0,0,1,49,154.9c.87,2.65,1.84,3.22,4.66,2.78,3.37-.52,5,.86,5,4.31a11.26,11.26,0,0,1-.05,2c-.57,2.86.85,4.69,3,6.26,1.55,1.12,3,2.36,3.26,4.51a3.83,3.83,0,0,1-2.14,4.31,2.25,2.25,0,0,1-1.15-1.18,29.35,29.35,0,0,0-5-7.13c-1.63-1.75-2.29-4.11-3.22-6.29-1.08-2.5-2.13-5-4.75-6.35a7.19,7.19,0,0,1-1.91-1.9C44.78,154.07,44.15,154,41.58,155.34Z"/><path id="Path_63" data-name="Path 63" class="cls-20" d="M79.81,188.46a14,14,0,0,0-.56,2.23c-.35,2.87-2.49,4.7-4.2,6.73-.88,1.05-2.22,0-3.32-.18-1.53-.28-3-.78-4.56-1.08s-2.2-.91-2.16-2.49c0-1.41-.24-2.8-.29-4.21,0-.81.2-1,1.13-.62a15.8,15.8,0,0,0,10.24.74C77.32,189.25,78.66,189.29,79.81,188.46Z"/><path id="Path_65" data-name="Path 65" class="cls-21" d="M41.58,155.34c1.43-1.76,3.29-1.91,4.66-.24a12.91,12.91,0,0,0,4,3.73,5,5,0,0,1,1.92,2.51c.81,1.67,1.57,3.36,2.3,5.07a16.19,16.19,0,0,0,3.62,5.64c2.08,2,3,4.72,4.57,7-1.09.24-1.3-.71-1.69-1.33-.7-1.1-1.25-2.29-1.95-3.38s-1.42-2.07-3-1.73c-.65.15-.83-.36-1-.88-1.08-2.89-2.16-5.79-3.29-8.67a17.34,17.34,0,0,0-1.29-2.72,2.19,2.19,0,0,0-3-.76h0l-.24.17c-.89.71-1.21.48-1.58-.39-.3-.72-.71-1.4-1-2.12A2.88,2.88,0,0,0,41.58,155.34Z"/><path id="Path_66" data-name="Path 66" class="cls-22" d="M78.16,164.54a15.74,15.74,0,0,1-4.21-.43c-.57-.12-1.42-.24-1.21-1.09s.88-.5,1.46-.37a18.57,18.57,0,0,0,5.71.49c2-.17,2.36-.78,1.85-2.64a33.61,33.61,0,0,1-1-7.87c-.13-3.84,0-7.7,0-11.54,0-.62,0-1.4.91-1.31s.52.77.5,1.33c-.18,6.55-.5,13.11,1.16,19.56.49,1.91-.33,3.13-2.27,3.68A12.24,12.24,0,0,1,78.16,164.54Z"/><path id="Path_67" data-name="Path 67" class="cls-23" d="M83.42,177.78c-.17-.35-.44-.74-.25-1.12,1.08-2.23,1.23-4.65,1.59-7a2.25,2.25,0,0,1,2.14-2,13.28,13.28,0,0,0,1.66-.37C89.94,166.8,91,166,91,164.4a2,2,0,0,1,1.56-2.17c1-.19,2.12-.26,2.74.91A15.78,15.78,0,0,1,90,169.41c-2.58,1.69-3.73,4.59-5.16,7.21C84.57,177.19,84.54,178.2,83.42,177.78Z"/><path id="Path_69" data-name="Path 69" class="cls-24" d="M70.14,135.79c-.25.75-.8.6-1.41.33a22.87,22.87,0,0,0-5.51-1.58,18.05,18.05,0,0,0-9.62,1c-.26.1-.53.17-.79.27-.47.17-.93.27-1.16-.28s.2-.78.62-1a15.38,15.38,0,0,1,5.18-1.47A20.67,20.67,0,0,1,69,134.75C69.45,134.93,70,135.07,70.14,135.79Z"/><path id="Path_70" data-name="Path 70" class="cls-25" d="M99.4,136.93c-.16.48-.39.86-1,.59a3.06,3.06,0,0,1-.53-.42c-3.62-2.93-7.59-3.14-11.81-1.57-.22.08-.42.19-.63.27-.52.21-1.17.53-1.46-.2s.42-.83.88-1a12.88,12.88,0,0,1,11.3-.18,18.93,18.93,0,0,1,2.62,1.51A1.2,1.2,0,0,1,99.4,136.93Z"/><path id="Path_71" data-name="Path 71" class="cls-26" d="M83.42,177.78c.66,0,.73-.59,1-1,1.7-3.21,3.18-6.52,6.6-8.49,2-1.12,2.9-3.37,4.3-5.11-.4,2.22-2.18,3.74-2.93,5.78-4.39,1.24-4.76,5.73-7,8.73C84.65,178.63,84.14,178.7,83.42,177.78Z"/></g></g></g></g></g></svg>