<?xml version="1.0" encoding="utf-8"?>
<!-- Generator: Adobe Illustrator 24.0.0, SVG Export Plug-In . SVG Version: 6.00 Build 0)  -->
<svg version="1.1" id="Layer_1" xmlns="http://www.w3.org/2000/svg" xmlns:xlink="http://www.w3.org/1999/xlink" x="0px" y="0px"
	 viewBox="0 0 375.3 280.5" style="enable-background:new 0 0 375.3 280.5;" xml:space="preserve">
<style type="text/css">
	.st0{clip-path:url(#SVGID_2_);}
	.st1{fill:#F6D3D7;}
	.st2{clip-path:url(#SVGID_4_);}
	.st3{fill:#CAD6EC;}
	.st4{opacity:0.36;}
	.st5{fill:#FFFFFF;}
	.st6{clip-path:url(#SVGID_6_);}
	.st7{fill:#7270AF;}
	.st8{fill:none;stroke:#8A89CA;stroke-width:2;}
	.st9{fill:#6D6AAB;}
	.st10{fill:#FF846B;}
	.st11{fill:#D7B99F;}
	.st12{fill:#D0B099;}
	.st13{fill:#8A89CA;}
	.st14{fill:#D9BB9F;}
	.st15{fill:#8A89CB;}
	.st16{fill:#8989CC;}
	.st17{fill:#8B8ACB;}
	.st18{fill:#FDFDFD;}
	.st19{fill:#C6A48F;}
	.st20{fill:#D1D1D0;}
	.st21{fill:#6E6DAF;}
	.st22{fill:#FCFCFB;}
	.st23{fill:#6F6EAE;}
	.st24{fill:#6E6EAE;}
	.st25{fill:#D2D2D1;}
</style>
<title>Layer 1</title>
<g id="Layer_2_1_">
	<g id="Layer_1-2">
		<g>
			<defs>
				<rect id="SVGID_1_" x="0.4" y="0.5" width="375" height="279.8"/>
			</defs>
			<clipPath id="SVGID_2_">
				<use xlink:href="#SVGID_1_"  style="overflow:visible;"/>
			</clipPath>
			<g class="st0">
				<g id="header_bg">
					<g id="Group_518">
						<g id="Group_254">
							<rect id="Rectangle_5" x="0.3" y="0.5" class="st1" width="375" height="355"/>
							<g>
								<defs>
									<rect id="SVGID_3_" x="0.3" y="0.5" width="375" height="355"/>
								</defs>
								<clipPath id="SVGID_4_">
									<use xlink:href="#SVGID_3_"  style="overflow:visible;"/>
								</clipPath>
								<g class="st2">
									<g id="Mask_Group_1">
										<ellipse id="Ellipse_12" class="st3" cx="333.8" cy="155.5" rx="223.5" ry="242"/>
									</g>
								</g>
							</g>
						</g>
						<g id="Group_253" class="st4">
							<g id="Group_227">
								<path id="Path_196" class="st5" d="M302.6,132l-0.2-0.9c3.4-0.7,6.9-0.9,10.4-0.7c2.4,0.1,4.7,0.1,7.1-0.1
									c5.5-0.6,10.7-2.3,15.5-5c8.7-4.9,16.4-13.1,22.2-23.7c5.3-9.8,8.6-20.6,9.9-31.7c0.2-2.1,0.4-4.2,0.6-6.4
									c0.5-6.8,1.1-13.7,4-19.6c-7,6.9-15.6,11.9-23.9,16.8c-10.6,6.2-21.6,12.7-29.2,22.9c-7.3,9.9-10.5,23.3-9,37.9l-0.9,0.1
									c-1.5-14.8,1.7-28.5,9.2-38.5c7.7-10.4,18.8-16.9,29.5-23.2c9.8-5.7,19.8-11.7,27.3-20.5l0.7,0.6
									c-5.4,6.4-6.1,15.2-6.8,23.7c-0.2,2.2-0.4,4.4-0.6,6.5c-1.3,11.2-4.7,22.1-10,32c-5.9,10.7-13.7,19-22.6,24
									c-4.9,2.8-10.3,4.5-15.8,5.2c-2.4,0.2-4.8,0.2-7.2,0.1C309.4,131.1,305.9,131.3,302.6,132z"/>
								<path id="Path_197" class="st5" d="M318.3,122.7l-0.6-0.7c11.5-9.2,18.7-22.4,25.8-35.2c5.5-9.9,11.1-20.1,18.6-28.6
									l0.7,0.6c-7.5,8.4-13.1,18.6-18.5,28.4C337.2,100.1,329.9,113.4,318.3,122.7z"/>
								<path id="Path_198" class="st5" d="M339.3,96.5l-0.3-0.9c6.5-2.4,12.9-5,19.2-7.8l0.4,0.8C352.3,91.5,345.8,94.1,339.3,96.5
									z"/>
								<path id="Path_199" class="st5" d="M336.6,101l-0.2-0.9c6.6-1.8,13-4,19.3-6.6l0.4,0.8C349.7,97,343.2,99.2,336.6,101z"/>
								
									<rect id="Rectangle_182" x="329.9" y="107" transform="matrix(0.9715 -0.2368 0.2368 0.9715 -15.8068 83.3371)" class="st5" width="18.1" height="0.9"/>
								<path id="Path_200" class="st5" d="M327.6,113.7l-0.2-0.9c4.6-1,9.1-2.2,13.6-3.5l0.3,0.9
									C336.8,111.5,332.2,112.7,327.6,113.7z"/>
								<path id="Path_201" class="st5" d="M324.8,118.2c-0.5,0-1,0-1.5-0.1l0.1-0.9c2.4,0.1,4.8-0.1,7.1-0.8l9.7-2.1l0.2,0.9
									l-9.7,2.1C328.7,117.9,326.7,118.2,324.8,118.2z"/>
							</g>
							<g id="Group_229">
								<g id="Group_228">
									<path id="Path_202" class="st5" d="M181.8,214.7c-2.7,0-5.4-0.4-8-1.1c-10.3-2.8-17.4-10.2-20.1-20.7
										c-3.3-13,0.8-27.8,10.3-37l0.3,0.3l-0.3-0.3c4.8-4.6,10.7-7.8,17.2-9.3c10.7-2.4,21.8-0.5,29.6,5.2
										c6.1,4.4,10,11.3,10.5,18.8c1.1,12.1-5.1,25.8-15.8,34.8C198.2,211.5,189.9,214.7,181.8,214.7z M190.3,146.5
										c-3,0-6,0.3-8.9,1c-6.3,1.4-12.1,4.6-16.8,9.1c-9.2,8.9-13.3,23.5-10.1,36.1c2.6,10.2,9.5,17.3,19.4,20.1
										c10.2,2.8,21.4-0.1,30.9-8.1c10.5-8.8,16.6-22.1,15.5-33.9c-0.5-7.3-4.3-13.9-10.2-18.2
										C204.4,148.5,197.4,146.4,190.3,146.5z"/>
									<path id="Path_203" class="st5" d="M228.6,240.5c-2.1,0-4.6-0.9-7-3.7c-1.7-2.1-3-4.4-4.1-6.9c-1.1-2.3-2.1-4.7-3.1-7
										c-2.7-6-5.4-12.3-8.7-18.1l0.8-0.4c3.3,5.8,6.1,12.1,8.8,18.2c1,2.3,2.1,4.7,3.1,7c1,2.4,2.3,4.6,3.9,6.6
										c4.4,5.1,8.9,3.2,10.2,2.1s1.9-3.6,2.3-5.4c0.4-1.6,0.6-2.6,1.3-2.8c0.4-0.1,0.7,0.1,1.1,0.5c2.1,2.5,5.3,3.9,8.5,3.6
										c3.4-0.3,6.6-1.7,9.1-3.9c4-3.4,4.8-7.4,5.4-10.3c0.4-1.9,0.7-3.4,1.7-4.2c0.6-0.5,1.3-0.8,2-1c0.7-0.2,1.4-0.5,2-0.9
										c2-1.7,0-5.3-1-7.2c-0.6-1.2-0.9-1.7-0.5-2l0.1-0.1h0.2c1.9-0.1,3.8-0.8,5.4-2c1-0.7,1.6-1.8,1.6-3c0-1.4-0.9-3.2-2.6-5.2
										c-5.3-6.3-13.4-6-26.8-5.4c-6.6,0.3-14.8,0.6-24.3,0.1v-0.9c9.5,0.5,17.7,0.2,24.2-0.1c13.2-0.5,21.9-0.9,27.5,5.8
										c1.9,2.2,2.8,4.1,2.8,5.8c0,1.5-0.8,2.9-2,3.7c-1.5,1.2-3.4,2-5.4,2.2l0.4,0.8c1.2,2.1,3.4,6.2,0.8,8.4
										c-0.7,0.5-1.4,0.8-2.2,1c-0.6,0.2-1.2,0.4-1.8,0.8c-0.8,0.6-1,2-1.4,3.7c-0.6,3-1.4,7.2-5.7,10.8c-2.7,2.4-6.1,3.8-9.6,4.2
										c-3.6,0.3-7.1-1.2-9.3-4c0-0.1-0.1-0.1-0.1-0.1c-0.3,0.7-0.5,1.4-0.6,2.1c-0.4,1.9-1,4.5-2.6,5.9
										C231.9,239.9,230.3,240.5,228.6,240.5z"/>
									<path id="Path_204" class="st5" d="M222.5,261c-1.9,0-4.2-0.9-6.3-3.4c-5.4-6.4-9.7-18.1-14-29.5c-2.3-6.3-4.6-12.3-6.8-17
										l0.8-0.4c2.3,4.7,4.5,10.7,6.9,17c4.2,11.3,8.5,23,13.8,29.2c3.4,4,7.1,3.4,8.8,2c2.2-1.9,2-6.1,1.9-9.3
										c-0.1-2.2-0.2-3.7,0.5-4.3c0.9-0.8,3.3,2,3.3,2c0.3,0.4,0.6,0.8,0.9,1.1c0.7,1,1.5,1.8,2.4,2.6c0.3,0.2,0.6,0.3,0.6,0.2
										c0.1-0.1,0.2-0.2,0.2-0.4c0.1-0.2,0.1-0.3,0.2-0.5c0.6-0.8,1.7-1,2.6-0.6c0.4,0.1,0.7,0.3,1.1,0.5c0.9,0.5,1.9,0.8,3,0.9
										c0.9,0,1.7-0.3,2.3-0.9c1-1.2,1.5-2.8,1.4-4.4c-0.1-0.6-0.3-1.1-0.4-1.7c-0.6-1.9-1.3-4.1-0.2-5c0.2-0.2,0.5-0.4,0.7-0.5
										c0.2-0.1,0.4-0.3,0.6-0.4c0.7-0.6,0.5-1.3-0.7-2.7l-0.2-0.2l0.7-0.6l0.2,0.2c0.7,0.8,2.2,2.6,0.6,4
										c-0.2,0.2-0.5,0.4-0.8,0.5c-0.2,0.1-0.4,0.3-0.6,0.4c-0.6,0.5,0,2.6,0.4,4c0.2,0.6,0.4,1.3,0.5,1.9
										c0.2,1.9-0.4,3.7-1.6,5.1c-0.8,0.8-1.9,1.3-3,1.2c-1.2-0.1-2.3-0.4-3.3-1c-0.4-0.2-0.7-0.3-1.1-0.5s-1.2-0.2-1.4,0.2
										c0,0.1-0.1,0.2-0.1,0.3c-0.1,0.3-0.3,0.6-0.5,0.8c-0.3,0.2-0.8,0.4-1.7-0.3c-1-0.8-1.9-1.7-2.6-2.8
										c-0.3-0.4-0.6-0.8-0.9-1.1c-0.6-0.7-1.3-1.3-2.1-1.8c-0.2,1.1-0.2,2.3-0.1,3.5c0.1,3.3,0.4,7.9-2.2,10
										C225.2,260.5,223.9,261,222.5,261z"/>
									<path id="Path_205" class="st5" d="M157.1,166.2c-7.8-6.8-16.5-9.6-23.4-11.8c-5.6-1.8-10.1-3.2-12.5-6.1
										c-3.3-3.9-6-12.3,0.9-18.1c2.8-2.2,6.2-3.5,9.7-3.8h0.1c0.3-0.6,0.4-1.2,0.5-1.8c0.1-2.1,1-4.1,2.5-5.5
										c2.3-1.9,5.7-1.6,7.6,0.7c0.4,0.5,0.8,1,1.2,1.6c0.3,0.5,0.7,1.1,1.1,1.6c0.4,0.5,0.9,0.9,1.4,1.2c0.4,0.2,0.9,0.2,1.3-0.1
										c0.6-0.5,0.4-2,0.3-3.6c-0.2-2.4-0.5-5.4,1.5-7.1c0.8-0.7,1.8-1.1,2.8-1.1c1.1,0.1,2.1,0.6,2.8,1.5c1.3,1.5,2.4,5,3.7,9.5
										c2.1,7.1,5,16.8,10.6,23.3c1,1.2,2.2,2.4,3.4,3.4l-0.6,0.7c-1.3-1.1-2.4-2.2-3.5-3.5c-5.7-6.7-8.6-16.5-10.8-23.6
										c-1.3-4.2-2.4-7.8-3.5-9.2c-0.5-0.7-1.3-1.1-2.1-1.1c-0.8,0-1.6,0.3-2.2,0.9c-1.6,1.4-1.4,4-1.2,6.3
										c0.2,1.9,0.4,3.6-0.6,4.4c-0.6,0.5-1.5,0.6-2.2,0.2c-0.7-0.4-1.3-0.8-1.8-1.4c-0.4-0.5-0.8-1.1-1.2-1.6
										c-0.3-0.5-0.7-1-1.1-1.5c-1.6-1.9-4.4-2.2-6.3-0.6c-1.3,1.3-2.1,3.1-2.2,4.9c0,0.9-0.3,1.8-0.9,2.5
										c-0.1,0.1-0.2,0.1-0.4,0.1c-3.3,0.3-6.5,1.6-9.2,3.6c-6.4,5.4-3.9,13.2-0.8,16.8c2.2,2.6,6.6,4,12,5.8
										c7.1,2.3,15.9,5.1,23.8,12L157.1,166.2z"/>
									<path id="Path_206" class="st5" d="M175.9,148.6c-0.7-1.7-1.6-3.5-2.4-5.4c-7.3-16.2-17.4-38.4-6-48
										c4.3-3.7,8.7-1,11.7,0.7c1.4,0.8,2.8,1.7,3.3,1.2c0.4-0.5,0.7-1,1-1.5c0.4-0.9,1-1.8,1.7-2.4c2.6-2.2,4.8,0.1,6.4,1.8
										c0.8,0.9,1.6,1.8,2.2,1.8c6-0.4,10.1,0.7,12.4,3.5c5.7,6.7,2.4,15.2-1.8,26c-2.8,6.7-5,13.6-6.7,20.7l-0.9-0.2
										c1.6-7.1,3.9-14.1,6.7-20.9c4.2-10.9,7.3-18.7,2-25c-2.1-2.5-5.9-3.5-11.7-3.2c-1,0.1-1.9-0.9-2.9-2
										c-1.9-2.1-3.2-3.3-5.1-1.8c-0.6,0.6-1.1,1.3-1.5,2c-0.3,0.7-0.7,1.3-1.2,1.8c-1,0.9-2.5,0-4.4-1.1c-3-1.8-6.8-4-10.6-0.8
										c-10.9,9.2-1,31,6.2,46.9c0.9,1.9,1.7,3.7,2.4,5.4L175.9,148.6z"/>
									<path id="Path_207" class="st5" d="M214.6,155.4l-0.6-0.7c3.1-2.7,6.5-5.1,10-7.1c2-1.3,4.1-2.6,6-4
										c5.3-3.8,10.6-8.2,15.1-12c11-9.3,8.6-17,6.8-19.2c-1.1-1.2-2.6-2.1-4.3-2.3c-0.4,0-0.8,0-1.2,0c-1.2,0.1-2.9,0.1-3.3-1.5
										c-0.1-0.9,0-1.7,0.3-2.5c0.3-0.7,0.4-1.4,0.3-2.1c-0.1-0.7-0.6-1.3-1.3-1.6c-0.8-0.1-1.6,0.1-2.3,0.6l-2.5,1.4
										c-0.8,0.6-1.8,0.8-2.8,0.5c-0.9-0.5-1.5-1.3-1.8-2.3c-0.2-1-0.9-1.9-1.9-2.3c-5.3-2.1-11.6-0.5-14.8,3.8
										c-2.5,3.4-3.9,7.7-5.1,11.8c-0.3,0.8-0.5,1.7-0.8,2.5c-0.6,1.8-1.2,3.7-1.8,5.6c-2.5,8-5.1,16.2-9.4,23.4l-0.8-0.5
										c4.3-7.1,6.8-15.3,9.3-23.2c0.6-1.9,1.2-3.7,1.8-5.6c0.3-0.8,0.5-1.7,0.8-2.5c1.3-4.2,2.6-8.5,5.3-12
										c3.5-4.7,10.1-6.4,15.9-4.1c1.2,0.6,2,1.6,2.4,2.8c0.3,0.8,0.6,1.5,1.3,1.8s1.3-0.1,2-0.5l2.5-1.4c0.9-0.6,1.9-0.9,2.9-0.7
										c1,0.3,1.8,1.2,1.9,2.3c0.1,0.9,0,1.7-0.3,2.6c-0.3,0.7-0.4,1.4-0.3,2.1c0.2,0.8,1,0.8,2.4,0.8c0.5-0.1,1-0.1,1.4,0
										c1.9,0.3,3.5,1.2,4.8,2.6c2,2.4,4.7,10.7-6.9,20.5c-4.5,3.8-9.8,8.2-15.1,12c-2,1.4-4.1,2.7-6.1,4
										C220.9,150.3,217.6,152.7,214.6,155.4z"/>
									<path id="Path_208" class="st5" d="M218.5,161l-0.6-0.7l0.7-0.6c8.3-7,20.4-9.4,30.2-11.2c5.9-1.1,10.9-2.1,13-3.8
										c1.2-1.1,2.1-2.5,2.5-4.1c0.4-1.6,0.1-3.3-0.9-4.6c-0.6-0.6-1.2-1.2-1.9-1.6c-1.3-1-2.6-2-3.1-3.5l-0.1-0.2
										c0-0.1-0.1-0.3-0.1-0.4c-0.1-0.2-0.3-0.3-0.5-0.4c-2.2-1.5-4.9-0.8-7.5-0.1c-0.8,0.2-1.5,0.4-2.2,0.5l-0.2-0.9
										c0.7-0.1,1.4-0.3,2.2-0.5c2.6-0.7,5.7-1.4,8.2,0.2c0.3,0.2,0.6,0.5,0.8,0.8c0.1,0.2,0.2,0.4,0.2,0.6l0,0.2
										c0.4,1.2,1.6,2.1,2.8,3c0.8,0.5,1.5,1.1,2.1,1.8c1.2,1.5,1.6,3.5,1.1,5.4c-0.4,1.8-1.4,3.4-2.8,4.6
										c-2.2,1.9-7.1,2.8-13.4,4c-9.6,1.9-21.6,4.1-29.8,11L218.5,161z"/>
									<path id="Path_209" class="st5" d="M267.2,191.5c-0.3,0-0.6,0-0.9-0.1l0.2-0.9c1.1,0.2,2.3-0.1,3.2-0.8
										c2.9-2.4,2.1-4.5,1.2-6.7c-0.7-1.9-1.4-3.8,0.6-5.5c0.8-0.5,0.9-1.6,0.4-2.4c-0.1-0.1-0.1-0.2-0.2-0.2
										c-0.1-0.2-0.3-0.4-0.5-0.5s-0.4-0.4-0.6-0.6c-0.4-0.5-0.7-1.2-0.7-1.8c0-0.6,0.2-1.1,0.7-1.5c1.5-1.3,2.7-2.8,3.6-4.6
										c0.7-1.4,1.3-3.2,0.2-4.4c-6.8-8-21-1.1-33.6,5c-8,3.9-15,7.3-19,6.3l0.2-0.9c3.7,0.9,10.8-2.6,18.4-6.3
										c12.9-6.3,27.4-13.4,34.7-4.8c1.1,1.3,1,3.1-0.1,5.4c-1,1.9-2.3,3.5-3.9,4.9c-0.2,0.2-0.4,0.5-0.4,0.8
										c0,0.4,0.2,0.9,0.5,1.2c0.2,0.2,0.3,0.4,0.5,0.5c0.2,0.2,0.4,0.4,0.6,0.6c1,1.1,0.9,2.7-0.2,3.7c0,0,0,0,0,0l-0.2,0.2
										c-1.5,1.2-1.1,2.5-0.3,4.5c0.8,2.2,1.8,4.9-1.5,7.7C269.4,191.1,268.3,191.5,267.2,191.5z"/>
									<path id="Path_210" class="st5" d="M274,160.9l-0.3-0.9c0.5-0.1,0.9-0.4,1.3-0.7c1-0.9,1.5-2.1,1.6-3.4
										c0.1-1.6-0.5-3.2-1.6-4.4c-0.9-1.1-2.1-2-3.3-2.6c-0.7-0.4-1.4-0.8-1.9-1.4c-0.3-0.3-0.3-0.9-0.1-1.2
										c0.2-0.3,0.4-0.5,0.6-0.7c0.3-0.2,0.6-0.4,0.9-0.6c0.2-0.1,0.5-0.3,0.7-0.5c0.3-0.3,0.5-0.7,0.5-1.1c0-0.6-0.1-1.3-0.5-1.8
										c-1.2-1.4-4.3-1.3-6.6-0.5l-0.3-0.9c2-0.8,5.9-1.2,7.6,0.7c0.5,0.7,0.8,1.6,0.7,2.4c0,0.7-0.3,1.3-0.8,1.7
										c-0.3,0.2-0.5,0.4-0.8,0.6c-0.3,0.2-0.5,0.3-0.8,0.5c-0.4,0.3-0.5,0.6-0.5,0.6c0.5,0.5,1.1,0.9,1.7,1.2
										c1.3,0.7,2.5,1.7,3.5,2.8c1.2,1.4,1.9,3.2,1.8,5.1c-0.1,1.5-0.8,3-1.9,4C275.1,160.4,274.6,160.7,274,160.9z"/>
									<path id="Path_211" class="st5" d="M169.2,266.4c-0.8,0-1.6-0.1-2.3-0.2c-3.1-0.7-5.8-2.4-7.9-4.8
										c-0.2-0.3-0.5-0.6-0.6-0.8c-5.9,2.3-10.8,1.6-13.8-1.9c-0.6-0.7-1.1-1.5-1.6-2.3c-0.7-0.9-1.6-0.5-3.2,0.2
										c-2.6,1.1-6.1,2.6-10.2-2.3c-0.5-0.6-1-1.2-1.4-1.8s-1-1.2-1.5-1.8c-1.7-1.9-3.6-3.7-5.6-5.4c-0.2-0.2-0.4-0.3-0.4-0.4
										c-1.7-2-1.9-4.4-0.6-7.1c1.3-2.4,3.2-4.6,5.3-6.3c4.1-3.5,8.9-5.8,13.5-8s9.2-4.4,13.1-7.7c1.5-1.3,2.9-2.7,4.1-4.2
										c0.9-1.1,1.9-2.2,3-3.1c0.8-0.7,1.8-1.3,2.8-1.8l0.4,0.9c-0.9,0.4-1.8,0.9-2.6,1.6c-1.1,0.9-2,2-2.9,3.1
										c-1.3,1.6-2.7,3-4.2,4.4c-4,3.4-8.7,5.6-13.3,7.9s-9.3,4.5-13.3,7.9c-2.1,1.7-3.8,3.7-5.1,6c-1.1,2.3-1,4.4,0.4,6.1
										l0.3,0.3c2,1.7,3.9,3.5,5.7,5.5c0.5,0.6,1,1.2,1.5,1.8s0.9,1.2,1.4,1.7c3.7,4.4,6.7,3.1,9.1,2.1c1.6-0.7,3.1-1.4,4.3,0
										l0.1,0.1c0.4,0.8,0.9,1.5,1.5,2.1c2.7,3.2,7.3,3.8,12.8,1.6c0.3-0.1,0.6-0.2,0.8,0s0.4,0.6,0.8,1c1.9,2.3,4.5,3.8,7.4,4.5
										c2.4,0.6,5,0.1,7-1.4c4-3.4,3.6-9.8,3.1-17.3c-0.5-4.8-0.5-9.6,0-14.4c0.3-2.2,0.8-4.4,1.3-6.5c0.9-3.9,1.7-7.6,1.4-11.4
										l0.9-0.1c0.3,4-0.6,7.9-1.5,11.7c-0.5,2.1-1,4.2-1.2,6.4c-0.5,4.7-0.5,9.5-0.1,14.2c0.5,7.7,0.9,14.3-3.4,18
										C173.1,265.7,171.2,266.4,169.2,266.4z"/>
									<path id="Path_212" class="st5" d="M117.9,241c-2.3,0-4.4-1-5.9-2.8c-1.9-2.2-1.5-4.4-1.3-6.1c0.3-0.8,0.2-1.7-0.1-2.6
										l-0.3-0.1c-1.4-0.2-5.8-1-8-3.6c-4.7-5.6-1-10.2,1.7-13.6c1-1,1.7-2.2,2.3-3.5c0.1-0.2-0.2-0.6-0.4-0.9
										c-0.6-0.8-1.6-2.1,0.5-3.8c1.1-0.9,2.3-1.5,3.7-2c1.1-0.4,2.1-0.9,3-1.6c0.6-0.5,1-1.2,1.2-1.9c0.5-1.4,1.4-2.6,2.5-3.5
										c1.6-1.3,5.7-1.9,7.5-1.8v0.9c-1.9-0.1-5.6,0.6-6.9,1.6c-1,0.9-1.8,2-2.3,3.2c-0.3,0.9-0.8,1.6-1.5,2.2
										c-1,0.7-2.1,1.3-3.2,1.7c-1.2,0.4-2.4,1-3.4,1.8c-1.4,1.1-0.9,1.7-0.3,2.6c0.4,0.4,0.6,1,0.6,1.7c-0.6,1.4-1.4,2.7-2.5,3.9
										c-2.7,3.3-6,7.4-1.7,12.4c2,2.4,6.1,3.1,7.5,3.3c0.5,0.1,0.7,0.1,0.8,0.3c0.8,0.9,0.6,2.1,0.4,3.4
										c-0.2,1.7-0.5,3.5,1.1,5.4c1.7,2,4.4,2.9,7,2.1l0.3,0.9C119.4,240.9,118.7,241,117.9,241z"/>
								</g>
								<path id="Path_213" class="st5" d="M164.4,196l-0.2-0.4c-0.3-0.7-0.3-1.5,0-2.1l0.8,0.4c-0.1,0.3-0.2,0.7-0.1,1
									c0.4-0.2,0.8-0.4,1.2-0.6c0.2-0.1,0.5-0.3,0.8-0.4l0.4,0.8c-0.2,0.1-0.5,0.3-0.7,0.4c-0.6,0.4-1.2,0.6-1.8,0.8L164.4,196z"
									/>
								<path id="Path_214" class="st5" d="M178.4,195.6l-0.9-0.2c0.3-1.5,3-3.3,4.4-3c0.3,0.1,1.1,0.4,0.8,1.7l-0.9-0.2
									c0.1-0.6-0.1-0.6-0.1-0.6C180.9,193.1,178.6,194.6,178.4,195.6z"/>
								<path id="Path_215" class="st5" d="M170.7,190.3l-0.8-0.4c0.6-1.3,1.8-2.1,3.2-2.2c0.5,0,1.4,0.3,1.8,1.7l-0.9,0.2
									c-0.2-0.7-0.5-1-1-1.1C172,188.8,171.1,189.4,170.7,190.3z"/>
								<path id="Path_216" class="st5" d="M171.7,205.3l-0.9-0.1c0.3-1.7,1.4-3,3-3.6c1-0.2,1.9,0.3,2.4,1.1l-0.8,0.5
									c-0.2-0.5-0.8-0.8-1.4-0.7C172.8,203,171.9,204,171.7,205.3z"/>
								<path id="Path_217" class="st5" d="M202.8,160c-1-1-1.5-2.6-1.2-4c0.4-1.1,1.3-1.8,2.4-2c0.8-0.1,1.6,0.3,2,1l-0.8,0.5
									c-0.2-0.4-0.6-0.6-1.1-0.6c-0.7,0.1-1.4,0.7-1.6,1.4c-0.2,1.1,0.2,2.3,1,3.1L202.8,160z"/>
								<path id="Path_218" class="st5" d="M211.4,168.1c-0.9-0.6-1.3-1.7-1.1-2.8c0.1-0.9,0.7-1.7,1.6-2c0.5-0.1,1.1,0.1,1.4,0.6
									l-0.7,0.6c-0.2-0.2-0.4-0.2-0.5-0.2c-0.5,0.2-0.8,0.7-0.9,1.3c-0.2,0.7,0.1,1.5,0.7,1.9L211.4,168.1z"/>
								<path id="Path_219" class="st5" d="M199.2,174.3c-0.8-0.4-1.3-1.2-1.3-2.1c0.2-1.3,1-2.3,2.2-2.9c1-0.6,2.3-0.5,3.3,0.1
									l-0.5,0.8c-0.7-0.4-1.6-0.4-2.4,0c-0.9,0.4-1.5,1.1-1.7,2.1c0,0.6,0.3,1.1,0.9,1.3L199.2,174.3z"/>
								<path id="Path_220" class="st5" d="M190.2,184.3c-1.6-1.2-1.4-3.6-0.4-5.1c0.7-1.5,2.4-2.1,3.9-1.5l-0.4,0.8
									c-1.1-0.4-2.2,0.1-2.7,1.1c-0.8,1.2-0.9,3,0.2,3.9L190.2,184.3z"/>
								<path id="Path_221" class="st5" d="M202.7,189.6c-1.6-1.2-1.5-2.4-1.3-2.9c0.5-1.3,1.8-2.2,3.2-2.2c0.8-0.1,1.6,0.3,2,1.1
									l-0.9,0.4c-0.2-0.4-0.7-0.6-1.1-0.5c-1,0.1-1.9,0.7-2.4,1.6c-0.2,0.8,0.4,1.5,1,1.9L202.7,189.6z"/>
								<path id="Path_222" class="st5" d="M191.6,197.5c-0.6-0.9-0.6-2.1,0.1-3c1-1.3,3.2-2.2,4.4-1.8c0.5,0.1,0.8,0.6,0.8,1.1H196
									c0-0.1,0-0.1-0.2-0.2c-1.3-0.1-2.6,0.5-3.4,1.5c-0.5,0.6-0.6,1.4-0.1,2L191.6,197.5z"/>
								<path id="Path_223" class="st5" d="M161.7,184.3l-0.7-0.6c0.8-0.9,0.7-1.3,0.6-1.4s-0.4-0.3-0.9-0.4
									c-1.4-0.1-2.7,0.6-3.5,1.7l-0.8-0.5c1-1.4,2.6-2.2,4.4-2.1c0.7,0,1.3,0.3,1.6,0.9C162.7,182.6,162.5,183.4,161.7,184.3z"/>
								<path id="Path_224" class="st5" d="M184.7,209.7l-0.8-0.4c0.8-1.5,2.4-3,4.2-2.7l-0.1,0.9
									C186.6,207.4,185.3,208.5,184.7,209.7z"/>
								<path id="Path_225" class="st5" d="M209,192.1l-0.9-0.3c0.3-1,0.9-1.9,1.6-2.6l0.6-0.7l0.7,0.6c-0.2,0.2-0.4,0.5-0.6,0.7
									C209.8,190.5,209.3,191.3,209,192.1z"/>
								<path id="Path_226" class="st5" d="M214.4,178.7c-1.1-1.1-1.1-2.3-1.1-3.6c0-0.2,0-0.4,0-0.6h0.9c0,0.2,0,0.4,0,0.6
									c0,1.2,0,2.1,0.8,3L214.4,178.7z"/>
								<path id="Path_227" class="st5" d="M178.4,159l-0.9-0.1c0.2-1.7,1.3-3.1,2.8-3.8c0.9-0.2,1.8,0.2,2.1,1l-0.8,0.5
									c-0.4-0.7-0.9-0.6-1.1-0.6C179.4,156.6,178.6,157.7,178.4,159z"/>
								<path id="Path_228" class="st5" d="M169.9,163.9c-0.8-1.3,0.1-3.2,1.4-4.1c0.9-0.8,2.2-0.7,3,0.2c0,0,0,0,0,0.1
									c0,0.1,0.1,0.1,0.1,0.2l-0.7,0.5c-0.4-0.6-1.1-0.7-1.7-0.3l-0.1,0.1c-0.9,0.6-1.6,2.1-1.1,2.9L169.9,163.9z"/>
								<path id="Path_229" class="st5" d="M163.2,174.3c-0.9-1.1-1.1-2.7-0.6-4c0.7-1.4,2.1-2.4,3.7-2.5l0.1,0.9
									c-1.3,0.1-2.4,0.9-3,2c-0.4,1-0.2,2.2,0.5,3.1L163.2,174.3z"/>
								<path id="Path_230" class="st5" d="M183.5,168.7c-0.5-0.8-0.6-1.7-0.4-2.6c0.2-0.7,0.7-1.4,1.4-1.7c0.9-0.5,2-0.4,2.7,0.3
									c0.2,0.2,0.6,0.9-0.2,1.8l-0.7-0.6c0.1-0.2,0.3-0.5,0.2-0.7c-0.5-0.3-1.1-0.3-1.6-0.1c-0.5,0.2-0.8,0.7-0.9,1.2
									c-0.2,0.6-0.1,1.3,0.3,1.8L183.5,168.7z"/>
								<path id="Path_231" class="st5" d="M173.1,176.5c-0.9-1.2-0.7-2.9,0.4-3.9c1.1-1.3,3-1.7,4.5-0.8l-0.5,0.8
									c-1.1-0.6-2.5-0.3-3.3,0.7c-0.8,0.7-0.9,1.9-0.4,2.7L173.1,176.5z"/>
								<path id="Path_232" class="st5" d="M167.9,183.4c-0.6-0.6-1-1.4-1-2.2c0-1.6,1.4-3,2.1-3.7l0.6,0.7c-1,0.7-1.6,1.8-1.8,3
									c0,0.6,0.3,1.2,0.7,1.6L167.9,183.4z"/>
								<path id="Path_233" class="st5" d="M178.9,184.3c-1.5-1.3-1.6-3.5-0.4-4.9l0.2-0.2c0.5-0.5,2.5-1.5,3.4-0.9
									c0.5,0.3,0.7,0.9,0.5,1.4l-0.9-0.2c0-0.1,0.1-0.3,0-0.4c-0.9,0-1.7,0.2-2.4,0.8c-1,1-1.1,2.6-0.2,3.6c0,0,0,0,0,0l0.2,0.2
									L178.9,184.3z"/>
								<path id="Path_234" class="st5" d="M185.7,154.9c0-1.3-0.1-2.9,1-3.8c0.6-0.6,1.5-0.8,2.4-0.6c0.6,0.2,1.1,0.7,1.2,1.3
									l-0.9,0.2c-0.1-0.3-0.3-0.6-0.6-0.7c-0.5-0.1-1.1,0-1.5,0.4c-0.8,0.7-0.7,1.9-0.7,3l-0.5,0.1L185.7,154.9z"/>
								<path id="Path_235" class="st5" d="M192.7,160.5c-0.7-1-0.6-2.3,0.1-3.2c0.6-0.8,1.6-1.2,2.6-1c0.6,0.2,0.9,0.7,0.9,1.3
									h-0.9c0-0.3-0.1-0.4-0.3-0.5c-1-0.1-1.9,0.6-2,1.6c0,0.4,0.1,0.9,0.3,1.3L192.7,160.5z"/>
								<path id="Path_236" class="st5" d="M109.5,202.5c-0.9,0-1.9-0.2-2.7-0.5c-2.9-1.4-5.1-4-6-7.2c-1.4-4.5-1.6-10.9,2.2-15.4
									c0.8-0.9,1.7-1.7,2.7-2.4c1.3-0.8,2.4-2,3.2-3.3c1.2-2.4,0.9-5.2-0.7-7.3c-3.5-4.7-3.8-9.7-0.7-14c1.2-1.8,7.2-6.9,11.2-6.6
									c1.2,0,2.3,0.7,2.8,1.8l-0.8,0.4c-0.4-0.8-1.2-1.3-2.1-1.3h-0.3c-3.4,0-8.8,4.4-10.1,6.2c-2.8,3.9-2.6,8.5,0.7,12.9
									c1.8,2.4,2.1,5.6,0.8,8.3c-0.9,1.5-2.1,2.7-3.5,3.7c-0.9,0.6-1.8,1.4-2.5,2.2c-3.6,4.3-3.4,10.4-2.1,14.6
									c0.8,2.9,2.8,5.3,5.5,6.6c1.9,0.7,4,0.6,5.7-0.4l0.4,0.8C112.1,202.2,110.8,202.5,109.5,202.5z"/>
								<path id="Path_237" class="st5" d="M123.2,194.3l-0.2-0.9c1-0.2,1.9-0.4,2.9-0.6c1.3-0.2,2.5-0.5,3.7-0.8l0.8-0.3
									c2.3-0.9,4.7-1.5,7.1-1.9c1.1-0.1,2.1-0.2,3.2-0.3c1.7-0.1,3.5-0.3,5.3-0.5c1.5-0.2,3-0.2,4.5-0.1c0.9,0.1,1.9,0.1,2.8,0.1
									v0.9c-1,0-2,0-2.9-0.1c-1.4-0.2-2.9-0.2-4.4,0c-1.8,0.3-3.6,0.4-5.3,0.5l-3.1,0.3c-2.4,0.3-4.7,0.9-6.9,1.8l-0.8,0.3
									c-1.3,0.4-2.6,0.7-3.9,0.9C125.1,193.9,124.1,194.1,123.2,194.3z"/>
								<path id="Path_238" class="st5" d="M191.3,268.5c-0.8,0-1.5-0.1-2.3-0.2c-1.2-0.2-2.4-0.2-3.7-0.1c-5.7,0.5-6.7-1.8-7.7-4
									c-0.3-0.9-0.8-1.7-1.4-2.5l0.7-0.6c0.7,0.8,1.2,1.7,1.6,2.7c1,2.2,1.7,4,6.8,3.5c1.3-0.1,2.6-0.1,3.9,0.1
									c1.8,0.4,3.8,0.2,5.4-0.6c0.5-0.2,1-0.5,1.4-0.8c2.3-1.2,4.4-2.3,7.2-2.1c0.5,0,1.1,0.1,1.6,0.1c2.4,0.2,4.9,0.5,7.1-0.5
									c1.9-1.2,3.4-3.1,3.9-5.3c0.2-0.7,0-1.4-0.6-1.9l0.6-0.7c0.7,0.7,1.1,1.7,0.9,2.7c-0.6,2.5-2.3,4.7-4.5,6
									c-2.4,1.1-5,0.8-7.6,0.6l-1.6-0.1c-2.5-0.2-4.4,0.8-6.7,2c-0.5,0.3-1,0.5-1.5,0.8C193.9,268.2,192.6,268.5,191.3,268.5z"/>
								<path id="Path_239" class="st5" d="M200.8,253.5c-1.7-1.7-2.5-4.4-3.2-6.8c-0.1-0.5-0.3-0.9-0.4-1.3
									c-1.9-6-2.3-12.4-2.6-18.5c-0.2-4.8-0.7-9.6-1.6-14.3l0.9-0.2c0.9,4.8,1.4,9.6,1.6,14.4c0.4,6.1,0.7,12.4,2.6,18.3
									c0.1,0.4,0.3,0.9,0.4,1.4c0.7,2.3,1.4,4.9,2.9,6.4L200.8,253.5z"/>
								<path id="Path_240" class="st5" d="M187.4,256.9c0-1.7,0.1-3.3,0.4-5c0.3-1.9,0.4-3.8,0.4-5.7c-0.1-2.3-0.3-4.6-0.5-6.8
									c-0.3-3.4-0.6-6.8-0.6-10.3c-0.1-2.9,0.2-5.7,0.8-8.5c0.2-0.8,0.5-1.6,0.8-2.4c0.6-1.7,1.4-3.8,1.1-4.8l0.9-0.3
									c0.4,1.3-0.4,3.5-1.1,5.4c-0.3,0.7-0.5,1.5-0.8,2.2c-0.6,2.7-0.8,5.5-0.8,8.3c0,3.5,0.3,6.9,0.6,10.2
									c0.2,2.2,0.4,4.6,0.5,6.9c0,2-0.1,3.9-0.4,5.9c-0.2,1.6-0.4,3.2-0.4,4.9L187.4,256.9z"/>
								<path id="Path_241" class="st5" d="M162.2,236.2l-0.9-0.1c0.3-4,1.9-8.7,3.3-12.4l0.2-0.5c0-0.1,4.5-11.2,7.5-10.8l-0.1,0.9
									H172c-1.7,0-5.5,7.5-6.4,10.2l-0.2,0.5C164.1,227.7,162.4,232.3,162.2,236.2z"/>
								<path id="Path_242" class="st5" d="M116.7,220.6h-0.5l0.1-0.9c3.1,0.1,6.4-1.4,9.4-3c3.2-1.9,6.2-4.1,8.8-6.7
									c2-1.8,4.1-3.5,6.2-5.1c4.6-3.5,10.2-5.3,16-5.1v0.9c-5.6-0.2-11,1.6-15.5,5c-2.1,1.5-4.2,3.2-6.1,5c-2.7,2.6-5.7,4.9-9,6.8
									C123.1,219.1,119.9,220.6,116.7,220.6z"/>
								<path id="Path_243" class="st5" d="M151.8,180.5c-3-4.4-6.1-7.6-11.6-8.9c-2.8-0.7-5.6-1-8.4-1.1H131
									c-1.3-0.1-2.5-0.1-3.8,0c-0.7,0.1-1.3,0.2-2,0.5c-0.8,0.3-1.7,0.4-2.6,0.5v-0.9c0.8-0.1,1.6-0.2,2.3-0.4
									c0.7-0.2,1.5-0.4,2.2-0.5c1.3-0.1,2.6-0.1,3.9,0h0.8c2.9,0.1,5.8,0.5,8.6,1.2c6.2,1.5,9.5,5.4,12.1,9.3L151.8,180.5z"/>
								<path id="Path_244" class="st5" d="M160.2,158.5c-4.6-9.4-15.6-15.5-27.9-15.6V142c12.8,0.1,24,6.4,28.8,16.1L160.2,158.5z"
									/>
								<path id="Path_245" class="st5" d="M165.5,155.2l-0.9-0.3c0.4-1.2-1.1-3-2.2-4.4c-0.4-0.4-0.7-0.8-0.9-1.2
									c-1.1-1.6-2.2-3.4-3.2-5.1c-0.4-0.6-0.7-1.2-1.1-1.8c-2.3-4-4.3-8.2-5.9-12.5l-0.6-1.5l0.9-0.3l0.6,1.5
									c1.6,4.3,3.5,8.4,5.8,12.3l1.1,1.8c1,1.7,2,3.4,3.2,5.1c0.2,0.3,0.5,0.7,0.9,1.1C164.5,151.5,166.1,153.5,165.5,155.2z"/>
								<path id="Path_246" class="st5" d="M184.6,147h-0.9c-0.1-2.7-0.7-5.4-1.6-8c-0.5-1.6-0.9-3.2-1.2-4.8
									c-0.8-4.4-1.3-9.3,0.2-14.9l0.9,0.2c-1.5,5.4-1,10.2-0.2,14.5c0.3,1.6,0.7,3.2,1.2,4.7C183.9,141.4,184.4,144.2,184.6,147z"
									/>
								<path id="Path_247" class="st5" d="M208.3,150.6l-0.9-0.1c1-9.4,7.9-15.1,14.5-20.6c2.6-2.1,5.2-4.4,7.5-6.8
									c1.9-2,5-5.9,5-9.5h0.9c0,3.9-3.3,8-5.3,10.1c-2.4,2.5-4.9,4.8-7.6,6.9C216,136,209.2,141.6,208.3,150.6z"/>
								<path id="Path_248" class="st5" d="M225.6,180.8c-1.3,0-2.7-0.1-3.9-0.5l0.3-0.9c2.6,0.9,6.1,0.4,8.9,0h0.2
									c4.7-0.6,10.9-1.9,14.2-4.6l0.6,0.7c-3.4,2.9-9.9,4.2-14.6,4.8H231C229.2,180.6,227.4,180.8,225.6,180.8z"/>
								<path id="Path_249" class="st5" d="M220.6,166.8l-0.8-0.5c2.2-3.6,7-5,11.3-6.2c1.1-0.3,2.2-0.6,3.2-1
									c3.1-1,6.3-1.9,9.5-2.5c3.6-0.7,7.1-1.7,10.5-2.9l0.3,0.9c-3.5,1.2-7,2.2-10.6,2.9c-3.2,0.7-6.3,1.5-9.4,2.5
									c-1,0.3-2.1,0.6-3.2,1C227.2,162.1,222.6,163.5,220.6,166.8z"/>
								<path id="Path_250" class="st5" d="M249.4,221.3c-3,0-6-0.7-8.7-1.9c-3.8-2-6.3-6-8.7-9.9c-1-1.6-2-3.1-3.1-4.6
									c-1.9-2.5-4.6-4.3-7.6-5.3L220,199c-1.8-0.7-4.3-1.7-5.8-1.4l-0.1-0.9c1.8-0.2,4.3,0.7,6.3,1.5l1.3,0.5c3.2,1,6,3,8,5.7
									c1.1,1.5,2.2,3.1,3.1,4.7c2.4,3.8,4.8,7.8,8.4,9.6c2.9,1.5,8.4,2.4,11.7,1.4l0.3,0.9C251.9,221.2,250.7,221.3,249.4,221.3z"
									/>
								<path id="Path_251" class="st5" d="M223.2,224.1c-0.1-0.3-0.3-0.8-0.6-1.5c-4.8-13.2-8.2-20.4-10.2-21.3
									c-0.1-0.1-0.3-0.1-0.4,0l-0.3-0.9c0.4-0.1,0.8-0.1,1.1,0.1c2.9,1.3,7.2,12.4,10.7,21.8c0.2,0.7,0.4,1.2,0.6,1.5L223.2,224.1
									z"/>
							</g>
							<g id="Group_231">
								<g id="Group_230">
									<path id="Path_252" class="st5" d="M334.2,217.5c-5.2,0-10.5-2.3-14.9-6.5c-6-5.8-9.1-14.1-8-21.2c0.6-4.4,3.2-8.4,7-10.8
										c4.8-3.1,11.5-3.8,17.7-1.9c3.8,1.1,7.2,3.3,9.8,6.2c5.3,6.1,7.1,14.6,4.6,22.3c-1.8,5.9-6.7,10.4-12.7,11.5
										C336.6,217.4,335.4,217.5,334.2,217.5z M329.1,177.1c-3.6,0-7.2,0.9-10.3,2.8c-3.6,2.2-6,6-6.6,10.1
										c-1.1,6.8,1.9,14.8,7.7,20.4c5.2,5,11.6,7.1,17.7,5.9c5.7-1.1,10.3-5.3,12-10.9c2.3-7.4,0.6-15.5-4.5-21.4l0,0
										c-2.5-2.8-5.8-4.8-9.4-5.9C333.5,177.4,331.3,177.1,329.1,177.1L329.1,177.1z"/>
									<path id="Path_253" class="st5" d="M304.7,230.8h-0.2c-1-0.1-2-0.4-2.8-1.1c-0.9-0.9-1.2-2.5-1.4-3.7
										c0-0.3-0.1-0.7-0.2-0.9c-3.4,3.3-8.2,2-11.3-1c-1.8-1.8-2.9-4.2-3-6.7c0-0.7-0.2-1.5-0.6-2.1c-0.3-0.2-0.6-0.4-0.9-0.5
										c-0.5-0.2-1-0.4-1.4-0.8c-1.5-1.5,0-3.8,0.8-5.1l0.1-0.2c-1.1-0.2-2.1-0.7-2.9-1.5c-0.7-0.6-1.1-1.5-1.1-2.4
										c0.2-1.3,0.9-2.5,1.9-3.4c3.6-3.8,8.8-3.2,16.5-2.4c4,0.4,8.6,0.9,14.2,1v0.9c-5.7-0.1-10.5-0.6-14.3-1
										c-7.8-0.8-12.5-1.3-15.8,2.1c-0.9,0.7-1.4,1.7-1.6,2.8c0,0.7,0.3,1.3,0.8,1.7c0.8,0.7,1.9,1.2,3,1.3h0.2l0.1,0.1
										c0.3,0.3,0.1,0.7-0.3,1.4c-0.7,1-1.9,3-0.9,4c0.3,0.3,0.7,0.5,1.1,0.6c0.4,0.1,0.9,0.4,1.2,0.7c0.6,0.8,0.9,1.7,0.9,2.6
										c0.1,2.3,1.1,4.5,2.7,6.1c2.7,2.6,7,4,10.1,0.9c0.2-0.3,0.5-0.4,0.8-0.3c0.5,0.2,0.6,0.8,0.8,1.8c0.1,1.1,0.5,2.2,1.1,3.1
										c0.6,0.5,1.4,0.8,2.2,0.9c1.4,0,2.7-0.6,3.6-1.7c1-1.1,1.9-2.4,2.5-3.7c0.7-1.3,1.4-2.7,2.1-4c1.8-3.5,3.7-7,5.8-10.3
										l0.8,0.5c-2.1,3.2-4,6.8-5.8,10.2c-0.7,1.3-1.4,2.7-2.1,4c-0.7,1.4-1.6,2.7-2.7,3.9C307.8,230.1,306.3,230.8,304.7,230.8z"
										/>
									<path id="Path_254" class="st5" d="M307.5,243.1c-0.9,0-1.8-0.4-2.5-1c-1.5-1.4-1.2-4.1-0.9-6.1c0.1-0.6,0.1-1.2,0.1-1.7
										c-0.4,0.2-0.7,0.5-1,0.8c-0.2,0.2-0.4,0.4-0.6,0.6c-0.5,0.6-1,1.1-1.7,1.5c-0.3,0.3-0.8,0.3-1.2,0.1
										c-0.2-0.2-0.3-0.4-0.4-0.6c0-0.1,0-0.1,0-0.1c-0.1-0.1-0.4-0.1-0.6-0.1l-0.6,0.2c-0.7,0.3-1.4,0.4-2.1,0.5
										c-0.7,0-1.4-0.3-1.9-0.9c-0.7-0.9-1-2.1-0.8-3.2c0.1-0.4,0.2-0.8,0.4-1.1c0.2-0.6,0.7-1.9,0.5-2.2
										c-0.1-0.1-0.2-0.2-0.3-0.3l-0.4-0.4c-1-1,0.1-2.2,0.5-2.6l0.1-0.1l0.6,0.6l-0.1,0.1c-0.8,0.9-0.7,1.1-0.5,1.3
										s0.2,0.2,0.4,0.3c0.2,0.1,0.3,0.2,0.4,0.4c0.7,0.7,0.2,2-0.2,3.1c-0.1,0.3-0.2,0.6-0.3,0.9c-0.1,0.9,0.1,1.8,0.6,2.5
										c0.3,0.4,0.7,0.6,1.2,0.6c0.6,0,1.2-0.1,1.7-0.4c0.2-0.1,0.4-0.2,0.7-0.2c0.6-0.3,1.3,0,1.7,0.5c0.1,0.1,0.1,0.2,0.1,0.3
										v0.1c0,0,0.1-0.1,0.2-0.1c0.6-0.4,1-0.9,1.5-1.4c0.2-0.2,0.4-0.4,0.6-0.6c0,0,1.2-1.2,1.9-1.2h0.2l0.2,0.2
										c0.4,0.4,0.3,1.3,0.2,2.7c-0.2,1.8-0.5,4.2,0.7,5.4c0.9,0.8,2.9,1.3,5-0.8c3.3-3.4,6.3-10.1,9.2-16.6
										c1.6-3.6,3.2-7.1,4.7-9.8l0.8,0.4c-1.5,2.7-3,6.1-4.6,9.7c-2.9,6.5-5.9,13.3-9.4,16.8C310.3,242.4,309,243.1,307.5,243.1z"
										/>
									<path id="Path_255" class="st5" d="M349.5,190l-0.5-0.7c5-3.8,10.2-5.1,14.5-6.2c3.3-0.8,5.8-1.5,7.2-2.9
										c1.9-2,3.6-6.3,0.2-9.6c-1.5-1.3-3.3-2.1-5.2-2.4c-0.1,0-0.3-0.1-0.4-0.1c-0.3-0.5-0.5-1-0.5-1.6c0.1-1-0.3-2.1-1-2.9
										c-1-0.9-2.5-0.9-3.5,0.1c-0.2,0.3-0.5,0.5-0.7,0.8c-0.2,0.3-0.5,0.6-0.8,0.9c-0.4,0.5-1.1,0.9-1.7,0.9
										c-0.4,0-0.7-0.1-0.9-0.4c-0.6-0.6-0.4-1.6-0.2-2.8s0.5-2.8-0.4-3.6c-0.5-0.6-1.5-0.7-2.1-0.2c0,0,0,0,0,0l-0.1,0.1
										c-0.7,0.7-1.5,2.8-2.4,5.2c-1.5,4.1-3.7,9.8-7.3,13.5c-0.7,0.7-1.4,1.4-2.2,1.9l-0.5-0.7c0.7-0.6,1.4-1.2,2.1-1.9
										c3.5-3.6,5.6-9.1,7.1-13.2c1-2.6,1.7-4.6,2.6-5.5c0.9-1,2.4-1.1,3.4-0.2c0,0,0,0,0,0l0.2,0.2c1.2,1.1,0.9,2.9,0.6,4.4
										c-0.1,0.8-0.3,1.7,0,1.9c0.1,0.1,0.2,0.1,0.3,0.1c0.4-0.1,0.8-0.3,1.1-0.6c0.2-0.3,0.5-0.6,0.7-0.9
										c0.2-0.3,0.5-0.6,0.8-0.9c1.3-1.3,3.4-1.4,4.8-0.1c0.9,0.9,1.3,2.2,1.3,3.4c0,0.3,0,0.6,0.1,0.9c2.1,0.3,4,1.3,5.6,2.7
										c3.9,3.8,2,8.7-0.2,10.9c-1.6,1.6-4.2,2.3-7.6,3.1C359.5,185.1,354.3,186.4,349.5,190z"/>
									<path id="Path_256" class="st5" d="M339.1,178.8l-0.8-0.4c0.5-1,1-2,1.6-3.1c4.6-8.5,11.4-21.4,5.5-27.1
										c-2-1.9-4.2-0.8-6,0.1c-1.2,0.6-2.2,1.1-2.8,0.4c-0.3-0.3-0.5-0.7-0.7-1.2c-0.2-0.5-0.4-0.9-0.8-1.3
										c-0.9-0.9-1.6-0.3-2.8,0.8c-0.6,0.6-1.2,1.2-2,1.1c-3.3-0.4-5.5,0-6.8,1.4c-3.3,3.4-1.8,8.1,0.2,14.6
										c1.4,4.1,2.5,8.3,3.1,12.6l-0.9,0.1c-0.7-4.2-1.7-8.4-3.1-12.4c-2.1-6.5-3.7-11.7,0-15.5c1.5-1.6,4-2.1,7.6-1.6
										c0.3,0,0.8-0.5,1.2-0.9c1-1,2.5-2.4,4.1-0.8c0.4,0.5,0.8,1,1,1.6c0.1,0.3,0.3,0.6,0.5,0.9c0.2,0.2,1.1-0.3,1.8-0.6
										c1.8-0.9,4.6-2.3,7.1,0.1c6.4,6.2-0.4,18.9-5.4,28.2C340.2,176.8,339.6,177.9,339.1,178.8z"/>
									<path id="Path_257" class="st5" d="M315.9,181.4c-1.7-1.7-3.5-3.2-5.5-4.5c-1.1-0.8-2.3-1.7-3.4-2.6
										c-3-2.5-5.9-5.3-8.4-7.7c-2.8-2.7-4.4-5.5-4.6-8.1c-0.2-1.6,0.3-3.2,1.3-4.4c0.8-0.8,1.9-1.3,3-1.4c0.3,0,0.6,0,0.9,0
										c0.9,0.1,1.1,0,1.2-0.2c0.1-0.4,0-0.8-0.1-1.1c-0.2-0.5-0.2-1.1-0.1-1.6c0.1-0.7,0.7-1.3,1.4-1.4c0.7-0.1,1.3,0.1,1.8,0.6
										l1.4,0.9c0.4,0.2,0.7,0.4,1,0.3s0.5-0.4,0.7-0.9c0.3-0.8,0.9-1.4,1.6-1.7c3.5-1.2,7.3,0.1,9.4,3.1c1.3,2.3,2.2,4.7,2.6,7.3
										c0.1,0.5,0.2,1,0.4,1.5c0.3,1.1,0.5,2.2,0.8,3.3c1.1,4.7,2.3,9.6,4.5,14l-0.8,0.4c-2.3-4.4-3.5-9.4-4.6-14.2
										c-0.3-1.1-0.5-2.2-0.8-3.3c-0.1-0.5-0.2-1-0.4-1.5c-0.4-2.5-1.3-4.8-2.5-7c-1.9-2.6-5.3-3.7-8.3-2.7
										c-0.6,0.2-0.8,0.6-1.1,1.2c-0.2,0.6-0.7,1.1-1.2,1.4c-0.6,0.1-1.3,0-1.8-0.4l-1.4-0.9c-0.3-0.3-0.7-0.4-1.2-0.4
										c-0.3,0.1-0.6,0.4-0.6,0.8c-0.1,0.4,0,0.8,0.1,1.2c0.2,0.5,0.2,1.1,0.1,1.6c-0.3,1.1-1.5,1-2.2,0.9c-0.2,0-0.4,0-0.7,0
										c-0.9,0.1-1.8,0.5-2.5,1.1c-0.8,1-1.2,2.4-1.1,3.7c0.2,2.4,1.7,5,4.3,7.5c2.5,2.4,5.4,5.2,8.4,7.6c1.1,0.9,2.2,1.7,3.4,2.6
										c2,1.4,3.9,2.9,5.6,4.6L315.9,181.4z"/>
									<path id="Path_258" class="st5" d="M313.3,184.5l-0.4-0.4c-4.5-4.3-11.4-6.1-17-7.6c-3.6-1-6.5-1.7-7.8-2.9
										c-0.8-0.8-1.3-1.8-1.5-2.9c-0.2-1.2,0.1-2.4,0.9-3.3c0.4-0.4,0.9-0.7,1.3-1c0.7-0.3,1.3-0.9,1.6-1.5c0-0.2,0.1-0.4,0.2-0.5
										c0.1-0.2,0.3-0.4,0.6-0.5c1.7-0.9,3.4-0.4,5,0.2c0.4,0.1,0.8,0.3,1.2,0.4l-0.2,0.9c-0.4-0.1-0.9-0.2-1.3-0.4
										c-1.5-0.5-3-1-4.3-0.2c-0.1,0-0.2,0.1-0.2,0.2c0,0.1-0.1,0.1-0.1,0.2v0.1c-0.4,0.9-1.1,1.6-2,2c-0.4,0.2-0.8,0.5-1.2,0.9
										c-0.6,0.7-0.9,1.6-0.7,2.5c0.1,0.9,0.6,1.7,1.2,2.4c1.1,1.1,4,1.8,7.4,2.7c5.7,1.5,12.7,3.3,17.4,7.8l0.4,0.4L313.3,184.5z
										"/>
									<path id="Path_259" class="st5" d="M284,200.6c-0.8,0-1.5-0.3-2.1-0.8c-2-1.9-1.2-3.6-0.6-4.8s0.7-1.7,0-2.4
										c-0.7-0.6-0.8-1.7-0.2-2.4c0,0,0,0,0,0l0.1-0.1l0.4-0.3c0.1-0.1,0.2-0.2,0.3-0.3c0.2-0.2,0.3-0.4,0.3-0.6
										c0-0.1,0-0.2-0.1-0.3c-1.7-1.6-3.5-4.9-1.9-6.5c4.7-4.9,13-0.1,20.4,4.1c4.3,2.4,8.3,4.8,10.4,4.4l0.2,0.9
										c-2.5,0.4-6.5-1.8-11-4.5c-7.1-4.1-15.1-8.6-19.3-4.3c-1,1.1,0.4,3.7,1.9,5.2c0.3,0.3,0.4,0.6,0.4,1c0,0.5-0.2,0.9-0.5,1.2
										c-0.1,0.1-0.2,0.2-0.4,0.3l-0.3,0.3c-0.3,0.3-0.4,0.8-0.1,1.1l0.1,0.1c1.2,1.2,0.7,2.4,0.2,3.4c-0.6,1.3-1.1,2.3,0.4,3.8
										c0.4,0.4,1.1,0.6,1.7,0.6l0.1,0.9L284,200.6z"/>
									<path id="Path_260" class="st5" d="M280.9,182.3c-0.4-0.1-0.7-0.3-1-0.6c-0.7-0.7-1-1.6-1-2.6c0-1.1,0.5-2.2,1.3-3
										c0.6-0.7,1.4-1.2,2.2-1.6c0.3-0.1,0.6-0.3,0.9-0.6c-0.1-0.1-0.1-0.1-0.2-0.2c-0.1-0.1-0.3-0.2-0.4-0.3
										c-0.2-0.1-0.3-0.2-0.5-0.4c-0.7-0.8-0.6-2,0.1-2.7c1.1-1.2,3.5-0.7,4.7-0.2l-0.4,0.8c-1.2-0.6-3-0.7-3.6,0
										c-0.4,0.4-0.4,1-0.1,1.4c0.1,0.1,0.2,0.2,0.4,0.3c0.2,0.1,0.4,0.3,0.5,0.4c0.3,0.2,0.5,0.5,0.5,0.9c0,0.2-0.1,0.4-0.2,0.5
										c-0.4,0.3-0.8,0.6-1.3,0.8c-0.7,0.3-1.4,0.8-2,1.4c-0.7,0.6-1,1.5-1.1,2.4c0,0.7,0.3,1.4,0.8,1.9c0.2,0.2,0.4,0.3,0.7,0.4
										L280.9,182.3z"/>
									<path id="Path_261" class="st5" d="M338.7,248.3c-1.3,0-2.7-0.4-3.7-1.4c-2.5-2.4-2-6.3-1.4-10.9c0.4-2.7,0.6-5.5,0.5-8.3
										c-0.1-1.3-0.3-2.6-0.5-3.8c-0.5-2.3-0.6-4.7-0.4-7l0.9,0.1c-0.2,2.2-0.1,4.5,0.4,6.7c0.2,1.3,0.4,2.6,0.5,3.9
										c0.1,2.8-0.1,5.7-0.5,8.5c-0.6,4.3-1,8,1.1,10.1c2,1.9,5.8,1.3,8.3-1.2c0.1-0.1,0.3-0.3,0.4-0.4l0,0l0.1-0.1
										c0.2-0.2,0.5-0.2,0.7,0c1.8,0.8,5.1,1.9,7.4-0.4c0.3-0.4,0.7-0.8,0.9-1.2l0.1-0.1c0.8-0.9,1.9-0.4,2.8,0.1
										c1.4,0.7,3,1.5,5.2-0.8c0.3-0.3,0.6-0.6,0.9-1l0.9-1c1.1-1.1,2.3-2.1,3.6-3l0.2-0.1c2.1-2.1-0.5-5.3-2.3-7
										c-2.3-2-4.8-3.7-7.5-5.1c-2.7-1.4-5.3-3.1-7.5-5.1c-0.9-0.8-1.6-1.8-2.3-2.7c-0.5-0.7-1-1.3-1.6-1.9
										c-0.4-0.4-0.9-0.7-1.4-1l0.4-0.8c0.6,0.3,1.1,0.7,1.6,1.2c0.6,0.6,1.2,1.3,1.7,2c0.7,0.9,1.4,1.8,2.2,2.6
										c2.2,2,4.7,3.7,7.4,5c2.8,1.4,5.3,3.2,7.7,5.2c3.4,3.3,4.2,6.3,2.3,8.3l-0.3,0.2c-1.2,0.9-2.4,1.9-3.5,2.9
										c-0.3,0.3-0.6,0.6-0.9,1s-0.6,0.7-0.9,1c-2.7,2.8-4.9,1.7-6.3,1c-1-0.5-1.3-0.6-1.7-0.3c-0.3,0.5-0.6,0.9-1,1.3
										c-1.9,2-4.8,2.2-8.2,0.7l-0.3,0.3C343.1,247.4,340.9,248.3,338.7,248.3z"/>
									<path id="Path_262" class="st5" d="M369.7,235.5c-0.5,0-1.1-0.1-1.6-0.3l0.4-0.9c1.4,0.5,3,0.1,4-0.9c0.7-0.8,1-1.9,0.8-3
										c-0.2-0.7,0-1.5,0.4-2.1c0.1-0.1,0.2-0.1,0.6-0.2c0.8-0.1,3.2-0.3,4.4-1.6c2.6-2.7,0.9-5-0.5-7.1c-0.6-0.7-1.1-1.5-1.3-2.4
										c0-0.4,0.1-0.8,0.5-1.1c0.4-0.5,0.5-0.7-0.1-1.3c-0.6-0.5-1.2-0.9-1.9-1.2c-0.7-0.3-1.3-0.7-1.9-1.2
										c-0.4-0.4-0.7-0.9-0.8-1.4c-0.2-0.7-0.7-1.4-1.2-1.9c-1.2-0.7-2.5-1.1-3.8-1.1v-0.9c1.1,0,3.5,0.5,4.4,1.4
										c0.6,0.6,1.1,1.4,1.4,2.2c0.1,0.4,0.3,0.8,0.6,1.1c0.5,0.4,1,0.7,1.6,1c0.8,0.3,1.5,0.8,2.1,1.3c0.7,0.5,0.9,1.5,0.4,2.2
										c0,0,0,0,0,0c-0.1,0.1-0.2,0.2-0.3,0.3c-0.1,0.1-0.2,0.2-0.2,0.4c0.3,0.7,0.7,1.4,1.2,2.1c1.5,2.1,3.6,5.1,0.5,8.3
										c-1.5,1.5-4.1,1.8-5,1.9h-0.1c-0.1,0.4-0.2,0.9-0.1,1.3c0.3,1.3-0.1,2.7-1,3.7C372.2,234.9,371,235.4,369.7,235.5z"/>
								</g>
								<path id="Path_263" class="st5" d="M344,207.2l-0.4-0.1c-0.4-0.1-0.7-0.3-1.1-0.6c-0.1-0.1-0.3-0.2-0.4-0.3l0.5-0.8l0.4,0.3
									c0.1,0.1,0.3,0.2,0.4,0.2c0-0.1,0-0.1,0-0.2l0.9-0.3c0.2,0.5,0.2,1-0.1,1.4L344,207.2z"/>
								<path id="Path_264" class="st5" d="M335.5,206.3c-0.2-0.4-0.5-0.8-0.9-1c-0.2-0.2-0.4-0.3-0.7-0.3c0,0.1,0,0.1,0,0.2
									l-0.9,0.1c-0.1-0.8,0.3-1.1,0.7-1.2c1.2,0.1,2.3,0.9,2.7,2.1L335.5,206.3z"/>
								<path id="Path_265" class="st5" d="M340.2,203.5c-0.2-0.5-0.6-0.9-1.1-1l0,0c-0.1,0-0.3,0-0.4,0.5l-0.9-0.3
									c0.1-0.6,0.7-1,1.3-1.1l0,0c0.9,0.1,1.6,0.7,2,1.5L340.2,203.5z"/>
								<path id="Path_266" class="st5" d="M339.1,212.2c-0.1-0.7-0.5-1.2-1.1-1.6c-0.2,0-0.4-0.1-0.6,0.3l-0.8-0.5
									c0.3-0.6,1-0.8,1.6-0.6c1,0.4,1.7,1.3,1.7,2.4L339.1,212.2z"/>
								<path id="Path_267" class="st5" d="M322.9,184.6l-0.6-0.7c0.5-0.4,0.7-1,0.6-1.6c-0.1-0.4-0.4-0.6-0.7-0.7
									c-0.2,0-0.4,0-0.5,0.2l-0.8-0.5c0.3-0.5,0.8-0.7,1.4-0.6c0.7,0.2,1.3,0.7,1.5,1.4C323.9,183,323.6,183.9,322.9,184.6z"/>
								<path id="Path_268" class="st5" d="M317.5,189l-0.5-0.8c0.3-0.2,0.5-0.5,0.4-0.9c0-0.2-0.1-0.5-0.4-0.6l-0.8-0.6
									c0.2-0.3,0.6-0.4,1-0.3c0.6,0.2,0.9,0.8,1,1.4C318.4,187.9,318.1,188.6,317.5,189z"/>
								<path id="Path_269" class="st5" d="M324.4,193.1l-0.4-0.8c0.4-0.2,0.4-0.5,0.4-0.6c-0.1-0.5-0.4-0.9-0.8-1.1
									c-0.4-0.2-0.8-0.3-1.2-0.1l-0.5-0.8c0.7-0.4,1.5-0.3,2.1,0.1c0.7,0.4,1.2,1.1,1.3,1.9C325.3,192.3,325,192.9,324.4,193.1z"
									/>
								<path id="Path_270" class="st5" d="M329.3,199.3l-0.5-0.8c0.5-0.5,0.6-1.4,0.2-2c-0.2-0.5-0.8-0.8-1.3-0.7l-0.3-0.9
									c1-0.3,2.1,0.1,2.5,1.1C330.4,197.2,330.2,198.5,329.3,199.3z"/>
								<path id="Path_271" class="st5" d="M321.8,201.9l-0.5-0.8c0.3-0.2,0.7-0.5,0.6-0.9c-0.2-0.5-0.6-0.8-1.2-0.9
									c-0.2,0-0.4,0-0.5,0.2l-0.8-0.4c0.3-0.5,0.8-0.8,1.4-0.7c0.9,0.1,1.7,0.7,2,1.6C322.9,200.8,322.5,201.6,321.8,201.9z"/>
								<path id="Path_272" class="st5" d="M328,206.9l-0.7-0.6c0.2-0.3,0.2-0.7-0.1-1c-0.4-0.5-1-0.8-1.6-0.8l-0.9-0.1
									c0-0.4,0.3-0.7,0.6-0.8c1.1-0.1,2.1,0.4,2.7,1.3C328.5,205.6,328.5,206.4,328,206.9z"/>
								<path id="Path_273" class="st5" d="M345.8,200.4c-0.5-0.6-0.6-1.2-0.4-1.6c0.2-0.4,0.7-0.6,1.2-0.6l0,0
									c1.1,0,2.1,0.6,2.6,1.5l-0.8,0.4c-0.4-0.6-1-0.9-1.7-1c-0.2,0-0.4,0-0.5,0.1l0,0c0,0,0,0.2,0.3,0.6L345.8,200.4z"/>
								<path id="Path_274" class="st5" d="M331.3,214.4c-0.2-0.7-0.9-1.2-1.6-1.3l-0.1-0.9c1.2,0,2.2,0.8,2.6,1.9L331.3,214.4z"/>
								<path id="Path_275" class="st5" d="M317.7,203.1c-0.1-0.5-0.4-1-0.7-1.4l-0.3-0.4l0.8-0.5l0.3,0.4c0.4,0.5,0.7,1.1,0.9,1.7
									L317.7,203.1z"/>
								<path id="Path_276" class="st5" d="M315.4,195.1l-0.6-0.7c0.5-0.4,0.5-0.8,0.5-1.6v-0.4l0.9,0.1v0.4
									C316.3,193.7,316,194.5,315.4,195.1z"/>
								<path id="Path_277" class="st5" d="M337.8,184.8h-0.9c0-0.7-0.4-1.3-1-1.6c-0.1,0-0.2-0.1-0.5,0.2l-0.7-0.6
									c0.3-0.5,0.9-0.7,1.5-0.5C337.2,182.7,337.8,183.7,337.8,184.8z"/>
								<path id="Path_278" class="st5" d="M342.1,188.1l-0.8-0.5c0.2-0.3,0-1.1-0.5-1.5s-0.7-0.1-0.8,0l-0.7-0.6
									c0.5-0.6,1.4-0.7,2-0.2l0.1,0.1C342.2,185.9,342.6,187.1,342.1,188.1z"/>
								<path id="Path_279" class="st5" d="M345.6,194.5l-0.7-0.6c0.4-0.4,0.5-1,0.4-1.6c-0.3-0.6-0.8-1.1-1.5-1.2l0.2-0.9
									c1,0.2,1.8,0.8,2.2,1.7C346.4,192.8,346.2,193.8,345.6,194.5z"/>
								<path id="Path_280" class="st5" d="M333.9,190.4l-0.8-0.5c0.2-0.3,0.3-0.6,0.2-0.9c0-0.3-0.2-0.5-0.4-0.6
									c-0.2-0.1-0.5-0.2-0.7-0.1c0,0,0,0.1,0.1,0.2l-0.8,0.5c-0.3-0.4-0.3-0.9,0-1.3c0.5-0.4,1.3-0.5,1.8-0.1
									c0.4,0.3,0.7,0.7,0.8,1.2C334.3,189.3,334.2,189.9,333.9,190.4z"/>
								<path id="Path_281" class="st5" d="M339.7,195.3l-0.7-0.6c0.3-0.4,0.3-1-0.1-1.4c-0.4-0.6-1.1-0.8-1.7-0.5l-0.5-0.8
									c1-0.5,2.2-0.2,2.9,0.7C340.3,193.5,340.3,194.6,339.7,195.3z"/>
								<path id="Path_282" class="st5" d="M342.4,199.6l-0.6-0.7c0.2-0.2,0.4-0.5,0.4-0.8c-0.1-0.7-0.4-1.3-0.9-1.7l0.6-0.6
									c0.7,0.6,1.1,1.5,1.2,2.4C343.1,198.8,342.9,199.3,342.4,199.6z"/>
								<path id="Path_283" class="st5" d="M336,199.7l-0.6-0.7c0.3-0.3,0.5-0.7,0.6-1.1c0-0.3-0.1-0.7-0.4-0.9
									c-0.3-0.3-0.7-0.5-1.1-0.5l-0.8,0.1c-0.1-0.4,0.1-0.8,0.5-1c0.7-0.3,1.9,0.4,2.2,0.7c0.4,0.4,0.6,1,0.6,1.6
									C336.8,198.7,336.5,199.3,336,199.7z"/>
								<path id="Path_284" class="st5" d="M333.2,182h-0.9c0.1-0.7,0.1-1.3-0.2-1.7c-0.2-0.2-0.4-0.3-0.7-0.2
									c-0.1,0-0.2,0.1-0.2,0.2l-0.9-0.3c0.1-0.4,0.5-0.8,0.9-0.9c0.6-0.1,1.2,0.1,1.6,0.5C333.2,180.3,333.4,181.2,333.2,182z"/>
								<path id="Path_285" class="st5" d="M328.8,185.2l-0.8-0.5c0.3-0.3,0.3-0.9,0-1.2c0,0,0,0,0,0l0,0c-0.2-0.2-0.4-0.3-0.6-0.2
									h-0.9c0-0.4,0.3-0.8,0.7-0.9c0.7-0.1,1.3,0.2,1.7,0.8C329.4,183.8,329.3,184.6,328.8,185.2z"/>
								<path id="Path_286" class="st5" d="M376.1,213.2c-0.9,0-1.8-0.3-2.5-0.8l0.5-0.8c0.9,0.6,2.1,0.8,3.2,0.4
									c1.6-0.6,2.8-1.9,3.4-3.5c0.9-2.4,1.3-5.9-0.6-8.5c-0.4-0.5-0.9-1-1.4-1.4c-0.8-0.6-1.5-1.4-2-2.4c-0.7-1.7-0.4-3.6,0.8-5
									c2-2.4,2.4-5,0.9-7.3c-0.7-1.2-3.8-4-5.7-4l0,0c-0.5,0-0.9,0.2-1.1,0.6l-0.8-0.5c0.4-0.7,1.1-1,1.9-1l0,0
									c2.5,0,5.8,3.3,6.5,4.4c1.7,2.7,1.3,5.7-1,8.4c-1,1.1-1.2,2.7-0.7,4.1c0.4,0.8,1,1.5,1.7,2c0.6,0.4,1.1,1,1.5,1.5
									c2.1,2.9,1.8,6.7,0.7,9.3c-0.7,1.9-2.1,3.4-3.9,4.1C377.1,213.1,376.6,213.2,376.1,213.2z"/>
								<path id="Path_287" class="st5" d="M368.1,207.8c-0.5-0.2-1.1-0.3-1.6-0.4c-0.8-0.2-1.5-0.4-2.3-0.7l-0.5-0.2
									c-1.3-0.6-2.6-1-4-1.3l-1.8-0.3c-1-0.1-2.1-0.3-3.1-0.5c-0.8-0.2-1.7-0.2-2.5-0.2c-0.6,0-1.1,0-1.7-0.1l0.1-0.9
									c0.6,0.1,1.1,0.1,1.6,0.1c0.9,0,1.8,0,2.7,0.2c1,0.2,2.1,0.4,3.1,0.5c0.6,0.1,1.2,0.2,1.9,0.3c1.4,0.3,2.8,0.8,4.2,1.4
									l0.5,0.2c0.7,0.3,1.4,0.5,2.1,0.6c0.5,0.1,1.1,0.3,1.7,0.4L368.1,207.8z"/>
								<path id="Path_288" class="st5" d="M330.2,248.9c-0.5,0-0.9,0-1.4-0.1c-0.7-0.1-1.4-0.1-2.1-0.1c-1.2,0.2-2.5-0.1-3.6-0.7
									c-0.3-0.2-0.6-0.3-0.8-0.5c-1.1-0.8-2.4-1.3-3.7-1.4h-1c-1.5,0.2-3.1,0-4.5-0.6c-1.3-0.9-2.2-2.3-2.5-3.9
									c-0.1-0.7,0.2-1.3,0.7-1.7l0.6,0.7c-0.3,0.2-0.4,0.6-0.3,0.9c0.3,1.3,1,2.4,2,3.1c1.3,0.5,2.6,0.7,4,0.6c0.3,0,0.7,0,1,0
									c1.5,0.1,3,0.6,4.2,1.6l0.8,0.5c0.9,0.5,2,0.7,3.1,0.5c0.8-0.1,1.5,0,2.3,0.1c2.8,0.5,3.3-0.4,3.9-1.7
									c0.3-0.6,0.6-1.1,1-1.6l0.6,0.6c-0.4,0.4-0.7,0.9-0.9,1.4C333.1,248,331.7,249,330.2,248.9z"/>
								<path id="Path_289" class="st5" d="M320.4,239.5l-0.6-0.7c0.9-1,1.6-2.2,1.9-3.6c0.1-0.3,0.2-0.5,0.3-0.8
									c1.2-3.4,1.9-7,2.3-10.6c0.3-2.8,0.8-5.7,1.5-8.4l0.9,0.2c-0.7,2.7-1.2,5.5-1.5,8.3c-0.3,3.7-1.1,7.3-2.3,10.8l-0.3,0.8
									C322.2,237,321.5,238.4,320.4,239.5z"/>
								<path id="Path_290" class="st5" d="M328.2,241.9l-0.9-0.1c0.1-0.9,0.1-1.9,0-2.8c-0.1-1.2-0.1-2.3,0-3.5
									c0.1-1.4,0.4-2.7,0.6-4c0.3-1.9,0.6-3.9,0.8-6c0.2-1.6,0.1-3.3-0.1-4.9c-0.1-0.4-0.2-0.9-0.3-1.3c-0.4-1.2-0.8-2.5-0.4-3.3
									l0.9,0.3c-0.1,0.9,0.1,1.9,0.5,2.7c0.2,0.5,0.3,1,0.4,1.4c0.2,1.7,0.3,3.4,0.1,5.1c-0.1,2.1-0.5,4.1-0.8,6
									c-0.2,1.3-0.4,2.6-0.6,4c-0.1,1.1-0.1,2.2,0,3.3C328.3,239.9,328.3,240.9,328.2,241.9z"/>
								<path id="Path_291" class="st5" d="M344.4,230.7h-0.9c-0.1-2.4-0.6-4.9-1.4-7.2l-0.1-0.4c-0.5-1.9-2.5-6.1-3.2-6.1l0,0
									l-0.1-0.9h0c2,0,4.1,6.7,4.1,6.8l0.1,0.4C343.7,225.7,344.2,228.2,344.4,230.7z"/>
								<path id="Path_292" class="st5" d="M371.2,223.5c-2,0-4-1.1-5.8-2.3c-1.9-1.3-3.5-2.7-5.1-4.4c-1.1-1.1-2.2-2.2-3.4-3.2
									c-2.4-2.1-5.5-3.4-8.8-3.5l0.1-0.9c3.4,0.1,6.7,1.4,9.3,3.7c1.2,1,2.4,2.1,3.5,3.2c1.5,1.6,3.1,3,4.9,4.2
									c1.7,1.1,3.5,2.1,5.3,2.1L371.2,223.5z"/>
								<path id="Path_293" class="st5" d="M352,198.5l-0.7-0.6c1.7-2.2,3.9-4.4,7.6-5.1c1.7-0.3,3.4-0.4,5.1-0.4h0.5
									c0.8,0,1.5,0.1,2.3,0.2c0.5,0.1,0.9,0.2,1.3,0.4c0.4,0.2,0.9,0.3,1.3,0.4v0.9c-0.5-0.1-1.1-0.2-1.6-0.4
									c-0.4-0.2-0.8-0.3-1.1-0.3c-0.7-0.1-1.5-0.1-2.2-0.1h-0.5c-1.7-0.1-3.3,0-4.9,0.3C355.8,194.4,353.9,196.1,352,198.5z"/>
								<path id="Path_294" class="st5" d="M348,185.2l-0.8-0.5c3.2-5.6,10.1-8.9,17.7-8.4l0,0.9C357.6,176.9,351,179.9,348,185.2z"
									/>
								<path id="Path_295" class="st5" d="M344.6,183.1c-0.3-1.1,0.8-2.3,1.6-3.2c0.2-0.2,0.4-0.4,0.5-0.6c0.7-0.9,1.4-1.9,2-2.8
									l0.7-1c1.5-2.2,2.8-4.6,3.9-7l0.4-0.8l0.8,0.4l-0.4,0.8c-1.1,2.5-2.4,4.9-4,7.1l-0.7,1c-0.7,0.9-1.3,1.9-2.1,2.9
									c-0.1,0.2-0.4,0.4-0.6,0.7c-0.6,0.7-1.6,1.7-1.4,2.3L344.6,183.1z"/>
								<path id="Path_296" class="st5" d="M334.7,177.5h-0.9c0.2-1.7,0.6-3.3,1.3-4.9c0.4-0.9,0.7-1.9,0.9-2.7
									c0.8-2.7,1-5.6,0.5-8.4l0.9-0.2c0.5,2.9,0.4,6-0.5,8.8c-0.2,0.9-0.6,1.8-0.9,2.8C335.3,174.4,334.9,176,334.7,177.5z"/>
								<path id="Path_297" class="st5" d="M319.7,178.7c-0.2-5.2-3.9-8.8-7.5-12.2c-1.5-1.4-2.9-2.8-4.2-4.4
									c-1.1-1.3-2.9-3.9-2.7-6.3l0.9,0.1c-0.1,2.1,1.7,4.6,2.5,5.6c1.3,1.5,2.7,2.9,4.1,4.3c3.7,3.5,7.5,7.2,7.8,12.8L319.7,178.7
									z"/>
								<path id="Path_298" class="st5" d="M309.3,195.9c-1.3,0-2.6-0.2-3.9-0.5c-2.9-0.6-6.7-1.6-8.6-3.5l0.6-0.7
									c1.8,1.7,5.4,2.7,8,3.2c1.7,0.3,3.8,0.7,5.2,0.3l0.2,0.9C310.4,195.9,309.9,196,309.3,195.9z"/>
								<path id="Path_299" class="st5" d="M311.9,187.8c-1-2-3.7-2.9-6-3.7c-0.7-0.2-1.3-0.5-1.9-0.7c-1.8-0.7-3.6-1.3-5.4-1.8
									c-2.1-0.6-4.2-1.3-6.1-2.1l0.4-0.8c2,0.8,4,1.5,6,2.1c1.9,0.5,3.7,1.1,5.6,1.8c0.5,0.2,1.2,0.4,1.8,0.7
									c2.5,0.9,5.3,1.9,6.5,4.2L311.9,187.8z"/>
								<path id="Path_300" class="st5" d="M293.8,218.8c-1,0-2-0.1-3-0.5l0.3-0.9c2.2,0.6,4.6,0.5,6.8-0.4c2.1-0.9,3.7-3.1,5.2-5.2
									c0.6-0.9,1.3-1.8,2-2.7c1.3-1.5,3.1-2.6,5-3.1l0.8-0.2c1.2-0.5,2.5-0.7,3.8-0.6l-0.2,0.9c-1.2,0-2.3,0.2-3.4,0.6
									c-0.3,0.1-0.6,0.2-0.8,0.2c-1.8,0.5-3.4,1.4-4.5,2.8c-0.7,0.8-1.4,1.7-2,2.6c-1.6,2.2-3.2,4.5-5.6,5.5
									C296.8,218.5,295.3,218.8,293.8,218.8z"/>
								<path id="Path_301" class="st5" d="M308.4,221.3l-0.8-0.4c0.1-0.2,0.2-0.5,0.4-0.9c3.6-8.1,5.8-12,7.2-12.5
									c0.3-0.1,0.5-0.1,0.8,0l-0.4,0.8h-0.1c-0.8,0.3-2.6,2.6-6.7,12C308.7,220.8,308.5,221.1,308.4,221.3z"/>
							</g>
							<g id="Group_234">
								<g id="Group_233">
									<g id="Group_232">
										<path id="Path_302" class="st5" d="M28.4,173.5c-0.3,0-0.6,0-0.9-0.1c-3.6-0.4-6.5-3.4-8.9-9.2c-1.9-4.4-2.4-9.2-1.7-13.9
											c1.1-6.4,5.3-11.6,12-15c3.2-1.7,6.7-2.6,10.3-2.5c3.8,0.1,8.7,1.7,10.1,5.8c1.1,3.1-0.4,6.3-1.7,9.1
											c-0.2,0.5-0.5,1-0.7,1.5c-2.4,5.3-5.2,10.4-8.3,15.3l-0.5,0.9c-1.7,2.9-3.7,6.1-6.7,7.4l0,0
											C30.5,173.3,29.4,173.5,28.4,173.5z M38.7,133.7c-3.3,0.1-6.4,0.9-9.3,2.4c-4.5,2.3-10.1,6.6-11.5,14.4
											c-0.7,4.5-0.2,9.1,1.6,13.4c2.3,5.4,4.9,8.3,8.1,8.7c1.2,0.2,2.3,0,3.4-0.5c2.8-1.2,4.6-4.3,6.3-7.1l0.5-0.9
											c3.1-4.9,5.9-10,8.3-15.2l0.7-1.5c1.3-2.7,2.7-5.7,1.7-8.4c-1.3-3.6-5.8-5.1-9.3-5.2L38.7,133.7L38.7,133.7z"/>
										<path id="Path_303" class="st5" d="M36.7,205.7c-2.2,0-2.7-1.9-3.2-3.5l-0.1-0.2l-0.1,0.2c-0.1,0.4-0.3,0.8-0.6,1.1
											c-0.4,0.3-0.9,0.5-1.4,0.5l0,0c-0.6,0-1.2-0.3-1.6-0.7c-6.8-7.9-2.9-23.6-0.9-30l0.9,0.3c-1.5,4.9-6,21.4,0.7,29.1
											c0.2,0.3,0.5,0.4,0.9,0.4c0.3,0,0.5-0.1,0.8-0.3c0.1-0.2,0.2-0.5,0.3-0.8c0.3-0.8,0.5-1.4,1-1.3c0.3,0.1,0.6,0.3,0.7,0.6
											c0.1,0.2,0.2,0.5,0.2,0.8c0.6,2,1,3.1,3.1,2.7c2.4-0.5,5.1-2.9,5.3-5.5c0.2-2.1-0.9-4.1-1.8-5.9l-0.5-1
											c-3.1-5.9-6-11.5-6.5-18.4c-0.1-1.2-0.1-2.4,0-3.6h0.9c-0.1,1.2-0.1,2.3,0,3.5c0.4,6.7,3.3,12.2,6.4,18l0.5,1
											c1,1.9,2.2,4.1,1.9,6.4c-0.3,3.2-3.4,5.8-6.1,6.3C37.3,205.6,37,205.7,36.7,205.7z"/>
										<path id="Path_304" class="st5" d="M48.7,198.9c-0.4,0-0.7-0.1-1.1-0.2c-1.9-0.6-3-2.1-4.1-3.6c-0.3-0.4-0.7-0.9-1-1.3
											c-0.6-0.7-1.3-1.4-2.1-2.1L41,191c0.8,0.7,1.6,1.4,2.2,2.2c0.4,0.4,0.7,0.9,1.1,1.4c1,1.4,2,2.7,3.6,3.2
											c0.6,0.3,1.3,0.2,1.8-0.2c0.2-0.3,0.3-0.6,0.2-1c0-0.5-0.2-1.1-0.3-1.6c-0.1-0.4-0.2-0.7-0.3-1.1
											c-0.1-0.9,0.1-1.8,0.7-2.5l0.3-0.5c0.4-0.6,0.4-1.4,0-2c-0.3-0.6-0.4-1.3-0.2-2c0.1-0.5,0.4-0.9,0.8-1.2l0.1-0.1
											c0.9-0.9,1.3-2.1,1.4-3.3c0-2.6-2-4.3-3.7-5.5l-1.3-0.8c-2.8-1.7-5.4-3.8-7.7-6.2c-1-1.1-1.8-2.4-2.5-3.8l0.8-0.4
											c0.6,1.3,1.4,2.5,2.3,3.5c2.2,2.3,4.7,4.4,7.5,6.1l1.2,0.8c1.8,1.2,4.2,3.2,4.1,6.3c0,1.5-0.6,2.9-1.6,4l-0.2,0.2
											c-0.2,0.2-0.4,0.4-0.5,0.7c-0.1,0.5,0,1,0.2,1.4c0.4,0.9,0.4,1.9-0.1,2.8c-0.1,0.2-0.2,0.3-0.3,0.5
											c-0.4,0.5-0.6,1.2-0.6,1.9c0.1,0.3,0.2,0.7,0.3,1c0.2,0.6,0.3,1.2,0.4,1.8c0.1,0.6-0.1,1.1-0.4,1.6
											C49.9,198.7,49.3,199,48.7,198.9z"/>
										<path id="Path_305" class="st5" d="M43.4,173.1c-0.3-0.2-0.5-0.4-0.8-0.7c-0.5-0.6-0.9-1.3-1-2c-0.7-2.5-1.6-4.9-2.6-7.2
											l0.8-0.4c1,2.4,1.9,4.8,2.7,7.4c0.1,0.6,0.4,1.2,0.8,1.6c0.2,0.2,0.4,0.4,0.6,0.6L43.4,173.1z"/>
										<path id="Path_306" class="st5" d="M53.1,181.3c-0.2,0-0.4,0-0.7,0l0.1-0.9c1.2,0.2,2.4-0.2,3.3-1
											c3.2-2.7,1.1-6.1-0.5-8.7c-1-1.7-1.8-3.1-0.9-3.9l0.2-0.2c0.3-0.3,0.7-0.6,1-0.9c2.2-1.9,2.1-2.5,1.9-3.5
											c-0.2-1.5,0-3,0.7-4.3c0.4-1.1,0.1-2.4-0.8-3.2c-2.2-2.5-4.2-1.7-6.9-0.6c-2,0.8-4.4,1.8-7.1,1.2l0.2-0.9
											c2.5,0.5,4.5-0.3,6.6-1.1c2.7-1.1,5.3-2.1,7.9,0.9c1.1,1.1,1.4,2.7,0.9,4.2c-0.6,1.2-0.8,2.5-0.6,3.8
											c0.2,1.3,0.2,2.2-2.2,4.3l-1.1,0.9l-0.2,0.1c-0.4,0.3,0.4,1.6,1.1,2.7c1.6,2.7,4,6.7,0.3,9.9
											C55.6,180.9,54.4,181.3,53.1,181.3z"/>
										<path id="Path_307" class="st5" d="M49.5,138.6c-0.3,0-0.6,0-1-0.1l0.1-0.9c2.2,0.2,4.3-0.5,5.9-2c1-0.9,1.9-1.9,2.7-2.9
											c1.8-2.2,3.8-4.3,5.9-6.2c2.2-1.9,5.5-4.4,8.2-4c1.2,0.2,2.2,0.9,2.8,2l0.1,0.1c0.1,0.1,0.1,0.2,0.2,0.3
											c0.3,0.3,1.2,0.2,2,0.1c0.4-0.1,0.9-0.1,1.3-0.1c1.8,0.2,4.3,0.7,5.7,2.6c1.5,2.2,1,5.2-0.4,7.2c-1.1,1.8-3.2,2.7-5.2,2.2
											l0.2-0.9c1.7,0.4,3.4-0.4,4.2-1.9c1.2-1.7,1.6-4.3,0.4-6.1s-3.3-2.1-5.1-2.3c-0.4,0-0.7,0-1.1,0.1c-1,0.1-2,0.3-2.7-0.3
											c-0.2-0.2-0.3-0.3-0.4-0.5c-0.4-0.9-1.2-1.4-2.2-1.6c-2.6-0.4-6.3,2.8-7.5,3.8c-2.1,1.9-4,3.9-5.8,6.1
											c-0.9,1.1-1.8,2.1-2.8,3C53.6,137.7,51.6,138.5,49.5,138.6z"/>
										<path id="Path_308" class="st5" d="M48.6,145.7l-0.4-0.8c4.1-1.8,8.2-1.4,12.1-0.9c4.9,0.5,9.6,1,14-2.8
											c1.1-0.9,2-2.1,2.7-3.4c0.5-1.1,0.3-2.4-0.5-3.3c-2-2.3-5.4-0.6-10.2,1.8c-4.5,2.3-10,5.1-16.8,5.9l-0.1-0.9
											c6.6-0.7,12.1-3.5,16.5-5.8c5.1-2.6,8.8-4.5,11.3-1.6c1,1.2,1.3,2.8,0.7,4.3c-0.7,1.4-1.7,2.7-2.9,3.7
											c-4.7,4.1-9.8,3.5-14.7,3C56.5,144.4,52.5,144,48.6,145.7z"/>
										<path id="Path_309" class="st5" d="M64.8,169c-2.8,0-5.5-1.3-7.4-3.4l-0.3-0.3l0.7-0.6c0.1,0.1,0.2,0.2,0.3,0.3
											c2.3,2.6,6.8,4.2,10.2,2.1c1.1-0.7,2-1.7,2.4-3c0.1-0.4,0.1-0.8,0.1-1.2c0-1,0.1-2,0.6-2.5c0.4-0.3,0.8-0.6,1.3-0.8
											c0.4-0.2,0.8-0.4,1.2-0.7c1.2-1.2-0.1-2.8-1.6-4.3c-3.8-3.9-9.7-4.6-14.4-4.7c-1.6-0.1-3.3,0-4.9,0h-2.3h-0.7
											c-1.3,0.2-2.6,0-3.8-0.5l0.5-0.8c1,0.4,2.2,0.6,3.3,0.4h0.7H53c1.6,0,3.3-0.1,4.9,0c4.9,0.2,11.1,0.9,15.1,5
											c1.1,1.2,3.5,3.7,1.6,5.6c-0.4,0.4-0.9,0.7-1.5,0.9c-0.4,0.2-0.8,0.4-1.1,0.6c-0.2,0.2-0.3,1.2-0.3,1.8c0,0.5,0,1-0.2,1.4
											c-0.5,1.5-1.5,2.7-2.8,3.5C67.5,168.6,66.2,169,64.8,169z"/>
										<path id="Path_310" class="st5" d="M74,156h-0.2l0.1-0.9c0.3,0,0.5,0,0.8-0.2c0.3-0.4,0.5-0.8,0.6-1.3
											c0.1-0.7,0.4-1.3,0.9-1.9c0.5-0.4,1.1-0.8,1.8-1.1c0.6-0.3,1.2-0.7,1.8-1.1c0.6-0.5,1-1.2-0.1-2.5s-3.2-1.4-5.1-1.4
											c-1.7,0-3.4,0-4.6-0.9l0.6-0.7c0.9,0.7,2.4,0.7,4,0.7c2,0,4.3,0,5.8,1.7c1.7,1.9,0.7,3.2,0,3.8c-0.6,0.5-1.2,0.9-1.9,1.2
											c-0.6,0.3-1.1,0.6-1.6,1c-0.3,0.4-0.5,0.9-0.6,1.4c-0.1,0.7-0.4,1.3-0.9,1.8C74.9,155.9,74.4,156,74,156z"/>
										<path id="Path_311" class="st5" d="M55.2,138.6l-0.2-0.9c3.7-1.1,7.2-2.6,10.5-4.5c5.7-3,10.6-5.5,14.4-1.1
											c0.6,0.7,1,1.4,1.3,2.3l-0.9,0.3c-0.2-0.7-0.6-1.4-1.1-2C76,128.9,71.8,131,66,134C62.6,135.9,59,137.5,55.2,138.6z"/>
										<path id="Path_312" class="st5" d="M22.7,165.8l-0.1-0.9c0.1,0,0.2,0,0.3-0.1c0-0.1,0-0.2,0-0.2l0.9-0.2
											c0.1,0.3,0,0.7-0.2,1C23.4,165.6,23,165.7,22.7,165.8z"/>
										<path id="Path_313" class="st5" d="M26,167.1l-0.4-0.8c0.3-0.2,0.5-0.5,0.5-0.9l0.9-0.1C27.1,166.1,26.7,166.8,26,167.1z"
											/>
										<path id="Path_314" class="st5" d="M30,162.1l-0.7-0.6c0.4-0.5,0.5-0.9,0.4-1.2l0.8-0.4C30.7,160.8,30.6,161.6,30,162.1z"
											/>
										<path id="Path_315" class="st5" d="M27.6,160.9l-0.5-0.7c0.1-0.1,0.2-0.2,0.2-0.4c0-0.2,0-0.4-0.2-0.6l0.7-0.6
											c0.3,0.4,0.4,0.8,0.4,1.3C28.2,160.3,28,160.7,27.6,160.9z"/>
										<path id="Path_316" class="st5" d="M37.8,158.1l-0.5-0.8c0.8-0.5,1.3-1.4,1.2-2.4h0.9C39.5,156.2,38.9,157.4,37.8,158.1z"
											/>
										<path id="Path_317" class="st5" d="M37,154.4l-0.4-0.8c0.5-0.3,0.8-1,0.5-1.6l0.8-0.4C38.3,152.6,38,153.8,37,154.4z"/>
										<path id="Path_318" class="st5" d="M41.9,149.3l-0.2-0.9c0.9-0.2,1-1.1,0.9-1.7l0.9-0.1C43.9,147.7,43.1,149,41.9,149.3
											C41.9,149.3,41.9,149.3,41.9,149.3L41.9,149.3z"/>
										<path id="Path_319" class="st5" d="M41.8,145l-0.5-0.8c0.5-0.3,0.6-0.6,0.5-1.4l0.9-0.1C43,143.6,42.6,144.5,41.8,145z"/>
										<path id="Path_320" class="st5" d="M45.2,143.5l-0.6-0.7c0.4-0.4,0.5-1.1,0.2-1.6l0.8-0.4
											C46.1,141.6,45.9,142.8,45.2,143.5z"/>
										<path id="Path_321" class="st5" d="M39.1,141.8l-0.7-0.6c0.3-0.3,0.4-0.8,0.1-1.2l0.8-0.5
											C39.8,140.3,39.7,141.2,39.1,141.8z"/>
										<path id="Path_322" class="st5" d="M35.2,142.9l-0.7-0.6c0.2-0.3,0.2-0.7,0-1l0.8-0.4C35.6,141.5,35.6,142.3,35.2,142.9z"
											/>
										<path id="Path_323" class="st5" d="M28.8,152.4l-0.4-0.8c0.6-0.4,1.1-1,1.3-1.7l0.2-0.4l0.8,0.4l-0.2,0.3
											C30.2,151.2,29.5,151.9,28.8,152.4z"/>
										<path id="Path_324" class="st5" d="M28.4,147.8l-0.3-0.9c0.4-0.1,0.4-0.4,0.5-1v-0.2l0.9,0.1v0.2
											C29.6,146.8,29.1,147.5,28.4,147.8z"/>
										<path id="Path_325" class="st5" d="M31.5,168.4l-0.1-0.9c1,0,1.8-0.7,1.8-1.7v-0.1l0.9,0.1
											C34.1,167.2,33,168.4,31.5,168.4z"/>
										<path id="Path_326" class="st5" d="M33.4,164.8L33,164c0.4-0.3,0.8-0.7,0.9-1.2l0.9,0.3C34.5,163.9,34,164.5,33.4,164.8z"
											/>
										<path id="Path_327" class="st5" d="M37.7,163.9l-0.5-0.7c0.2-0.1,0.3-0.3,0.4-0.6l0.9,0.2C38.3,163.2,38,163.6,37.7,163.9
											z"/>
										<path id="Path_328" class="st5" d="M23.5,156.7l-0.4-0.8c0.4-0.2,0.7-0.6,0.7-1.1l0.9,0.1
											C24.7,155.6,24.2,156.3,23.5,156.7z"/>
										<path id="Path_329" class="st5" d="M22.4,150.9c-0.1-0.5,0-1.1,0.4-1.5c0.4-0.4,0.9-0.6,1.4-0.5l-0.1,0.9
											c-0.2,0-0.4,0-0.6,0.2c-0.2,0.2-0.2,0.4-0.1,0.7L22.4,150.9z"/>
										<path id="Path_330" class="st5" d="M23.6,147l-0.8-0.4c0.3-0.6,0.9-1,1.5-1.1l0.2,0.9C24.1,146.5,23.8,146.7,23.6,147z"/>
										<path id="Path_331" class="st5" d="M25.9,140.9l-0.7-0.6c0.3-0.4,0.9-0.5,1.4-0.2l-0.5,0.8
											C26.2,140.8,26.1,140.8,25.9,140.9z"/>
										<path id="Path_332" class="st5" d="M32.6,138.7c-0.3-0.2-0.6-0.4-0.9-0.6l-0.1-0.1l0.4-0.8l0.1,0.1
											c0.4,0.2,0.8,0.4,1.2,0.7L32.6,138.7z"/>
										<path id="Path_333" class="st5" d="M20.1,155.7c-0.5,0-1-0.2-1.3-0.5c-0.2-0.2-0.3-0.6-0.3-0.9h0.9c0,0.1,0,0.2,0.1,0.2
											c0.2,0.2,0.4,0.2,0.7,0.2L20.1,155.7z"/>
										<path id="Path_334" class="st5" d="M19.9,159.9c-0.2,0-0.5-0.1-0.7-0.2c-0.3-0.2-0.6-0.5-0.8-0.9l0.9-0.4
											c0.1,0.2,0.2,0.3,0.4,0.4c0.1,0.1,0.3,0.1,0.4,0l0.4,0.8C20.3,159.8,20.1,159.9,19.9,159.9z"/>
										<path id="Path_335" class="st5" d="M43.8,138.8c-0.2-0.6-0.7-1.2-1.3-1.4l0.3-0.9c0.9,0.3,1.6,1.1,1.8,2L43.8,138.8z"/>
										<path id="Path_336" class="st5" d="M30.9,191.8c-1.2-3.3-0.7-6.7-0.2-10.1c0.4-2.9,0.8-5.7,0.2-8.4l0.9-0.2
											c0.7,2.8,0.3,5.8-0.2,8.7c-0.5,3.2-1,6.6,0.1,9.6L30.9,191.8z"/>
										<path id="Path_337" class="st5" d="M43.6,189.5c-1.1-1.2-2-2.5-2.8-3.8c-1.5-2.6-2.6-5.4-3.3-8.2c-0.4-1.5-0.8-3-1.4-4.4
											c-0.1-0.3-0.3-0.7-0.5-1.1c-0.5-0.8-0.8-1.6-1-2.5l0.9-0.1c0.2,0.8,0.5,1.5,0.9,2.2c0.2,0.4,0.4,0.8,0.5,1.1
											c0.6,1.5,1.1,3,1.4,4.6c0.7,2.8,1.7,5.5,3.2,8c0.8,1.3,1.7,2.5,2.7,3.7L43.6,189.5z"/>
									</g>
									<path id="Path_338" class="st5" d="M52.9,176.5c-3.1-0.9-5.1-4.9-6.4-7.6c-1.5-3-4-6.6-6.2-8l0.5-0.8
										c2.7,1.6,5.3,5.9,6.5,8.2s3.2,6.4,5.9,7.2L52.9,176.5z"/>
								</g>
								<path id="Path_339" class="st5" d="M94.8,197.6c-2.8-6.3-12-10.9-18.1-13.9l-0.2-0.1c-4.6-2.3-9-5.1-12.9-8.4
									c-0.4-0.3-0.8-0.7-1.3-1.1c-2.5-2-6-4.9-6.7-7.7l0.9-0.2c0.6,2.5,4,5.2,6.4,7.2c0.5,0.4,0.9,0.8,1.3,1.1
									c3.9,3.3,8.2,6,12.7,8.3l0.2,0.1c6.2,3.1,15.6,7.8,18.6,14.4L94.8,197.6z"/>
							</g>
							<g id="Group_235">
								<path id="Path_340" class="st5" d="M225.9,100.2c6.1-6.9,16.8-8.7,25.2-11.4c0.3-0.1-0.5-0.5-0.8-0.4
									c-8.5,2.6-19.2,4.4-25.3,11.4C224.8,100,225.7,100.4,225.9,100.2L225.9,100.2z"/>
							</g>
							<g id="Group_236">
								<path id="Path_341" class="st5" d="M218.6,98.5c3.4-3.5,7.7-5.3,12.1-7.2c6-2.7,11.8-5.9,18.5-6.9c0.6-0.1,0.6-0.5,0-0.4
									c-5.8,0.9-11,3.2-16.2,5.7s-11,4.4-15.1,8.7C217.5,98.6,218.4,98.7,218.6,98.5L218.6,98.5z"/>
							</g>
							<g id="Group_237">
								<path id="Path_342" class="st5" d="M209.2,98.1c7.9-8,19.4-10.1,29.3-14.6c0.3-0.1-0.6-0.4-0.8-0.3
									c-9.9,4.5-21.5,6.7-29.4,14.7C208.2,98,209,98.2,209.2,98.1z"/>
							</g>
							<g id="Group_241">
								<g id="Group_240">
									<g id="Group_239">
										<g id="Group_238">
											<path id="Path_343" class="st5" d="M85,63.2c-1.6,0-3.2-0.4-4.7-1.2l0,0c-3.6-2.1-5.6-6.4-7.3-10.2l-0.6-1.2
												c-3.2-6.6-6-13.4-8.3-20.4c-0.2-0.6-0.4-1.3-0.7-2c-1.3-3.7-2.7-7.9-0.9-11.6c2.4-4.9,8.7-6.2,13.4-5.8
												c4.5,0.5,8.8,2,12.5,4.6c7.9,5.2,12.4,12.3,12.9,20.4c0.3,6-1.1,11.9-4,17.1C93.6,59.8,89.5,63.2,85,63.2L85,63.2z
												 M80.8,61.2c1.3,0.8,2.7,1.1,4.2,1.1H85c4.1,0,7.9-3.2,11.5-9.8c2.8-5.1,4.2-10.8,3.9-16.6c-0.5-7.9-4.8-14.7-12.5-19.7
												c-3.6-2.5-7.7-4-12-4.4c-4.4-0.3-10.3,0.8-12.5,5.3c-1.7,3.4-0.3,7.4,0.9,10.9c0.2,0.7,0.5,1.4,0.7,2
												c2.3,6.9,5,13.7,8.2,20.2l0.6,1.2C75.6,55.1,77.5,59.2,80.8,61.2L80.8,61.2z"/>
											<path id="Path_344" class="st5" d="M69.6,102.3c-0.6,0-1.1-0.1-1.7-0.3c-3.2-1.1-6.7-4.7-6.6-8.7c0-2.9,1.8-5.5,3.3-7.8
												l0.8-1.2c4.6-6.9,9-13.4,10.5-21.8c0.3-1.5,0.4-2.9,0.5-4.4l0.9,0.1c-0.1,1.5-0.3,3-0.5,4.5c-1.5,8.6-6,15.1-10.7,22.1
												l-0.9,1.2c-1.4,2.2-3.1,4.6-3.1,7.3c0,3.4,3.1,6.8,6,7.8c2.6,0.9,3.3-0.5,4.4-3c0.1-0.3,0.2-0.6,0.4-0.9
												c0.2-0.5,0.6-0.6,0.8-0.6c0.6,0,0.7,0.6,1,1.7c0.1,0.4,0.2,0.7,0.3,1.1c0.3,0.3,0.6,0.4,1,0.4c0.4,0.1,0.9-0.1,1.2-0.4
												c9.5-8.8,6.2-30.2,5-36.5l0.9-0.2c1.6,8.3,4.3,28.5-5.2,37.4c-0.5,0.5-1.3,0.7-2,0.7c-0.6-0.1-1.2-0.3-1.6-0.8
												c-0.3-0.5-0.5-1-0.5-1.5c0-0.2-0.1-0.4-0.2-0.6l-0.3,0.6C72.6,100.3,71.8,102.3,69.6,102.3z"/>
											<path id="Path_345" class="st5" d="M55.3,92.5H55c-0.8-0.1-1.6-0.6-2-1.3c-0.3-0.6-0.4-1.3-0.3-1.9
												c0.1-0.7,0.4-1.5,0.7-2.2c0.2-0.4,0.3-0.8,0.5-1.2c0.2-0.9,0-1.8-0.5-2.5c-0.1-0.2-0.2-0.4-0.3-0.7
												c-0.5-1.1-0.4-2.4,0.3-3.4c0.4-0.5,0.5-1.2,0.5-1.8c-0.1-0.4-0.3-0.8-0.6-1.1l-0.2-0.2c-1.1-1.5-1.6-3.3-1.5-5.2
												c0.4-3.8,3.6-6,6-7.2l1.6-0.8c3.6-1.9,7.2-3.8,10.2-6.6c1.3-1.2,2.5-2.6,3.4-4.2l0.8,0.5c-1,1.6-2.2,3.1-3.6,4.3
												c-3.1,2.8-6.8,4.8-10.4,6.7l-1.6,0.9c-2.4,1.3-5.2,3.2-5.5,6.5c-0.1,1.6,0.3,3.2,1.3,4.5l0.2,0.2
												c0.4,0.4,0.7,0.9,0.8,1.5c0.1,0.8-0.1,1.6-0.5,2.3c-0.5,0.8-0.6,1.7-0.3,2.6c0.1,0.2,0.2,0.4,0.3,0.6
												c0.6,0.9,0.8,2.1,0.5,3.2c-0.1,0.4-0.3,0.9-0.5,1.3c-0.3,0.6-0.5,1.3-0.6,2c-0.1,0.4,0,0.9,0.2,1.3
												c0.3,0.5,0.7,0.8,1.3,0.9h0.2c2.1,0,5.1-3.1,6.6-4.7c0.3-0.3,0.6-0.7,0.8-0.8c1-0.9,2-1.7,3.1-2.5l0.4,0.8
												c-1,0.7-2,1.5-2.9,2.3l-0.8,0.8C60.8,89.4,57.8,92.5,55.3,92.5z"/>
											<path id="Path_346" class="st5" d="M65.1,60.5l-0.5-0.8c0.3-0.2,0.6-0.4,0.9-0.7c0.6-0.5,1.1-1.2,1.3-2
												c1.3-3,2.7-6,4.4-8.8l0.8,0.4c-1.6,2.8-3.1,5.7-4.3,8.7c-0.3,0.9-0.8,1.7-1.5,2.3C65.9,60,65.5,60.2,65.1,60.5z"/>
											<path id="Path_347" class="st5" d="M52.5,69.5c-1.8,0-3.5-0.8-4.7-2.1c-4.2-4.5-0.6-9.1,1.8-12.2
												c1.2-1.5,2.2-2.9,1.8-3.4l-0.1-0.1c-0.4-0.4-0.9-0.9-1.3-1.3c-2.7-2.9-2.6-4-2.2-5.6c0.5-1.6,0.4-3.4-0.2-5
												c-0.5-1.9,0.2-3.8,1.7-5c3.6-3.4,6.7-1.7,9.9,0c2.4,1.3,5,2.7,8.1,2.3l0.1,0.9c-3.5,0.3-6.2-1.1-8.7-2.5
												c-3.2-1.7-5.7-3.1-8.8-0.2c-1.3,1-1.9,2.6-1.5,4.2c0.7,1.7,0.8,3.7,0.2,5.5c-0.3,1.3-0.5,2.1,2,4.8
												c0.4,0.5,0.9,0.9,1.3,1.3l0.1,0.1c1,1.1-0.2,2.7-1.7,4.6c-2.4,3.2-5.4,7.1-1.8,11c1,1.2,2.6,1.8,4.1,1.8L52.5,69.5
												L52.5,69.5z"/>
											<path id="Path_348" class="st5" d="M63.4,16.5c-3-0.1-5.8-1.4-7.7-3.7c-1.1-1.3-2.1-2.7-3.1-4.2c-1.9-3-4.1-5.8-6.4-8.5
												c-1.4-1.4-5.4-5.8-8.8-5.8h-0.2c-1.2,0.1-2.3,0.7-3,1.7l-0.1,0.1c-0.2,0.2-0.3,0.4-0.5,0.6c-0.9,0.6-2.2,0.3-3.3,0
												c-0.4-0.1-0.9-0.1-1.3-0.2h-0.2c-2.1,0-4.9,0.2-6.5,2.2c-1.9,2.1-1.6,5.5-0.4,7.8c0.9,2,3,3.3,5.2,3l0.1,0.9
												c-2.6,0.3-5.1-1.1-6.1-3.5c-1.4-2.6-1.6-6.4,0.5-8.9c1.9-2.2,5-2.5,7.2-2.5h0.2c0.5,0,1.1,0.1,1.6,0.3
												c0.9,0.2,2,0.5,2.6,0.1c0.1-0.1,0.3-0.2,0.4-0.4l0.1-0.1c0.8-1.2,2.2-1.9,3.6-2c3.5-0.1,7.2,3.4,9.7,6.1
												c2.4,2.7,4.5,5.6,6.5,8.6c0.9,1.4,1.9,2.8,3,4.1c1.8,2.1,4.3,3.3,7,3.4h0.2L63.4,16.5L63.4,16.5z"/>
											<path id="Path_349" class="st5" d="M62.5,25.4c-4.7-2.7-9.7-2.7-14.6-2.7c-6.2,0-12.6-0.1-17.9-5.8
												c-1.4-1.4-2.5-3.1-3.1-5c-0.6-1.8,0-3.9,1.4-5.1c3.4-3.2,7.8-0.3,13.8,3.6c5.2,3.4,11.7,7.7,19.9,9.5l-0.2,0.9
												c-8.4-1.9-14.9-6.2-20.2-9.6c-5.7-3.7-9.8-6.4-12.7-3.7c-1.2,1-1.7,2.7-1.2,4.2c0.6,1.7,1.6,3.3,2.9,4.6
												c5,5.4,11,5.5,17.3,5.5c5,0,10.1,0,15,2.8L62.5,25.4z"/>
											<path id="Path_350" class="st5" d="M40.2,52.5c-2.2,0-4.3-0.6-6-1.9c-1.5-1.2-2.6-2.9-3-4.8c-0.1-0.6-0.1-1.2,0-1.8
												c0.1-0.9,0.2-2.1-0.2-2.4c-0.4-0.4-0.8-0.7-1.3-0.9c-0.6-0.3-1.2-0.8-1.7-1.3c-2.1-2.7,1-5.3,2.7-6.7
												c5.6-4.7,13.3-4.7,19.5-4.2c2.1,0.2,4.1,0.4,6.2,0.7l2.8,0.4l0.9,0.1c1.4,0.2,3.1,0.5,4.2-0.1l0.4,0.8
												c-1.4,0.6-3.3,0.4-4.8,0.1l-0.9-0.1c-1-0.1-1.9-0.2-2.9-0.4c-2-0.3-4.1-0.5-6.1-0.7c-6-0.5-13.5-0.5-18.9,4
												c-2,1.7-4,3.6-2.6,5.4c0.4,0.5,0.9,0.8,1.4,1.1c0.6,0.3,1.1,0.7,1.5,1.1c0.6,0.6,0.5,1.9,0.4,3.1c-0.1,0.5-0.1,1,0,1.5
												c0.4,1.7,1.3,3.2,2.7,4.2c4,3.1,10,1.8,13.2-1.2c0.1-0.1,0.2-0.2,0.4-0.4l0.6,0.7l-0.4,0.4
												C46.3,51.3,43.3,52.5,40.2,52.5z"/>
											<path id="Path_351" class="st5" d="M29.4,34.9c-0.6,0-1.2-0.2-1.6-0.7c-0.5-0.7-0.8-1.5-0.8-2.3c0-0.7-0.2-1.3-0.6-1.9
												c-0.6-0.5-1.2-1-1.9-1.4c-0.8-0.5-1.6-1.1-2.3-1.8c-0.8-0.8-1.7-2.5,0.5-4.6c2-1.9,4.8-1.6,7.4-1.3
												c2,0.2,3.9,0.4,5.2-0.4l0.5,0.8c-1.6,1-3.6,0.7-5.8,0.5c-2.4-0.3-5-0.5-6.7,1s-1.1,2.6-0.5,3.3c0.6,0.6,1.3,1.2,2.1,1.6
												c0.7,0.5,1.4,1,2,1.6c0.5,0.7,0.8,1.5,0.9,2.4c0,0.7,0.2,1.3,0.6,1.8c0.3,0.3,0.6,0.4,1,0.4L29.4,34.9z"/>
											<path id="Path_352" class="st5" d="M55.2,15.6c-4.5-1.9-8.8-4.3-12.8-7.2C35.7,4,30.5,0.6,25.8,4.9
												c-0.7,0.7-1.3,1.5-1.7,2.4l-0.8-0.4c0.5-1,1.1-1.9,1.9-2.7C30.4-0.6,35.9,3,42.9,7.7c3.9,2.8,8.2,5.2,12.6,7.1L55.2,15.6
												z"/>
											<path id="Path_353" class="st5" d="M92.2,54.2c-0.4-0.1-0.8-0.3-1.1-0.7c-0.2-0.4-0.2-0.8-0.1-1.2l0.9,0.3
												c-0.1,0.1-0.1,0.3,0,0.4c0.1,0.1,0.3,0.2,0.4,0.3L92.2,54.2z"/>
											<path id="Path_354" class="st5" d="M87.9,55.5c-0.8-0.5-1.1-1.4-0.9-2.3l0.9,0.2c-0.1,0.5,0.1,1,0.6,1.3L87.9,55.5z"/>
											<path id="Path_355" class="st5" d="M83.6,48.7c-0.6-0.7-0.7-1.8-0.2-2.6l0.8,0.5c-0.3,0.4-0.2,0.9,0.3,1.6L83.6,48.7z"/>
											<path id="Path_356" class="st5" d="M86.7,47.5c-0.4-0.3-0.6-0.8-0.6-1.2c0-0.5,0.2-1.1,0.6-1.5l0.6,0.7
												c-0.2,0.2-0.3,0.5-0.3,0.8c0,0.2,0.1,0.4,0.3,0.6L86.7,47.5z"/>
											<path id="Path_357" class="st5" d="M74.4,42.5c-1.3-1-1.9-2.5-1.6-4.1l0.9,0.1c-0.2,1.2,0.2,2.5,1.2,3.2L74.4,42.5z"/>
											<path id="Path_358" class="st5" d="M75.9,37.9c-1.1-0.8-1.4-2.3-0.8-3.5l0.8,0.5c-0.4,0.8-0.2,1.7,0.5,2.2L75.9,37.9z"/>
											<path id="Path_359" class="st5" d="M70.4,30.9c-1.4-0.5-2.1-2.1-1.6-3.5l0,0l0.9,0.2c-0.2,0.7-0.2,2,0.9,2.4L70.4,30.9z"
												/>
											<path id="Path_360" class="st5" d="M71.2,25.5c-0.9-0.7-1.2-1.9-0.8-2.9l0.9,0.2c-0.2,0.9-0.2,1.4,0.4,1.9L71.2,25.5z"/>
											<path id="Path_361" class="st5" d="M67.1,23.2c-0.8-0.9-0.9-2.3-0.1-3.3l0.8,0.5c-0.5,0.6-0.5,1.6,0.1,2.2L67.1,23.2z"/>
											<path id="Path_362" class="st5" d="M75,22c-0.6-0.8-0.6-2,0-2.8l0.7,0.6c-0.4,0.5-0.4,1.2,0,1.7L75,22z"/>
											<path id="Path_363" class="st5" d="M79.8,23.8c-0.5-0.8-0.4-1.8,0.2-2.5l0.7,0.5c-0.3,0.4-0.4,1-0.1,1.5L79.8,23.8z"/>
											<path id="Path_364" class="st5" d="M86.5,36.6c-0.9-0.7-1.5-1.7-1.8-2.8l-0.2-0.5l0.9-0.3l0.2,0.5
												c0.2,0.9,0.7,1.7,1.4,2.3L86.5,36.6z"/>
											<path id="Path_365" class="st5" d="M87.5,30.9c-0.8-0.5-1.2-1.4-1-2.3v-0.3h0.9v0.3c0,0.8,0,1.2,0.5,1.5L87.5,30.9z"/>
											<path id="Path_366" class="st5" d="M80.8,56.3c-1.7-0.2-3-1.8-2.8-3.5h0.9c-0.2,1.3,0.7,2.4,2,2.6h0.1L80.8,56.3z"/>
											<path id="Path_367" class="st5" d="M78.9,51.6c-0.7-0.5-1.2-1.3-1.4-2.2l0.9-0.2c0.1,0.7,0.4,1.3,1,1.7L78.9,51.6z"/>
											<path id="Path_368" class="st5" d="M73.8,49.8c-0.4-0.4-0.6-0.8-0.7-1.3l0.9-0.1c0.1,0.3,0.2,0.6,0.4,0.8L73.8,49.8z"/>
											<path id="Path_369" class="st5" d="M92.4,42.7c-0.8-0.5-1.2-1.4-1.1-2.4h0.9c0,0.6,0.3,1.2,0.8,1.6L92.4,42.7z"/>
											<path id="Path_370" class="st5" d="M94.4,35.7l-0.9-0.3c0.1-0.3,0.1-0.7-0.1-1c-0.2-0.2-0.5-0.4-0.8-0.3v-0.9
												c0.6,0,1.2,0.2,1.6,0.7C94.6,34.3,94.7,35,94.4,35.7z"/>
											<path id="Path_371" class="st5" d="M93.7,30.7c-0.2-0.5-0.5-0.9-1-1.1l0.3-0.9c0.7,0.3,1.3,0.8,1.6,1.6L93.7,30.7z"/>
											<path id="Path_372" class="st5" d="M91.6,22.7c-0.2-0.3-0.4-0.2-0.5-0.2l-0.4-0.8c0.6-0.2,1.2-0.1,1.6,0.5L91.6,22.7z"/>
											<path id="Path_373" class="st5" d="M83.4,18.9l-0.6-0.7c0.5-0.3,1-0.6,1.5-0.7l0.2-0.1l0.3,0.9l-0.2,0.1
												C84.3,18.5,83.8,18.7,83.4,18.9z"/>
											<path id="Path_374" class="st5" d="M97,42h-0.2l0.1-0.9c0.4,0,0.7,0,1-0.2c0.1-0.1,0.2-0.2,0.2-0.4h0.9
												c0,0.4-0.2,0.7-0.5,1C98,41.8,97.5,42,97,42z"/>
											<path id="Path_375" class="st5" d="M96.6,47.2c-0.3,0-0.6-0.1-0.8-0.2l0.5-0.8c0.2,0.1,0.4,0.1,0.6,0
												c0.3-0.1,0.5-0.3,0.6-0.5l0.8,0.5c-0.3,0.4-0.6,0.7-1.1,0.9C97.1,47.1,96.9,47.2,96.6,47.2z"/>
											<path id="Path_376" class="st5" d="M69.3,17.5l-0.8-0.4c0.5-1.1,1.4-1.8,2.5-2.1l0.2,0.9C70.4,16,69.7,16.7,69.3,17.5z"
												/>
											<path id="Path_377" class="st5" d="M78.1,85.7l-0.8-0.4c1.9-3.7,1.7-7.9,1.6-12.1c-0.1-3.7-0.3-7.5,1-10.9l0.9,0.3
												c-1.2,3.3-1.1,7-0.9,10.6C79.9,77.5,80.1,81.8,78.1,85.7z"/>
											<path id="Path_378" class="st5" d="M62.5,81.1L62,80.4c1.4-1.3,2.7-2.7,3.9-4.2c2.2-2.9,3.9-6.2,5.1-9.6
												c0.7-1.9,1.5-3.7,2.4-5.5c0.2-0.4,0.5-0.8,0.8-1.3c0.6-0.8,1.1-1.7,1.4-2.7l0.9,0.2c-0.3,1.1-0.9,2.1-1.5,3
												c-0.3,0.5-0.6,0.9-0.8,1.3c-0.9,1.7-1.7,3.6-2.4,5.4c-1.2,3.5-3,6.9-5.2,9.9C65.4,78.3,64,79.8,62.5,81.1z"/>
										</g>
										<path id="Path_379" class="st5" d="M52.8,63.4l-0.2-0.9c3.5-0.7,6.6-5.4,8.4-8.2l0.1-0.1c1.8-2.7,5.6-7.7,9.2-9.4l0.4,0.8
											c-2.9,1.3-6.6,5.6-8.8,9.1l-0.1,0.1C59.8,57.9,56.8,62.7,52.8,63.4z"/>
									</g>
									<path id="Path_380" class="st5" d="M-2.7,84.2l-0.8-0.5c4.6-7.8,17-12.4,25.2-15.4l0.4-0.1c6-2.2,11.8-5.1,17.2-8.7
										c0.5-0.4,1.2-0.8,1.8-1.2c3.3-2.2,7.9-5.1,9.1-8.2l0.9,0.3c-1.3,3.4-6,6.4-9.4,8.6c-0.7,0.4-1.3,0.8-1.8,1.2
										c-5.4,3.6-11.2,6.5-17.4,8.7L22,69.2C14,72.2,1.8,76.6-2.7,84.2z"/>
								</g>
								<path id="Path_381" class="st5" d="M-6.8,96.5c-0.2,0-0.4-0.1-0.5-0.3c-0.1-0.3-0.3-0.8,4.7-4.6c2.7-2,5.6-3.9,8.6-5.6
									c3.6-2.1,7.4-3.9,11.1-5.7c2.9-1.4,5.9-2.9,8.8-4.5l0.4,0.8c-2.9,1.6-5.9,3-8.8,4.5c-3.6,1.8-7.4,3.7-11,5.7
									c-2.9,1.6-5.8,3.5-8.5,5.5c-1.6,1.1-3.1,2.4-4.4,3.8c0.1-0.1,0.1-0.3,0-0.4c-0.1-0.1-0.2-0.2-0.3-0.2l0.2,0.9
									C-6.6,96.5-6.7,96.5-6.8,96.5z"/>
								<path id="Path_382" class="st5" d="M-2.8,99.5l-0.7-0.6c5.9-6,13.5-9.6,20.8-13.2c2.8-1.4,5.8-2.8,8.5-4.3l0.4,0.8
									c-2.8,1.5-5.7,3-8.6,4.3C10.5,90,3,93.6-2.8,99.5z"/>
								<path id="Path_383" class="st5" d="M1.6,102.6L0.9,102c2.7-3,6.7-5.2,10.3-7.3c0.6-0.3,1.1-0.6,1.6-0.9l2.4-1.4
									c4-2.3,8.5-5,12.7-6l0.2,0.9c-4.1,0.9-8.5,3.5-12.5,5.8l-2.4,1.5l-1.7,0.9C8.1,97.5,4.1,99.7,1.6,102.6z"/>
								<path id="Path_384" class="st5" d="M6.2,106.6l-0.6-0.7c6.9-5.3,14.7-9.3,23.1-11.5l0.2,0.9C20.7,97.5,13,101.3,6.2,106.6z"
									/>
							</g>
							<g id="Group_245">
								<g id="Group_244">
									<g id="Group_243">
										<g id="Group_242">
											<path id="Path_385" class="st5" d="M255.6-70.3h-2.2c-5.7,0.1-11.3-0.2-16.9-0.9l-1.6-0.2c-3-0.3-6.5-0.7-8.5-3.3
												c-2.6-3.3-1.4-8.2,0.4-11.4c1.8-3,4.4-5.5,7.4-7.3c6.3-3.8,12.8-4.6,18.7-2.3c4.3,1.8,8,4.7,10.7,8.5
												c3.6,5,4.6,9,3.1,12.2c-0.5,1.2-1.4,2.2-2.5,2.9l0,0C261.8-70.4,258.6-70.3,255.6-70.3z M253.5-71.2h1
												c3.1,0,6.7,0,9.1-1.6l0,0c0.9-0.6,1.7-1.5,2.1-2.6c1.3-2.9,0.3-6.5-3-11.2c-2.6-3.7-6.2-6.5-10.3-8.2
												c-7.1-2.8-13.7-0.4-17.9,2.2c-2.9,1.7-5.3,4.1-7.1,6.9c-1.7,3-2.8,7.5-0.4,10.4c1.8,2.3,5,2.6,7.9,2.9l1.6,0.2
												C242.2-71.4,247.9-71.1,253.5-71.2z"/>
											<path id="Path_386" class="st5" d="M282.5-47.6c-0.9,0-1.8-0.2-2.7-0.6c-2-1-3.3-3.1-4.4-4.9l-0.6-1
												c-3.3-5.6-6.4-10.8-11.8-14.6c-0.9-0.7-1.9-1.3-2.9-1.8l0.4-0.8c1,0.6,2,1.2,3,1.9c5.5,3.9,8.7,9.2,12,14.9l0.6,1
												c1,1.7,2.2,3.7,4,4.6c2.4,1.2,5.7,0.1,7.3-1.6c1.4-1.5,0.7-2.4-0.7-3.9l-0.5-0.6c-0.2-0.2-0.3-0.6-0.2-0.9
												c0.2-0.5,0.8-0.3,1.6-0.2c0.3,0.1,0.6,0.1,0.8,0.1c0.3-0.1,0.5-0.3,0.6-0.6c0.2-0.3,0.2-0.6,0.1-0.9
												c-3-9.5-19.1-14.3-24-15.5l0.2-0.9c6.4,1.6,21.5,6.4,24.6,16.2c0.2,0.5,0.1,1.1-0.1,1.5c-0.3,0.5-0.7,0.8-1.2,1
												c-0.4,0.1-0.9,0-1.3-0.1h-0.2l0.1,0.2c1.2,1.3,2.8,3,0.7,5.2C286.6-48.5,284.6-47.7,282.5-47.6z"/>
											<path id="Path_387" class="st5" d="M275.3-43.2c-0.5,0-0.9-0.2-1.3-0.5c-0.5-0.4-0.9-0.8-1.3-1.2
												c-0.2-0.2-0.5-0.5-0.7-0.7c-0.5-0.4-1.2-0.6-1.9-0.5h-0.6c-1,0-1.8-0.5-2.3-1.4c-0.3-0.4-0.6-0.7-1.1-0.9
												c-0.3-0.1-0.6,0-0.9,0.1l-0.2,0c-1.4,0.3-2.9,0-4.2-0.7c-2.6-1.5-3-4.6-3.1-6.7l-0.1-1.4c0-3.2-0.4-6.3-1.2-9.3
												c-0.4-1.3-1-2.6-1.8-3.8l0.8-0.5c0.8,1.2,1.4,2.6,1.9,4c0.8,3.1,1.3,6.3,1.3,9.6l0.1,1.4c0.1,2.1,0.5,4.7,2.7,6
												c1.1,0.6,2.3,0.8,3.5,0.6l0.2,0c0.5-0.1,0.9-0.1,1.4,0c0.6,0.2,1.2,0.7,1.5,1.2c0.3,0.6,1,1,1.6,1h0.5
												c0.9-0.1,1.8,0.2,2.5,0.7c0.3,0.2,0.5,0.5,0.8,0.8c0.3,0.4,0.7,0.8,1.1,1.1c0.3,0.2,0.6,0.3,0.9,0.3c0.4,0,0.8-0.2,1-0.6
												c0.8-1.3-0.4-4.7-1-6.2c-0.1-0.4-0.2-0.7-0.3-0.9c-0.3-1-0.6-2-0.7-3h0.9c0.2,0.9,0.4,1.9,0.7,2.8
												c0.1,0.2,0.2,0.5,0.3,0.8c1,2.6,1.9,5.5,0.9,7c-0.4,0.6-1,1-1.7,1L275.3-43.2z"/>
											<path id="Path_388" class="st5" d="M257.2-61.9c0-0.3-0.1-0.6-0.2-0.8c-0.2-0.6-0.5-1.1-1-1.5c-1.7-1.9-3.3-3.9-4.8-6
												l0.8-0.5c1.4,2.1,3,4,4.7,5.9c0.6,0.5,0.9,1.2,1.1,1.9c0.1,0.3,0.2,0.7,0.2,1L257.2-61.9z"/>
											<path id="Path_389" class="st5" d="M255.3-47.1c-3.4,0-5.1-3.3-6.3-5.7c-0.6-1.2-1.3-2.4-1.7-2.3l-0.2,0.1
												c-0.4,0.2-0.8,0.3-1.3,0.4c-3,1-3.8,0.5-4.8-0.4c-1-0.9-2.2-1.4-3.5-1.5c-1.5-0.3-2.7-1.4-3-2.9c-1.2-3.7,1-5.4,3.4-7.1
												c1.7-1.3,3.5-2.6,4.3-4.9l0.9,0.3c-0.9,2.6-2.9,4-4.6,5.3c-2.2,1.6-4,2.9-3,6c0.3,1.1,1.1,2,2.3,2.3
												c1.5,0.1,2.9,0.7,4,1.7c0.8,0.7,1.2,1,3.9,0.2c0.4-0.1,0.8-0.3,1.2-0.4l0.2-0.1c1.2-0.4,1.9,1,2.8,2.8
												c1.4,2.7,3.2,6.1,7,4.9c1.1-0.3,2.1-1.1,2.5-2.2l0.8,0.4c-0.6,1.3-1.7,2.3-3.1,2.8C256.6-47.2,255.9-47.1,255.3-47.1z"/>
											<path id="Path_390" class="st5" d="M205.3-48.6c-2.2,0-4.9-1.1-5.9-3.4s0-4.5,0.8-6.1c0.2-0.4,0.5-0.7,0.7-1
												c0.4-0.5,1-1.2,0.9-1.7c0-0.1-0.1-0.2-0.1-0.3l-0.1-0.1c-0.6-1-0.6-2.2-0.2-3.3c1.1-2.5,4.8-4,7.6-4.8
												c2.7-0.8,5.5-1.4,8.3-1.8c1.3-0.2,2.6-0.4,3.9-0.7c2.1-0.6,3.8-2,4.7-3.9l0.8,0.4c-1,2.2-3,3.7-5.3,4.4
												c-1.3,0.3-2.7,0.6-4,0.8c-2.7,0.4-5.4,0.9-8.1,1.7c-1.5,0.5-6,1.9-7,4.3c-0.3,0.8-0.3,1.8,0.2,2.5
												c0.1,0.2,0.2,0.4,0.3,0.7c0.1,0.9-0.5,1.7-1.1,2.4c-0.2,0.3-0.4,0.6-0.6,0.9c-0.7,1.4-1.5,3.5-0.7,5.4s3.3,2.9,5.3,2.8
												c1.7,0,3.2-1,3.7-2.6l0.9,0.3c-0.6,2-2.5,3.3-4.6,3.2L205.3-48.6z"/>
											<path id="Path_391" class="st5" d="M212.3-51.1c-2.2,0-3.7-1-4.3-2.9c-1.1-3.5,2.4-5.7,7.2-8.6
												c4.1-2.5,9.3-5.7,13.3-10.8l0.7,0.6c-4.1,5.3-9.3,8.4-13.5,11c-4.5,2.7-7.7,4.7-6.8,7.5s4.1,2.5,6.7,1.7
												c5.4-1.7,7.4-5.9,9.5-10.2c1.7-3.5,3.4-7.1,7-9.7l0.5,0.8c-3.4,2.4-5.1,5.9-6.7,9.3c-2.1,4.4-4.3,8.9-10.1,10.7
												C214.7-51.3,213.5-51.1,212.3-51.1z"/>
											<path id="Path_392" class="st5" d="M230.1-42.8c-2.1,0-2.9-2.8-3.2-4.3c-1.4-5.5,1.2-11,3.6-15.2
												c0.8-1.4,1.7-2.8,2.5-4.1l1.2-1.9l0.4-0.6c0.7-0.9,1.2-1.9,1.3-3h0.9c-0.2,1.3-0.7,2.5-1.5,3.4l-0.4,0.6
												c-0.4,0.6-0.8,1.3-1.2,1.9c-0.8,1.3-1.7,2.7-2.5,4c-2.3,4-4.8,9.3-3.5,14.5c0.5,2,1.2,3.9,2.8,3.5
												c0.4-0.1,0.8-0.4,1.2-0.6c0.4-0.3,0.8-0.6,1.3-0.7c0.7-0.2,1.6,0.3,2.4,0.8c1.5,1,3.4,1,4.8,0c3.4-1.8,4.5-6.4,3.5-9.6
												c0-0.1-0.1-0.2-0.1-0.4l0.9-0.3c0,0.1,0.1,0.3,0.1,0.4c1.1,3.6,0,8.7-3.9,10.7c-1.4,0.7-2.9,0.9-4.4,0.6
												c-0.5-0.2-0.9-0.4-1.3-0.6c-0.5-0.3-1.3-0.8-1.7-0.7c-0.4,0.1-0.7,0.3-1.1,0.6c-0.5,0.3-1,0.6-1.5,0.8
												C230.6-42.9,230.4-42.8,230.1-42.8z"/>
											<path id="Path_393" class="st5" d="M219.3-42.8c-0.4,0-0.8-0.1-1.2-0.4c-0.6-0.4-0.9-1.1-1.1-1.8c-0.7-2.1,0.5-4,1.6-5.7
												c0.8-1.3,1.6-2.6,1.5-3.7l0.9-0.1c0.2,1.5-0.7,2.9-1.6,4.3c-1,1.6-2,3.3-1.5,5c0.1,0.5,0.4,0.9,0.8,1.3
												c0.4,0.2,0.8,0.3,1.2,0.1c0.6-0.2,1.2-0.6,1.8-0.9c0.6-0.4,1.2-0.7,1.8-0.9c0.7-0.1,1.4-0.1,2,0.2
												c0.4,0.2,0.9,0.3,1.4,0.2c0.2-0.1,0.4-0.3,0.6-0.5l0.8,0.4c-0.2,0.5-0.6,0.8-1.1,1c-0.7,0.2-1.4,0.1-2-0.2
												c-0.5-0.2-1-0.3-1.5-0.2c-0.6,0.2-1.1,0.5-1.6,0.8c-0.6,0.4-1.3,0.7-2,1C219.9-42.8,219.6-42.8,219.3-42.8z"/>
											<path id="Path_394" class="st5" d="M206.4-50.3c-0.6-0.7-1-1.4-1.2-2.2c-1.7-5.4,2.9-8.2,8.3-11.4c3.3-1.8,6.4-4,9.2-6.5
												l0.6,0.7c-2.9,2.5-6,4.8-9.3,6.6c-5.5,3.3-9.4,5.7-8,10.4c0.2,0.7,0.6,1.4,1.1,1.9L206.4-50.3z"/>
											<path id="Path_395" class="st5" d="M261.7-82.5c-0.3,0-0.6-0.1-0.8-0.3l0.6-0.7c0.1,0.1,0.1,0.1,0.2,0.1
												c0.1,0,0.2-0.1,0.3-0.2l0.7,0.5C262.5-82.7,262.2-82.5,261.7-82.5L261.7-82.5z"/>
											<path id="Path_396" class="st5" d="M261.2-79.2c-0.4,0-0.8-0.1-1.1-0.4l0.6-0.7c0.3,0.2,0.7,0.2,1,0l0.5,0.8
												C261.9-79.4,261.5-79.2,261.2-79.2z"/>
											<path id="Path_397" class="st5" d="M255.5-78.7c-0.6,0-1.2-0.2-1.6-0.8l0.8-0.5c0.2,0.3,0.5,0.4,1.1,0.3l0.1,0.9
												L255.5-78.7z"/>
											<path id="Path_398" class="st5" d="M255.5-81.2c-0.2,0-0.4,0-0.6-0.1c-0.4-0.2-0.7-0.6-0.9-1l0.9-0.3
												c0.1,0.2,0.2,0.3,0.4,0.4c0.1,0.1,0.3,0.1,0.4,0l0.3,0.8C255.9-81.3,255.7-81.3,255.5-81.2z"/>
											<path id="Path_399" class="st5" d="M247-73.9c-0.7,0-1.4-0.2-2-0.6l0.5-0.8c0.8,0.5,1.7,0.6,2.6,0.2l0.4,0.8
												C248-74.1,247.5-74,247-73.9z"/>
											<path id="Path_400" class="st5" d="M244.8-76.7c-0.7,0-1.4-0.3-1.8-0.9l0.8-0.5c0.4,0.5,1,0.6,1.6,0.4l0.5,0.8
												C245.5-76.7,245.1-76.6,244.8-76.7z"/>
											<path id="Path_401" class="st5" d="M237.6-74.8c-0.6,0-1.3-0.3-1.7-0.7l0.6-0.7c0.4,0.4,1.3,0.8,1.9,0.2l0.7,0.6
												C238.7-75,238.2-74.8,237.6-74.8z"/>
											<path id="Path_402" class="st5" d="M234.6-77.5c-0.6,0-1.1-0.3-1.5-0.7l0.6-0.7c0.6,0.5,0.9,0.6,1.4,0.3l0.4,0.8
												C235.3-77.6,234.9-77.5,234.6-77.5z"/>
											<path id="Path_403" class="st5" d="M231.9-75.5c-0.8,0-1.5-0.4-1.9-1.1l0.8-0.5c0.3,0.5,0.9,0.8,1.5,0.6l0.3,0.9
												C232.4-75.6,232.2-75.5,231.9-75.5z"/>
											<path id="Path_404" class="st5" d="M233.9-81.5c-0.7,0-1.4-0.4-1.7-1l0.8-0.4c0.2,0.4,0.6,0.6,1.1,0.5l0.2,0.9
												C234.1-81.5,234-81.5,233.9-81.5z"/>
											<path id="Path_405" class="st5" d="M237-84.3c-0.7,0-1.3-0.4-1.6-1l0.8-0.4c0.2,0.3,0.5,0.5,0.9,0.5l0.1,0.9L237-84.3z"
												/>
											<path id="Path_406" class="st5" d="M246.8-84.4c-0.4,0-0.7,0-1-0.1h-0.4l0.1-0.9h0.4c0.7,0.2,1.4,0.1,2-0.2l0.5,0.8
												C247.9-84.5,247.4-84.4,246.8-84.4z"/>
											<path id="Path_407" class="st5" d="M243.8-87.1c-0.4,0-0.8-0.2-1.2-0.4l-0.2-0.1l0.4-0.8l0.2,0.1
												c0.6,0.3,0.8,0.4,1.1,0.1l0.6,0.7C244.5-87.2,244.2-87.1,243.8-87.1z"/>
											<path id="Path_408" class="st5" d="M258.2-73.1c-0.5,0-1-0.1-1.4-0.3l0.4-0.8c0.8,0.5,1.9,0.3,2.4-0.5c0,0,0-0.1,0-0.1
												l0.7,0.6C259.9-73.5,259.1-73.1,258.2-73.1z"/>
											<path id="Path_409" class="st5" d="M255.2-74.2c-0.3,0-0.6,0-0.9-0.1l0.2-0.9c0.5,0.2,1,0.1,1.4-0.1l0.5,0.8
												C256-74.3,255.6-74.2,255.2-74.2z"/>
											<path id="Path_410" class="st5" d="M252.7-71.3c-0.2,0-0.4,0-0.5-0.1l0.2-0.9c0.2,0.1,0.4,0.1,0.7,0l0.3,0.8
												C253.2-71.4,252.9-71.3,252.7-71.3z"/>
											<path id="Path_411" class="st5" d="M253.6-86.7c-0.4,0-0.7-0.1-1.1-0.3l0.4-0.8c0.4,0.2,0.9,0.2,1.3,0l0.5,0.8
												C254.3-86.8,254-86.7,253.6-86.7z"/>
											<path id="Path_412" class="st5" d="M248.7-90l-0.9-0.3c0.2-0.5,0.6-0.8,1.1-0.9c0.5-0.1,1.1,0.1,1.5,0.5l-0.6,0.7
												c-0.2-0.2-0.4-0.3-0.6-0.2C248.9-90.4,248.8-90.2,248.7-90z"/>
											<path id="Path_413" class="st5" d="M245.6-91.5l-0.7-0.6c0.5-0.5,1.1-0.7,1.7-0.6v0.9C246.2-91.9,245.9-91.8,245.6-91.5z
												"/>
											<path id="Path_414" class="st5" d="M240.1-92.9h-0.9c0-0.5,0.4-0.9,0.9-1l0.2,0.9C240.1-93,240.1-92.9,240.1-92.9z"/>
											<path id="Path_415" class="st5" d="M234.1-88.5c-0.1-0.5-0.1-0.9,0-1.4V-90l0.9,0.1v0.1c-0.1,0.4-0.1,0.7,0,1.1
												L234.1-88.5z"/>
											<path id="Path_416" class="st5" d="M255.6-90.3l-0.8-0.4c0.1-0.2,0.2-0.5,0.2-0.7c0-0.1-0.1-0.1-0.2-0.2l0.4-0.8
												c0.3,0.1,0.5,0.4,0.6,0.7C256-91.2,255.9-90.7,255.6-90.3z"/>
											<path id="Path_417" class="st5" d="M258.8-87.9l-0.5-0.8c0.1-0.1,0.2-0.2,0.2-0.3c0-0.2,0-0.4-0.1-0.6l0.8-0.5
												c0.3,0.4,0.4,0.9,0.3,1.3C259.3-88.4,259.1-88.1,258.8-87.9z"/>
											<path id="Path_418" class="st5" d="M228.6-78.7c-0.6-0.7-0.9-1.6-0.7-2.5l0.9,0.2c-0.1,0.6,0.1,1.3,0.5,1.8L228.6-78.7z"
												/>
											<path id="Path_419" class="st5" d="M279.4-62.2c-2-2.5-5-3.8-7.9-5.1c-2.6-1.1-5.4-2.3-7.4-4.3l0.6-0.6
												c1.9,1.9,4.4,3,7.1,4.1c3,1.3,6.2,2.7,8.3,5.3L279.4-62.2z"/>
											<path id="Path_420" class="st5" d="M270.9-53.1c-0.4-1.4-1-2.8-1.7-4.1c-1.3-2.5-3-4.8-5-6.8c-1.1-1.1-2.1-2.3-3.1-3.5
												c-0.2-0.3-0.4-0.7-0.7-1c-0.4-0.7-0.8-1.3-1.4-1.8l0.5-0.7c0.7,0.6,1.2,1.3,1.6,2.1c0.2,0.3,0.4,0.7,0.6,1
												c0.9,1.2,1.9,2.4,3,3.4c2.1,2.1,3.8,4.4,5.2,7c0.7,1.4,1.3,2.8,1.8,4.3L270.9-53.1z"/>
										</g>
										<path id="Path_421" class="st5" d="M256.1-52.3l-0.9-0.2c0.7-2.7-1.6-6.3-3-8.5s-3.6-6.7-3.6-9.7h0.9
											c0,2.5,1.8,6.5,3.4,9.1S256.9-55.4,256.1-52.3z"/>
									</g>
									<path id="Path_422" class="st5" d="M251.4-6c-4-5.9-3-16.1-2.4-22.9v-0.3c0.5-5,0.3-10-0.4-14.9c-0.1-0.5-0.1-1.1-0.2-1.7
										c-0.4-3-0.9-7.2-2.7-9l0.6-0.6c2,2,2.6,6.4,3,9.6c0.1,0.6,0.1,1.2,0.2,1.6c0.7,5,0.8,10.1,0.4,15.1v0.3
										c-0.6,6.6-1.5,16.7,2.3,22.3L251.4-6z"/>
								</g>
								<path id="Path_423" class="st5" d="M259,0.9L259,0.9c-0.3,0-0.7,0-1.7-4.9c-0.5-2.6-0.9-5.2-1.1-7.9
									c-0.2-3.2-0.3-6.5-0.3-9.7c0-2.5-0.1-5.1-0.2-7.7l0.9,0c0.1,2.6,0.2,5.2,0.2,7.7c0,3.1,0.1,6.4,0.3,9.6
									c0.2,2.6,0.5,5.2,1,7.8c0.3,1.5,0.7,2.9,1.2,4.3L259,0.3l0.5,0.1C259.5,0.7,259.3,0.9,259,0.9z M258.9-0.1
									c-0.1,0-0.3,0.1-0.3,0.2l0.3,0.1L258.9-0.1z"/>
								<path id="Path_424" class="st5" d="M262-1c-2.2-6.1-2.3-12.7-2.3-19c0-2.4,0-5-0.2-7.4l0.9-0.1c0.1,2.5,0.2,5,0.2,7.5
									c0,6.3,0.1,12.8,2.3,18.7L262-1z"/>
								<path id="Path_425" class="st5" d="M265.7-3c-1.2-2.9-1.5-6.5-1.7-9.7c0-0.5-0.1-1-0.1-1.5c0-0.7-0.1-1.4-0.2-2.2
									c-0.3-3.6-0.7-7.7,0.1-10.9l0.9,0.2c-0.7,3.1-0.4,7.1,0,10.7c0.1,0.8,0.1,1.5,0.2,2.2c0,0.5,0.1,1,0.1,1.5
									c0.2,3.1,0.5,6.7,1.6,9.4L265.7-3z"/>
								<path id="Path_426" class="st5" d="M270-5.1c-1.5-6.6-1.6-13.4-0.4-20.1l0.9,0.2c-1.2,6.5-1,13.2,0.4,19.7L270-5.1z"/>
							</g>
							<g id="Group_246">
								<path id="Path_427" class="st5" d="M110.3,251.4c-15-4.8-22.2-12.4-29.6-23.8l0.9-0.6c7.2,11.2,14.3,18.7,29,23.4
									L110.3,251.4z"/>
							</g>
							<g id="Group_247">
								<path id="Path_428" class="st5" d="M103.9,254.6c-11.6-2.1-19-4.8-27.2-14l0.8-0.7c8,9,15,11.6,26.6,13.7L103.9,254.6z"/>
							</g>
							<g id="Group_248">
								<path id="Path_429" class="st5" d="M99.2,261.3c-9.8,0-20.8-4.5-28.2-11.6l0.7-0.7c7.8,7.5,19.8,12,29.8,11.3l0.1,1
									C100.8,261.2,100,261.3,99.2,261.3z"/>
							</g>
							<path id="Path_430" class="st5" d="M285.5,122.5c-1.4,0.1-2.8-0.6-3.6-1.8c-0.5-0.4-0.7-1.1-0.4-1.7c0.6-1.8,3.6-4.6,5.9-4.4
								c1,0.1,2.3,0.7,2.6,3.3c0.2,1.8-0.8,3.4-2.4,4.2C286.9,122.3,286.2,122.5,285.5,122.5z M287.1,115.5c-1.8,0-4.2,2.3-4.6,3.7
								c-0.1,0.5,0,0.6,0.1,0.6l0.1,0.1l0.1,0.1c0.8,1.4,3,1.8,4.4,1.1c1.2-0.6,1.9-1.8,1.8-3.1c-0.2-1.6-0.8-2.4-1.7-2.4H287.1z"/>
							<path id="Path_431" class="st5" d="M202.2,88.5c-1,0-2-0.5-2.6-1.3c-0.4-0.3-0.5-0.9-0.3-1.3c0.4-1.3,2.5-3.3,4.1-3.1
								c0.6,0,1.7,0.4,1.9,2.4c0.1,1.3-0.6,2.5-1.7,3C203.3,88.4,202.8,88.5,202.2,88.5z M203.3,83.8c-0.9,0.1-1.6,0.6-2.2,1.2
								c-0.7,0.8-0.9,1.3-0.8,1.4l0.1,0.1l0.1,0.1c0.6,0.9,1.8,1.1,2.7,0.7c0.8-0.4,1.2-1.2,1.1-2c-0.1-0.6-0.3-1.3-0.8-1.5
								C203.5,83.8,203.4,83.8,203.3,83.8L203.3,83.8z"/>
							<path id="Path_432" class="st5" d="M79.9,204.5c-1.4,0.1-2.8-0.6-3.6-1.8c-0.5-0.4-0.7-1.1-0.4-1.7c0.6-1.8,3.5-4.6,5.9-4.4
								c1,0.1,2.3,0.7,2.6,3.3c0.2,1.8-0.8,3.4-2.4,4.2C81.3,204.3,80.6,204.5,79.9,204.5z M81.5,197.5c-1.8,0-4.2,2.3-4.6,3.7
								c-0.2,0.5,0,0.6,0.1,0.6l0.1,0.1l0.1,0.1c0.8,1.4,3,1.8,4.4,1.1c1.2-0.6,1.9-1.8,1.8-3.1c-0.2-1.5-0.8-2.4-1.7-2.4
								L81.5,197.5L81.5,197.5z"/>
							<path id="Path_433" class="st5" d="M389.4,216.5c-1.2,0-2.4-0.5-3-1.6c-0.4-0.4-0.6-1-0.4-1.5c0.5-1.6,2.9-3.9,5-3.8
								c0.7,0.1,2,0.5,2.2,2.9c0.1,1.5-0.7,2.9-2,3.6C390.7,216.3,390.1,216.5,389.4,216.5z M390.8,210.6c-1.4,0-3.4,1.9-3.8,3
								c0,0.2-0.1,0.4,0,0.4l0.1,0.1l0.1,0.1c0.8,1.1,2.3,1.5,3.5,0.9c1-0.5,1.5-1.5,1.5-2.5c-0.2-1.2-0.6-1.9-1.3-2L390.8,210.6z"
								/>
						</g>
					</g>
				</g>
			</g>
		</g>
		<g>
			<defs>
				<rect id="SVGID_5_" x="0.4" y="0.5" width="375" height="279.8"/>
			</defs>
			<clipPath id="SVGID_6_">
				<use xlink:href="#SVGID_5_"  style="overflow:visible;"/>
			</clipPath>
			<g class="st6">
				<g id="header_girl">
					<g id="Group_255">
						<path id="Path_86" class="st7" d="M1.6,299.5c0,0-57.4-41.2-22.2-64.3c18.2-7,10.9-31.4,10.9-31.4s-3.3-15.3,21.3-20.6
							c22.5-9.2-4-39.3-4-39.3s-7.7-12.2,11.8-24.8c1-0.7,2.6-4.2,2.6-4.2c0.3-1.4,0.5-2.9,0.5-4.4c-0.3-22.5,21.9-27,21.9-27
							s18.2-19.3,34.7,3.2c22.7-0.2,25.7,16.3,25.7,16.3s19.4,36.8,4,47.7s15,22.2,15,22.2s29.3,7.9,20.2,35.8
							c-5,16.4,24.8,33,24.8,33s39.5,27.4-35.8,54.6c-6.9-2.3-65.4-26.1-84,1.8S1.6,299.5,1.6,299.5z"/>
						<path id="Path_88" class="st8" d="M85.8,91.6c0,0,13-2.3,14,12.4c-1.3,14.2,6.9,18.8,6.9,18.8s8.7,7.3,0,19.2
							c-11.3,26,3.3,31.6,3.3,31.6s16.3,7.1,23.7,17.1s-2.1,21,4.8,31.2"/>
						<path id="Path_14" class="st9" d="M19.4,163.4l0.1-1c0.2,0.6,0.4,1.1,1,1.3c1.1,3.2,0.2,6.2-1.1,9.1c-1.7,3.5-4.7,5.6-8.4,6.6
							c-3.4,1-6.9,1.6-10.4,2.3c-3.2,0.6-6.4,1.4-9.5,2.4c-7.2,2.3-12,9-11.8,16.5c0,4.9,1.1,9.6,2,14.4c1.1,5.4,2.5,10.7,2.4,16.2
							c0.1,1-0.1,2-0.8,2.9c-0.6,0-0.8,0.8-1.5,0.6c1.2-5.6,0-10.9-1.1-16.4c-1.4-6.6-3.1-13.1-2.5-19.9c0.7-7,4.4-12,10.8-15
							c5.6-2.6,11.7-3.2,17.6-4.6c1.7-0.4,3.4-0.8,5.1-1.3c5.6-1.8,7.7-5.9,8.2-11.6C19.5,165.1,19.4,164.2,19.4,163.4z"/>
						<path id="Path_87" class="st10" d="M45.9,209.7c-7.5,5.2-15.6,9.4-24.1,12.6c-0.6-0.1-23.8,1.4-25.4,22.9S3,300.5,3,300.5
							s29.1,26.4,47.6-4.6c26.3-24.8,68.2-1.8,68.2-1.8s13.1,4.3,17.3,1.1c0.7-0.5,4.6-25.3,8.4-50.7c3.8-17.3,0.1-33.8-9.2-33.7
							c-9.9-2-23.4-1.8-23.4-1.8s-20.5-1.8-20.5-4.5C91.2,203,45.9,209.7,45.9,209.7z"/>
						<path id="Path_15" class="st11" d="M33.3,143c2.5-1,3.8,1,5.6,2.2c0.2-2,0.1-3.9,0.8-5.6c1.7-4.4,4.4-7.5,9-8.9
							c3.9-1.2,7.8-2,11.8-3c8.4-2.3,12.8-8.2,15.1-16.1c0.5-1.8,1.2-3.6,2.1-5.3c0.2-0.5,0.8-0.8,1.3-0.7c5.3,0.6,7.3,2.4,8.7,7.9
							c1,3.8,2.8,7.2,6.5,8.8c2.8,1.2,3.8,3.3,4.4,6c1.2,5.6,1.8,11.4,1.7,17.1c0,5.1-0.6,10.1-1.7,15.1c-0.1,0.4-0.5,0.9,0.1,1.2
							c0.6,0.2,0.9-0.4,1-0.8c0.3-1.4,1.6-2.3,3-2.2c0.4-0.2,0.5,0.1,0.7,0.3c1.4,1,1.8,2.3,0.8,3.7c-0.9,1.2,0.2,2.1,0.1,3.1
							c-0.3,0.5,0,1.2-0.3,1.7c-2.6,6.1-5,12.3-7.4,18.5c-1,3.1-2.1,6.2-2.9,9.4c-0.6,2.8-0.8,5.7-2.5,8.1c-0.2,0.5-0.3,1-0.2,1.5
							c-2.3,3.3-3.4,7.2-5.1,10.8c-0.6,1.3-1,2.7-1.7,4c-2.5,5.1-1.7,10.2-0.3,15.3c0.5,1.7,1.2,3.4,1.5,5.2
							c2.3,6.5,4.7,12.9,7.2,19.3c2.9,7.4,5.9,12.7,8.9,20.1c0.9,2.2,1.9,4.3,2.8,6.5c0.3,0.8,0.9,1.5,0.6,2.4
							c-5.4-1.4-11.1-2.4-16.7-3.5c-3.8-0.4-7.7-0.5-11.5-0.3c-0.3-1.7-0.3-2.5-0.6-3.4c-2.1-7.8-4-13.7-5.8-21.6
							c-1-4.5-1.9-9-2.9-13.5c-0.5-2.1-0.5-2.1-2.7-2c-1.3,0.1-2.6,0.1-3.9,0c-1.2-0.2-2.4,0.7-2.6,1.9c-2.5,7.3-5.2,14.7-7.6,22
							c-0.9,2.8-2.1,5.6-2.9,8.5c-0.1,0.4-6.1,29.6-10.4,32.3c-0.2,0-6.7,4.5-20.9,0c-3.4-1-9.4-3.9-9.8-5
							c-0.8-2.1,18.4-26.7,17.9-28.9c0.5-1.7,1.2-3.3,2.2-4.7c0.7-0.9,5.7-13,5.9-13.6c2.6-5.7,5.2-11.4,7.8-17.1
							c1.5-3.7,3.2-7.3,5.2-10.8c1.8-3.2,2.7-6.8,2.6-10.5c0.1-6,0.3-11.9,0.8-17.9c0.1-1.2-0.2-2.4-0.1-3.5
							c-0.1-0.7,0.1-1.5,0.5-2.1c-2.2-10.5-6.6-20.3-11.1-30.1c-0.3-0.6-0.6-1.3-0.3-1.8c0.8-1.4,0-1.9-0.9-2.7
							c-3.7-3.4-6.8-11.5-4.8-15.7C32.8,143.9,32.6,143.1,33.3,143z"/>
						<path id="Path_25" class="st12" d="M40.8,239.8c-0.2-0.8-0.9-0.9-1.5-1.2c-6.8-3.3-12.7-8.4-16.9-14.7
							c-0.3-0.5-0.5-1.1-0.8-1.6c2.3-0.8,4.5-1.7,6.6-2.7c1.6-0.9,3.3-1.6,5-2.3c2.9-1.7,3-1.6,5.4-3s4-2.4,6.3-3.9
							c1-0.6,2.3-1.4,2-3c-0.9-3.8-1.4-7.6-1.5-11.5c0-1.8,1-2.4,2.7-1.5c0.4,0.3,0.9,0.4,1.4,0.3c0.2,5.5-0.1,11-0.6,16.4
							c-0.1,1.9,0,3.8,0,5.8c0,2.5-0.3,4.9-0.7,7.4c-0.3,1-0.7,2-1.3,2.9C44.9,231.3,42.9,235.6,40.8,239.8z"/>
						<path id="Path_26" class="st13" d="M21.1,187.7c5.4-4.5,9.6-9.8,11.4-16.7c0.7-2.8-0.2-5.4-1.5-7.9c-2.3-4.5-5.4-8.6-7.9-13
							c-1.9-3.2-3.1-6.8-3.4-10.5c-0.2-3.4-0.2-6.8,1.3-10c1.2-2.5,3.3-4.2,5.3-6s4.6-3.1,6.3-5.3c1.7-2.2,2.1-4.6,2.4-7.1
							c0.7-6.3,5.1-11.6,11.3-13.3c3.7-1,7.5-1.7,10.7-4c2.1-1.6,4.2-3.1,6.4-4.6c4.2-3,8.5-2.8,12.4,0.7c1.8,1.6,3.2,3.4,4.4,5.5
							c0.2,0.5,0.6,1,0,1.7c-1.2-2-2.6-3.9-4.1-5.7c-3.7-4.1-7.9-4.5-12.4-1.3c-3.5,2.4-6.6,5.3-10.7,6.8c-2.1,0.8-4.4,0.8-6.5,1.7
							c-3.6,1.5-7,3.3-8.8,7.1c-1,2.5-1.7,5.1-2,7.8c-0.4,2.9-1.9,5.6-4.3,7.3c-2.2,1.6-4.4,3.4-6.4,5.2c-3,2.6-4.1,6-4.3,10
							c-0.2,5.9,1.7,11,4.8,15.9c2,3.2,4.1,6.4,6,9.8c3.4,5.8,2.4,11.2-1,16.7c-2.1,3.3-4.6,6.3-7.4,9c-0.4,0.4-1,0.9-1.4,1.3
							c-0.8,0.7-1.2,1.1-2.2,2c-3.3,2.4-6.8,4.6-10.4,6.5c-1,0.5-2.1,0.8-3.1,1.3c-3.4,1.5-4.8,4.3-4.7,7.9c0.1,4,1,7.9,0.6,11.9
							c-0.1,3.4-1.3,6.7-3.5,9.4c0-1.6,1-2.8,1.5-4.2c1.1-3.1,1.5-6.3,1.1-9.6c-0.5-3.2-0.6-6.4-0.5-9.6c0.3-3.2,2.3-5.2,5.2-6.5
							c4.6-1.9,8.9-4.5,12.7-7.8C19.4,189.3,20.2,188.5,21.1,187.7z"/>
						<path id="Path_31" class="st14" d="M73.1,114c-2.4,7.5-7.8,10.9-14.6,12.7c-2.6,0.7-5.1,1.2-7.7,1.8c-4,1-7.6,2.6-10.2,6.4
							c-0.4-1.5,0.6-2,1.3-2.6c4-3,8.4-5.5,13.1-7.3c2-0.8,4-1.6,6-2.1c4.3-1.2,8-3.7,10.7-7.3C72.1,115.1,72.5,114.7,73.1,114z"/>
						<path id="Path_34" class="st15" d="M33.3,143c-0.4,0.4-0.2,1.3-1,1.3c-1.5-10.6,1.9-19.1,10.3-25.7c3-2.3,6.6-3.6,10.2-4.8
							c4.3-1.4,8.6-2.5,12.7-4.3c4.5-2,8.4-4.8,10.5-9.5c0.1-0.1,0.2-0.2,0.5-0.4c0.1,1.2-0.3,2.3-1,3.2c-1.6,2.3-3.7,4.2-6.1,5.7
							c-4.3,2.6-9.1,3.8-13.8,5.3c-5.3,1.8-10.6,3.4-14.8,7.3c-2.8,2.6-5,5.9-6.3,9.5c-1.2,3.2-1.9,6.6-1.8,10
							C32.6,141.5,32.8,142.3,33.3,143z"/>
						<path id="Path_35" class="st15" d="M1.2,284.9c0.4,0.4,0.3,0.9,0.2,1.4c-1.6-0.9-3-2-4.2-3.3c-4.8-4.2-9.5-8.6-12.9-14.1
							c-2.5-4-2.7-8.2-2.2-12.5c0.6-5.7,3.1-10.8,5.5-16c0.2-0.3,0.3-0.9,0.8-0.7c0.7,0.3,0.2,0.8,0,1.1c-1.8,3.7-3.4,7.6-4.6,11.5
							c-2.2,7.4-1.2,14,3.9,19.8c3.9,4.5,8.1,8.6,12.7,12.4C0.5,284.7,0.8,284.8,1.2,284.9z"/>
						<path id="Path_36" class="st16" d="M29.3,204.6c0.1-0.2,2.5-3.4,3.3-4.8c3.6-5.7,6.1-12.1,7.2-18.8c0.1-0.4,0.2-0.9,0.3-1.3
							c0.1-0.2,0.2-0.4,0.4-0.6c0.7,1.5,0,2.8-0.2,4c-1.2,5.7-3.3,11.1-6.3,16.1c-0.3,0.5-0.5,0.9-0.9,1.7c-0.9,1.5-1.5,2.9-2.5,4.4
							c-0.7,0.9-1.4,1.7-2.1,2.4c-1.6,1.5-2.8,3.3-4.4,4.8c-1.4,1.4-3,2.7-4.6,3.8c-1.3,0.4-2.1,1.6-3.3,2.2c-0.3,0.2-0.6,0.7-1,0.1
							s0.3-0.5,0.4-0.8c0.5-0.8,1.6-0.9,2.1-1.8c1.3-1.6,2.9-3,4.8-4.1l4.7-4.5C27.4,207.3,28.9,205,29.3,204.6z"/>
						<path id="Path_50" class="st17" d="M164,251.8l-1-0.2c-1.2-2.4-2.8-4.5-4.8-6.2c-2.1-2.1-4.5-3.9-7-5.5
							c-0.3-0.2-0.8-0.5-0.5-0.9s0.6-0.1,0.9,0.1c4.7,3,8.8,6.9,12,11.4C163.9,250.9,164.1,251.3,164,251.8z"/>
						<path id="Path_53" class="st12" d="M111.7,208.9c-0.7,3.5-1.8,7-3.4,10.2c-2.6,5.6-6.6,10.4-11.5,14.1
							c-3.2,2.4-6.8,4.4-10.5,5.9c-0.5,0.2-1.1,0.3-1.2,1.1c-1.5-4-2.5-8.2-3-12.5c-0.3-3.7,1.1-6.8,2.5-10c1.5-3.7,3.1-7.3,4.7-11
							c0.4-0.9,1-1.7,1.8-2.3c0.5,0,1,0.2,1.5,0.4c4.6,1.9,9.5,3.1,14.4,3.5C107.3,208.3,109.3,208.6,111.7,208.9z"/>
						<path id="Path_61" class="st18" d="M42.1,155.8c-0.8-0.2-0.9-0.5-0.3-1.2c1.4-1.7,3.3-1.7,5.3-1.4c1.2,0.2,2.1,1,2.4,2.1
							c0.9,2.6,1.8,3.2,4.6,2.8c3.4-0.5,4.9,0.9,4.9,4.3c0,0.7,0,1.3,0,2c-0.6,2.9,0.8,4.7,3,6.2c1.5,1.1,3,2.4,3.2,4.5
							c0.4,1.8-0.5,3.5-2.1,4.3c-0.5-0.2-0.9-0.7-1.2-1.2c-1.3-2.6-3-5-5-7.1c-1.6-1.7-2.3-4.1-3.2-6.3c-1.1-2.5-2.1-4.9-4.7-6.3
							c-0.7-0.5-1.4-1.2-1.9-1.9C45.3,154.5,44.7,154.5,42.1,155.8z"/>
						<path id="Path_63" class="st19" d="M80.2,188.8c-0.2,0.7-0.4,1.5-0.6,2.2c-0.4,2.9-2.5,4.7-4.2,6.7c-0.9,1.1-2.2,0-3.3-0.2
							c-1.5-0.3-3-0.8-4.5-1.1c-1.5-0.3-2.2-0.9-2.1-2.5c0-1.4-0.2-2.8-0.3-4.2c0-0.8,0.2-1,1.1-0.6c3.2,1.4,6.8,1.6,10.2,0.7
							C77.7,189.6,79.1,189.6,80.2,188.8z"/>
						<path id="Path_65" class="st20" d="M42.1,155.8c1.4-1.8,3.3-1.9,4.6-0.2c1.1,1.5,2.4,2.8,4,3.7c0.9,0.6,1.6,1.5,1.9,2.5
							c0.8,1.7,1.6,3.4,2.3,5.1c0.8,2.1,2,4,3.6,5.6c2.1,2,3,4.7,4.6,7c-1.1,0.2-1.3-0.7-1.7-1.3c-0.7-1.1-1.2-2.3-1.9-3.4
							s-1.4-2.1-3-1.7c-0.7,0.1-0.8-0.4-1-0.9c-1.1-2.9-2.2-5.8-3.3-8.6c-0.3-0.9-0.8-1.8-1.3-2.7c-0.6-1-2-1.4-3-0.8c0,0,0,0,0,0
							l-0.2,0.2c-0.9,0.7-1.2,0.5-1.6-0.4c-0.3-0.7-0.7-1.4-1-2.1C44.7,156.4,43.5,155.6,42.1,155.8z"/>
						<path id="Path_66" class="st21" d="M78.6,165c-1.4,0-2.8-0.1-4.2-0.4c-0.6-0.1-1.4-0.2-1.2-1.1c0.2-0.8,0.9-0.5,1.4-0.4
							c1.9,0.5,3.8,0.6,5.7,0.5c2-0.2,2.4-0.8,1.9-2.6c-0.6-2.6-1-5.2-1-7.8c-0.1-3.8,0-7.7,0-11.5c0-0.6,0-1.4,0.9-1.3
							s0.5,0.8,0.5,1.3c-0.2,6.5-0.5,13.1,1.2,19.5c0.5,1.9-0.3,3.1-2.3,3.7C80.5,165,79.5,165,78.6,165z"/>
						<path id="Path_67" class="st22" d="M83.8,178.2c-0.2-0.4-0.4-0.7-0.2-1.1c1.1-2.2,1.2-4.6,1.6-7c0.1-1.1,1-2,2.1-2
							c0.6-0.1,1.1-0.2,1.7-0.4c1.4-0.5,2.4-1.2,2.4-2.9c-0.1-1,0.6-1.9,1.6-2.2c1-0.2,2.1-0.3,2.7,0.9c-1.2,2.5-3,4.7-5.2,6.2
							c-2.6,1.7-3.7,4.6-5.2,7.2C85,177.6,84.9,178.6,83.8,178.2z"/>
						<path id="Path_69" class="st23" d="M70.6,136.3c-0.2,0.8-0.8,0.6-1.4,0.3c-1.8-0.8-3.6-1.3-5.5-1.6c-3.2-0.5-6.5-0.2-9.6,1
							c-0.3,0.1-0.5,0.2-0.8,0.3c-0.5,0.2-0.9,0.3-1.2-0.3s0.2-0.8,0.6-1c1.6-0.8,3.4-1.3,5.2-1.5c3.9-0.6,7.9,0,11.5,1.7
							C69.9,135.5,70.4,135.6,70.6,136.3z"/>
						<path id="Path_70" class="st24" d="M99.7,137.5c-0.2,0.5-0.4,0.9-1,0.6c-0.2-0.1-0.4-0.3-0.5-0.4c-3.6-2.9-7.6-3.1-11.8-1.6
							c-0.2,0.1-0.4,0.2-0.6,0.3c-0.5,0.2-1.2,0.5-1.4-0.2s0.4-0.8,0.9-1c3.5-1.8,7.7-1.9,11.3-0.2c0.9,0.4,1.8,0.9,2.6,1.5
							C99.5,136.7,99.7,137,99.7,137.5z"/>
						<path id="Path_71" class="st25" d="M83.8,178.2c0.7,0,0.7-0.6,1-1c1.7-3.2,3.2-6.5,6.6-8.5c2-1.1,2.9-3.4,4.3-5.1
							c-0.4,2.2-2.2,3.7-2.9,5.8c-4.4,1.2-4.8,5.7-7,8.7C85,179,84.5,179.1,83.8,178.2z"/>
					</g>
				</g>
			</g>
		</g>
	</g>
</g>
</svg>
