<svg xmlns="http://www.w3.org/2000/svg" viewBox="0 0 237.61 236.77"><defs><style>.cls-1{fill:#fabbaf;}.cls-2{fill:#861619;}.cls-3{fill:#f58981;}.cls-4{fill:#c95a55;}.cls-5{fill:#fff;}</style></defs><title>Asset 46</title><g id="Layer_2" data-name="Layer 2"><g id="Skin_Categories" data-name="Skin Categories"><circle class="cls-1" cx="125.48" cy="124.64" r="112.13"/><path class="cls-2" d="M155.1,166.4c-19.54,0-37.27-8.48-54.42-16.68l-5.94-2.82c-27.15-12.78-58.68-13.41-84.36-1.71a5.18,5.18,0,0,1-4.31-9.43c28.42-13,63.22-12.3,93.09,1.75l6,2.85c16.11,7.71,32.77,15.67,50,15.67h.38c24.18-.16,48.94-16.31,67.82-30.36A5.19,5.19,0,1,1,229.5,134c-20.14,15-46.75,32.23-73.94,32.41Z"/><path class="cls-3" d="M117.32,234.63A117.32,117.32,0,1,1,234.63,117.32,117.45,117.45,0,0,1,117.32,234.63Zm0-224.26a106.95,106.95,0,1,0,106.94,107A107.07,107.07,0,0,0,117.32,10.37Z"/><circle class="cls-4" cx="30" cy="149.68" r="5.17"/><circle class="cls-4" cx="115.69" cy="166.67" r="5.17"/><circle class="cls-4" cx="75.3" cy="149" r="5.17"/><circle class="cls-4" cx="158.42" cy="175.42" r="5.17"/><circle class="cls-4" cx="197.54" cy="166.67" r="5.17"/><path class="cls-5" d="M198.49,130,182.8,104l-28-3,14.65-14.16s-17-14.93-26.79-15.8a22.75,22.75,0,0,0-18.09,6.12c-2.12,2.1-4.64-7.27-4.64-7.27s-19.8,1.33-37.38,9.83c-.36.17,4,13.17,9.2,22.25,0,0,14.2,19.63,39.57,27.86l6.89-5.09s13.41,14.48,23.24,14.67c11.12.22,14.29-2.19,37.07-9.37"/><path class="cls-2" d="M162.73,144.61h-1.41c-8.72-.18-18.57-8.26-23.65-13l-3.3,2.44a5.21,5.21,0,0,1-4.68.76C103,126.11,88.14,105.86,87.52,105a4.66,4.66,0,0,1-.3-.47c-1-1.72-11.09-21.75-9.67-26.33a5.27,5.27,0,0,1,2.72-3.15c18.27-8.84,38.43-10.28,39.28-10.33a5.15,5.15,0,0,1,5.36,3.82c.12.48.28,1,.44,1.47a28.35,28.35,0,0,1,17.74-4.14c11.13,1,27.87,15.43,29.75,17.07a5.19,5.19,0,0,1,.18,7.63L166.36,97l17,1.8a5.19,5.19,0,0,1,3.89,2.48l15.7,26.07a5.19,5.19,0,0,1-2.89,7.62c-5.77,1.82-10.28,3.33-14,4.57C175.64,143.05,171,144.61,162.73,144.61Zm-24.56-25.06a5.22,5.22,0,0,1,3.81,1.66c5,5.34,14.31,12.91,19.54,13,7.38.16,10.61-.94,21.26-4.51,2.29-.77,4.89-1.64,7.89-2.62l-11-18.25-25.47-2.7a5.18,5.18,0,0,1-3.05-8.88l10.47-10.12c-6.34-5-14.8-10.53-19.47-11a17.67,17.67,0,0,0-14,4.64,6,6,0,0,1-5.87,1.6c-1.19-.32-3.7-1-6-7A113,113,0,0,0,88.76,82.6a119,119,0,0,0,7.31,16.52C97.54,101,109.86,116.5,130.4,124l4.7-3.47A5.17,5.17,0,0,1,138.17,119.55ZM84.79,84.38h0A0,0,0,0,0,84.79,84.38Z"/><path class="cls-2" d="M198.5,135.22a6.78,6.78,0,0,1-.77-.05c-29.79-4.45-63.52-17.86-100.22-39.86A431.1,431.1,0,0,1,51.24,63.57a5.19,5.19,0,1,1,6.54-8c.73.59,73.52,59.24,141.48,69.39a5.18,5.18,0,0,1-.76,10.31Z"/></g></g></svg>