<svg xmlns="http://www.w3.org/2000/svg" viewBox="0 0 112 112"><defs><style>.cls-1{fill:#fff7f7;}.cls-2{fill:#ffe0c1;}.cls-3{fill:#336;}.cls-4{fill:#fff;}</style></defs><title>Asset 169</title><g id="Layer_2" data-name="Layer 2"><g id="Explore_By_-_128px" data-name="Explore By - 128px"><g id="Explore_By" data-name="Explore By"><circle class="cls-1" cx="56" cy="56" r="56"/><path class="cls-2" d="M58.45,32.15H82a2,2,0,0,1,2,2V55.48a2,2,0,0,1-.55,1.36L55,86.47a2,2,0,0,1-2.8,0L29.31,63.72a2,2,0,0,1,0-2.77L57.05,32.73A2,2,0,0,1,58.45,32.15Z"/><path class="cls-3" d="M49.47,86a2.94,2.94,0,0,1-2.09-.87L24.46,62.36a3,3,0,0,1,0-4.18L52.19,30a3,3,0,0,1,2.11-.89H77.89a3,3,0,0,1,3,3V53.4A2.94,2.94,0,0,1,80,55.45L51.61,85.09A2.92,2.92,0,0,1,49.5,86ZM54.3,31.07a1,1,0,0,0-.68.29L25.86,59.58a1,1,0,0,0,0,1.36L48.79,83.73a1,1,0,0,0,.68.28h0a.92.92,0,0,0,.68-.29L78.58,54.07a.94.94,0,0,0,.27-.67V32a1,1,0,0,0-1-1Z"/><circle class="cls-4" cx="62.31" cy="56.7" r="4.15"/><path class="cls-3" d="M62.31,61.85A5.15,5.15,0,1,1,65.89,53a5.15,5.15,0,0,1-3.49,8.85Zm0-8.3a3.15,3.15,0,0,0,0,6.3h.06a3.18,3.18,0,0,0,2.21-1,3.13,3.13,0,0,0,.88-2.24,3.08,3.08,0,0,0-1-2.21A3.15,3.15,0,0,0,62.31,53.55Z"/><circle class="cls-4" cx="40.69" cy="58.94" r="4.15"/><path class="cls-3" d="M40.69,64.08a5.15,5.15,0,0,1-3.58-1.44h0a5.15,5.15,0,1,1,7.16-7.4,5.14,5.14,0,0,1-3.58,8.84ZM38.5,61.2a3.15,3.15,0,1,0-.07-4.45A3.12,3.12,0,0,0,37.54,59a3.16,3.16,0,0,0,1,2.21Z"/><line class="cls-4" x1="51.68" y1="46.69" x2="51.68" y2="69.78"/><path class="cls-3" d="M51.68,70.78a1,1,0,0,1-1-1V46.69a1,1,0,0,1,2,0V69.78A1,1,0,0,1,51.68,70.78Z"/></g></g></g></svg>