<svg xmlns="http://www.w3.org/2000/svg" viewBox="0 0 112 112"><defs><style>.cls-1{fill:#fff7f7;}.cls-2{fill:#d1c1e0;}.cls-3{fill:#336;}</style></defs><title>Asset 164</title><g id="Layer_2" data-name="Layer 2"><g id="Explore_By_-_128px" data-name="Explore By - 128px"><g id="Explore_By" data-name="Explore By"><circle class="cls-1" cx="56" cy="56" r="56"/><rect class="cls-2" x="64.8" y="59.9" width="23.19" height="3.87"/><path class="cls-2" d="M64.8,58.92s-.63-5.76,6.58-5.07c-4.1-1.32-6.12-5.56-.9-6.61s7.16-5.42,7.23-6.54S85,46.48,78.34,50C83.69,49,90,51.4,87,58.92"/><rect class="cls-2" x="62.87" y="63.77" width="27.06" height="19.33"/><path class="cls-3" d="M84.13,62.83H60.94a1,1,0,0,1-1-1V58a1,1,0,0,1,1-1H84.13a1,1,0,0,1,1,1v3.86A1,1,0,0,1,84.13,62.83Zm-22.19-2H83.13V59H61.94Z"/><path class="cls-3" d="M83.16,58a1,1,0,0,1-.37-.07,1,1,0,0,1-.56-1.3c1-2.48.94-4.43-.16-5.78-1.32-1.63-4.31-2.36-7.43-1.82a1,1,0,0,1-1.11-.67,1,1,0,0,1,.48-1.2c1.58-.83,2.33-1.86,2.29-3.16a6.3,6.3,0,0,0-1.83-3.76,10.59,10.59,0,0,1-7.66,6.07c-.68.14-2.27.56-2.32,1.55s1.2,2.44,3.33,3.13a1,1,0,0,1,.68,1.15,1,1,0,0,1-1.08.79c-2.08-.19-3.6.16-4.5,1.07a4,4,0,0,0-1,2.9,1,1,0,0,1-2,.21,6,6,0,0,1,1.54-4.5,5.53,5.53,0,0,1,2.65-1.47,4.44,4.44,0,0,1-1.64-3.39c0-.8.52-2.72,3.93-3.4a8.21,8.21,0,0,0,6.43-5.62,1.1,1.1,0,0,1,1-1.05c1.36-.16,3.54,2.54,4.2,4.67a5.09,5.09,0,0,1-.6,4.52,8.53,8.53,0,0,1,6.19,2.72c1.09,1.35,2.06,3.79.47,7.78A1,1,0,0,1,83.16,58Z"/><path class="cls-2" d="M48.38,40.56v1c0,5.8,8.69,1,8.69,9.67V78.71a4.38,4.38,0,0,1-4.38,4.38H34.4A4.38,4.38,0,0,1,30,78.71V50.47c0-8,8.72-3.58,8.72-9.18L38.82,40"/><rect class="cls-2" x="37.75" y="32.84" width="11.6" height="7.73"/><path class="cls-3" d="M48.83,82.16H30.53a5.38,5.38,0,0,1-5.38-5.38V48.54c0-5.16,3.29-6,5.7-6.63,2.24-.58,3-.93,3-2.55a1,1,0,0,1,2,0c0,3.32-2.51,4-4.52,4.49-2.35.6-4.2,1.08-4.2,4.69V76.78a3.39,3.39,0,0,0,3.38,3.38h18.3a3.39,3.39,0,0,0,3.38-3.38V49.25c0-4-1.88-4.5-4.26-5.12-2-.52-4.44-1.16-4.44-4.54a1,1,0,0,1,2,0c0,1.76.9,2.07,2.94,2.6,2.43.64,5.76,1.5,5.76,7.06V76.78A5.39,5.39,0,0,1,48.83,82.16Z"/><path class="cls-3" d="M45.48,39.64H33.88a1,1,0,0,1-1-1V30.91a1,1,0,0,1,1-1h11.6a1,1,0,0,1,1,1v7.73A1,1,0,0,1,45.48,39.64Zm-10.6-2h9.6V31.91h-9.6Z"/><path class="cls-3" d="M86.06,82.16H59a1,1,0,0,1-1-1V61.83a1,1,0,0,1,1-1H86.06a1,1,0,0,1,1,1V81.16A1,1,0,0,1,86.06,82.16ZM60,80.16H85.06V62.83H60Z"/></g></g></g></svg>