<svg xmlns="http://www.w3.org/2000/svg" viewBox="0 0 238.14 235.26"><defs><style>.cls-1{fill:#fabbaf;}.cls-2{fill:#f58981;}.cls-3{fill:#861619;}.cls-4{fill:#fff;}.cls-5{fill:#c95a55;}</style></defs><title>Asset 51</title><g id="Layer_2" data-name="Layer 2"><g id="Skin_Categories" data-name="Skin Categories"><circle class="cls-1" cx="126.01" cy="123.13" r="112.13"/><path class="cls-2" d="M117.43,234.64c-1.5,0-3,0-4.49-.08A117.32,117.32,0,1,1,234.56,121.7h0A117.32,117.32,0,0,1,117.43,234.64Zm-.16-224.27a106.95,106.95,0,0,0-4,213.82A106.94,106.94,0,0,0,224.19,121.32h0A107.06,107.06,0,0,0,121.31,10.45C120,10.4,118.62,10.37,117.27,10.37Z"/><path class="cls-3" d="M187.37,137.11a36,36,0,0,1-14.25-2.8,3.89,3.89,0,0,1,3.29-7,29.87,29.87,0,0,0,27.79-3.09,3.89,3.89,0,0,1,4.27,6.5A37.91,37.91,0,0,1,187.37,137.11Z"/><path class="cls-3" d="M110.41,170.53a76.87,76.87,0,0,1-20.65-2.73A3.89,3.89,0,0,1,92,160.36c.18,0,18,5.31,35.44,0a3.89,3.89,0,1,1,2.27,7.44A66.42,66.42,0,0,1,110.41,170.53Z"/><path class="cls-3" d="M192.62,148.51a39.76,39.76,0,0,1-24.25-8.18,3.89,3.89,0,0,1,5-5.94,32.36,32.36,0,0,0,28.87,4.92,3.89,3.89,0,1,1,2.2,7.46A41.48,41.48,0,0,1,192.62,148.51Z"/><path class="cls-3" d="M66.59,170.52a3.88,3.88,0,0,1-2.8-1.18C50,155.09,49.23,137,49.2,136.19a3.89,3.89,0,0,1,5.23-3.78,247,247,0,0,0,68.22,12.66,3.89,3.89,0,0,1-.26,7.77,254.7,254.7,0,0,1-64.55-11.1,46.41,46.41,0,0,0,11.54,22.19,3.88,3.88,0,0,1-2.79,6.59Z"/><path class="cls-4" d="M124,149c-22.13,0-44-11.83-65.14-35.23a9.67,9.67,0,0,1-2.62-7,9.14,9.14,0,0,1,3.1-6.3c30.5-27.47,79.37-41.8,125,.32,3.45,3.19,3.88,7.89,1.11,12.26-7.67,12.13-28.14,33.3-56.17,35.69C127.53,148.88,125.76,149,124,149Z"/><path class="cls-5" d="M124,152.84c-23.27,0-46.16-12.29-68-36.52a13.53,13.53,0,0,1-3.61-9.77,13,13,0,0,1,4.38-9C88.5,69,139.41,54,187,97.92c4.84,4.46,5.54,11.21,1.76,17.19-8.06,12.74-29.58,35-59.13,37.49C127.76,152.76,125.86,152.84,124,152.84Zm-1.44-74.6c-23.23,0-44.57,10.65-60.62,25.1A5.24,5.24,0,0,0,60.12,107a5.79,5.79,0,0,0,1.62,4.16c21.93,24.3,44.63,35.68,67.22,33.74,26.52-2.26,45.94-22.37,53.22-33.9.83-1.3,2.45-4.64-.46-7.32C162,85.43,141.64,78.24,122.55,78.24Z"/><path class="cls-4" d="M67.07,107.39c20.39,22.36,41,32.75,61.35,31,23.89-2,41.88-20.88,48.19-30.73C126.88,62.55,81.22,95,67.07,107.39Z"/><circle class="cls-4" cx="123.33" cy="111.04" r="19.12"/><path class="cls-5" d="M123.33,135.32A24.29,24.29,0,1,1,147.61,111,24.31,24.31,0,0,1,123.33,135.32Zm0-38.23a13.95,13.95,0,1,0,14,14A14,14,0,0,0,123.33,97.09Z"/><path class="cls-3" d="M53.27,86a3.89,3.89,0,0,1-2.74-6.66c.62-.61,63.15-60.91,141.34-5.06a3.89,3.89,0,1,1-4.52,6.33c-72.77-52-129,2-131.35,4.27A3.92,3.92,0,0,1,53.27,86Z"/></g></g></svg>