<svg xmlns="http://www.w3.org/2000/svg" viewBox="0 0 111.99 111.99"><defs><style>.cls-1{fill:#b2c1e0;}.cls-2,.cls-6{fill:none;stroke:#039;stroke-miterlimit:10;}.cls-2{stroke-width:3.99px;}.cls-3{fill:#039;}.cls-4{fill:#336;}.cls-5{fill:#fff;}.cls-6{stroke-width:0.25px;}</style></defs><title>Best Sellers</title><g id="Layer_2" data-name="Layer 2"><g id="Explore_By" data-name="Explore By"><g id="Best_Sellers" data-name="Best Sellers"><path class="cls-1" d="M56,2A54,54,0,1,1,2,56,54,54,0,0,1,56,2Z"/><path class="cls-2" d="M110,56A54,54,0,1,1,56,2,54,54,0,0,1,110,56Z"/><path class="cls-3" d="M68.32,71.62V85.26a4,4,0,0,1-2.12,3.59,3.34,3.34,0,0,1-3.63-.36l-6.15-4.58a.9.9,0,0,0-1,0l-7,4.94a3.23,3.23,0,0,1-2,.64,3.7,3.7,0,0,1-1.56-.36,3.9,3.9,0,0,1-2-3.47V72h1.52V85.62a2.06,2.06,0,0,0,3.12,2l7-5a2.33,2.33,0,0,1,2.83,0l6.16,4.59c1.4,1.07,3.31-.08,3.31-2V71.62Z"/><path class="cls-3" d="M66.8,71.62V85.26c0,1.92-1.91,3.07-3.31,2l-6.16-4.59a2.33,2.33,0,0,0-2.83,0l-7,5a2.06,2.06,0,0,1-3.12-2V72h1.56V85.62a.78.78,0,0,0,.36.72l7.35-5a3.89,3.89,0,0,1,4.67.08L64.41,86a.31.31,0,0,0,.4,0,.84.84,0,0,0,.44-.8V71.66Z"/><polygon class="cls-4" points="66.8 71.62 65.25 71.66 65.25 71.62 66.8 71.62"/><path class="cls-5" d="M65.25,71.66v13.6a.84.84,0,0,1-.44.8.31.31,0,0,1-.4,0l-6.12-4.59a3.89,3.89,0,0,0-4.67-.08l-7.35,5a.78.78,0,0,1-.36-.72V72H44.35Z"/><path class="cls-6" d="M44.35,72V85.62a2.06,2.06,0,0,0,3.12,2l7-5a2.33,2.33,0,0,1,2.83,0l6.16,4.59c1.4,1.07,3.31-.08,3.31-2V71.62l-1.55,0Z"/><path class="cls-6" d="M66.8,71.62h1.52V85.26a4,4,0,0,1-2.12,3.59,3.34,3.34,0,0,1-3.63-.36l-6.15-4.58a.9.9,0,0,0-1,0l-7,4.94a3.23,3.23,0,0,1-2,.64,3.7,3.7,0,0,1-1.56-.36,3.9,3.9,0,0,1-2-3.47V72h3.08V85.62a.78.78,0,0,0,.36.72l7.35-5a3.89,3.89,0,0,1,4.67.08L64.41,86a.31.31,0,0,0,.4,0,.84.84,0,0,0,.44-.8V71.62Z"/><path class="cls-3" d="M81.71,45A7.92,7.92,0,0,1,82,54.38l-.6.84c-1.2,1.75-1.88,2.71-1.64,4.83a8,8,0,0,1-6.07,9c-2.76.4-4.32,1.32-5.44,3.24l-.28.31c-4.11,4.07-6.63,3.48-9.27,2.84a17.15,17.15,0,0,0-3-.48,11.59,11.59,0,0,0-3,.44,14.11,14.11,0,0,1-3.56.56c-2.15,0-4.51-.84-6.71-4a7,7,0,0,0-3.83-3.16A26.84,26.84,0,0,1,36,67.55c-3.72-2.72-4-5.63-4.28-9.26a5.22,5.22,0,0,0-1.2-3.35,10.65,10.65,0,0,1-1.43-2.39c-1.32-3.08-.44-7.15,2.39-11.25a28.67,28.67,0,0,0,1-4.87c.68-5.19,4.92-6.55,6.75-7.1a8.29,8.29,0,0,0,4.2-3c.28-.36.6-.67.92-1A8.57,8.57,0,0,1,54.5,23.38c2.16.88,2.71,1,4.83.08,2.28-1,7.11-1.2,10.63,4.31,1.24,1.76,1.24,1.76,4.08,2.75C78,32,80.11,35,80,38.86A9.86,9.86,0,0,0,81.71,45Zm-1,8.53a6.28,6.28,0,0,0-.2-7.54,11.51,11.51,0,0,1-2.12-7.18c.16-3.43-1.8-5.66-4.87-6.78s-3.36-1.24-4.84-3.39c-3.07-4.79-7.11-4.43-8.75-3.71-2.52,1.07-3.47,1-6.07-.08a7,7,0,0,0-8.43,1.55c-1.68,1.8-2.52,3.39-5.8,4.43-2.19.68-5.15,1.88-5.67,5.79a20.19,20.19,0,0,1-1.24,5.58c-2.32,3.31-3.43,7-2.24,9.78,1.12,2.59,2.4,2.47,2.72,6.06s.52,6,3.52,8.18c3.55,2,4.43,1.32,7,4.91,4,5.78,8,2.19,12,2.31,4.55.16,6.27,2.92,11.18-1.87,1.4-2.36,3.4-3.55,6.6-4a6.45,6.45,0,0,0,4.71-7.3C77.91,57.09,79.23,55.78,80.71,53.5Z"/><path class="cls-3" d="M80.51,46a6.28,6.28,0,0,1,.2,7.54c-1.48,2.28-2.8,3.59-2.48,6.75a6.45,6.45,0,0,1-4.71,7.3c-3.2.44-5.2,1.63-6.6,4-4.91,4.79-6.63,2-11.18,1.87-4-.12-8,3.47-12-2.31-2.56-3.59-3.44-2.95-7-4.91-3-2.23-3.2-4.55-3.52-8.18S31.6,54.54,30.48,52c-1.19-2.76-.08-6.47,2.24-9.78A20.19,20.19,0,0,0,34,36.59c.52-3.91,3.48-5.11,5.67-5.79,3.28-1,4.12-2.63,5.8-4.43a7,7,0,0,1,8.43-1.55c2.6,1,3.55,1.15,6.07.08,1.64-.72,5.68-1.08,8.75,3.71,1.48,2.15,1.76,2.27,4.84,3.39s5,3.35,4.87,6.78A11.51,11.51,0,0,0,80.51,46Zm-1.08,6.71a4.81,4.81,0,0,0-.12-5.75,13,13,0,0,1-2.48-8.22c.12-2.51-1.16-4.27-3.83-5.22-3.32-1.2-3.92-1.52-5.6-4-3-4.75-6.71-3.24-6.87-3.2-2.92,1.28-4.39,1.12-7.27,0-4.2-1.87-6.55,1-6.59,1.08a9.55,9.55,0,0,0-.92,1,11.45,11.45,0,0,1-5.64,3.91c-2.11.68-4.23,1.59-4.59,4.55a21.88,21.88,0,0,1-1.4,6c-2.28,3.31-3.08,6.46-2.24,8.46A9.68,9.68,0,0,0,33,53.1a7.9,7.9,0,0,1,1.8,4.79c.32,3.55.48,5.27,2.88,7.06.8.44,1.55.76,2.19,1A9.88,9.88,0,0,1,45,70.22c2.32,3.27,4.19,2.83,7,2.2a14.53,14.53,0,0,1,3.8-.56,15.36,15.36,0,0,1,3.67.6c2.28.51,3.44.79,6.24-1.92,1.63-2.63,4-4,7.59-4.55a4.91,4.91,0,0,0,3.43-5.58c-.36-3.32.88-5.07,2.16-6.95Z"/><path class="cls-5" d="M79.31,46.92a4.81,4.81,0,0,1,.12,5.75l-.56.79c-1.28,1.88-2.52,3.63-2.16,6.95A4.91,4.91,0,0,1,73.28,66c-3.6.52-6,1.92-7.59,4.55-2.8,2.71-4,2.43-6.24,1.92a15.36,15.36,0,0,0-3.67-.6,14.53,14.53,0,0,0-3.8.56c-2.84.63-4.71,1.07-7-2.2A9.88,9.88,0,0,0,39.83,66c-.64-.28-1.39-.6-2.19-1-2.4-1.79-2.56-3.51-2.88-7.06A7.9,7.9,0,0,0,33,53.1a9.68,9.68,0,0,1-1.08-1.79c-.84-2,0-5.15,2.24-8.46a21.88,21.88,0,0,0,1.4-6c.36-3,2.48-3.87,4.59-4.55a11.45,11.45,0,0,0,5.64-3.91,9.55,9.55,0,0,1,.92-1s2.39-2.95,6.59-1.08c2.88,1.16,4.35,1.32,7.27,0,.16,0,3.84-1.55,6.87,3.2,1.68,2.47,2.28,2.79,5.6,4,2.67,1,4,2.71,3.83,5.22A13,13,0,0,0,79.31,46.92Z"/><path class="cls-6" d="M43.71,71.1c-2.56-3.59-3.44-2.95-7-4.91-3-2.23-3.2-4.55-3.52-8.18S31.6,54.54,30.48,52c-1.19-2.76-.08-6.47,2.24-9.78A20.19,20.19,0,0,0,34,36.59c.52-3.91,3.48-5.11,5.67-5.79,3.28-1,4.12-2.63,5.8-4.43a7,7,0,0,1,8.43-1.55c2.6,1,3.55,1.15,6.07.08,1.64-.72,5.68-1.08,8.75,3.71,1.48,2.15,1.76,2.27,4.84,3.39s5,3.35,4.87,6.78A11.51,11.51,0,0,0,80.51,46a6.28,6.28,0,0,1,.2,7.54c-1.48,2.28-2.8,3.59-2.48,6.75a6.45,6.45,0,0,1-4.71,7.3c-3.2.44-5.2,1.63-6.6,4-4.91,4.79-6.63,2-11.18,1.87C51.74,73.29,47.75,76.88,43.71,71.1Z"/><path class="cls-6" d="M49.14,76c-2.15,0-4.51-.84-6.71-4a7,7,0,0,0-3.83-3.16A26.84,26.84,0,0,1,36,67.55c-3.72-2.72-4-5.63-4.28-9.26a5.22,5.22,0,0,0-1.2-3.35,10.65,10.65,0,0,1-1.43-2.39c-1.32-3.08-.44-7.15,2.39-11.25a28.67,28.67,0,0,0,1-4.87c.68-5.19,4.92-6.55,6.75-7.1a8.29,8.29,0,0,0,4.2-3c.28-.36.6-.67.92-1A8.57,8.57,0,0,1,54.5,23.38c2.16.88,2.71,1,4.83.08,2.28-1,7.11-1.2,10.63,4.31,1.24,1.76,1.24,1.76,4.08,2.75C78,32,80.11,35,80,38.86A9.86,9.86,0,0,0,81.71,45,7.92,7.92,0,0,1,82,54.38l-.6.84c-1.2,1.75-1.88,2.71-1.64,4.83a8,8,0,0,1-6.07,9c-2.76.4-4.32,1.32-5.44,3.24l-.28.31c-4.11,4.07-6.63,3.48-9.27,2.84a17.15,17.15,0,0,0-3-.48,11.59,11.59,0,0,0-3,.44A14.11,14.11,0,0,1,49.14,76Z"/><path class="cls-6" d="M45,70.22c2.32,3.27,4.19,2.83,7,2.2a14.53,14.53,0,0,1,3.8-.56,15.36,15.36,0,0,1,3.67.6c2.28.51,3.44.79,6.24-1.92,1.63-2.63,4-4,7.59-4.55a4.91,4.91,0,0,0,3.43-5.58c-.36-3.32.88-5.07,2.16-6.95l.56-.79a4.81,4.81,0,0,0-.12-5.75,13,13,0,0,1-2.48-8.22c.12-2.51-1.16-4.27-3.83-5.22-3.32-1.2-3.92-1.52-5.6-4-3-4.75-6.71-3.24-6.87-3.2-2.92,1.28-4.39,1.12-7.27,0-4.2-1.87-6.55,1-6.59,1.08a9.55,9.55,0,0,0-.92,1,11.45,11.45,0,0,1-5.64,3.91c-2.11.68-4.23,1.59-4.59,4.55a21.88,21.88,0,0,1-1.4,6c-2.28,3.31-3.08,6.46-2.24,8.46A9.68,9.68,0,0,0,33,53.1a7.9,7.9,0,0,1,1.8,4.79c.32,3.55.48,5.27,2.88,7.06.8.44,1.55.76,2.19,1A9.88,9.88,0,0,1,45,70.22Z"/><path class="cls-3" d="M55.94,33A16.2,16.2,0,1,1,39.71,49.23,16.22,16.22,0,0,1,55.94,33ZM70.6,49.23A14.67,14.67,0,1,0,55.94,63.88,14.64,14.64,0,0,0,70.6,49.23Z"/><path class="cls-3" d="M55.94,34.59A14.65,14.65,0,1,1,41.27,49.23,14.64,14.64,0,0,1,55.94,34.59ZM69,49.23a13.11,13.11,0,1,0-13.1,13.09A13.13,13.13,0,0,0,69,49.23Z"/><path class="cls-5" d="M55.94,36.11A13.11,13.11,0,1,1,42.83,49.23,13.13,13.13,0,0,1,55.94,36.11Z"/><ellipse class="cls-6" cx="55.94" cy="49.23" rx="14.66" ry="14.64"/><ellipse class="cls-6" cx="55.94" cy="49.23" rx="16.22" ry="16.2"/><path class="cls-6" d="M55.94,36.11A13.11,13.11,0,1,0,69,49.23,13.13,13.13,0,0,0,55.94,36.11Z"/><path class="cls-3" d="M55.88,47.57c1.68-4,6-3.21,6.12,0,0,4-6.12,7.27-6.12,7.27s-6-3.74-6-7.26C49.88,44.47,54.08,43.66,55.88,47.57Z"/><path class="cls-3" d="M55.82,56.63l-.76-.47c-.69-.43-6.74-4.32-6.74-8.58a4.06,4.06,0,0,1,3.19-4.1c1.34-.29,3.29.45,4.43,2.94,1.21-2.49,2.82-3.28,4.19-3a4.2,4.2,0,0,1,3.42,4.14c0,4.88-6.23,8.31-6.94,8.68Zm-3.4-10.15a1.07,1.07,0,0,0-.25,0,1,1,0,0,0-.74,1.07c0,1.62,2.43,4,4.51,5.44,1.69-1.08,4.51-3.31,4.51-5.45a1.08,1.08,0,0,0-.89-1.13c-.65-.13-1.62.26-2.25,1.74L56,51.42l-1.48-3.2C53.91,47,53.08,46.48,52.42,46.48Z"/></g></g></g></svg>