<svg xmlns="http://www.w3.org/2000/svg" width="29.039" height="30.645" viewBox="0 0 29.039 30.645">
  <g id="icon_goods" transform="translate(-12.994 0.001)">
    <path id="Path_2108" data-name="Path 2108" d="M56.052,136.639v4.279a.989.989,0,0,1-.989.989H53.627v14.028a.989.989,0,0,1-.989.989H32.4a.989.989,0,0,1-.989-.989V141.907H29.979a.989.989,0,0,1-.989-.989v-4.279a.989.989,0,0,1,.989-.989H55.063A.989.989,0,0,1,56.052,136.639Z" transform="translate(-15.008 -127.268)" fill="#ffd4d9"/>
    <path id="Path_2115" data-name="Path 2115" d="M41.044,7.393H36.265a4.619,4.619,0,0,0-.349-5.718c-2.7-3.017-6.847-1.611-8.4,1.513C25.9-.062,21.681-1.194,19.242,1.529a4.618,4.618,0,0,0-.48,5.864H13.983a.989.989,0,0,0-.989.989v6.257a.989.989,0,0,0,.989.989h1.436V29.656a.989.989,0,0,0,.989.989H38.62a.989.989,0,0,0,.989-.989V15.628h1.436a.989.989,0,0,0,.989-.989V8.382a.989.989,0,0,0-.989-.989ZM28.9,5.329c.361-2.812,3.63-4.468,5.41-2.48L34.443,3a2.64,2.64,0,0,1-1.965,4.4H28.637Zm1.455,11.792c-2.614-1.28-2.537-1.281-2.844-1.281s-.228,0-2.844,1.281V9.371h5.687ZM20.584,3l.131-.147c1.787-2,5.05-.325,5.41,2.48l.265,2.064H22.549A2.64,2.64,0,0,1,20.584,3ZM14.971,9.371h7.721V13.65H14.971ZM17.4,15.628h5.3v3.078a.99.99,0,0,0,1.486.857v9.1H17.4ZM37.631,28.667H30.849v-6.8a.989.989,0,0,0-1.977,0v6.8H26.156V18.595l1.358-.665c3.71,1.817,3.519,1.765,3.832,1.765a.989.989,0,0,0,.989-.989V15.628h5.3ZM40.055,13.65H32.335V9.371h7.721Z" transform="translate(0 0)" fill="#ff98a4"/>
  </g>
</svg>
