<svg xmlns="http://www.w3.org/2000/svg" viewBox="0 0 92.49 91.36"><defs><style>.cls-1{fill:#fabbaf;}.cls-2{fill:#fff;}.cls-3{fill:#f58981;}.cls-4{fill:#861619;}</style></defs><title>Asset 29</title><g id="Layer_2" data-name="Layer 2"><g id="Skin_Categories" data-name="Skin Categories"><circle class="cls-1" cx="49.24" cy="48.11" r="43.25"/><path class="cls-2" d="M36.34,49S26.05,66.34,18.42,49"/><path class="cls-2" d="M74.75,49S64.46,66.34,56.84,49"/><path class="cls-3" d="M45.25,90.5A45.25,45.25,0,1,1,90.5,45.25,45.3,45.3,0,0,1,45.25,90.5Zm0-86.5A41.25,41.25,0,1,0,86.5,45.25,41.29,41.29,0,0,0,45.25,4Z"/><path class="cls-4" d="M71.17,29.84H22.24a2,2,0,0,1,0-4H71.17a2,2,0,0,1,0,4Z"/><path class="cls-4" d="M65.8,71H29.38a2,2,0,1,1,0-4H65.8a2,2,0,0,1,0,4Z"/><path class="cls-4" d="M36.94,49.92H19a2,2,0,0,1,0-4H36.94a2,2,0,0,1,0,4Z"/><path class="cls-4" d="M75,49.38H57a2,2,0,0,1,0-4H75a2,2,0,0,1,0,4Z"/><path class="cls-4" d="M46.57,68.92a2,2,0,0,1-2-2V27.84a2,2,0,1,1,4,0V66.92A2,2,0,0,1,46.57,68.92Z"/><path class="cls-4" d="M27.8,58.72a12.31,12.31,0,0,1-9.36-4.16,11.2,11.2,0,0,1-2.27-10.39,2,2,0,0,1,.2-.48c.19-.33,4.6-8,9-14.11a2,2,0,0,1,1.56-.83,2,2,0,0,1,1.61.73c3.41,4.15,9.61,13.8,9.87,14.2a2,2,0,0,1,.23.51,11.48,11.48,0,0,1-1.75,9.36,10.8,10.8,0,0,1-7.54,5.08A13.56,13.56,0,0,1,27.8,58.72ZM20,45.45a7.13,7.13,0,0,0,1.49,6.49,8.45,8.45,0,0,0,7.42,2.72,6.94,6.94,0,0,0,4.67-3.31,7.74,7.74,0,0,0,1.33-5.76c-.85-1.32-4.8-7.39-7.8-11.46C23.75,39,20.65,44.28,20,45.45Z"/><path class="cls-4" d="M66.38,58.72A12.31,12.31,0,0,1,57,54.56a11.23,11.23,0,0,1-2.27-10.39,2.06,2.06,0,0,1,.21-.48c.18-.33,4.59-8,9-14.11a2,2,0,0,1,1.56-.83,2,2,0,0,1,1.61.73c3.4,4.15,9.6,13.8,9.86,14.2a2,2,0,0,1,.23.51,11.44,11.44,0,0,1-1.75,9.36,10.8,10.8,0,0,1-7.54,5.08A13.56,13.56,0,0,1,66.38,58.72ZM58.56,45.45A7.13,7.13,0,0,0,60,51.94a8.46,8.46,0,0,0,7.43,2.72,6.93,6.93,0,0,0,4.66-3.31,7.69,7.69,0,0,0,1.33-5.76c-.85-1.32-4.8-7.39-7.8-11.46C62.33,39,59.24,44.28,58.56,45.45Z"/></g></g></svg>