<svg xmlns="http://www.w3.org/2000/svg" viewBox="0 0 112 112"><defs><style>.cls-1{fill:#e0f0c1;stroke-miterlimit:10;stroke-width:4px;}.cls-1,.cls-2,.cls-3,.cls-4,.cls-5{stroke:#9c3;}.cls-2{fill:none;}.cls-2,.cls-3,.cls-4,.cls-5{stroke-linecap:round;stroke-linejoin:round;}.cls-2,.cls-3{stroke-width:4px;}.cls-3{fill:#fff;}.cls-4,.cls-5,.cls-6{fill:#9c3;}.cls-4{stroke-width:3.4px;}.cls-5{stroke-width:3.4px;}</style></defs><title>Asset 31</title><g id="Layer_2" data-name="Layer 2"><g id="Explore_By" data-name="Explore By"><g id="Budget_Buys" data-name="Budget Buys"><circle class="cls-1" cx="56" cy="56" r="54"/><polyline class="cls-2" points="35.04 39.55 33.8 34 26 34"/><polyline class="cls-3" points="34 38 82.27 37.92 73.66 66 42.05 66 33.49 36.04"/><circle class="cls-4" cx="46" cy="78" r="4"/><circle class="cls-5" cx="70" cy="78" r="4"/><path class="cls-6" d="M59.56,43.59v1a5.46,5.46,0,0,1,1.66.4,3.34,3.34,0,0,1,1.22.9,4,4,0,0,1,.63,1,2.36,2.36,0,0,1,.22.9,1.14,1.14,0,0,1-1.14,1.12,1.14,1.14,0,0,1-1.15-1,2.07,2.07,0,0,0-1.44-1.51v3.78c.75.21,1.34.4,1.79.57a3.75,3.75,0,0,1,1.19.73,3.34,3.34,0,0,1,.87,1.2,3.63,3.63,0,0,1,.31,1.52,4.08,4.08,0,0,1-.49,1.94,3.89,3.89,0,0,1-1.43,1.48,5.22,5.22,0,0,1-2.24.68v2.26a2.08,2.08,0,0,1-.11.78.44.44,0,0,1-.46.24.51.51,0,0,1-.46-.19,1.25,1.25,0,0,1-.13-.62V58.28a5.4,5.4,0,0,1-1.86-.5,4.36,4.36,0,0,1-1.32-.94,3.91,3.91,0,0,1-.79-1.19,3.08,3.08,0,0,1-.25-1.2,1.11,1.11,0,0,1,.34-.79,1.15,1.15,0,0,1,.85-.34,1.19,1.19,0,0,1,.69.19.92.92,0,0,1,.39.53,8.57,8.57,0,0,0,.43,1.14,2.07,2.07,0,0,0,.54.72,2.45,2.45,0,0,0,1,.5V52.18a10.38,10.38,0,0,1-2-.75,3.67,3.67,0,0,1-.84-5.7,4.43,4.43,0,0,1,2.87-1.16v-1c0-.51.19-.76.57-.76S59.56,43.09,59.56,43.59ZM58.4,49.82V46.34a3.16,3.16,0,0,0-1.19.6,1.42,1.42,0,0,0-.42,1.12,1.44,1.44,0,0,0,.39,1.09A3.7,3.7,0,0,0,58.4,49.82Zm1.16,2.7v4A2.45,2.45,0,0,0,61,55.76a1.84,1.84,0,0,0,.5-1.29A1.54,1.54,0,0,0,61,53.25,4,4,0,0,0,59.56,52.52Z"/></g></g></g></svg>