<svg xmlns="http://www.w3.org/2000/svg" viewBox="0 0 112 112"><defs><style>.cls-1{fill:#e0d1c1;stroke-miterlimit:10;}.cls-1,.cls-2,.cls-3{stroke:#963;stroke-width:4px;}.cls-2{fill:#fff;}.cls-2,.cls-3{stroke-linecap:round;stroke-linejoin:round;}.cls-3{fill:none;}.cls-4{fill:#963;}</style></defs><title>For You</title><g id="Layer_2" data-name="Layer 2"><g id="Explore_By" data-name="Explore By"><g id="For_You" data-name="For You"><circle class="cls-1" cx="56" cy="56" r="54"/><path class="cls-2" d="M80.75,78.18A186.75,186.75,0,0,0,79.65,47c-.93-6.49-5.85-20.1-22.5-20.1-22.59,0-25.65,19.22-26,29.84s-.08,19.31,0,21.16,28.76,13.37,49.63.24"/><path class="cls-3" d="M50.7,47.7s-7.6-1.1-11.15-2.52c-1.22,5.42-3.83,24.3,16.65,33.95,0,0,9-2.84,13.22-10.95"/><path class="cls-4" d="M68.26,63.53s-.65-3.23-3.44-3.27c-2.11,0-3,1.56-3.35,3.27H56.68V59.41s-2.86-.62-3-2.86c-.07-1,.08-3.06,3-3.46V49.17h4.79s.44-3.18,3.27-3.28c1.87-.07,3.11,1.38,3.38,3.28h4.59V53A3.29,3.29,0,0,0,70,56.16a4,4,0,0,0,2.75,3.32v4.05Z"/></g></g></g></svg>