<svg xmlns="http://www.w3.org/2000/svg" viewBox="0 0 112 112"><defs><style>.cls-1{fill:#fff7f7;}.cls-2{fill:#b2c1e0;}.cls-3{fill:#336;}.cls-4{fill:#fff;}</style></defs><title>Asset 161</title><g id="Layer_2" data-name="Layer 2"><g id="Explore_By_-_128px" data-name="Explore By - 128px"><g id="Explore_By" data-name="Explore By"><circle class="cls-1" cx="56" cy="56" r="56"/><path class="cls-2" d="M49.11,73.15V90l9.15-6.19a.83.83,0,0,1,.93,0l9.15,5.36V72.31Z"/><path class="cls-2" d="M83.13,51.22c0,2.53-3.14,4.53-3.88,6.81s.57,5.82-.86,7.79S73.23,67.6,71.25,69s-2.91,5-5.27,5.81-5.15-1.6-7.67-1.6-5.4,2.34-7.68,1.6-3.3-4.38-5.26-5.81-5.7-1.23-7.15-3.22-.09-5.43-.85-7.79-3.89-4.28-3.89-6.81,3.15-4.52,3.89-6.8-.58-5.82.85-7.79,5.16-1.78,7.15-3.22,2.9-5,5.26-5.81,5.15,1.6,7.68,1.6S63.7,26.86,66,27.6s3.3,4.38,5.27,5.81,5.7,1.23,7.14,3.22.09,5.42.86,7.79S83.13,48.7,83.13,51.22Z"/><path class="cls-3" d="M65,89.28a1,1,0,0,1-.56-.17L55.38,83l-9.06,6.13a1,1,0,0,1-1.56-.83V72.36a1,1,0,0,1,2,0v14l7.59-5.13a1.84,1.84,0,0,1,2.06,0L64,86.39V71.48a1,1,0,0,1,2,0v16.8a1,1,0,0,1-1,1Z"/><path class="cls-3" d="M61.67,74.32A10.58,10.58,0,0,1,58,73.39,9.64,9.64,0,0,0,55,72.57a9.64,9.64,0,0,0-3.07.82c-1.62.62-3.29,1.26-4.91.73S44.29,72,43.33,70.55a9,9,0,0,0-1.9-2.37,9,9,0,0,0-2.87-1.1c-1.7-.46-3.46-.93-4.49-2.35s-.93-3.21-.84-5a9.34,9.34,0,0,0-.16-3.11,8.94,8.94,0,0,0-1.64-2.49c-1.08-1.32-2.29-2.82-2.29-4.63s1.21-3.31,2.29-4.63a8.9,8.9,0,0,0,1.64-2.48,9.38,9.38,0,0,0,.16-3.11c-.09-1.75-.18-3.56.84-5s2.79-1.89,4.49-2.35a9.2,9.2,0,0,0,2.87-1.09,9.06,9.06,0,0,0,1.9-2.38c1-1.48,2-3,3.65-3.57s3.29.11,4.91.73a9.64,9.64,0,0,0,3.07.82A9.64,9.64,0,0,0,58,25.71c1.62-.62,3.29-1.26,4.92-.73s2.68,2.09,3.64,3.58a9.16,9.16,0,0,0,1.9,2.37A9.27,9.27,0,0,0,71.37,32c1.7.46,3.45.93,4.49,2.35s.92,3.21.84,5a9.4,9.4,0,0,0,.15,3.11,8.9,8.9,0,0,0,1.64,2.48c1.08,1.32,2.3,2.82,2.3,4.63s-1.22,3.31-2.3,4.63a8.94,8.94,0,0,0-1.64,2.49,9.61,9.61,0,0,0-.16,3.11c.09,1.74.19,3.55-.83,5s-2.79,1.89-4.49,2.35a8.93,8.93,0,0,0-2.88,1.1,9,9,0,0,0-1.9,2.37c-1,1.49-2,3-3.65,3.57A4,4,0,0,1,61.67,74.32ZM55,70.57a11,11,0,0,1,3.78,1c1.36.52,2.63,1,3.59.7s1.77-1.51,2.58-2.76a10.48,10.48,0,0,1,2.4-2.9,10.6,10.6,0,0,1,3.54-1.41c1.43-.38,2.77-.75,3.39-1.59s.53-2.22.46-3.68A10.63,10.63,0,0,1,75,56.05a10.42,10.42,0,0,1,2-3.14c1-1.16,1.85-2.26,1.85-3.36s-.9-2.2-1.85-3.36a10.42,10.42,0,0,1-2-3.14,10.62,10.62,0,0,1-.25-3.83c.07-1.46.14-2.85-.46-3.68s-2-1.2-3.39-1.59a10.6,10.6,0,0,1-3.54-1.41,10.66,10.66,0,0,1-2.4-2.9c-.81-1.25-1.57-2.43-2.58-2.76s-2.23.18-3.59.7a10.8,10.8,0,0,1-3.78,1,10.85,10.85,0,0,1-3.78-1c-1.35-.52-2.64-1-3.58-.7S45.82,28.39,45,29.64a10.48,10.48,0,0,1-2.4,2.9A10.51,10.51,0,0,1,39.07,34c-1.42.39-2.77.75-3.38,1.59s-.54,2.22-.46,3.69A10.81,10.81,0,0,1,35,43.05a10.22,10.22,0,0,1-2,3.14c-.95,1.16-1.84,2.26-1.84,3.36S32,51.75,33,52.91a10.22,10.22,0,0,1,2,3.14,10.85,10.85,0,0,1,.26,3.83c-.08,1.46-.15,2.85.45,3.68s2,1.21,3.39,1.59a10.6,10.6,0,0,1,3.54,1.41,10.48,10.48,0,0,1,2.4,2.9c.81,1.25,1.57,2.43,2.59,2.76s2.22-.18,3.58-.7A11.08,11.08,0,0,1,55,70.57Z"/><ellipse class="cls-4" cx="54.96" cy="49.55" rx="12.48" ry="12.49"/><path class="cls-3" d="M55,63A13.49,13.49,0,1,1,68.45,49.55,13.5,13.5,0,0,1,55,63Zm0-25A11.49,11.49,0,1,0,66.45,49.55,11.5,11.5,0,0,0,55,38.06Z"/><path class="cls-3" d="M54.92,47.52c1.4-3.33,5-2.68,5.12,0,0,3.38-5.12,6.09-5.12,6.09s-5-3.14-5-6.08C49.89,44.92,53.41,44.25,54.92,47.52Z"/><path class="cls-3" d="M54.86,55.1l-.63-.39c-.58-.36-5.64-3.62-5.64-7.18a3.39,3.39,0,0,1,2.67-3.43c1.12-.25,2.75.37,3.71,2.45,1-2.08,2.36-2.74,3.5-2.53a3.52,3.52,0,0,1,2.86,3.47c0,4.08-5.21,6.95-5.81,7.26ZM52,46.61l-.21,0a.82.82,0,0,0-.62.9c0,1.35,2,3.32,3.77,4.55,1.42-.9,3.78-2.77,3.78-4.56a.9.9,0,0,0-.75-1c-.54-.1-1.35.22-1.88,1.46L55,50.74l-1.23-2.68C53.27,47,52.57,46.61,52,46.61Z"/></g></g></g></svg>