<svg xmlns="http://www.w3.org/2000/svg" viewBox="0 0 92.37 91.01"><defs><style>.cls-1{fill:#fabbaf;}.cls-2{fill:#c95a55;}.cls-3{fill:#f58981;}.cls-4{fill:#fff;}.cls-5{fill:#861619;}</style></defs><title>Asset 30</title><g id="Layer_2" data-name="Layer 2"><g id="Skin_Categories" data-name="Skin Categories"><circle class="cls-1" cx="49.12" cy="47.76" r="43.25"/><path class="cls-2" d="M50.12,89.26a2,2,0,0,1-1.41-.59L34.12,74.09A2,2,0,0,1,37,71.26L51.54,85.85a2,2,0,0,1,0,2.82A2,2,0,0,1,50.12,89.26Z"/><path class="cls-2" d="M67,82.41a2,2,0,0,1-1.42-.58L45.78,62a2,2,0,1,1,2.82-2.83L68.45,79a2,2,0,0,1,0,2.83A2,2,0,0,1,67,82.41Z"/><path class="cls-2" d="M19.84,81.21a2,2,0,0,1-.74-3.87C27.55,74,37.88,69.18,42.85,61.29,46.41,55.63,47.19,48.5,48,41.6c.09-.85.19-1.7.28-2.54C49.7,26.41,56.56,14.87,66.59,8.2a2,2,0,1,1,2.21,3.32c-9.06,6-15.26,16.51-16.59,28-.1.84-.19,1.68-.28,2.52-.81,7.35-1.64,14.94-5.7,21.38C40.64,72.3,29.58,77.51,20.57,81.07A2.1,2.1,0,0,1,19.84,81.21Z"/><path class="cls-2" d="M80.28,70.79a2,2,0,0,1-1.44-.61L49.08,39.66a2,2,0,1,1,2.86-2.79L81.71,67.39a2,2,0,0,1-1.43,3.4Z"/><path class="cls-2" d="M86.8,52.68a2,2,0,0,1-1.41-.59L56.69,23.4a2,2,0,0,1,2.83-2.83L88.21,49.26a2,2,0,0,1-1.41,3.42Z"/><path class="cls-3" d="M45.25,90.5A45.25,45.25,0,1,1,90.5,45.25,45.3,45.3,0,0,1,45.25,90.5Zm0-86.5A41.25,41.25,0,1,0,86.5,45.25,41.29,41.29,0,0,0,45.25,4Z"/><path class="cls-4" d="M25.56,35.24c-1.33,6-7.23,9.9-8.95,14.49C14,56.64,20.11,62.38,27,61.58a8.51,8.51,0,0,0,7.55-9.75C33.82,45.14,26.44,42.25,25.56,35.24Z"/><path class="cls-5" d="M25.72,63.65a12.08,12.08,0,0,1-9.55-4.47A10.29,10.29,0,0,1,14.74,49a23.16,23.16,0,0,1,4.16-6.3c2-2.43,4.05-4.94,4.71-7.91a2,2,0,0,1,3.93.18c.38,2.94,2.2,5.11,4.14,7.42,2.18,2.59,4.43,5.27,4.87,9.21a10.52,10.52,0,0,1-9.31,11.94A12.91,12.91,0,0,1,25.72,63.65Zm-.31-23A43.5,43.5,0,0,1,22,45.25a21.07,21.07,0,0,0-3.51,5.18,6.27,6.27,0,0,0,.84,6.29,8.24,8.24,0,0,0,7.46,2.87,6.53,6.53,0,0,0,5.79-7.54c-.3-2.72-2-4.74-3.95-7.07A30.65,30.65,0,0,1,25.41,40.68Z"/><path class="cls-5" d="M28.34,48.57s2.63,2.87,1.24,5.62"/><path class="cls-5" d="M29.58,55.69a1.5,1.5,0,0,1-1.34-2.18c.9-1.78-1-3.91-1-3.93a1.5,1.5,0,0,1,2.22-2c.13.15,3.31,3.67,1.47,7.31A1.52,1.52,0,0,1,29.58,55.69Z"/><circle class="cls-4" cx="40.25" cy="27.64" r="4.29"/><path class="cls-5" d="M40.25,33.93a6.29,6.29,0,1,1,6.29-6.29A6.29,6.29,0,0,1,40.25,33.93Zm0-8.58a2.29,2.29,0,1,0,2.29,2.29A2.3,2.3,0,0,0,40.25,25.35Z"/></g></g></svg>