<svg xmlns="http://www.w3.org/2000/svg" viewBox="0 0 112 112"><defs><style>.cls-1{fill:#ffc1e0;stroke-miterlimit:10;stroke-width:4px;}.cls-1,.cls-2,.cls-3{stroke:#f39;}.cls-2{fill:#fff;}.cls-2,.cls-3{stroke-linecap:round;stroke-linejoin:round;stroke-width:4px;}.cls-3{fill:none;}.cls-4{fill:#f39;}</style></defs><title>Surprise Me</title><g id="Layer_2" data-name="Layer 2"><g id="Explore_By" data-name="Explore By"><g id="Surprise_Me" data-name="Surprise Me"><circle class="cls-1" cx="56" cy="56" r="54"/><rect class="cls-2" x="38" y="46" width="36" height="28"/><line class="cls-3" x1="38.33" y1="46.94" x2="27.42" y2="36.03"/><line class="cls-3" x1="75" y1="46.94" x2="85.91" y2="36.03"/><polygon class="cls-4" points="58.69 58.58 63.24 59.18 60 62.43 60.84 66.94 56.74 64.86 52.71 67.06 53.42 62.52 50.09 59.37 54.62 58.64 56.6 54.49 58.69 58.58"/><path class="cls-4" d="M52.71,67.68a.62.62,0,0,1-.36-.12.61.61,0,0,1-.25-.6l.66-4.21-3.09-2.94a.61.61,0,0,1-.17-.63.63.63,0,0,1,.49-.43l4.22-.67L56,54.23a.61.61,0,0,1,.55-.35.67.67,0,0,1,.56.33L59.09,58l4.23.56a.62.62,0,0,1,.36,1l-3,3,.78,4.19a.6.6,0,0,1-.23.61.61.61,0,0,1-.65,0l-3.81-1.93L53,67.6A.67.67,0,0,1,52.71,67.68Zm-1.29-7.9,2.43,2.29a.62.62,0,0,1,.18.55l-.51,3.3,2.93-1.6a.64.64,0,0,1,.57,0l3,1.52-.61-3.29a.63.63,0,0,1,.17-.55l2.36-2.36-3.31-.44a.6.6,0,0,1-.47-.33l-1.52-3-1.44,3a.62.62,0,0,1-.46.34Z"/></g></g></g></svg>