<svg xmlns="http://www.w3.org/2000/svg" viewBox="0 0 234.63 234.63"><defs><style>.cls-1{fill:#f58981;}.cls-2{fill:#fff;stroke-miterlimit:10;}.cls-2,.cls-3{stroke:#070668;stroke-width:8px;}.cls-3{fill:none;stroke-linecap:round;stroke-linejoin:round;}.cls-4{fill:#070668;}</style></defs><title>Asset 62</title><g id="Layer_2" data-name="Layer 2"><g id="Explore_By" data-name="Explore By"><path class="cls-1" d="M117.32,234.63A117.32,117.32,0,1,1,234.63,117.32,117.45,117.45,0,0,1,117.32,234.63Zm0-224.26a106.95,106.95,0,1,0,106.94,107A107.07,107.07,0,0,0,117.32,10.37Z"/><path class="cls-2" d="M94,148.38c-5.06-7.21-6.86-5.93-13.94-9.78-6-4.47-6.36-9.13-7-16.34s-3.17-7-5.45-12.17c-2.39-5.46-.11-12.92,4.49-19.48,0,0,1.43-3,2.49-11.14,1-7.84,6.93-10.21,11.34-11.62,6.48-2.07,8.16-5.22,11.58-8.86,0,0,6.15-7.78,16.81-3.1,5.16,2.1,7.12,2.32,12.12.16,3.29-1.42,11.36-2.14,17.45,7.4,3,4.31,3.51,4.62,9.68,6.82s10.07,6.72,9.74,13.57c-.24,5.21,1.59,11,4.24,14.28a12.64,12.64,0,0,1,.42,15.13c-3,4.48-5.6,7.17-5,13.4,1,9.39-5.95,14.12-9.48,14.61-6.36.89-10.38,3.26-13.13,7.94-9.81,9.64-13.21,4.08-22.37,3.81C110.09,152.77,102.12,159.92,94,148.38Z"/><circle class="cls-2" cx="118.69" cy="104.32" r="35.93"/><path class="cls-3" d="M93.2,148.38v30c0,4,3.84,6.38,6.8,4.29l15.51-10.89a5.25,5.25,0,0,1,6.3.1l13.51,10.13c3.11,2.33,7.26-.2,7.26-4.43v-30"/><path class="cls-4" d="M126,92.15a17.56,17.56,0,0,0-7.2,5.14,17.46,17.46,0,0,0-7.19-5.14c-3.66-1.29-8.15-.72-10.79,2.13-3.26,3.54-2.67,9.39,0,13.37s7,6.53,11.16,8.95l4.7,2.73a4.81,4.81,0,0,0,4.19,0l4.7-2.73c4.16-2.42,8.46-5,11.16-8.95s3.29-9.83,0-13.37C134.14,91.43,129.65,90.86,126,92.15Z"/></g></g></svg>