<svg xmlns="http://www.w3.org/2000/svg" viewBox="0 0 91.65 91.33"><defs><style>.cls-1{fill:#fabbaf;}.cls-2,.cls-3{fill:none;}.cls-2,.cls-4,.cls-5{stroke:#861619;}.cls-2,.cls-3,.cls-5{stroke-linecap:round;stroke-linejoin:round;stroke-width:4px;}.cls-3{stroke:#f58981;}.cls-4{fill:#861619;stroke-miterlimit:10;}.cls-5{fill:#fff;}</style></defs><title>Asset 24</title><g id="Layer_2" data-name="Layer 2"><g id="Skin_Categories" data-name="Skin Categories"><circle class="cls-1" cx="48.4" cy="48.08" r="43.25"/><path class="cls-2" d="M3.17,54.18c10.87-5,23.76-4.26,34.22.67C44.62,58.25,52,62.24,60,62.18c9.89-.06,19.67-6.39,27.34-12.1"/><circle class="cls-3" cx="45.25" cy="45.25" r="43.25"/><circle class="cls-4" cx="11.57" cy="57.74" r="1.99"/><circle class="cls-4" cx="21.11" cy="57.15" r="1.99"/><circle class="cls-4" cx="39.64" cy="62.29" r="1.99"/><circle class="cls-4" cx="48.4" cy="66.05" r="1.99"/><circle class="cls-4" cx="30.82" cy="58.76" r="1.99"/><circle class="cls-4" cx="57.92" cy="67.96" r="1.99"/><circle class="cls-4" cx="67.56" cy="67.27" r="1.99"/><circle class="cls-4" cx="76.19" cy="64.29" r="1.99"/><path class="cls-5" d="M76.56,50.16l-6-10.06L59.7,39l5.65-5.46S58.78,27.74,55,27.4a8.77,8.77,0,0,0-7,2.36c-.82.81-1.79-2.8-1.79-2.8a44.43,44.43,0,0,0-14.42,3.79,39.38,39.38,0,0,0,3.55,8.58A33,33,0,0,0,50.64,50.08l2.66-2s5.17,5.59,9,5.66c4.29.09,5.51-.84,14.3-3.61"/><path class="cls-2" d="M76.56,50.16C49.48,46.11,21,23,21,23"/></g></g></svg>