<svg xmlns="http://www.w3.org/2000/svg" width="30.018" height="31.284" viewBox="0 0 30.018 31.284">
  <g id="icon_sale" transform="translate(-2728.634 -632.361)">
    <path id="Path_2120" data-name="Path 2120" d="M2728.607,636.112l1.384-3.295.791-1.779,3.888-.264,1.845.264,1.779-2.306,1.713-.461,2.175,2.5s1.186.2,1.449.264,3.229,0,3.229,0a4.315,4.315,0,0,1,1.054.791,9.341,9.341,0,0,1,.857,1.977c.066.527-.132,1.384,0,1.581s1.318,1.384,1.318,1.384a4.7,4.7,0,0,1,1.318.659,8.95,8.95,0,0,1,1.12,1.054c.132.264-.132.593,0,1.318a7.973,7.973,0,0,1,0,1.779,4.851,4.851,0,0,1,0,1.384,14.155,14.155,0,0,0,0,2.372c0,.329.264.527.33.922a6.683,6.683,0,0,1,0,1.186s.329.2,0,.659a9.642,9.642,0,0,1-.857.988,2.38,2.38,0,0,1-.593.791c-.4.329-2.636,2.24-2.636,3.031a2.309,2.309,0,0,1-.527,1.779c-.4.329-.659.857-1.384.988a4.922,4.922,0,0,1-1.713,0c-.461-.066-.461.066-1.054,0s-.461,0-1.252.329a7.439,7.439,0,0,0-1.779.923c-.527.4-.329.461-1.054.527s-1.252-.066-1.713,0-.527.4-1.054-.264.659.2-.725-.857a11.465,11.465,0,0,0-1.845-1.252h-1.779c-.791,0,.264.2-1.186,0s-1.516.923-1.713-.4a4.427,4.427,0,0,0-.4-1.779c-.33-.791,0,0-.659-1.45s-.857-1.911-.857-1.911.4-.2-.461-.461-1.252-.264-1.647-.593-.725,0-.659-.659-.593.066,0-1.318.132-1.977.659-2.372.989.659.725-1.186a14.733,14.733,0,0,0-.725-3.163c-.132-.329-.066-.4,0-1.318s-.329-1.647.4-1.713a4.218,4.218,0,0,0,1.713-.659A.421.421,0,0,1,2728.607,636.112Z" transform="translate(4.446 4.722)" fill="#c4d8ff"/>
    <g id="discount_1_" data-name="discount (1)" transform="translate(2728.634 632.361)">
      <g id="Group_508" data-name="Group 508" transform="translate(0 0)">
        <g id="Group_507" data-name="Group 507">
          <path id="Path_2116" data-name="Path 2116" d="M38.93,16.045a.917.917,0,0,1,0-.81L40.1,12.848a2.716,2.716,0,0,0-1.172-3.606L36.578,8a.917.917,0,0,1-.476-.656l-.459-2.617A2.716,2.716,0,0,0,32.575,2.5l-2.631.372a.917.917,0,0,1-.771-.25L27.264.77a2.716,2.716,0,0,0-3.792,0l-1.91,1.847a.917.917,0,0,1-.771.25L18.161,2.5a2.716,2.716,0,0,0-3.068,2.229l-.459,2.617A.917.917,0,0,1,14.158,8L11.811,9.242a2.716,2.716,0,0,0-1.172,3.606l1.167,2.387a.917.917,0,0,1,0,.81l-1.167,2.387a2.716,2.716,0,0,0,1.172,3.606l2.347,1.245a.917.917,0,0,1,.476.656l.459,2.617a2.714,2.714,0,0,0,2.677,2.256,2.791,2.791,0,0,0,.391-.028l2.631-.372a.917.917,0,0,1,.771.25l1.909,1.847a2.716,2.716,0,0,0,3.792,0l1.91-1.847a.918.918,0,0,1,.771-.25l2.631.372a2.715,2.715,0,0,0,3.068-2.229l.459-2.617a.917.917,0,0,1,.476-.656l2.347-1.245A2.716,2.716,0,0,0,40.1,18.432Zm-.851,4.4L35.732,21.69a2.71,2.71,0,0,0-1.408,1.938l-.459,2.617A.919.919,0,0,1,32.827,27L30.2,26.626a2.709,2.709,0,0,0-2.278.74l-1.91,1.847a.919.919,0,0,1-1.283,0l-1.909-1.847a2.707,2.707,0,0,0-1.89-.768,2.769,2.769,0,0,0-.388.027L17.909,27a.919.919,0,0,1-1.038-.754l-.459-2.617A2.709,2.709,0,0,0,15,21.69l-2.347-1.245a.919.919,0,0,1-.4-1.22l1.167-2.387a2.71,2.71,0,0,0,0-2.4L12.26,12.056a.919.919,0,0,1,.4-1.22L15,9.59a2.71,2.71,0,0,0,1.408-1.938l.459-2.617a.919.919,0,0,1,1.038-.754l2.631.372a2.71,2.71,0,0,0,2.278-.74l1.91-1.847a.919.919,0,0,1,1.283,0l1.909,1.847a2.709,2.709,0,0,0,2.278.74l2.631-.372a.919.919,0,0,1,1.038.754l.459,2.617A2.709,2.709,0,0,0,35.732,9.59l2.347,1.245a.919.919,0,0,1,.4,1.22l-1.167,2.387a2.71,2.71,0,0,0,0,2.4l1.167,2.387A.919.919,0,0,1,38.079,20.445Z" transform="translate(-10.359 0.002)" fill="#80adff"/>
        </g>
      </g>
      <g id="Group_510" data-name="Group 510" transform="translate(8.153 8.786)">
        <g id="Group_509" data-name="Group 509">
          <path id="Path_2117" data-name="Path 2117" d="M157.239,144.056a.9.9,0,0,0-1.276,0l-11.908,11.908a.9.9,0,1,0,1.276,1.276l11.908-11.908A.9.9,0,0,0,157.239,144.056Z" transform="translate(-143.791 -143.791)" fill="#80adff"/>
        </g>
      </g>
      <g id="Group_512" data-name="Group 512" transform="translate(8.092 7.523)">
        <g id="Group_511" data-name="Group 511">
          <path id="Path_2118" data-name="Path 2118" d="M146.11,123.116a3.308,3.308,0,1,0,3.308,3.308A3.312,3.312,0,0,0,146.11,123.116Zm0,4.811a1.5,1.5,0,1,1,1.5-1.5A1.505,1.505,0,0,1,146.11,127.927Z" transform="translate(-142.802 -123.116)" fill="#80adff"/>
        </g>
      </g>
      <g id="Group_514" data-name="Group 514" transform="translate(15.31 17.146)">
        <g id="Group_513" data-name="Group 513">
          <path id="Path_2119" data-name="Path 2119" d="M264.23,280.61a3.308,3.308,0,1,0,3.308,3.308A3.312,3.312,0,0,0,264.23,280.61Zm0,4.811a1.5,1.5,0,1,1,1.5-1.5A1.505,1.505,0,0,1,264.23,285.421Z" transform="translate(-260.922 -280.61)" fill="#80adff"/>
        </g>
      </g>
    </g>
  </g>
</svg>
