<svg xmlns="http://www.w3.org/2000/svg" viewBox="0 0 112 112"><defs><style>.cls-1{fill:#fff7f7;}.cls-2{fill:#e0f0c1;}.cls-3{fill:#336;}</style></defs><title>Asset 166</title><g id="Layer_2" data-name="Layer 2"><g id="Explore_By_-_128px" data-name="Explore By - 128px"><g id="Explore_By" data-name="Explore By"><circle class="cls-1" cx="56" cy="56" r="56"/><polyline class="cls-2" points="35.85 42.44 84.66 42.5 76.39 69.48 43.61 69.48 35.85 42.44"/><circle class="cls-2" cx="47.7" cy="81.93" r="4.15"/><circle class="cls-2" cx="72.59" cy="81.93" r="4.15"/><path class="cls-3" d="M72.24,68.41H39.46a1,1,0,0,1-1-.73L29.23,35.23h-3a1,1,0,0,1,0-2H30A1,1,0,0,1,31,34l1.61,5.64,48-.17h0a1,1,0,0,1,.8.4,1,1,0,0,1,.16.89l-8.28,27A1,1,0,0,1,72.24,68.41Zm-32-2H71.5l7.66-25-46,.17Z"/><path class="cls-3" d="M43.56,85a5.15,5.15,0,1,1,5.14-5.15A5.16,5.16,0,0,1,43.56,85Zm0-8.3a3.15,3.15,0,1,0,3.14,3.15A3.16,3.16,0,0,0,43.56,76.7Z"/><path class="cls-3" d="M68.44,85a5.15,5.15,0,1,1,5.15-5.15A5.15,5.15,0,0,1,68.44,85Zm0-8.3a3.15,3.15,0,1,0,3.15,3.15A3.15,3.15,0,0,0,68.44,76.7Z"/><path class="cls-3" d="M56.58,45.2v1a5.79,5.79,0,0,1,1.72.41,3.48,3.48,0,0,1,1.26.94,4.27,4.27,0,0,1,.66,1,2.35,2.35,0,0,1,.23.94,1.18,1.18,0,0,1-1.18,1.15,1.17,1.17,0,0,1-1.2-1,2.12,2.12,0,0,0-1.49-1.57V52c.77.21,1.39.41,1.86.59a3.57,3.57,0,0,1,1.23.76,3.48,3.48,0,0,1,.9,1.24,3.88,3.88,0,0,1,.32,1.58,4.28,4.28,0,0,1-.5,2,4.12,4.12,0,0,1-1.49,1.53,5.27,5.27,0,0,1-2.32.7v2.35a2.26,2.26,0,0,1-.11.81.47.47,0,0,1-.48.25.53.53,0,0,1-.48-.2,1.22,1.22,0,0,1-.13-.64V60.44a5.75,5.75,0,0,1-1.93-.52,4.41,4.41,0,0,1-1.37-1,4.16,4.16,0,0,1-.82-1.22A3.22,3.22,0,0,1,51,56.47a1.17,1.17,0,0,1,.35-.82,1.19,1.19,0,0,1,.88-.36,1.29,1.29,0,0,1,.72.2,1,1,0,0,1,.4.55,11.15,11.15,0,0,0,.45,1.19,2.08,2.08,0,0,0,.57.74,2.47,2.47,0,0,0,1,.52V54.11a11,11,0,0,1-2.11-.78,3.46,3.46,0,0,1-1.38-1.22,4.06,4.06,0,0,1,.51-4.69,4.58,4.58,0,0,1,3-1.2v-1c0-.53.2-.79.59-.79S56.58,44.68,56.58,45.2Zm-1.2,6.46V48.05a3.35,3.35,0,0,0-1.24.63,1.46,1.46,0,0,0-.44,1.16A1.44,1.44,0,0,0,54.12,51,3.81,3.81,0,0,0,55.38,51.66Zm1.2,2.8v4.13A2.55,2.55,0,0,0,58,57.82a1.91,1.91,0,0,0,.52-1.33,1.63,1.63,0,0,0-.5-1.27A4.16,4.16,0,0,0,56.58,54.46Z"/></g></g></g></svg>