<svg xmlns="http://www.w3.org/2000/svg" viewBox="0 0 112 112"><defs><style>.cls-1{fill:#fff7f7;}.cls-2{fill:#d1e0ff;}.cls-3{fill:#336;}.cls-4{fill:#fff;}</style></defs><title>Asset 167</title><g id="Layer_2" data-name="Layer 2"><g id="Explore_By_-_128px" data-name="Explore By - 128px"><g id="Explore_By" data-name="Explore By"><circle class="cls-1" cx="56" cy="56" r="56"/><path class="cls-2" d="M47.05,31.52H74.19a1.05,1.05,0,0,1,1,1.18L69.7,77.52a3.52,3.52,0,0,1-3.49,3.08H55.64a3.52,3.52,0,0,1-3.49-3L46,32.72A1.06,1.06,0,0,1,47.05,31.52Z"/><path class="cls-2" d="M54.16,80.6H67.71a0,0,0,0,1,0,0v1.27a6.78,6.78,0,0,1-6.78,6.78h0a6.78,6.78,0,0,1-6.78-6.78V80.6A0,0,0,0,1,54.16,80.6Z"/><path class="cls-3" d="M62.2,79.6H51.63a4.54,4.54,0,0,1-4.48-3.91L41,30.85a2.05,2.05,0,0,1,2-2.33H70.18a2,2,0,0,1,2,2.3L66.68,75.63A4.52,4.52,0,0,1,62.2,79.6ZM43,30.52h0l6.13,44.89a2.53,2.53,0,0,0,2.5,2.18H62.2a2.53,2.53,0,0,0,2.5-2.21l5.54-44.81Z"/><path class="cls-3" d="M70.28,38.53H42.93a1,1,0,0,1,0-2H70.28a1,1,0,0,1,0,2Z"/><path class="cls-3" d="M56.93,87.64a7.79,7.79,0,0,1-7.78-7.77V78.6a1,1,0,0,1,1-1H63.7a1,1,0,0,1,1,1v1.27A7.78,7.78,0,0,1,56.93,87.64Zm-5.78-8v.27a5.78,5.78,0,0,0,11.55,0V79.6Z"/><line class="cls-4" x1="30.03" y1="57.91" x2="30.03" y2="71.4"/><path class="cls-3" d="M30,72.4a1,1,0,0,1-1-1V57.91a1,1,0,0,1,2,0V71.4A1,1,0,0,1,30,72.4Z"/><line class="cls-4" x1="23.29" y1="64.66" x2="36.78" y2="64.66"/><path class="cls-3" d="M36.78,65.66H23.29a1,1,0,1,1,0-2H36.78a1,1,0,0,1,0,2Z"/><path class="cls-3" d="M84.35,48.6a1,1,0,0,1-1-1V37.87a1,1,0,0,1,2,0V47.6A1,1,0,0,1,84.35,48.6Z"/><path class="cls-3" d="M89.22,43.74H79.49a1,1,0,0,1,0-2h9.73a1,1,0,0,1,0,2Z"/></g></g></g></svg>