<svg xmlns="http://www.w3.org/2000/svg" viewBox="0 0 239.82 237.23"><defs><style>.cls-1{fill:#fabbaf;}.cls-2{fill:#f58981;}.cls-3{fill:#fff;}.cls-4,.cls-5{fill:#861619;}.cls-5{stroke:#861619;stroke-width:0;}</style></defs><title>Asset 52</title><g id="Layer_2" data-name="Layer 2"><g id="Skin_Categories" data-name="Skin Categories"><circle class="cls-1" cx="127.69" cy="125.09" r="112.13"/><path class="cls-2" d="M117.32,234.63A117.32,117.32,0,1,1,234.63,117.32,117.45,117.45,0,0,1,117.32,234.63Zm0-224.26a106.95,106.95,0,1,0,106.94,107A107.07,107.07,0,0,0,117.32,10.37Z"/><path class="cls-3" d="M117.32,54.41C111.13,82.51,83.6,100.59,75.57,122c-22.84,60.9,91.32,78.77,83.73,9.83C155.86,100.59,121.45,87.09,117.32,54.41Z"/><path class="cls-4" d="M119.61,181.27c-14,0-28.38-4.81-38.48-13.77-13.42-11.93-17.22-29.17-10.41-47.32,3.75-10,11-18.87,18.73-28.26,9.6-11.7,19.54-23.81,22.8-38.63a5.25,5.25,0,0,1,5.3-4.06,5.18,5.18,0,0,1,4.91,4.53c1.89,14.92,10.8,25.53,20.24,36.76,9.77,11.63,19.87,23.64,21.75,40.74,3.05,27.73-11.95,39.87-21.17,44.63A51.81,51.81,0,0,1,119.61,181.27ZM116.72,71.09c-5.21,10.29-12.53,19.22-19.25,27.41-7.15,8.71-13.9,16.93-17,25.32-6.79,18.09.38,29.52,7.59,35.93,13.18,11.71,35.37,14.75,50.49,6.93,12-6.21,17.42-18.07,15.63-34.29-1.53-14-10.2-24.28-19.38-35.2C128.05,89.21,121.19,81,116.72,71.09Z"/><path class="cls-4" d="M140.65,153.06a5.21,5.21,0,0,1-4.91-6.87c5.71-16.65-7.35-29.89-7.91-30.45a5.18,5.18,0,0,1,7.27-7.39c.75.74,18.31,18.29,10.45,41.2A5.2,5.2,0,0,1,140.65,153.06Z"/><circle class="cls-5" cx="119.33" cy="100.59" r="6.47"/><circle class="cls-3" cx="165.96" cy="77.72" r="11.11"/><path class="cls-4" d="M166,94a16.3,16.3,0,1,1,16.3-16.3A16.32,16.32,0,0,1,166,94Zm0-22.23a5.93,5.93,0,1,0,5.92,5.93A5.94,5.94,0,0,0,166,71.79Z"/></g></g></svg>