<svg xmlns="http://www.w3.org/2000/svg" viewBox="0 0 234.63 234.63"><defs><style>.cls-1{fill:#f58981;}.cls-2{fill:#fff;}.cls-2,.cls-3{stroke:#faaf40;stroke-linecap:round;stroke-linejoin:round;stroke-width:8px;}.cls-3{fill:none;}</style></defs><title>Asset 61</title><g id="Layer_2" data-name="Layer 2"><g id="Explore_By" data-name="Explore By"><path class="cls-1" d="M117.32,234.63A117.32,117.32,0,1,1,234.63,117.32,117.45,117.45,0,0,1,117.32,234.63Zm0-224.26a106.95,106.95,0,1,0,106.94,107A107.07,107.07,0,0,0,117.32,10.37Z"/><path class="cls-2" d="M84.35,68.39h69.51s4.47,78.39-34.35,78.39S84.35,81.45,84.35,68.39Z"/><path class="cls-3" d="M155.87,86.45a15.29,15.29,0,1,1-3.61,30.36"/><path class="cls-3" d="M85.84,116.92a15.29,15.29,0,0,1-3.26-30.4"/><path class="cls-2" d="M113.09,146.78s-3.66,18-13.33,18v7.06h38.42v-6.8s-11.5,1.57-13.07-18.29Z"/><path class="cls-3" d="M142.88,80.16s1.3,19.33-5,35.54"/><line class="cls-3" x1="182.08" y1="89.29" x2="194.88" y2="83.28"/><line class="cls-3" x1="184" y1="115.21" x2="197.68" y2="115.25"/><line class="cls-3" x1="179.81" y1="140.93" x2="192.43" y2="146.23"/><line class="cls-3" x1="57.2" y1="89.29" x2="44.39" y2="83.28"/><line class="cls-3" x1="55.27" y1="115.21" x2="41.59" y2="115.25"/><line class="cls-3" x1="59.47" y1="140.93" x2="46.85" y2="146.23"/></g></g></svg>