<svg xmlns="http://www.w3.org/2000/svg" viewBox="0 0 112 112"><defs><style>.cls-1{fill:#fff7f7;}.cls-2{fill:#ffc1e0;}.cls-3{fill:none;stroke:#336;stroke-linecap:round;stroke-linejoin:round;stroke-width:2px;}.cls-4{fill:#336;}</style></defs><title>Asset 165</title><g id="Layer_2" data-name="Layer 2"><g id="Explore_By_-_128px" data-name="Explore By - 128px"><g id="Explore_By" data-name="Explore By"><circle class="cls-1" cx="56" cy="56" r="56"/><rect class="cls-2" x="39.22" y="47.52" width="43.08" height="33.51"/><rect class="cls-3" x="34.84" y="46.27" width="43.08" height="33.51"/><path class="cls-4" d="M34.43,46.85a1,1,0,0,1-.7-.29L21.07,33.9a1,1,0,1,1,1.41-1.42L35.14,45.14a1,1,0,0,1,0,1.42A1,1,0,0,1,34.43,46.85Z"/><path class="cls-4" d="M77.51,47.25a1,1,0,0,1-.7-.3,1,1,0,0,1,0-1.41l13-13.06a1,1,0,0,1,1.42,1.42L78.22,47A1,1,0,0,1,77.51,47.25Z"/><polygon class="cls-4" points="57.99 58.99 63.44 59.7 59.56 63.59 60.56 68.99 55.67 66.5 50.84 69.13 51.69 63.7 47.7 59.92 53.13 59.06 55.49 54.1 57.99 58.99"/><path class="cls-4" d="M50.84,69.87a.76.76,0,0,1-.43-.14.73.73,0,0,1-.3-.71l.79-5-3.7-3.51a.72.72,0,0,1-.2-.76.75.75,0,0,1,.59-.51l5-.8,2.19-4.61a.73.73,0,0,1,.66-.42.8.8,0,0,1,.67.4l2.32,4.55,5.07.66A.73.73,0,0,1,64,60.22l-3.6,3.62.93,5a.74.74,0,0,1-1.06.79l-4.55-2.31-4.49,2.44A.73.73,0,0,1,50.84,69.87ZM49.3,60.42l2.9,2.75a.71.71,0,0,1,.22.65l-.62,3.95,3.51-1.91a.73.73,0,0,1,.69,0l3.57,1.81-.74-3.93a.74.74,0,0,1,.21-.66l2.82-2.83-4-.52a.73.73,0,0,1-.57-.4l-1.82-3.55-1.71,3.6a.76.76,0,0,1-.55.42Z"/></g></g></g></svg>