<svg xmlns="http://www.w3.org/2000/svg" viewBox="0 0 92.74 91.58"><defs><style>.cls-1{fill:#fabbaf;}.cls-2{fill:none;stroke:#f58981;}.cls-2,.cls-3{stroke-linecap:round;stroke-linejoin:round;stroke-width:4px;}.cls-3{fill:#861619;stroke:#861619;}</style></defs><title>Asset 19</title><g id="Layer_2" data-name="Layer 2"><g id="Skin_Categories" data-name="Skin Categories"><circle class="cls-1" cx="49.49" cy="48.33" r="43.25"/><circle class="cls-2" cx="45.25" cy="45.25" r="43.25"/><path class="cls-3" d="M18.13,38.85c2.47-3.35,6-6.69,9.3-7.7,2.73-.82,5.66-.09,8.41.64a9.94,9.94,0,0,1,4.35,1.94,8,8,0,0,1,2.17,5.06A19.38,19.38,0,0,1,39,52.16c-1.33,1.86-3.26,3.6-5.54,3.52-5.06-.16-10.92-1.11-15.21-3.89A7.56,7.56,0,0,1,15,48.18a7.33,7.33,0,0,1,.81-5.57A26.52,26.52,0,0,1,18.13,38.85Z"/><path class="cls-3" d="M55.26,46a17.87,17.87,0,0,1,1.47-8,19.25,19.25,0,0,1,5.85-6.34c3.47-2.69,8.54-6,13-3.77,3,1.48,2.18,7.35,2,9.92-.26,4.5-.78,8.65-3.46,12.46a31,31,0,0,1-7.81,7.21A4.91,4.91,0,0,1,63,58.8,5.05,5.05,0,0,1,61,57.92a11,11,0,0,1-3.56-3.09A17.87,17.87,0,0,1,55.26,46Z"/><path class="cls-3" d="M40.82,64.65a45,45,0,0,0,6,1.95c6.28,1.29,7.39,10.94.8,12.75A9.9,9.9,0,0,1,43,79.28a45.71,45.71,0,0,1-13.63-5.7c-1.35-.8-5.27-2.79-5.45-4.53-.24-2.37,5.29-4.46,6.91-5.17C34.08,62.44,37.48,63.44,40.82,64.65Z"/></g></g></svg>