<svg xmlns="http://www.w3.org/2000/svg" width="32.65" height="32.65" viewBox="0 0 32.65 32.65">
  <g id="icon_freshdrops" transform="translate(-318.804 -437.699)">
    <path id="Path_910" data-name="Path 910" d="M348.2,452.754a2.794,2.794,0,0,0-2.793-2.795h0v-2.794a2.794,2.794,0,0,0-2.793-2.795h-2.8v-5.588h-5.588a2.8,2.8,0,0,0-2.795,2.793v2.8h-2.795a2.794,2.794,0,0,0-2.794,2.794h0v2.795a2.8,2.8,0,0,0-2.795,2.793h0v2.795H348.2Z" transform="translate(-0.5 -0.127)" fill="#fff1e8"/>
    <path id="Path_911" data-name="Path 911" d="M326.22,467.282h19.561v5.588H326.22Z" transform="translate(-0.872 -3.478)" fill="#fff1e8"/>
    <path id="Path_910-2" data-name="Path 910" d="M351.454,459.612v-5.146h-2.795v-1.838a3.758,3.758,0,0,0-2.5-3.531l-.294-.1v-1.954a3.761,3.761,0,0,0-3.751-3.75h-1.837V437.7h-6.544a3.76,3.76,0,0,0-3.75,3.75v1.838h-1.839a3.76,3.76,0,0,0-3.75,3.75v1.954l-.294.1a3.757,3.757,0,0,0-2.5,3.531v1.838H318.8v5.147a5.163,5.163,0,0,0,5.148,5.147h.44v5.588h21.473v-5.588h.44A5.164,5.164,0,0,0,351.454,459.612Zm-27.944-6.985a1.842,1.842,0,0,1,1.837-1.837h12.134v-1.912H326.3v-1.839a1.842,1.842,0,0,1,1.837-1.838h5.148v-1.912h-1.4v-1.838a1.842,1.842,0,0,1,1.837-1.838h4.634v3.676h-1.4V445.2h5.147a1.845,1.845,0,0,1,1.839,1.837v1.839h-2.795v1.912h3.75a1.845,1.845,0,0,1,1.838,1.837v1.84H323.51Zm20.443,15.811H326.3v-3.676h17.649Zm5.588-8.823a3.244,3.244,0,0,1-3.234,3.235H323.951a3.242,3.242,0,0,1-3.236-3.236v-3.235h28.826Z" fill="#ffbc95"/>
  </g>
</svg>
