<svg xmlns="http://www.w3.org/2000/svg" viewBox="0 0 112 112"><defs><style>.cls-1{fill:#fff7f7;}.cls-2{fill:#e0d1c1;}.cls-3{fill:#336;}</style></defs><title>Asset 168</title><g id="Layer_2" data-name="Layer 2"><g id="Explore_By_-_128px" data-name="Explore By - 128px"><g id="Explore_By" data-name="Explore By"><circle class="cls-1" cx="56" cy="56" r="56"/><path class="cls-2" d="M85.81,79a192,192,0,0,0-1.14-32.29c-1-6.74-6.06-20.84-23.33-20.84-23.43,0-26.6,19.92-27,30.94s-.09,20,0,21.94S64.17,92.62,85.81,79"/><path class="cls-3" d="M57.2,84.33c-11,0-21-3-25.74-5.45-1.59-.83-2.22-1.43-2.26-2.16,0-.09-.43-9.73,0-22,.73-20.87,10.41-31.91,28-31.91,15.66,0,22.89,11.69,24.32,21.71A193.62,193.62,0,0,1,82.66,77a1,1,0,0,1-.46.78C74.46,82.64,65.53,84.33,57.2,84.33Zm-26-8c2.32,2.06,29.44,12.21,49.51,0a193.29,193.29,0,0,0-1.17-31.57c-.47-3.34-3.8-20-22.34-20-16.55,0-25.29,10.09-26,30C30.81,65.88,31.13,74.79,31.19,76.38Zm50.47.55h0Z"/><path class="cls-3" d="M56.21,78.92a1,1,0,0,1-.42-.1C34,68.55,36.64,48.41,38,42.48a1,1,0,0,1,.51-.66,1,1,0,0,1,.84,0c3.54,1.42,11.26,2.55,11.34,2.56a1,1,0,1,1-.29,2A80.06,80.06,0,0,1,39.69,44c-1.22,6.6-2.27,23.69,16.58,32.81C58,76.2,65.41,73.11,69,66.1A1,1,0,1,1,70.8,67c-4.47,8.67-13.89,11.72-14.29,11.85A1,1,0,0,1,56.21,78.92Z"/><path class="cls-3" d="M68.71,61.74s-.67-3.35-3.56-3.4C63,58.31,62,60,61.67,61.74h-5V57.46s-3-.64-3.14-3c-.07-1,.09-3.18,3.14-3.59V46.84h5s.46-3.29,3.4-3.4c1.94-.07,3.22,1.43,3.5,3.4h4.76v3.93a3.41,3.41,0,0,0-2.85,3.32,4.07,4.07,0,0,0,2.85,3.44v4.21Z"/></g></g></g></svg>