<svg xmlns="http://www.w3.org/2000/svg" viewBox="0 0 112 112"><defs><style>.cls-1{fill:#fff7f7;}.cls-2{fill:#f0c1c1;}.cls-3{fill:#336;}</style></defs><title>Asset 162</title><g id="Layer_2" data-name="Layer 2"><g id="Explore_By_-_128px" data-name="Explore By - 128px"><g id="Explore_By" data-name="Explore By"><circle class="cls-1" cx="56" cy="56" r="56"/><path class="cls-2" d="M47.81,47.73a.39.39,0,0,0-.61-.48c-4.58,4.46-14.56,16.56-4,29.33C57.55,93.77,90,77.91,78.19,56.49,71.47,44.31,64.71,44.31,66,29.89a1.26,1.26,0,0,0-2-1.12c-9.72,6.1-9.5,15.68-6.11,21.74C67.37,66.39,37.06,67.72,47.81,47.73Z"/><path class="cls-3" d="M55,82.79c-.5,0-1,0-1.5,0a21,21,0,0,1-15.14-7.61c-3.7-4.45-10.72-16.35,4-30.68a1.38,1.38,0,0,1,1.8-.12,1.41,1.41,0,0,1,.39,1.79h0c-2.91,5.39-3,9.77-.15,12A7,7,0,0,0,53,58c2.23-1.95,2.21-5.23,0-9-3.93-7-3.45-16.89,6.44-23.1a2.27,2.27,0,0,1,2.42,0,2.2,2.2,0,0,1,1,2.08c-.8,9.14,1.7,12.14,5.49,16.68a55.67,55.67,0,0,1,6.6,9.34c5,9.07,2.72,18.7-5.83,24.54A25.43,25.43,0,0,1,55,82.79ZM41.24,48.6c-4.56,5.48-9.76,15.17-1.36,25.26,5.68,6.84,17.45,10.2,28.07,3C74,72.66,78.59,64.73,73.16,54.89a54.07,54.07,0,0,0-6.39-9c-4-4.74-6.82-8.17-5.94-18.14a.19.19,0,0,0-.1-.19.32.32,0,0,0-.32,0C51.64,33.05,51.19,41.76,54.64,48c4,6.65,1.06,10.28-.38,11.53a9,9,0,0,1-11.11.23C41.66,58.52,38.87,55.26,41.24,48.6Zm2.43-3h0Z"/></g></g></g></svg>