<svg xmlns="http://www.w3.org/2000/svg" viewBox="0 0 236.9 240.23"><defs><style>.cls-1{fill:#fabbaf;}.cls-2{fill:#f58981;}.cls-3{fill:#861619;}.cls-4{fill:#fff;}.cls-5{fill:#c95a55;}</style></defs><title>Asset 50</title><g id="Layer_2" data-name="Layer 2"><g id="Skin_Categories" data-name="Skin Categories"><circle class="cls-1" cx="124.77" cy="128.1" r="112.13"/><path class="cls-2" d="M117.32,234.63A117.32,117.32,0,1,1,234.63,117.32,117.45,117.45,0,0,1,117.32,234.63Zm0-224.26a106.95,106.95,0,1,0,106.94,107A107.07,107.07,0,0,0,117.32,10.37Z"/><path class="cls-3" d="M39.65,98.33s-2.8,92.26,84.72,92.26c76.65,0,81.53-75.5,80.49-91.79C204.86,98.8,129.25,204.37,39.65,98.33Z"/><path class="cls-4" d="M124.9,149.14c-26.62,0-52.94-14.22-78.34-42.37a11.63,11.63,0,0,1-3.15-8.38,11,11,0,0,1,3.73-7.58c36.68-33,95.45-50.26,150.36.39,4.15,3.83,4.67,9.48,1.34,14.75-9.23,14.59-33.85,40-67.56,42.92Q128.09,149.14,124.9,149.14Z"/><path class="cls-5" d="M124.9,153c-27.75,0-55.08-14.69-81.23-43.66a15.43,15.43,0,0,1-4.14-11.18,14.79,14.79,0,0,1,5-10.27c37.95-34.17,98.76-52,155.59.43,5.54,5.1,6.32,12.83,2,19.68-9.61,15.19-35.28,41.71-70.51,44.71C129.39,152.94,127.13,153,124.9,153Zm-1.73-89.74c-28.14,0-54,12.91-73.43,30.41a7.08,7.08,0,0,0-2.44,4.9,7.76,7.76,0,0,0,2.14,5.56C76,133.58,103.5,147.34,131,145c32.2-2.75,55.76-27.15,64.6-41.13,2.33-3.68,2.08-7.26-.69-9.81C171,72,146.29,63.29,123.17,63.29Z"/><path class="cls-4" d="M56.45,99.16C81,126,105.73,138.55,130.23,136.48c28.73-2.45,50.37-25.1,58-36.95C128.38,45.23,73.46,84.23,56.45,99.16Z"/><polygon class="cls-4" points="59.17 102.15 62.64 106 62.64 106 59.17 102.15"/><path class="cls-4" d="M59.17,102.15h0Z"/><circle class="cls-4" cx="124.1" cy="103.55" r="22.99"/><path class="cls-5" d="M124.1,132.75a29.21,29.21,0,1,1,29.21-29.2A29.24,29.24,0,0,1,124.1,132.75Zm0-46a16.78,16.78,0,1,0,16.78,16.78A16.8,16.8,0,0,0,124.1,86.77Z"/></g></g></svg>