<svg xmlns="http://www.w3.org/2000/svg" viewBox="0 0 236.31 239.27"><defs><style>.cls-1{fill:#fabbaf;}.cls-2{fill:#f58981;}.cls-3{fill:#861619;}</style></defs><title>Asset 47</title><g id="Layer_2" data-name="Layer 2"><g id="Skin_Categories" data-name="Skin Categories"><circle class="cls-1" cx="124.18" cy="127.14" r="112.13"/><path class="cls-2" d="M117.32,234.63A117.32,117.32,0,1,1,234.63,117.32,117.45,117.45,0,0,1,117.32,234.63Zm0-224.26a106.95,106.95,0,1,0,106.94,107A107.07,107.07,0,0,0,117.32,10.37Z"/><circle class="cls-2" cx="77.64" cy="115.74" r="19.46"/><path class="cls-3" d="M77.65,140.39a24.65,24.65,0,1,1,24.64-24.65A24.67,24.67,0,0,1,77.65,140.39Zm0-38.92a14.28,14.28,0,1,0,14.27,14.27A14.29,14.29,0,0,0,77.65,101.47Z"/><circle class="cls-2" cx="127.76" cy="140.42" r="17.96"/><path class="cls-3" d="M127.76,163.57a23.15,23.15,0,1,1,23.14-23.15A23.18,23.18,0,0,1,127.76,163.57Zm0-35.92a12.77,12.77,0,1,0,12.77,12.77A12.79,12.79,0,0,0,127.76,127.65Z"/><circle class="cls-2" cx="117.95" cy="84.33" r="11.51"/><path class="cls-3" d="M118,101a16.69,16.69,0,1,1,16.7-16.69A16.71,16.71,0,0,1,118,101Zm0-23a6.32,6.32,0,1,0,6.33,6.32A6.33,6.33,0,0,0,118,78Z"/></g></g></svg>