<svg xmlns="http://www.w3.org/2000/svg" viewBox="0 0 237.58 237.64"><defs><style>.cls-1{fill:#fabbaf;}.cls-2{fill:#f58981;}.cls-3{fill:#fff;}.cls-4{fill:#861619;}</style></defs><title>Asset 49</title><g id="Layer_2" data-name="Layer 2"><g id="Skin_Categories" data-name="Skin Categories"><circle class="cls-1" cx="125.45" cy="125.51" r="112.13"/><path class="cls-2" d="M117.32,234.63A117.32,117.32,0,1,1,234.63,117.32,117.45,117.45,0,0,1,117.32,234.63Zm0-224.26a106.95,106.95,0,1,0,106.94,107A107.07,107.07,0,0,0,117.32,10.37Z"/><path class="cls-3" d="M77,107.65a22.24,22.24,0,1,1,18.09-9.24h0A22.27,22.27,0,0,1,77,107.65Zm.09-41.9a20.18,20.18,0,0,0-3.19.26A19.65,19.65,0,1,0,93,96.9h0a19.66,19.66,0,0,0-15.9-31.15Z"/><circle class="cls-4" cx="76.93" cy="85.56" r="9.28"/><path class="cls-4" d="M76.93,98.73A13.17,13.17,0,1,1,90.09,85.56,13.19,13.19,0,0,1,76.93,98.73Zm0-18.56a5.39,5.39,0,1,0,5.38,5.39A5.39,5.39,0,0,0,76.93,80.17Z"/><path class="cls-3" d="M159.71,129a14.87,14.87,0,1,1,12.09-6.17h0A14.88,14.88,0,0,1,159.71,129Zm0-27.15a12.28,12.28,0,1,0,9.95,19.46h0a12.27,12.27,0,0,0-9.95-19.46Z"/><circle class="cls-4" cx="159.69" cy="114.1" r="4.7"/><path class="cls-4" d="M159.69,121.4a7.3,7.3,0,1,1,7.3-7.3A7.31,7.31,0,0,1,159.69,121.4Zm0-9.41a2.12,2.12,0,1,0,2.11,2.11A2.12,2.12,0,0,0,159.69,112Z"/><path class="cls-3" d="M135.72,84.25a10.17,10.17,0,0,1-8.24-16.12A10.17,10.17,0,1,1,144,80a10.06,10.06,0,0,1-6.62,4.09A10.31,10.31,0,0,1,135.72,84.25Zm0-17.75a7.57,7.57,0,1,0,4.42,1.42A7.57,7.57,0,0,0,135.75,66.5Z"/><circle class="cls-4" cx="135.74" cy="74.07" r="4.66"/><path class="cls-3" d="M116.36,175.66a14.88,14.88,0,1,1,12.1-6.19h0a14.77,14.77,0,0,1-9.69,6A15.17,15.17,0,0,1,116.36,175.66Zm0-27.16a12.28,12.28,0,1,0,10,19.46h0a12.28,12.28,0,0,0-10-19.46Z"/><circle class="cls-4" cx="116.35" cy="160.75" r="4.7"/><path class="cls-4" d="M116.35,168.05a7.3,7.3,0,1,1,7.3-7.3A7.31,7.31,0,0,1,116.35,168.05Zm0-9.41a2.11,2.11,0,1,0,2.11,2.11A2.12,2.12,0,0,0,116.35,158.64Z"/></g></g></svg>