<svg xmlns="http://www.w3.org/2000/svg" viewBox="0 0 112 112"><defs><style>.cls-1{fill:#d1e0ff;}.cls-1,.cls-2,.cls-3,.cls-4{stroke:#69f;}.cls-1,.cls-4{stroke-miterlimit:10;}.cls-1,.cls-2,.cls-3{stroke-width:4px;}.cls-2{fill:#fff;}.cls-2,.cls-3{stroke-linecap:round;stroke-linejoin:round;}.cls-3{fill:none;}.cls-4{fill:#69f;}</style></defs><title>Sample It</title><g id="Layer_2" data-name="Layer 2"><g id="Explore_By" data-name="Explore By"><g id="Sample_It" data-name="Sample It"><circle class="cls-1" cx="56" cy="56" r="54"/><path class="cls-2" d="M43.06,30.49H70.14a1.06,1.06,0,0,1,1,1.19l-5.52,44.7a3.52,3.52,0,0,1-3.48,3.08H51.63a3.51,3.51,0,0,1-3.48-3L42,31.69A1.06,1.06,0,0,1,43.06,30.49Z"/><line class="cls-3" x1="42.95" y1="38.49" x2="70.23" y2="38.49"/><path class="cls-2" d="M50.16,79.46H63.68a0,0,0,0,1,0,0v1.27a6.76,6.76,0,0,1-6.76,6.76h0a6.76,6.76,0,0,1-6.76-6.76V79.46A0,0,0,0,1,50.16,79.46Z"/><line class="cls-2" x1="30.09" y1="58.82" x2="30.09" y2="72.28"/><line class="cls-2" x1="23.36" y1="65.55" x2="36.82" y2="65.55"/><line class="cls-4" x1="84.28" y1="38.83" x2="84.28" y2="48.54"/><path class="cls-4" d="M84.28,50a1.5,1.5,0,0,1-1.5-1.5V38.83a1.5,1.5,0,0,1,3,0v9.71A1.5,1.5,0,0,1,84.28,50Z"/><line class="cls-4" x1="79.42" y1="43.69" x2="89.13" y2="43.69"/><path class="cls-4" d="M89.13,45.19H79.42a1.51,1.51,0,0,1,0-3h9.71a1.51,1.51,0,0,1,0,3Z"/></g></g></g></svg>