<svg xmlns="http://www.w3.org/2000/svg" viewBox="0 0 111.95 111.95"><defs><style>.cls-1{fill:#c1e0e0;}.cls-1,.cls-2,.cls-3,.cls-4,.cls-5{stroke:#399;}.cls-1,.cls-4,.cls-5{stroke-miterlimit:10;}.cls-1,.cls-2,.cls-3{stroke-width:4px;}.cls-2,.cls-4{fill:#fff;}.cls-2,.cls-3{stroke-linecap:round;stroke-linejoin:round;}.cls-3{fill:none;}.cls-5,.cls-6{fill:#399;}</style></defs><title>New In</title><g id="Layer_2" data-name="Layer 2"><g id="Explore_By" data-name="Explore By"><g id="New_In" data-name="New In"><circle class="cls-1" cx="55.98" cy="55.98" r="53.98"/><rect class="cls-2" x="37.67" y="52.64" width="36.67" height="28.48"/><line class="cls-3" x1="37.36" y1="52.95" x2="26.46" y2="63.86"/><line class="cls-3" x1="75.05" y1="52.64" x2="85.96" y2="63.55"/><line class="cls-2" x1="50.07" y1="30.77" x2="50.07" y2="44.23"/><line class="cls-2" x1="43.34" y1="37.5" x2="56.79" y2="37.5"/><line class="cls-4" x1="64.25" y1="26.78" x2="64.25" y2="36.49"/><path class="cls-5" d="M64.25,38a1.5,1.5,0,0,1-1.5-1.5V26.78a1.5,1.5,0,0,1,3,0v9.71A1.5,1.5,0,0,1,64.25,38Z"/><line class="cls-4" x1="59.4" y1="31.64" x2="69.11" y2="31.64"/><path class="cls-5" d="M69.11,33.14H59.4a1.5,1.5,0,1,1,0-3h9.71a1.5,1.5,0,0,1,0,3Z"/><path class="cls-6" d="M55.92,64.46c1.68-4,6-3.22,6.13,0,0,4.06-6.13,7.29-6.13,7.29s-6-3.75-6-7.28C49.91,61.35,54.11,60.54,55.92,64.46Z"/><path class="cls-6" d="M55.86,73.54l-.76-.47c-.69-.43-6.75-4.33-6.75-8.6a4.07,4.07,0,0,1,3.19-4.11c1.35-.3,3.29.45,4.44,2.94,1.21-2.49,2.83-3.28,4.19-3a4.21,4.21,0,0,1,3.43,4.15c0,4.89-6.24,8.33-7,8.71Zm-3.4-10.17a1,1,0,0,0-.25,0,1,1,0,0,0-.75,1.07c0,1.62,2.43,4,4.51,5.45,1.7-1.07,4.52-3.31,4.52-5.46a1.06,1.06,0,0,0-.89-1.13c-.65-.13-1.62.26-2.25,1.74L56,68.32l-1.47-3.21C53.94,63.88,53.12,63.37,52.46,63.37Z"/></g></g></g></svg>