<svg xmlns="http://www.w3.org/2000/svg" viewBox="0 0 91.85 90.74"><defs><style>.cls-1{fill:#fabbaf;}.cls-2,.cls-3,.cls-4{fill:none;}.cls-2{stroke:#f58981;}.cls-2,.cls-3,.cls-4,.cls-5{stroke-linecap:round;stroke-linejoin:round;stroke-width:4px;}.cls-3{stroke:#c95a55;}.cls-4,.cls-5{stroke:#861619;}.cls-5{fill:#fff;}</style></defs><title>Asset 22</title><g id="Layer_2" data-name="Layer 2"><g id="Skin_Categories" data-name="Skin Categories"><circle class="cls-1" cx="48.6" cy="47.49" r="43.25"/><circle class="cls-2" cx="45.25" cy="45.25" r="43.25"/><path class="cls-3" d="M62.66,52.88a13.09,13.09,0,0,0,12.17-1.3"/><path class="cls-3" d="M61.16,55.42a14.07,14.07,0,0,0,12.52,2.19"/><path class="cls-3" d="M45.25,57.52a52.74,52.74,0,0,1-25.77-5.13,19.63,19.63,0,0,0,5.2,11.8"/><path class="cls-3" d="M19.55,36.66s23.11-22.85,52.58-1.8"/><path class="cls-4" d="M23.77,42.24c5-4.48,24.52-19.42,45.69.11a1.59,1.59,0,0,1,.09,2.2c-4.45,7-23,25.28-45.82,0A1.54,1.54,0,0,1,23.77,42.24Z"/><circle class="cls-5" cx="47.6" cy="44.38" r="7.4"/></g></g></svg>