<svg xmlns="http://www.w3.org/2000/svg" viewBox="0 0 112 112"><defs><style>.cls-1{fill:#d1c1e0;stroke-miterlimit:10;stroke-width:4px;}.cls-1,.cls-2,.cls-3,.cls-4{stroke:#639;}.cls-2,.cls-3,.cls-4{fill:#fff;stroke-linecap:round;stroke-linejoin:round;}.cls-2{stroke-width:4px;}.cls-3{stroke-width:3.71px;}.cls-4{stroke-width:3.95px;}.cls-5{fill:#639;}</style></defs><title>All Items</title><g id="Layer_2" data-name="Layer 2"><g id="Explore_By" data-name="Explore By"><g id="All_Items" data-name="All Items"><circle class="cls-1" cx="56" cy="56" r="54"/><rect class="cls-2" x="62" y="58" width="24" height="4"/><path class="cls-2" d="M61.83,55.77s-.48-4.75,7-4c-4.25-1.37-6.34-5.76-.94-6.84s7.42-5.61,7.49-6.77,7.56,6,.65,9.58c5.53-1,12.38.29,9.29,8.06"/><path class="cls-2" d="M45,38v1c0,6,9,1,9,10V77.47A4.53,4.53,0,0,1,49.47,82H30.53A4.53,4.53,0,0,1,26,77.47V48.24c0-8.32,9-3.7,9-9.5l.08-1.36"/><rect class="cls-3" x="34" y="30" width="12" height="8"/><rect class="cls-4" x="60" y="62" width="28" height="20"/><path class="cls-5" d="M40.16,56.88c1.68-4,6-3.22,6.13,0,0,4-6.13,7.29-6.13,7.29s-6-3.75-6-7.28C34.15,53.77,38.35,53,40.16,56.88Z"/><path class="cls-5" d="M40.1,66l-.76-.47c-.69-.43-6.75-4.33-6.75-8.6a4.07,4.07,0,0,1,3.19-4.11c1.35-.3,3.29.45,4.44,2.94,1.21-2.49,2.83-3.28,4.19-3a4.21,4.21,0,0,1,3.43,4.15c0,4.89-6.24,8.33-7,8.7ZM36.7,55.79a1,1,0,0,0-.25,0,1,1,0,0,0-.75,1.07c0,1.62,2.43,4,4.51,5.45,1.7-1.08,4.52-3.31,4.52-5.46a1.08,1.08,0,0,0-.89-1.14c-.65-.12-1.62.27-2.25,1.75l-1.37,3.25-1.47-3.21C38.18,56.3,37.35,55.79,36.7,55.79Z"/></g></g></g></svg>