<svg xmlns="http://www.w3.org/2000/svg" viewBox="0 0 234.63 234.63"><defs><style>.cls-1{fill:#f58981;}.cls-2,.cls-4{fill:#fff;}.cls-2,.cls-4,.cls-5{stroke:#00a69c;stroke-linecap:round;stroke-linejoin:round;}.cls-2,.cls-5{stroke-width:8px;}.cls-3{fill:#00a69c;}.cls-4{stroke-width:7px;}.cls-5{fill:none;}</style></defs><title>Asset 64</title><g id="Layer_2" data-name="Layer 2"><g id="Explore_By" data-name="Explore By"><path class="cls-1" d="M117.32,234.63A117.32,117.32,0,1,1,234.63,117.32,117.45,117.45,0,0,1,117.32,234.63Zm0-224.26a106.95,106.95,0,1,0,106.94,107A107.07,107.07,0,0,0,117.32,10.37Z"/><rect class="cls-2" x="73.38" y="114.76" width="76.91" height="59.73"/><path class="cls-3" d="M119.37,130.44a18.36,18.36,0,0,0-7.53,5.39,18.46,18.46,0,0,0-7.54-5.39c-3.84-1.35-8.54-.75-11.3,2.24-3.42,3.7-2.8,9.83,0,14s7.33,6.84,11.69,9.37l4.92,2.87a2.88,2.88,0,0,0,2.2.5,2.85,2.85,0,0,0,2.19-.5l4.92-2.87c4.36-2.53,8.87-5.2,11.7-9.37s3.45-10.3,0-14C127.92,129.69,123.21,129.09,119.37,130.44Z"/><rect class="cls-4" x="93.48" y="73.16" width="44.84" height="34.83"/><path class="cls-3" d="M121,82.48a9.11,9.11,0,0,0-3.76,2.69,9.21,9.21,0,0,0-3.77-2.69,5.35,5.35,0,0,0-5.65,1.12c-1.71,1.85-1.4,4.91,0,7s3.67,3.42,5.85,4.68l2.46,1.44a1.41,1.41,0,0,0,1.1.24,1.38,1.38,0,0,0,1.09-.24l2.46-1.44c2.18-1.26,4.44-2.6,5.85-4.68s1.73-5.15,0-7A5.37,5.37,0,0,0,121,82.48Z"/><rect class="cls-2" x="150.29" y="114.76" width="18.99" height="59.73"/><rect class="cls-4" x="140.32" y="73.16" width="11.07" height="34.83"/><polyline class="cls-2" points="151.78 95.63 157.38 95.63 169.28 114.76"/><polyline class="cls-2" points="73.38 114.76 86.22 95.63 92.98 95.63"/><polygon class="cls-2" points="94.48 72.16 100.68 58.18 142.22 58.18 150.39 72.16 94.48 72.16"/><line class="cls-5" x1="65.85" y1="82.54" x2="65.85" y2="98.99"/><line class="cls-5" x1="57.34" y1="90.77" x2="74.36" y2="90.77"/><line class="cls-5" x1="168.44" y1="75.55" x2="168.44" y2="88.45"/><line class="cls-5" x1="161.77" y1="82" x2="175.11" y2="82"/><line class="cls-5" x1="79.15" y1="65.7" x2="79.15" y2="76.84"/><line class="cls-5" x1="73.38" y1="71.27" x2="84.91" y2="71.27"/></g></g></svg>