<svg xmlns="http://www.w3.org/2000/svg" viewBox="0 0 91.15 92.29"><defs><style>.cls-1{fill:#fabbaf;}.cls-2,.cls-4{fill:none;stroke-linecap:round;stroke-linejoin:round;}.cls-2{stroke:#f58981;stroke-width:4px;}.cls-3{fill:#c95a55;}.cls-4{stroke:#861619;stroke-width:3px;}</style></defs><title>Asset 23</title><g id="Layer_2" data-name="Layer 2"><g id="Skin_Categories" data-name="Skin Categories"><circle class="cls-1" cx="47.9" cy="49.04" r="43.25"/><circle class="cls-2" cx="45.25" cy="45.25" r="43.25"/><path class="cls-3" d="M53.51,49.18s6.43,9.89,14.84,0C68.35,49.18,60.05,40.49,53.51,49.18Z"/><path class="cls-4" d="M47.09,53.15a7.18,7.18,0,0,0,3.19-1c3-1.55,4.32-6.68,10.3-6.68,7.81,0,7.43,7,13.49,8.16"/><path class="cls-3" d="M34,20.64s8.35,13.38,19.27,0C53.25,20.64,42.48,8.88,34,20.64Z"/><path class="cls-4" d="M24.53,26a9.78,9.78,0,0,0,4.32-1.42c4.08-2.1,5.84-9,13.94-9,10.57,0,10.06,9.5,18.26,11"/><path class="cls-3" d="M23,42.1s4.76,8,11,0C34,42.1,27.87,35.05,23,42.1Z"/><path class="cls-4" d="M18.46,44.89a5.51,5.51,0,0,0,2.41-.8C23.15,42.92,24.14,39,28.66,39c5.9,0,5.62,5.31,10.21,6.17"/></g></g></svg>