<svg xmlns="http://www.w3.org/2000/svg" viewBox="0 0 112 112"><defs><style>.cls-1{fill:#fff7f7;}.cls-2{fill:#c1e0e0;}.cls-3{fill:#336;}.cls-4{fill:#fff;}</style></defs><title>Asset 163</title><g id="Layer_2" data-name="Layer 2"><g id="Explore_By_-_128px" data-name="Explore By - 128px"><g id="Explore_By" data-name="Explore By"><circle class="cls-1" cx="56" cy="56" r="56"/><rect class="cls-2" x="42.09" y="54.41" width="36.67" height="28.48"/><path class="cls-3" d="M74.37,82.12H37.7a1,1,0,0,1-1-1V52.64a1,1,0,0,1,1-1H74.37a1,1,0,0,1,1,1V81.12A1,1,0,0,1,74.37,82.12Zm-35.67-2H73.37V53.64H38.7Z"/><line class="cls-4" x1="37.39" y1="52.95" x2="26.48" y2="63.86"/><path class="cls-3" d="M26.48,64.86a1,1,0,0,1-.71-.29,1,1,0,0,1,0-1.42l10.91-10.9a1,1,0,1,1,1.41,1.41L27.19,64.57A1,1,0,0,1,26.48,64.86Z"/><line class="cls-4" x1="75.08" y1="52.64" x2="85.99" y2="63.55"/><path class="cls-3" d="M86,64.55a1,1,0,0,1-.71-.29L74.37,53.35a1,1,0,1,1,1.41-1.41l10.91,10.9a1,1,0,0,1-.7,1.71Z"/><line class="cls-4" x1="50.09" y1="30.77" x2="50.09" y2="44.23"/><path class="cls-3" d="M50.09,45.23a1,1,0,0,1-1-1V30.77a1,1,0,1,1,2,0V44.23A1,1,0,0,1,50.09,45.23Z"/><line class="cls-4" x1="43.36" y1="37.5" x2="56.82" y2="37.5"/><path class="cls-3" d="M56.82,38.5H43.36a1,1,0,0,1,0-2H56.82a1,1,0,0,1,0,2Z"/><line class="cls-4" x1="61.49" y1="25.64" x2="61.49" y2="34.57"/><path class="cls-3" d="M61.49,35.57a1,1,0,0,1-1-1V25.64a1,1,0,1,1,2,0v8.93A1,1,0,0,1,61.49,35.57Z"/><line class="cls-4" x1="57.03" y1="30.11" x2="65.95" y2="30.11"/><path class="cls-3" d="M66,31.11H57a1,1,0,0,1,0-2H66a1,1,0,0,1,0,2Z"/></g></g></g></svg>