<svg xmlns="http://www.w3.org/2000/svg" viewBox="0 0 238.05 236.65"><defs><style>.cls-1{fill:#cdcde1;}.cls-2{fill:#070668;}.cls-3{fill:#232161;}.cls-4,.cls-5{fill:none;stroke:#070668;stroke-linecap:round;stroke-linejoin:round;}.cls-4{stroke-width:8px;}.cls-5{stroke-width:7px;}</style></defs><title>Asset 60</title><g id="Layer_2" data-name="Layer 2"><g id="Explore_By" data-name="Explore By"><circle class="cls-1" cx="125.92" cy="124.51" r="112.13"/><path class="cls-2" d="M117.32,234.63A117.32,117.32,0,1,1,234.63,117.32,117.45,117.45,0,0,1,117.32,234.63Zm0-224.26a106.95,106.95,0,1,0,106.94,107A107.07,107.07,0,0,0,117.32,10.37Z"/><path class="cls-3" d="M118.37,130.44a18.36,18.36,0,0,0-7.53,5.39,18.46,18.46,0,0,0-7.54-5.39c-3.84-1.35-8.54-.75-11.3,2.24-3.42,3.7-2.8,9.83,0,14s7.33,6.84,11.69,9.37l4.92,2.87a2.88,2.88,0,0,0,2.2.5,2.85,2.85,0,0,0,2.19-.5l4.92-2.87c4.36-2.53,8.87-5.2,11.7-9.37s3.45-10.3,0-14C126.92,129.69,122.21,129.09,118.37,130.44Z"/><path class="cls-3" d="M120,82.48a9.11,9.11,0,0,0-3.76,2.69,9.21,9.21,0,0,0-3.77-2.69,5.35,5.35,0,0,0-5.65,1.12c-1.71,1.85-1.4,4.91,0,7s3.67,3.42,5.85,4.68l2.46,1.44a1.41,1.41,0,0,0,1.1.24,1.38,1.38,0,0,0,1.09-.24l2.46-1.44c2.18-1.26,4.44-2.6,5.85-4.68s1.73-5.15,0-7A5.37,5.37,0,0,0,120,82.48Z"/><rect class="cls-4" x="149.29" y="114.76" width="18.99" height="59.73"/><rect class="cls-4" x="72.38" y="114.76" width="76.91" height="59.73"/><rect class="cls-5" x="139.32" y="73.16" width="11.07" height="34.83"/><rect class="cls-5" x="92.48" y="73.16" width="44.84" height="34.83"/><polyline class="cls-4" points="150.78 95.63 156.38 95.63 168.28 114.76"/><polyline class="cls-4" points="72.38 114.76 85.22 95.63 91.98 95.63"/><polygon class="cls-4" points="93.48 72.16 99.68 58.18 141.22 58.18 149.39 72.16 93.48 72.16"/><line class="cls-4" x1="64.85" y1="82.54" x2="64.85" y2="98.99"/><line class="cls-4" x1="56.34" y1="90.77" x2="73.36" y2="90.77"/><line class="cls-4" x1="167.44" y1="75.55" x2="167.44" y2="88.45"/><line class="cls-4" x1="160.77" y1="82" x2="174.11" y2="82"/><line class="cls-4" x1="78.15" y1="65.7" x2="78.15" y2="76.84"/><line class="cls-4" x1="72.38" y1="71.27" x2="83.91" y2="71.27"/></g></g></svg>