<svg xmlns="http://www.w3.org/2000/svg" viewBox="0 0 112 112"><defs><style>.cls-1{fill:#fff7f7;}.cls-2{fill:#fff0c1;}.cls-3{fill:#336;}</style></defs><title>Asset 160</title><g id="Layer_2" data-name="Layer 2"><g id="Explore_By_-_128px" data-name="Explore By - 128px"><g id="Explore_By" data-name="Explore By"><circle class="cls-1" cx="56" cy="56" r="56"/><path class="cls-2" d="M40.17,31.72H78s2.59,40.1-18.7,40.1S40.17,31.72,40.17,31.72Z"/><path class="cls-2" d="M57,71.1h5.6s0,7.42,8.88,11.49V84.3H49.06V82.92S57,77.26,57,71.1Z"/><path class="cls-3" d="M67.93,84.41H45.51a1,1,0,0,1-1-1V82a1,1,0,0,1,.41-.81c.08-.06,7.51-5.44,7.53-11a1,1,0,0,1,1-1h5.6a1,1,0,0,1,1,1c0,.27.15,6.84,8.29,10.58a1,1,0,0,1,.59.91v1.7A1,1,0,0,1,67.93,84.41Zm-21.27-2H66.93v-.07c-7-3.46-8.48-8.89-8.79-11.12H54.38C53.74,76.45,48.44,81,46.66,82.41Z"/><path class="cls-3" d="M37.45,56.48a9.09,9.09,0,0,1-7.37-14.41A9,9,0,0,1,36,38.41a1,1,0,0,1,1.14.83,1,1,0,0,1-.82,1.14,7.1,7.1,0,1,0,2.28,14,1,1,0,0,1,1.15.83,1,1,0,0,1-.83,1.14A9.11,9.11,0,0,1,37.45,56.48Z"/><path class="cls-3" d="M73.76,56a9,9,0,0,1-1.36-.1,1,1,0,1,1,.3-2,7.23,7.23,0,0,0,2.11-14.3,1,1,0,0,1,.29-2A9.23,9.23,0,0,1,73.76,56Z"/><path class="cls-3" d="M55.76,71A15,15,0,0,1,44.5,66.18c-10.13-10.69-8.94-35.25-8.88-36.29a1,1,0,0,1,1-.95H74.46a1,1,0,0,1,1,.94c.06,1,1.53,25.61-8.49,36.3A14.86,14.86,0,0,1,55.76,71ZM37.58,30.94c-.11,4.63-.1,24.94,8.37,33.87A13.07,13.07,0,0,0,55.76,69a12.88,12.88,0,0,0,9.75-4.23c8.38-8.94,8.16-29.27,8-33.87Z"/></g></g></g></svg>