<svg xmlns="http://www.w3.org/2000/svg" viewBox="0 0 112 112"><defs><style>.cls-1{fill:#fff0c1;stroke-width:4px;}.cls-1,.cls-4{stroke:#fc3;stroke-miterlimit:10;}.cls-2{fill:#fc3;}.cls-3{fill:#fff;}.cls-4{fill:none;stroke-width:0.25px;}</style></defs><title>Asset 30</title><g id="Layer_2" data-name="Layer 2"><g id="Explore_By" data-name="Explore By"><g id="Top_Ranked" data-name="Top Ranked"><circle class="cls-1" cx="56" cy="56" r="54"/><path class="cls-2" d="M78.69,26.13c0,1.2,1.6,29.19-9.84,41.34A17.08,17.08,0,0,1,56,73.07a18.6,18.6,0,0,1-13.73-5.56c-10-10.11-9.64-31.42-9.52-39.46v-1.8a1.66,1.66,0,0,1,1.68-1.68H77A1.7,1.7,0,0,1,78.69,26.13ZM56,71.39C79.73,71.39,77,26.25,77,26.25H34.39C34.39,33.77,32.15,71.39,56,71.39Z"/><path class="cls-2" d="M77,26.25S79.73,71.39,56,71.39,34.39,33.77,34.39,26.25Zm-10.6,39c9-9.6,9.12-31.27,9-37.27H36.07v.16c-.12,7.64-.44,28,8.56,37.07A15.08,15.08,0,0,0,56,69.71,13.76,13.76,0,0,0,66.41,65.2Z"/><path class="cls-3" d="M75.37,27.93c.16,6,0,27.67-9,37.27A13.76,13.76,0,0,1,56,69.71a15.08,15.08,0,0,1-11.33-4.55C35.63,56,36,35.73,36.07,28.09v-.16Z"/><path class="cls-4" d="M34.39,26.25H77S79.73,71.39,56,71.39,34.39,33.77,34.39,26.25Z"/><path class="cls-4" d="M56,73.07a18.6,18.6,0,0,1-13.73-5.56c-10-10.11-9.64-31.42-9.52-39.46v-1.8a1.66,1.66,0,0,1,1.68-1.68H77a1.7,1.7,0,0,1,1.68,1.56c0,1.2,1.6,29.19-9.84,41.34A17.08,17.08,0,0,1,56,73.07Z"/><path class="cls-4" d="M36.07,27.93v.16c-.12,7.64-.44,28,8.56,37.07A15.08,15.08,0,0,0,56,69.71,13.76,13.76,0,0,0,66.41,65.2c9-9.6,9.12-31.27,9-37.27Z"/><path class="cls-3" d="M51.24,71.14s-2.71,11.93-9.89,11.93v4.67H69.87V83.25s-8.54,1-9.7-12.11Z"/><path class="cls-2" d="M71.57,83.27v4.48a1.68,1.68,0,0,1-1.68,1.67H41.35a1.68,1.68,0,0,1-1.68-1.67V83.07a1.69,1.69,0,0,1,1.68-1.68c4.76,0,7.57-7.68,8.25-10.64a1.71,1.71,0,0,1,1.64-1.28h8.92A1.66,1.66,0,0,1,61.84,71c.4,4.36,1.64,7.44,3.73,9.16a6,6,0,0,0,4.12,1.44A1.6,1.6,0,0,1,71,82,1.77,1.77,0,0,1,71.57,83.27Zm-3.36,2.8v-1.2a10,10,0,0,1-4.73-2.08c-2.56-2.08-4.16-5.44-4.8-10H52.52c-.92,3-3.72,10.52-9.49,11.76v1.48Z"/><path class="cls-2" d="M78.45,29.53A11.8,11.8,0,0,1,77.05,53a8.46,8.46,0,0,1-1.4-.08,1.67,1.67,0,0,1-1.48-1.84,1.72,1.72,0,0,1,1.88-1.48,8.43,8.43,0,0,0,2-16.75,1.69,1.69,0,0,1,.4-3.36Z"/><path class="cls-2" d="M72,34.41c0,.52.12,13.31-4.72,24a1.64,1.64,0,0,1-1.52,1,1.31,1.31,0,0,1-.68-.16,1.63,1.63,0,0,1-.84-2.2c4.52-10,4.4-22.47,4.4-22.59a1.67,1.67,0,0,1,1.64-1.72A1.72,1.72,0,0,1,72,34.41Z"/><path class="cls-2" d="M37.19,51.2A1.64,1.64,0,0,1,35.71,53c-.44,0-.84.08-1.28.08a11.64,11.64,0,0,1-7.37-2.64,11.44,11.44,0,0,1-4.32-7.91,11.8,11.8,0,0,1,10.45-13,1.69,1.69,0,0,1,.36,3.36,8.44,8.44,0,0,0-7.49,9.28,8.45,8.45,0,0,0,9.29,7.51A1.65,1.65,0,0,1,37.19,51.2Z"/></g></g></g></svg>