<svg xmlns="http://www.w3.org/2000/svg" viewBox="0 0 234.63 234.63"><defs><style>.cls-1{fill:#f58981;}.cls-2{fill:#fff;stroke:#be1e2d;stroke-linecap:round;stroke-linejoin:round;stroke-width:8px;}</style></defs><title>Asset 63</title><g id="Layer_2" data-name="Layer 2"><g id="Explore_By" data-name="Explore By"><path class="cls-1" d="M117.32,234.63A117.32,117.32,0,1,1,234.63,117.32,117.45,117.45,0,0,1,117.32,234.63Zm0-224.26a106.95,106.95,0,1,0,106.94,107A107.07,107.07,0,0,0,117.32,10.37Z"/><path class="cls-2" d="M92.15,99.65a.78.78,0,0,0-1.22-1c-9.16,8.91-29.12,33.08-7.89,58.6,28.57,34.37,93.44,2.66,69.81-40.14C139.41,92.81,125.91,92.81,128.44,64a2.52,2.52,0,0,0-3.89-2.25c-19.42,12.2-19,31.34-12.22,43.46C131.23,136.94,70.65,139.59,92.15,99.65Z"/></g></g></svg>