<svg xmlns="http://www.w3.org/2000/svg" viewBox="0 0 238.05 236.65"><defs><style>.cls-1{fill:#cdcde1;}.cls-2{fill:#070668;}.cls-3,.cls-4{fill:none;stroke:#070668;stroke-width:8px;}.cls-3{stroke-miterlimit:10;}.cls-4{stroke-linecap:round;stroke-linejoin:round;}.cls-5{fill:#232161;}</style></defs><title>Asset 58</title><g id="Layer_2" data-name="Layer 2"><g id="Explore_By" data-name="Explore By"><circle class="cls-1" cx="125.92" cy="124.51" r="112.13"/><path class="cls-2" d="M117.32,234.63A117.32,117.32,0,1,1,234.63,117.32,117.45,117.45,0,0,1,117.32,234.63Zm0-224.26a106.95,106.95,0,1,0,106.94,107A107.07,107.07,0,0,0,117.32,10.37Z"/><circle class="cls-3" cx="118.69" cy="104.32" r="35.93"/><path class="cls-3" d="M105,153c-6.62-5.79-8.07-4.12-15.87-6.18-6.9-2.91-8.35-7.35-10.69-14.2s-4.73-6-8.18-10.52c-3.62-4.73-3.19-12.52-.28-20,0,0,.68-3.22-.24-11.41C68.86,82.8,74,79.1,78,76.68c5.8-3.56,6.68-7,9.13-11.36,0,0,4.12-9,15.59-7,5.51.81,7.46.56,11.81-2.73,2.86-2.16,10.52-4.79,18.71,3,3.89,3.48,4.51,3.64,11,4.31s11.38,4.13,12.7,10.86c1,5.12,4.17,10.36,7.52,12.86a12.65,12.65,0,0,1,4,14.6c-1.83,5.06-3.73,8.3-1.61,14.19,3.19,8.89-2.42,15.13-5.73,16.45-6,2.37-9.3,5.63-10.86,10.84-7.24,11.69-11.87,7.1-20.83,9C121.64,153.41,115.61,162.24,105,153Z"/><path class="cls-4" d="M93.2,147.67v26.75c0,4,3.84,6.38,6.8,4.29l15.51-10.89a5.25,5.25,0,0,1,6.3.1l13.51,10.13c3.11,2.33,7.26-.2,7.26-4.43v-23"/><path class="cls-5" d="M126,92.15a17.56,17.56,0,0,0-7.2,5.14,17.46,17.46,0,0,0-7.19-5.14c-3.66-1.29-8.15-.72-10.79,2.13-3.26,3.54-2.67,9.39,0,13.37s7,6.53,11.16,8.95l4.7,2.73a4.81,4.81,0,0,0,4.19,0l4.7-2.73c4.16-2.42,8.46-5,11.16-8.95s3.29-9.83,0-13.37C134.14,91.43,129.65,90.86,126,92.15Z"/></g></g></svg>