<svg xmlns="http://www.w3.org/2000/svg" viewBox="0 0 240.44 237.43"><defs><style>.cls-1{fill:#fabbaf;}.cls-2{fill:#861619;}.cls-3{fill:#f58981;}</style></defs><title>Asset 48</title><g id="Layer_2" data-name="Layer 2"><g id="Skin_Categories" data-name="Skin Categories"><circle class="cls-1" cx="128.3" cy="125.3" r="112.13"/><path class="cls-2" d="M154.94,142.64c-19.54,0-37.28-8.48-54.44-16.69l-5.92-2.82c-27.14-12.78-58.68-13.41-84.36-1.7A5.19,5.19,0,0,1,5.91,112C34.33,99,69.13,99.69,99,113.75l6,2.85c16.11,7.7,32.77,15.67,50,15.67h.37c24.19-.16,49-16.31,67.83-30.37a5.19,5.19,0,1,1,6.19,8.32c-20.14,15-46.76,32.24-73.94,32.42Z"/><path class="cls-3" d="M117.43,234.64c-1.5,0-3,0-4.49-.09A117.32,117.32,0,1,1,234.56,121.7h0A117.34,117.34,0,0,1,117.43,234.64Zm-.21-224.27a106.95,106.95,0,0,0-3.9,213.82A106.94,106.94,0,0,0,224.19,121.31,107.06,107.06,0,0,0,121.31,10.45C120,10.4,118.58,10.37,117.22,10.37ZM229.38,121.51h0Z"/><circle class="cls-2" cx="46.92" cy="147.28" r="9.28"/><path class="cls-2" d="M46.92,160.45a13.13,13.13,0,0,1-1.86-.13h0a13.19,13.19,0,1,1,1.86.13Zm-.76-7.83A5.39,5.39,0,0,0,52.25,148a5.38,5.38,0,1,0-10.66-1.52,5.4,5.4,0,0,0,4.57,6.1Z"/><circle class="cls-2" cx="61.25" cy="177.48" r="9.28"/><path class="cls-2" d="M61.28,190.65a13.44,13.44,0,0,1-1.89-.13,13.17,13.17,0,1,1,12.39-20.94,13.17,13.17,0,0,1-10.5,21.07Zm0-18.56a5.39,5.39,0,0,0-.75,10.73h0a5.31,5.31,0,0,0,4-1A5.39,5.39,0,0,0,62,172.15,4.9,4.9,0,0,0,61.24,172.09Z"/><circle class="cls-2" cx="107.92" cy="193.04" r="9.28"/><path class="cls-2" d="M108,206.21a13.36,13.36,0,0,1-1.89-.14,13.17,13.17,0,1,1,9.76-2.5A13,13,0,0,1,108,206.21Zm0-18.56a5.39,5.39,0,0,0-.75,10.72h0a5.38,5.38,0,1,0,1.52-10.66A5.09,5.09,0,0,0,107.91,187.65Z"/><circle class="cls-2" cx="136.44" cy="161.93" r="9.28"/><path class="cls-2" d="M136.47,175.1a13.36,13.36,0,0,1-1.89-.14,13.16,13.16,0,1,1,9.76-2.5A13,13,0,0,1,136.47,175.1Zm-.05-18.56a5.39,5.39,0,0,0-.74,10.72h0a5.38,5.38,0,1,0,1.52-10.66A5.12,5.12,0,0,0,136.42,156.54Z"/><circle class="cls-2" cx="162.36" cy="190.45" r="9.28"/><path class="cls-2" d="M162.39,203.62a13.58,13.58,0,0,1-1.89-.14,13.17,13.17,0,1,1,9.76-2.5A13,13,0,0,1,162.39,203.62Zm0-18.56a5.39,5.39,0,0,0-5.32,4.63,5.39,5.39,0,0,0,4.57,6.09h0a5.38,5.38,0,0,0,6.1-4.57,5.4,5.4,0,0,0-4.57-6.1A6.81,6.81,0,0,0,162.35,185.06Z"/><circle class="cls-2" cx="94.96" cy="143.78" r="9.28"/><path class="cls-2" d="M95,157a15,15,0,0,1-1.89-.13,13.17,13.17,0,1,1,3.72-26.07A13.17,13.17,0,0,1,95,157Zm0-18.56a5.39,5.39,0,0,0-.74,10.72h0a5.38,5.38,0,1,0,1.52-10.66A5.12,5.12,0,0,0,94.94,138.39Z"/><circle class="cls-2" cx="188.29" cy="159.34" r="9.28"/><path class="cls-2" d="M188.32,172.51a13.36,13.36,0,0,1-1.89-.14,13.17,13.17,0,1,1,9.76-2.5A13,13,0,0,1,188.32,172.51Zm0-18.56a5.39,5.39,0,0,0-.75,10.72h0A5.39,5.39,0,1,0,189.05,154,5.06,5.06,0,0,0,188.28,154Z"/></g></g></svg>