<svg xmlns="http://www.w3.org/2000/svg" viewBox="0 0 112 112"><defs><style>.cls-1{fill:#fff;stroke:#fcc;stroke-miterlimit:10;stroke-width:4px;}.cls-2{fill:#336;}.cls-3{fill:#fcc;}</style></defs><title>Blackheads</title><g id="Layer_2" data-name="Layer 2"><g id="Skin_Categories" data-name="Skin Categories"><g id="Blackheads"><circle class="cls-1" cx="56" cy="56" r="54"/><circle class="cls-2" cx="40" cy="52" r="16"/><path class="cls-3" d="M39.63,71.11A18.07,18.07,0,1,1,57.69,53.05,18.08,18.08,0,0,1,39.63,71.11Zm0-32.73A14.67,14.67,0,1,0,54.3,53.05,14.69,14.69,0,0,0,39.63,38.38Z"/><circle class="cls-2" cx="54" cy="82" r="6"/><path class="cls-3" d="M53.16,89.83a8.21,8.21,0,1,1,8.21-8.2A8.21,8.21,0,0,1,53.16,89.83Zm0-13A4.82,4.82,0,1,0,58,81.63,4.82,4.82,0,0,0,53.16,76.81Z"/><circle class="cls-2" cx="78.88" cy="56" r="10"/><path class="cls-3" d="M78.88,67.52A11.55,11.55,0,1,1,90.43,56,11.56,11.56,0,0,1,78.88,67.52Zm0-19.71A8.16,8.16,0,1,0,87,56,8.17,8.17,0,0,0,78.88,47.81Z"/><circle class="cls-2" cx="63.79" cy="30.21" r="6"/><path class="cls-3" d="M63.79,38.11a8,8,0,1,1,8-8A8,8,0,0,1,63.79,38.11Zm0-12.55a4.58,4.58,0,1,0,4.58,4.58A4.59,4.59,0,0,0,63.79,25.56Z"/></g></g></g></svg>