<svg xmlns="http://www.w3.org/2000/svg" viewBox="0 0 112 112"><defs><style>.cls-1{fill:#fff7f7;}.cls-2{fill:#fcc;}.cls-3{fill:#336;}</style></defs><title>Pigmentation</title><g id="Layer_2" data-name="Layer 2"><g id="Skin_Categories" data-name="Skin Categories"><g id="Pigmentation"><circle class="cls-1" cx="56" cy="56" r="56"/><ellipse class="cls-2" cx="57.68" cy="50.11" rx="5.35" ry="5.37"/><ellipse class="cls-2" cx="31.39" cy="50.11" rx="5.35" ry="5.37"/><ellipse class="cls-2" cx="83.98" cy="50.11" rx="5.35" ry="5.37"/><ellipse class="cls-2" cx="44.54" cy="66.59" rx="5.35" ry="5.37"/><ellipse class="cls-2" cx="70.83" cy="66.59" rx="5.35" ry="5.37"/><ellipse class="cls-2" cx="57.68" cy="84.17" rx="5.35" ry="5.37"/><ellipse class="cls-2" cx="31.39" cy="84.17" rx="5.35" ry="5.37"/><ellipse class="cls-2" cx="83.98" cy="84.17" rx="5.35" ry="5.37"/><ellipse class="cls-3" cx="54.4" cy="47.92" rx="5.35" ry="5.37"/><ellipse class="cls-3" cx="28.11" cy="47.92" rx="5.35" ry="5.37"/><ellipse class="cls-3" cx="80.69" cy="47.92" rx="5.35" ry="5.37"/><ellipse class="cls-3" cx="41.25" cy="64.39" rx="5.35" ry="5.37"/><ellipse class="cls-3" cx="67.54" cy="64.39" rx="5.35" ry="5.37"/><ellipse class="cls-3" cx="54.4" cy="81.97" rx="5.35" ry="5.37"/><ellipse class="cls-3" cx="28.11" cy="81.97" rx="5.35" ry="5.37"/><ellipse class="cls-3" cx="80.69" cy="81.97" rx="5.35" ry="5.37"/><path class="cls-2" d="M83.64,36.93c-3.39,0-5.1-2-6.61-3.86S74.42,29.93,72,29.93s-3.66,1.46-5.07,3.14-3.21,3.86-6.6,3.86-5.09-2-6.6-3.86-2.62-3.14-5.06-3.14S45,31.39,43.57,33.07s-3.21,3.86-6.6,3.86-5.09-2-6.59-3.86-2.62-3.14-5.07-3.14a1,1,0,1,1,0-2c3.39,0,5.1,2.06,6.6,3.86s2.62,3.14,5.06,3.14,3.66-1.45,5.07-3.14,3.21-3.86,6.6-3.86,5.09,2.06,6.6,3.86,2.61,3.14,5.06,3.14,3.66-1.45,5.07-3.14,3.21-3.86,6.6-3.86,5.09,2.05,6.6,3.86,2.62,3.14,5.07,3.14,3.66-1.45,5.07-3.14,3.21-3.86,6.6-3.86a1,1,0,0,1,0,2c-2.45,0-3.66,1.46-5.07,3.14S87,36.93,83.64,36.93Z"/><path class="cls-3" d="M79.26,34.74c-3.39,0-5.1-2.05-6.61-3.86S70,27.74,67.58,27.74s-3.66,1.45-5.06,3.14-3.21,3.86-6.6,3.86-5.09-2.05-6.6-3.86-2.62-3.14-5.07-3.14-3.66,1.45-5.06,3.14-3.21,3.86-6.6,3.86S27.5,32.69,26,30.88s-2.61-3.14-5.06-3.14a1,1,0,0,1,0-2c3.38,0,5.09,2.05,6.6,3.86s2.61,3.14,5.06,3.14,3.66-1.46,5.06-3.14,3.22-3.86,6.6-3.86,5.1,2.05,6.61,3.86,2.61,3.14,5.06,3.14S59.58,31.28,61,29.6s3.22-3.86,6.6-3.86,5.1,2.05,6.61,3.86,2.62,3.14,5.07,3.14,3.66-1.46,5.06-3.14,3.22-3.86,6.61-3.86a1,1,0,0,1,0,2c-2.45,0-3.67,1.45-5.07,3.14S82.64,34.74,79.26,34.74Z"/></g></g></g></svg>