<svg xmlns="http://www.w3.org/2000/svg" viewBox="0 0 112 112"><defs><style>.cls-1{fill:#fff7f7;}.cls-2{fill:#fcc;}.cls-3{fill:#336;}.cls-4{fill:#fff;}</style></defs><title>Ageing</title><g id="Layer_2" data-name="Layer 2"><g id="Skin_Categories" data-name="Skin Categories"><g id="Ageing"><circle class="cls-1" cx="56" cy="56" r="56"/><path class="cls-2" d="M42.92,71.31a16.43,16.43,0,0,1-9.08-2.82l-1.49,2a1,1,0,0,1-1.59-1.21l2.09-2.75a1,1,0,0,1,.69-.39,1,1,0,0,1,.75.23A14.14,14.14,0,0,0,48.83,68a1,1,0,0,1,.8,1.83A16.46,16.46,0,0,1,42.92,71.31Z"/><path class="cls-2" d="M32,56.25c.87,1,1.71,1.91,2.55,2.75a46.38,46.38,0,0,0,9.09,7.11,37.89,37.89,0,0,0,9.74,4.09,32.47,32.47,0,0,0,10,1,31.76,31.76,0,0,0,9.81-2.09,35.48,35.48,0,0,0,9.29-5.34,41.66,41.66,0,0,0,4.33-3.93c.41-.42,2.09-2.3,3.11-3.5l-1-.86a52,52,0,0,0-11.58-7.62,38.92,38.92,0,0,0-10.81-3.31,36.16,36.16,0,0,0-9.86-.08A39.8,39.8,0,0,0,48,46.63,47.24,47.24,0,0,0,40.72,50,50.05,50.05,0,0,0,32,56.25Z"/><path class="cls-3" d="M57.77,70.31a34.35,34.35,0,0,1-8.55-1.1,39.12,39.12,0,0,1-10-4.2,47.1,47.1,0,0,1-9.29-7.27c-.87-.86-1.72-1.77-2.6-2.79a1,1,0,0,1,.09-1.4,51,51,0,0,1,8.88-6.38,48.24,48.24,0,0,1,7.39-3.44,41.26,41.26,0,0,1,8.91-2.19,37.35,37.35,0,0,1,10.13.09A39.81,39.81,0,0,1,73.82,45a53.17,53.17,0,0,1,11.81,7.77l1,.86a1,1,0,0,1,.1,1.4c-1,1.22-2.74,3.12-3.15,3.55a44.79,44.79,0,0,1-4.44,4,36.7,36.7,0,0,1-9.55,5.48,33,33,0,0,1-10.11,2.16C58.91,70.3,58.34,70.31,57.77,70.31ZM29.5,54.38c.62.69,1.23,1.33,1.84,1.95a45.82,45.82,0,0,0,8.89,7,37.14,37.14,0,0,0,9.49,4,31.86,31.86,0,0,0,9.66,1,31,31,0,0,0,9.5-2,34.79,34.79,0,0,0,9-5.18,40.7,40.7,0,0,0,4.22-3.85c.32-.33,1.47-1.6,2.43-2.7l-.23-.2A51.25,51.25,0,0,0,73,46.83a38,38,0,0,0-10.53-3.22,35,35,0,0,0-9.59-.08,38.73,38.73,0,0,0-8.48,2.08,46.57,46.57,0,0,0-7.08,3.3A49.19,49.19,0,0,0,29.5,54.38Z"/><path class="cls-4" d="M57.46,47.22a8.21,8.21,0,1,0,8.2,8.21A8.21,8.21,0,0,0,57.46,47.22Z"/><path class="cls-3" d="M57.46,64.63a9.21,9.21,0,1,1,9.21-9.2A9.22,9.22,0,0,1,57.46,64.63Zm0-16.4a7.2,7.2,0,1,0,7.2,7.2A7.21,7.21,0,0,0,57.46,48.23Z"/><path class="cls-2" d="M25.86,47.93a1,1,0,0,1-.71-.3,1,1,0,0,1,0-1.42c.65-.63,16.1-15.38,36.19-15.38h.85c11.54.24,22.18,5.42,31.65,15.4a1,1,0,1,1-1.45,1.38C83.32,38,73.15,33.07,62.17,32.84h-.79c-19.31,0-34.67,14.67-34.82,14.82A1,1,0,0,1,25.86,47.93Z"/><path class="cls-3" d="M89.21,46a1,1,0,0,1-.72-.31C79.4,36.08,69.23,31.11,58.26,30.88h-.81c-19.28,0-34.66,14.67-34.82,14.82a1,1,0,0,1-1.39-1.44c.67-.64,16.58-15.82,37.05-15.37,11.53.24,22.18,5.42,31.65,15.4a1,1,0,0,1,0,1.41A1,1,0,0,1,89.21,46Z"/><path class="cls-2" d="M87.58,68.86a10.33,10.33,0,0,1-6.39-2.45A1,1,0,1,1,82.56,65a7.4,7.4,0,0,0,9.93,0,1,1,0,1,1,1.27,1.55A9.57,9.57,0,0,1,87.58,68.86Z"/><path class="cls-2" d="M57.39,83.08a16.32,16.32,0,0,1-9.93-3.45,1,1,0,0,1-.1-1.41,1,1,0,0,1,1.4-.11A14.14,14.14,0,0,0,63.3,79.79a1,1,0,1,1,.8,1.83A16.6,16.6,0,0,1,57.39,83.08Z"/><path class="cls-2" d="M87.91,74.07c-7.68,0-9.27-7.22-9.29-7.3a1,1,0,0,1,2-.41A7.38,7.38,0,0,0,88.73,72a1,1,0,1,1,.15,2C88.55,74.06,88.22,74.07,87.91,74.07Z"/><path class="cls-3" d="M83.66,66.9a10.26,10.26,0,0,1-6.4-2.46A1,1,0,0,1,78.63,63h0a7.39,7.39,0,0,0,9.94,0,1,1,0,0,1,1.4.14,1,1,0,0,1-.13,1.41A9.64,9.64,0,0,1,83.66,66.9Z"/><path class="cls-3" d="M53.47,81.12a16.19,16.19,0,0,1-9.93-3.46,1,1,0,1,1,1.3-1.51,14.14,14.14,0,0,0,14.53,1.67,1,1,0,0,1,.81,1.83A16.46,16.46,0,0,1,53.47,81.12Z"/><path class="cls-3" d="M39,69.34a16.35,16.35,0,0,1-9.08-2.82l-1.49,2a1,1,0,0,1-1.6-1.21l2.09-2.75a1,1,0,0,1,.69-.39,1,1,0,0,1,.76.23A14.11,14.11,0,0,0,44.9,66.05a1,1,0,0,1,.81,1.83A16.47,16.47,0,0,1,39,69.34Z"/><path class="cls-3" d="M84,72.11c-7.68,0-9.27-7.23-9.28-7.3a1,1,0,1,1,2-.41,7.44,7.44,0,0,0,8.16,5.68,1,1,0,1,1,.15,2C84.62,72.1,84.3,72.11,84,72.11Z"/></g></g></g></svg>