<svg xmlns="http://www.w3.org/2000/svg" viewBox="0 0 112 112"><defs><style>.cls-1{fill:#fff7f7;}.cls-2{fill:#fcc;}.cls-3{fill:#336;}</style></defs><title>Oily Skin</title><g id="Layer_2" data-name="Layer 2"><g id="Skin_Categories" data-name="Skin Categories"><g id="Oily_Skin" data-name="Oily Skin"><circle class="cls-1" cx="56" cy="56" r="56"/><circle class="cls-2" cx="75.69" cy="40.27" r="13.74"/><path class="cls-2" d="M48.18,40a.33.33,0,0,0-.63,0c-4.18,7.3-9.64,13.89-14.47,20.75C27.5,68.63,29.22,80.32,38.17,85a20.51,20.51,0,0,0,8.69,2.2C56,87.55,65.07,80.93,65,71.27c-.07-6-4-11.22-7.26-15.9A123.24,123.24,0,0,1,48.18,40Z"/><path class="cls-3" d="M71.77,53A14.74,14.74,0,1,1,86.5,38.3,14.75,14.75,0,0,1,71.77,53Zm0-27.47A12.74,12.74,0,1,0,84.5,38.3,12.75,12.75,0,0,0,71.77,25.57Z"/><path class="cls-3" d="M43.64,86.24l-.74,0a21.31,21.31,0,0,1-9.12-2.31,16.19,16.19,0,0,1-8.32-10.73,18.75,18.75,0,0,1,2.87-15c1.54-2.19,3.16-4.38,4.73-6.49a146.31,146.31,0,0,0,9.67-14.13,1.3,1.3,0,0,1,1.17-.78,1.38,1.38,0,0,1,1.26.8,122.82,122.82,0,0,0,9.43,15.26l.39.56C58.26,58,62,63.25,62,69.3a15.74,15.74,0,0,1-4.88,11.55A19.67,19.67,0,0,1,43.64,86.24ZM43.9,39.5a158.39,158.39,0,0,1-9.23,13.37C33.11,55,31.49,57.15,30,59.32A16.73,16.73,0,0,0,27.4,72.71a14.25,14.25,0,0,0,7.3,9.43A19.4,19.4,0,0,0,43,84.22a17.63,17.63,0,0,0,12.77-4.8A13.62,13.62,0,0,0,60,69.32C60,63.9,56.45,58.93,53.35,54.54L53,54A129.12,129.12,0,0,1,43.9,39.5Z"/><circle class="cls-3" cx="48.89" cy="57.93" r="1.96"/><path class="cls-3" d="M48.89,77.9a1,1,0,0,1-.81-.4,1,1,0,0,1,.21-1.4c6.77-5,2.87-12.3,2.7-12.61a1,1,0,0,1,1.75-1c0,.09,4.93,9.09-3.26,15.18A1,1,0,0,1,48.89,77.9Z"/><path class="cls-3" d="M75.73,44.18A.93.93,0,0,1,75.1,44a1,1,0,0,1-.15-1.4,6.91,6.91,0,0,0,.67-7.94,1,1,0,0,1,1.69-1.08,8.91,8.91,0,0,1-.81,10.28A1,1,0,0,1,75.73,44.18Z"/></g></g></g></svg>