<svg xmlns="http://www.w3.org/2000/svg" viewBox="0 0 110.29 110.29"><defs><style>.cls-1{fill:#fcc;}.cls-2{fill:#fff;}.cls-3{fill:none;stroke:#fcc;stroke-miterlimit:10;stroke-width:0.25px;}.cls-4{fill:#336;}</style></defs><title>Pigmentation</title><g id="Layer_2" data-name="Layer 2"><g id="Skin_Categories" data-name="Skin Categories"><g id="Pigmentation"><path class="cls-1" d="M56,1A55,55,0,1,1,1,56,55.08,55.08,0,0,1,56,1Zm53.05,55a53.05,53.05,0,1,0-53,53.05A53,53,0,0,0,109.05,56Z" transform="translate(-0.86 -0.86)"/><path class="cls-1" d="M56,3A53.05,53.05,0,1,1,3,56,53,53,0,0,1,56,3ZM107.09,56A51.09,51.09,0,1,0,56,107.09,51.14,51.14,0,0,0,107.09,56Z" transform="translate(-0.86 -0.86)"/><circle class="cls-2" cx="55.14" cy="55.14" r="51.09"/><circle class="cls-3" cx="55.14" cy="55.14" r="53.05"/><circle class="cls-3" cx="55.14" cy="55.14" r="55.02"/><circle class="cls-3" cx="55.14" cy="55.14" r="51.09"/><path class="cls-4" d="M70,40.11a43.52,43.52,0,0,1-15.5-3.22c-21.17-8.08-30.7-.18-30.79-.1a1.77,1.77,0,0,1-2.35-2.66c.45-.39,11.06-9.46,34.4-.55,19.8,7.56,28.15-1.11,32.63-5.78a1.78,1.78,0,0,1,2.56,2.47C87.53,33.8,81.45,40.11,70,40.11Z" transform="translate(-0.86 -0.86)"/><circle class="cls-4" cx="35.93" cy="76.66" r="3.55"/><path class="cls-4" d="M36.79,82.83a5.32,5.32,0,1,1,5.32-5.31A5.32,5.32,0,0,1,36.79,82.83Zm0-7.09a1.78,1.78,0,1,0,1.77,1.78A1.78,1.78,0,0,0,36.79,75.74Z" transform="translate(-0.86 -0.86)"/><circle class="cls-4" cx="35.49" cy="43.35" r="3.93"/><path class="cls-4" d="M36.64,49.32A5.32,5.32,0,0,1,32.27,41a5.27,5.27,0,0,1,3.43-2.2,5.32,5.32,0,1,1,1.89,10.47A6.19,6.19,0,0,1,36.64,49.32Zm0-7.09a1.66,1.66,0,0,0-.32,0,1.76,1.76,0,1,0,.32,0Z" transform="translate(-0.86 -0.86)"/><circle class="cls-4" cx="78.72" cy="47.28" r="3.93"/><path class="cls-4" d="M79.34,54.47a5.32,5.32,0,1,1,5.32-5.32A5.32,5.32,0,0,1,79.34,54.47Zm0-7.09a1.77,1.77,0,1,0,1.77,1.77A1.78,1.78,0,0,0,79.34,47.38Z" transform="translate(-0.86 -0.86)"/><circle class="cls-4" cx="78.48" cy="76.66" r="3.55"/><path class="cls-4" d="M79.34,82.83a5.32,5.32,0,1,1,5.32-5.31A5.32,5.32,0,0,1,79.34,82.83Zm0-7.09a1.78,1.78,0,1,0,1.77,1.78A1.78,1.78,0,0,0,79.34,75.74Z" transform="translate(-0.86 -0.86)"/><circle class="cls-4" cx="57.2" cy="76.66" r="3.55"/><path class="cls-4" d="M58.06,82.83a5.32,5.32,0,1,1,5.32-5.31A5.32,5.32,0,0,1,58.06,82.83Zm0-7.09a1.78,1.78,0,1,0,1.78,1.78A1.78,1.78,0,0,0,58.06,75.74Z" transform="translate(-0.86 -0.86)"/><circle class="cls-4" cx="66.93" cy="63" r="3.93"/><path class="cls-4" d="M68.7,68.65A5.32,5.32,0,1,1,74,63.33,5.32,5.32,0,0,1,68.7,68.65Zm0-7.09a1.78,1.78,0,1,0,1.77,1.77A1.77,1.77,0,0,0,68.7,61.56Z" transform="translate(-0.86 -0.86)"/><circle class="cls-4" cx="47.28" cy="63" r="3.93"/><path class="cls-4" d="M47.42,68.65a5.32,5.32,0,1,1,5.32-5.32A5.32,5.32,0,0,1,47.42,68.65Zm0-7.09a1.78,1.78,0,1,0,1.78,1.77A1.77,1.77,0,0,0,47.42,61.56Z" transform="translate(-0.86 -0.86)"/><circle class="cls-4" cx="28.84" cy="58.93" r="3.55"/><path class="cls-4" d="M29.7,65.11A5.32,5.32,0,1,1,35,59.79,5.32,5.32,0,0,1,29.7,65.11Zm0-7.1a1.78,1.78,0,1,0,1.77,1.78A1.78,1.78,0,0,0,29.7,58Z" transform="translate(-0.86 -0.86)"/><circle class="cls-4" cx="56.34" cy="48.48" r="5.13"/></g></g></g></svg>