<svg xmlns="http://www.w3.org/2000/svg" viewBox="0 0 112 112"><defs><style>.cls-1,.cls-4{fill:#fff;}.cls-1{stroke:#fcc;stroke-miterlimit:10;stroke-width:4px;}.cls-2{fill:#fcc;}.cls-3{fill:#336;}</style></defs><title>Dark Circles</title><g id="Layer_2" data-name="Layer 2"><g id="Skin_Categories" data-name="Skin Categories"><g id="Dark_Circles" data-name="Dark Circles"><circle class="cls-1" cx="56" cy="56" r="54"/><path class="cls-2" d="M22.83,52.32a45.18,45.18,0,0,1,4.51-3.88,54.47,54.47,0,0,1,12.23-7,42.93,42.93,0,0,1,18-3.28,44,44,0,0,1,21.83,7.38,63.83,63.83,0,0,1,8.65,6.81c.17.16-3.58,4.35-3.94,4.74a48.69,48.69,0,0,1-4.32,4,40,40,0,0,1-9.29,5.78,35.62,35.62,0,0,1-20,2.55,42.51,42.51,0,0,1-19.43-8.95A56.25,56.25,0,0,1,22.83,52.32Z"/><path class="cls-3" d="M56.22,71.62a37.84,37.84,0,0,1-6-.49A44.19,44.19,0,0,1,30,61.83a58.63,58.63,0,0,1-8.49-8.42,1.72,1.72,0,0,1,.12-2.31,46.52,46.52,0,0,1,4.68-4,55.9,55.9,0,0,1,12.62-7.25,44.36,44.36,0,0,1,18.73-3.41,45.76,45.76,0,0,1,22.69,7.65,66,66,0,0,1,8.89,7,1.77,1.77,0,0,1,.55,1.2c0,.56,0,1.19-4.41,6a48.74,48.74,0,0,1-4.47,4.2,42,42,0,0,1-9.7,6A37.23,37.23,0,0,1,56.22,71.62Zm-31-19.17a53.88,53.88,0,0,0,7,6.7,40.62,40.62,0,0,0,18.64,8.59,33.67,33.67,0,0,0,19-2.42,38.55,38.55,0,0,0,8.9-5.53,47.33,47.33,0,0,0,4.15-3.91c.39-.42,1.94-2.16,2.91-3.32A60.93,60.93,0,0,0,78.47,47a42.18,42.18,0,0,0-21-7.1A41.56,41.56,0,0,0,40.22,43a52.36,52.36,0,0,0-11.84,6.81C27.2,50.7,26.14,51.58,25.18,52.45Z"/><path class="cls-3" d="M88.06,52.32C70.13,76.5,41.49,75,22.83,52.32c0,15.26,15.26,31.6,34.47,31.6C74,83.92,88.06,67.58,88.06,52.32Z"/><path class="cls-3" d="M57.29,85.63c-20.7,0-36.18-17.59-36.18-33.31a1.72,1.72,0,0,1,3-1.09c9.24,11.24,21,17.23,33,17,11.21-.28,21.71-6.27,29.57-16.88a1.72,1.72,0,0,1,3.1,1C89.78,67.72,75.59,85.63,57.29,85.63ZM25.13,57.43C28,70,40.8,82.2,57.29,82.2c14.21,0,25.65-12.11,28.42-24.35-8,8.66-17.95,13.5-28.52,13.76C45.83,71.94,34.38,66.78,25.13,57.43Z"/><line class="cls-2" x1="57.28" y1="36.85" x2="57.28" y2="27.66"/><path class="cls-3" d="M57.28,38.56a1.71,1.71,0,0,1-1.71-1.71V27.66a1.72,1.72,0,0,1,3.43,0v9.19A1.71,1.71,0,0,1,57.28,38.56Z"/><line class="cls-2" x1="71.27" y1="39.72" x2="74.5" y2="31.12"/><path class="cls-3" d="M71.27,41.44a1.81,1.81,0,0,1-.6-.11,1.72,1.72,0,0,1-1-2.21l3.23-8.6a1.72,1.72,0,0,1,3.21,1.21l-3.23,8.6A1.71,1.71,0,0,1,71.27,41.44Z"/><line class="cls-2" x1="41.85" y1="39.72" x2="38.63" y2="31.12"/><path class="cls-3" d="M41.85,41.44a1.72,1.72,0,0,1-1.6-1.11L37,31.73a1.72,1.72,0,0,1,3.21-1.21l3.23,8.6a1.72,1.72,0,0,1-1,2.21A1.87,1.87,0,0,1,41.85,41.44Z"/><line class="cls-2" x1="83.02" y1="46.47" x2="87.12" y2="39.22"/><path class="cls-3" d="M83,48.18a1.67,1.67,0,0,1-.84-.22,1.71,1.71,0,0,1-.65-2.34l4.1-7.24a1.71,1.71,0,1,1,3,1.69l-4.1,7.24A1.69,1.69,0,0,1,83,48.18Z"/><line class="cls-2" x1="28.86" y1="46.59" x2="24.46" y2="37.53"/><path class="cls-3" d="M28.87,48.3a1.72,1.72,0,0,1-1.55-1l-4.4-9.06A1.71,1.71,0,0,1,26,36.78l4.41,9.06a1.72,1.72,0,0,1-.8,2.29A1.63,1.63,0,0,1,28.87,48.3Z"/><circle class="cls-4" cx="55.94" cy="53.64" r="8.66"/><path class="cls-3" d="M55.94,64A10.37,10.37,0,1,1,66.31,53.64,10.38,10.38,0,0,1,55.94,64Zm0-17.31a6.94,6.94,0,1,0,6.94,6.94A6.94,6.94,0,0,0,55.94,46.7Z"/></g></g></g></svg>