<svg xmlns="http://www.w3.org/2000/svg" viewBox="0 0 112 112"><defs><style>.cls-1{fill:#fff7f7;}.cls-2{fill:#fcc;}.cls-3{fill:#336;}.cls-4{fill:#fff;}</style></defs><title>Dark Circles</title><g id="Layer_2" data-name="Layer 2"><g id="Skin_Categories" data-name="Skin Categories"><g id="Dark_Circles" data-name="Dark Circles"><circle class="cls-1" cx="56" cy="56" r="56"/><path class="cls-2" d="M26.78,53.22a48.39,48.39,0,0,1,4.68-4,56.34,56.34,0,0,1,12.69-7.29,44.44,44.44,0,0,1,18.67-3.4,45.56,45.56,0,0,1,22.64,7.65,67.14,67.14,0,0,1,9,7.06c.18.17-3.71,4.51-4.09,4.91a48,48,0,0,1-4.47,4.2,41.27,41.27,0,0,1-9.64,6A36.87,36.87,0,0,1,55.47,71a44,44,0,0,1-20.15-9.28A58.94,58.94,0,0,1,26.78,53.22Z"/><path class="cls-3" d="M56.23,70.38a36.91,36.91,0,0,1-6.1-.5A45.05,45.05,0,0,1,29.51,60.4a59.83,59.83,0,0,1-8.68-8.62,1,1,0,0,1,.06-1.34,48.91,48.91,0,0,1,4.78-4.11,57,57,0,0,1,12.92-7.42,44.93,44.93,0,0,1,19.09-3.47,46.56,46.56,0,0,1,23.14,7.8,68.88,68.88,0,0,1,9.11,7.17,1.09,1.09,0,0,1,.32.72c0,.77-2.36,3.48-4.37,5.61A48.23,48.23,0,0,1,81.32,61a42.28,42.28,0,0,1-9.87,6.14A37.73,37.73,0,0,1,56.23,70.38ZM23,51.22a58.18,58.18,0,0,0,7.8,7.62,43.16,43.16,0,0,0,19.69,9.07,35.69,35.69,0,0,0,20.19-2.57,40.42,40.42,0,0,0,9.41-5.85,48.22,48.22,0,0,0,4.38-4.12c.5-.53,2.62-2.92,3.52-4.06a65.25,65.25,0,0,0-8.22-6.39,44.7,44.7,0,0,0-22.14-7.49,43,43,0,0,0-18.25,3.33,55.47,55.47,0,0,0-12.46,7.16A49.83,49.83,0,0,0,23,51.22Z"/><path class="cls-3" d="M89.25,51.31C70.66,76.39,41,74.86,21.6,51.31c0,15.82,15.82,32.76,35.74,32.76C74.61,84.07,89.25,67.13,89.25,51.31Z"/><path class="cls-3" d="M57.34,85.11c-21.05,0-36.78-17.84-36.78-33.8a1,1,0,0,1,1.84-.66C32.12,62.48,44.5,68.78,57.17,68.5c11.85-.3,23-6.62,31.25-17.81a1,1,0,0,1,1.15-.37,1,1,0,0,1,.72,1C90.29,66.94,75.9,85.11,57.34,85.11ZM22.83,54.32C24.64,68.45,38.8,83,57.34,83,70.75,83,86.19,70.82,88,54.53c-8.43,10.09-19.26,15.76-30.81,16C44.76,70.87,32.64,65.14,22.83,54.32Z"/><line class="cls-2" x1="57.52" y1="26.61" x2="57.52" y2="35.07"/><path class="cls-3" d="M57.52,36.07a1,1,0,0,1-1-1V26.61a1,1,0,1,1,2,0v8.46A1,1,0,0,1,57.52,36.07Z"/><line class="cls-2" x1="76.05" y1="31.18" x2="72.73" y2="38.95"/><path class="cls-3" d="M72.73,40a1,1,0,0,1-.4-.08,1,1,0,0,1-.52-1.31l3.32-7.77a1,1,0,1,1,1.84.78l-3.32,7.78A1,1,0,0,1,72.73,40Z"/><line class="cls-2" x1="37.99" y1="30.3" x2="41.38" y2="38.04"/><path class="cls-3" d="M41.38,39a1,1,0,0,1-.92-.6L37.07,30.7a1,1,0,0,1,.52-1.32,1,1,0,0,1,1.31.52l3.4,7.74A1,1,0,0,1,41.78,39,1,1,0,0,1,41.38,39Z"/><line class="cls-2" x1="89.02" y1="38.7" x2="84.52" y2="45.85"/><path class="cls-3" d="M84.52,46.85A1.08,1.08,0,0,1,84,46.7a1,1,0,0,1-.31-1.38l4.51-7.16a1,1,0,0,1,1.37-.31,1,1,0,0,1,.32,1.38l-4.51,7.15A1,1,0,0,1,84.52,46.85Z"/><line class="cls-2" x1="23.06" y1="37.6" x2="27.78" y2="44.62"/><path class="cls-3" d="M27.78,45.62a1,1,0,0,1-.83-.44l-4.72-7A1,1,0,1,1,23.89,37l4.72,7a1,1,0,0,1-.27,1.39A1,1,0,0,1,27.78,45.62Z"/><circle class="cls-4" cx="56.4" cy="52.09" r="10.44"/><path class="cls-3" d="M56.4,63.53A11.44,11.44,0,1,1,67.83,52.09,11.45,11.45,0,0,1,56.4,63.53Zm0-20.88a9.44,9.44,0,1,0,9.43,9.44A9.45,9.45,0,0,0,56.4,42.65Z"/></g></g></g></svg>