<svg xmlns="http://www.w3.org/2000/svg" xmlns:xlink="http://www.w3.org/1999/xlink" viewBox="0 0 119.68 112"><defs><style>.cls-1{fill:#fff7f7;}.cls-2{clip-path:url(#clip-path);}.cls-3{fill:#fcc;}.cls-4{fill:#336;}</style><clipPath id="clip-path" transform="translate(3.36)"><circle class="cls-1" cx="56" cy="56" r="56"/></clipPath></defs><title>Asset 154</title><g id="Layer_2" data-name="Layer 2"><g id="Skin_Categories" data-name="Skin Categories"><g id="Dry_Skin" data-name="Dry Skin"><circle class="cls-1" cx="59.36" cy="56" r="56"/><circle class="cls-1" cx="59.36" cy="56" r="56"/><g class="cls-2"><path class="cls-3" d="M22.31,53.45A.93.93,0,0,1,22,53.4a1,1,0,0,1-.66-1.25l2.77-8.86a1,1,0,0,1,1-.7l17,.29,5.82-7.21a1,1,0,1,1,1.56,1.26l-6.13,7.58a1,1,0,0,1-.79.37l-16.76-.27-2.54,8.14A1,1,0,0,1,22.31,53.45Z" transform="translate(3.36)"/><path class="cls-3" d="M29.54,60.64a1,1,0,0,1-.71-.3L21.55,53.1,2,57a1,1,0,0,1-.39-2l20.09-4a1,1,0,0,1,.91.27l7,6.92,7.67-7.44a1,1,0,0,1,1.1-.2l10.21,4.53A1,1,0,0,1,47.72,57l-9.59-4.26-7.9,7.66A1,1,0,0,1,29.54,60.64Z" transform="translate(3.36)"/><path class="cls-3" d="M115.32,48.82l-.19,0-22-4.29a1,1,0,0,1-.56-.33L82.4,32.4,76.64,42a1,1,0,0,1-1.25.41l-14-5.89a1,1,0,0,1-.53-1.31,1,1,0,0,1,1.31-.53l13.15,5.55,6-10a1,1,0,0,1,.77-.48A1,1,0,0,1,83,30L93.86,42.61l21.65,4.23a1,1,0,0,1-.19,2Z" transform="translate(3.36)"/><path class="cls-3" d="M20.23,97.5a1,1,0,0,1-.37-.08,1,1,0,0,1-.56-1.3L26,79.32a1.05,1.05,0,0,1,.6-.57,1,1,0,0,1,.82.08l11,6.19,6.22-11.89a1,1,0,0,1,1.18-.49l13.3,4.06a1,1,0,1,1-.58,1.91L46,74.79,39.68,86.87a1,1,0,0,1-.61.49.94.94,0,0,1-.77-.09L27.45,81.13,21.16,96.87A1,1,0,0,1,20.23,97.5Z" transform="translate(3.36)"/><path class="cls-3" d="M106.75,86.82a.84.84,0,0,1-.38-.08L77.54,74.87a1,1,0,0,1-.27-1.68L86.89,65l-6.4-9.18a1,1,0,0,1,1.64-1.15l6.93,9.94A1,1,0,0,1,88.88,66l-9.06,7.68L107.13,84.9a1,1,0,0,1,.54,1.3A1,1,0,0,1,106.75,86.82Z" transform="translate(3.36)"/><path class="cls-3" d="M22.31,53.45A.93.93,0,0,1,22,53.4a1,1,0,0,1-.66-1.25l2.77-8.86a1,1,0,0,1,1-.7l17,.29,5.82-7.21a1,1,0,1,1,1.56,1.26l-6.13,7.58a1,1,0,0,1-.79.37l-16.76-.27-2.54,8.14A1,1,0,0,1,22.31,53.45Z" transform="translate(3.36)"/><path class="cls-3" d="M29.54,60.64a1,1,0,0,1-.71-.3L21.55,53.1,2,57a1,1,0,0,1-.39-2l20.09-4a1,1,0,0,1,.91.27l7,6.92,7.67-7.44a1,1,0,0,1,1.1-.2l10.21,4.53A1,1,0,0,1,47.72,57l-9.59-4.26-7.9,7.66A1,1,0,0,1,29.54,60.64Z" transform="translate(3.36)"/><path class="cls-3" d="M115.32,48.82l-.19,0-22-4.29a1,1,0,0,1-.56-.33L82.4,32.4,76.64,42a1,1,0,0,1-1.25.41l-14-5.89a1,1,0,0,1-.53-1.31,1,1,0,0,1,1.31-.53l13.15,5.55,6-10a1,1,0,0,1,.77-.48A1,1,0,0,1,83,30L93.86,42.61l21.65,4.23a1,1,0,0,1-.19,2Z" transform="translate(3.36)"/><path class="cls-3" d="M20.23,97.5a1,1,0,0,1-.37-.08,1,1,0,0,1-.56-1.3L26,79.32a1.05,1.05,0,0,1,.6-.57,1,1,0,0,1,.82.08l11,6.19,6.22-11.89a1,1,0,0,1,1.18-.49l13.3,4.06a1,1,0,1,1-.58,1.91L46,74.79,39.68,86.87a1,1,0,0,1-.61.49.94.94,0,0,1-.77-.09L27.45,81.13,21.16,96.87A1,1,0,0,1,20.23,97.5Z" transform="translate(3.36)"/><path class="cls-3" d="M106.75,86.82a.84.84,0,0,1-.38-.08L77.54,74.87a1,1,0,0,1-.27-1.68L86.89,65l-6.4-9.18a1,1,0,0,1,1.64-1.15l6.93,9.94A1,1,0,0,1,88.88,66l-9.06,7.68L107.13,84.9a1,1,0,0,1,.54,1.3A1,1,0,0,1,106.75,86.82Z" transform="translate(3.36)"/><path class="cls-3" d="M75.74,88.28a1,1,0,0,1-.6-1.8l12.12-9.23a1,1,0,0,1,1.41.19,1,1,0,0,1-.19,1.4L76.35,88.07A1,1,0,0,1,75.74,88.28Z" transform="translate(3.36)"/><path class="cls-3" d="M65.64,53.24a1,1,0,0,1-.73-1.69L75,40.92a1,1,0,0,1,1.45,1.38L66.36,52.93A1,1,0,0,1,65.64,53.24Z" transform="translate(3.36)"/><path class="cls-4" d="M18.17,50.34a1,1,0,0,1-.3-.05A1,1,0,0,1,17.21,49L20,40.18a1,1,0,0,1,1-.7l17,.29,5.82-7.21a1,1,0,1,1,1.56,1.26L39.21,41.4a1,1,0,0,1-.79.37l-16.75-.28-2.55,8.15A1,1,0,0,1,18.17,50.34Z" transform="translate(3.36)"/><path class="cls-4" d="M25.39,57.53a1,1,0,0,1-.7-.3L17.41,50-2.16,53.91a1,1,0,0,1-1.18-.79A1,1,0,0,1-2.56,52l20.1-4a1,1,0,0,1,.9.27l7,6.92,7.67-7.44a1,1,0,0,1,1.1-.2L44.38,52a1,1,0,0,1,.51,1.32,1,1,0,0,1-1.32.51L34,49.58l-7.89,7.66A1,1,0,0,1,25.39,57.53Z" transform="translate(3.36)"/><path class="cls-4" d="M111.18,45.71l-.2,0L89,41.4a1,1,0,0,1-.56-.33L78.25,29.28l-5.76,9.61a1,1,0,0,1-1.25.41L57.3,33.41a1,1,0,1,1,.77-1.84l13.15,5.55,6-10a1,1,0,0,1,.78-.48,1,1,0,0,1,.84.34L89.72,39.5l21.65,4.23a1,1,0,0,1,.79,1.17A1,1,0,0,1,111.18,45.71Z" transform="translate(3.36)"/><path class="cls-4" d="M16.08,94.38a1,1,0,0,1-.37-.07,1,1,0,0,1-.56-1.3l6.72-16.8a1,1,0,0,1,.6-.57,1,1,0,0,1,.82.07l11,6.2L40.47,70a1,1,0,0,1,1.17-.49L55,73.59a1,1,0,0,1-.59,1.91L41.85,71.68,35.53,83.76a1,1,0,0,1-1.38.4L23.3,78,17,93.76A1,1,0,0,1,16.08,94.38Z" transform="translate(3.36)"/><path class="cls-4" d="M102.6,83.71a.87.87,0,0,1-.38-.08L73.39,71.76a1,1,0,0,1-.27-1.68l9.63-8.16-6.41-9.18A1,1,0,0,1,78,51.59l6.93,9.94a1,1,0,0,1-.18,1.33l-9.06,7.68L103,81.78a1,1,0,0,1-.38,1.93Z" transform="translate(3.36)"/><path class="cls-4" d="M18.17,50.34a1,1,0,0,1-.3-.05A1,1,0,0,1,17.21,49L20,40.18a1,1,0,0,1,1-.7l17,.29,5.82-7.21a1,1,0,1,1,1.56,1.26L39.21,41.4a1,1,0,0,1-.79.37l-16.75-.28-2.55,8.15A1,1,0,0,1,18.17,50.34Z" transform="translate(3.36)"/><path class="cls-4" d="M25.39,57.53a1,1,0,0,1-.7-.3L17.41,50-2.16,53.91a1,1,0,0,1-1.18-.79A1,1,0,0,1-2.56,52l20.1-4a1,1,0,0,1,.9.27l7,6.92,7.67-7.44a1,1,0,0,1,1.1-.2L44.38,52a1,1,0,0,1,.51,1.32,1,1,0,0,1-1.32.51L34,49.58l-7.89,7.66A1,1,0,0,1,25.39,57.53Z" transform="translate(3.36)"/><path class="cls-4" d="M111.18,45.71l-.2,0L89,41.4a1,1,0,0,1-.56-.33L78.25,29.28l-5.76,9.61a1,1,0,0,1-1.25.41L57.3,33.41a1,1,0,1,1,.77-1.84l13.15,5.55,6-10a1,1,0,0,1,.78-.48,1,1,0,0,1,.84.34L89.72,39.5l21.65,4.23a1,1,0,0,1,.79,1.17A1,1,0,0,1,111.18,45.71Z" transform="translate(3.36)"/><path class="cls-4" d="M15.61,95.56a1.21,1.21,0,0,1-.37-.07,1,1,0,0,1-.56-1.3l7.19-18a1,1,0,0,1,.6-.57,1,1,0,0,1,.82.07l11,6.2L40.47,70a1,1,0,0,1,1.17-.49L55,73.59a1,1,0,0,1-.59,1.91L41.85,71.68,35.53,83.76a1,1,0,0,1-1.38.4L23.3,78,16.54,94.93A1,1,0,0,1,15.61,95.56Z" transform="translate(3.36)"/><path class="cls-4" d="M105,84.7a.84.84,0,0,1-.38-.08L73.39,71.76a1,1,0,0,1-.27-1.68l9.63-8.16-6.41-9.18A1,1,0,0,1,78,51.59l6.93,9.94a1,1,0,0,1-.18,1.33l-9.06,7.68,29.72,12.24A1,1,0,0,1,105,84.7Z" transform="translate(3.36)"/><path class="cls-4" d="M71.6,85.17a1,1,0,0,1-.61-1.8l12.13-9.23a1,1,0,0,1,1.21,1.59L72.2,85A1,1,0,0,1,71.6,85.17Z" transform="translate(3.36)"/><path class="cls-4" d="M61.49,50.13a1,1,0,0,1-.73-1.69L70.87,37.81a1,1,0,1,1,1.45,1.38L62.21,49.82A1,1,0,0,1,61.49,50.13Z" transform="translate(3.36)"/></g></g></g></g></svg>