<svg xmlns="http://www.w3.org/2000/svg" viewBox="0 0 112 112"><defs><style>.cls-1{fill:#fff7f7;}.cls-2{fill:#fcc;}.cls-3{fill:#336;}.cls-4{fill:none;}</style></defs><title>Combination Skin</title><g id="Layer_2" data-name="Layer 2"><g id="Skin_Categories" data-name="Skin Categories"><g id="Combination_Skin" data-name="Combination Skin"><circle class="cls-1" cx="56" cy="56" r="56"/><path class="cls-2" d="M54.91,29.89a.27.27,0,0,0-.51,0C51.05,35.75,46.66,41,42.78,46.56c-4.48,6.36-3.11,15.75,4.08,19.5a16.51,16.51,0,0,0,7,1.77c7.36.29,14.63-5,14.54-12.78-.06-4.8-3.18-9-5.83-12.77A97.83,97.83,0,0,1,54.91,29.89Z"/><circle class="cls-2" cx="76.74" cy="30.07" r="8.3"/><path class="cls-3" d="M50.27,65.73h-.61a17.38,17.38,0,0,1-7.41-1.88,13.21,13.21,0,0,1-6.78-8.75,15.25,15.25,0,0,1,2.34-12.22c1.23-1.75,2.54-3.51,3.8-5.21a119.31,119.31,0,0,0,7.75-11.33,1.25,1.25,0,0,1,1.12-.73h0a1.27,1.27,0,0,1,1.17.76,99.38,99.38,0,0,0,7.56,12.23l.31.44c2.64,3.74,5.64,8,5.7,12.89a12.87,12.87,0,0,1-4,9.43A16,16,0,0,1,50.27,65.73Zm.2-37.34c-2.19,3.64-4.76,7.1-7.25,10.46C42,40.54,40.67,42.29,39.45,44a13.24,13.24,0,0,0-2,10.6,11.29,11.29,0,0,0,5.77,7.45,15.43,15.43,0,0,0,6.56,1.65,13.94,13.94,0,0,0,10.12-3.81,10.76,10.76,0,0,0,3.38-8c-.05-4.3-2.86-8.26-5.33-11.76l-.32-.45A104.27,104.27,0,0,1,50.47,28.39Z"/><path class="cls-3" d="M72.59,36.26a9.3,9.3,0,1,1,9.3-9.3A9.31,9.31,0,0,1,72.59,36.26Zm0-16.59A7.3,7.3,0,1,0,79.89,27,7.3,7.3,0,0,0,72.59,19.67Z"/><rect class="cls-4" x="18.67" y="18.67" width="70.52" height="70.52"/><path class="cls-2" d="M79.8,84.56c-3,0-4.57-1.83-5.92-3.45-1.22-1.47-2.28-2.73-4.39-2.73s-3.16,1.26-4.38,2.73c-1.35,1.62-2.88,3.45-5.92,3.45s-4.57-1.83-5.92-3.45c-1.22-1.47-2.28-2.73-4.38-2.73s-3.17,1.26-4.39,2.73c-1.35,1.62-2.87,3.45-5.92,3.45S34,82.73,32.67,81.11c-1.22-1.47-2.28-2.73-4.38-2.73a1,1,0,1,1,0-2c3,0,4.57,1.83,5.91,3.45,1.22,1.46,2.28,2.73,4.38,2.73s3.17-1.27,4.39-2.73c1.34-1.62,2.87-3.45,5.92-3.45s4.57,1.83,5.92,3.45c1.22,1.46,2.27,2.73,4.38,2.73s3.16-1.27,4.38-2.73c1.35-1.62,2.88-3.45,5.92-3.45s4.58,1.83,5.92,3.45c1.23,1.46,2.28,2.73,4.39,2.73s3.16-1.27,4.39-2.73c1.35-1.62,2.87-3.45,5.92-3.45a1,1,0,1,1,0,2c-2.11,0-3.17,1.26-4.39,2.73C84.37,82.73,82.85,84.56,79.8,84.56Z"/><line class="cls-3" x1="31.18" y1="89.22" x2="37.26" y2="95.3"/><path class="cls-2" d="M37.26,96.3a1,1,0,0,1-.7-.29l-6.09-6.09a1,1,0,0,1,0-1.41,1,1,0,0,1,1.42,0L38,94.59a1,1,0,0,1-.71,1.71Z"/><line class="cls-3" x1="47.77" y1="89.22" x2="53.86" y2="95.3"/><path class="cls-2" d="M53.86,96.3a1,1,0,0,1-.71-.29l-6.08-6.09a1,1,0,0,1,1.41-1.41l6.08,6.08a1,1,0,0,1-.7,1.71Z"/><line class="cls-3" x1="64.37" y1="89.22" x2="70.45" y2="95.3"/><path class="cls-2" d="M70.45,96.3a1,1,0,0,1-.71-.29l-6.08-6.09a1,1,0,0,1,1.41-1.41l6.09,6.08a1,1,0,0,1,0,1.42A1,1,0,0,1,70.45,96.3Z"/><line class="cls-3" x1="80.96" y1="89.22" x2="87.04" y2="95.3"/><path class="cls-2" d="M87,96.3a1,1,0,0,1-.71-.29l-6.08-6.09a1,1,0,0,1,0-1.41,1,1,0,0,1,1.42,0l6.08,6.08a1,1,0,0,1,0,1.42A1,1,0,0,1,87,96.3Z"/><path class="cls-3" d="M76.69,82.49c-3,0-4.57-1.84-5.92-3.46-1.23-1.46-2.28-2.73-4.39-2.73S63.22,77.57,62,79c-1.35,1.62-2.88,3.46-5.92,3.46S51.51,80.65,50.16,79c-1.22-1.46-2.28-2.73-4.39-2.73S42.61,77.57,41.39,79c-1.35,1.62-2.87,3.46-5.92,3.46S30.9,80.65,29.55,79c-1.22-1.46-2.27-2.73-4.38-2.73a1,1,0,0,1,0-2c3,0,4.57,1.84,5.92,3.45s2.28,2.74,4.38,2.74,3.16-1.27,4.38-2.74,2.88-3.45,5.92-3.45,4.58,1.84,5.92,3.45,2.28,2.74,4.39,2.74,3.16-1.27,4.38-2.74,2.88-3.45,5.92-3.45S71,76.14,72.3,77.75s2.28,2.74,4.39,2.74,3.16-1.27,4.39-2.74S84,74.3,87,74.3a1,1,0,0,1,0,2c-2.11,0-3.17,1.27-4.39,2.73C81.26,80.65,79.73,82.49,76.69,82.49Z"/><line class="cls-3" x1="28.07" y1="87.14" x2="34.15" y2="93.23"/><path class="cls-3" d="M34.15,94.23a1,1,0,0,1-.7-.3l-6.09-6.08a1,1,0,1,1,1.42-1.41l6.08,6.08a1,1,0,0,1-.71,1.71Z"/><line class="cls-3" x1="44.66" y1="87.14" x2="50.75" y2="93.23"/><path class="cls-3" d="M50.75,94.23a1,1,0,0,1-.71-.3L44,87.85a1,1,0,1,1,1.42-1.41l6.08,6.08a1,1,0,0,1,0,1.41A1,1,0,0,1,50.75,94.23Z"/><line class="cls-3" x1="61.25" y1="87.14" x2="67.34" y2="93.23"/><path class="cls-3" d="M67.34,94.23a1,1,0,0,1-.71-.3l-6.08-6.08a1,1,0,0,1,0-1.41,1,1,0,0,1,1.41,0l6.09,6.08a1,1,0,0,1,0,1.41A1,1,0,0,1,67.34,94.23Z"/><line class="cls-3" x1="77.85" y1="87.14" x2="83.93" y2="93.23"/><path class="cls-3" d="M83.93,94.23a1,1,0,0,1-.71-.3l-6.08-6.08a1,1,0,0,1,0-1.41,1,1,0,0,1,1.41,0l6.09,6.08a1,1,0,0,1-.71,1.71Z"/><path class="cls-3" d="M54,57.66A1,1,0,0,1,53.19,56a7.33,7.33,0,0,0,.71-8.45,1,1,0,0,1,1.69-1.08,9.37,9.37,0,0,1-.85,10.8A1,1,0,0,1,54,57.66Z"/></g></g></g></svg>