<svg xmlns="http://www.w3.org/2000/svg" viewBox="0 0 112 112"><defs><style>.cls-1{fill:#fff;}.cls-2{fill:none;stroke:#fcc;stroke-miterlimit:10;stroke-width:4px;}.cls-3{fill:#336;}.cls-4{fill:#fcc;}</style></defs><title>Ageing Skin</title><g id="Layer_2" data-name="Layer 2"><g id="Skin_Categories" data-name="Skin Categories"><g id="Ageing_Skin" data-name="Ageing Skin"><circle class="cls-1" cx="56" cy="56" r="54"/><circle class="cls-2" cx="56" cy="56" r="54"/><path class="cls-3" d="M30.71,75.9a1.73,1.73,0,0,1-1.15-.43,18.38,18.38,0,0,1-3.91-5.93,1.73,1.73,0,0,1,1.94-2.35,51.45,51.45,0,0,0,17.44,0,1.73,1.73,0,0,1,.67,3.4,56.28,56.28,0,0,1-15.31.53,9.23,9.23,0,0,0,1.46,1.76,1.73,1.73,0,0,1-1.14,3Z"/><path class="cls-3" d="M51.07,80.1A21.56,21.56,0,0,1,41.93,78a1.73,1.73,0,0,1,1.58-3.07c.07,0,6.69,3.35,13.1.6A1.72,1.72,0,1,1,58,78.71,17.24,17.24,0,0,1,51.07,80.1Z"/><path class="cls-3" d="M82.44,66.71a9.24,9.24,0,0,1-6.31-2.14,1.73,1.73,0,0,1,2.41-2.48c.16.15,3.18,2.74,9.59-.31a1.73,1.73,0,1,1,1.49,3.12A16.71,16.71,0,0,1,82.44,66.71Z"/><path class="cls-3" d="M86.08,72.69h-.15C76,71.85,74.52,65.31,74.46,65a1.73,1.73,0,0,1,3.37-.74c.06.22,1.2,4.34,8.39,4.95a1.73,1.73,0,0,1-.14,3.45Z"/><path class="cls-4" d="M23.12,53.12a52.48,52.48,0,0,1,10.41-7.73,49.09,49.09,0,0,1,7.64-3.56,43.24,43.24,0,0,1,9.23-2.27,38.61,38.61,0,0,1,10.52.1,41.12,41.12,0,0,1,11.51,3.51,54.74,54.74,0,0,1,12.18,8c.74.63,1.47,1.28,2.18,1.94.2.18-3.82,4.6-4.22,5A44.27,44.27,0,0,1,78,62.31,38.35,38.35,0,0,1,68.07,68a34.59,34.59,0,0,1-10.53,2.24,35.21,35.21,0,0,1-10.67-1.1A40.61,40.61,0,0,1,36.5,64.79a49.18,49.18,0,0,1-9.61-7.51C25.57,56,24.33,54.57,23.12,53.12Z"/><path class="cls-3" d="M55.78,72a37.36,37.36,0,0,1-9.35-1.2,42.08,42.08,0,0,1-10.81-4.54,50.62,50.62,0,0,1-9.95-7.78c-1.26-1.26-2.53-2.66-3.88-4.27a1.73,1.73,0,0,1,.14-2.36,54.7,54.7,0,0,1,10.75-8,51.06,51.06,0,0,1,7.9-3.67,44.65,44.65,0,0,1,9.61-2.36,40.36,40.36,0,0,1,11,.1,42.69,42.69,0,0,1,12,3.66,56.72,56.72,0,0,1,12.58,8.26c.76.65,1.51,1.32,2.24,2a1.8,1.8,0,0,1,.55,1.23c0,.45,0,1.29-4.71,6.24a45.84,45.84,0,0,1-4.77,4.33,39.82,39.82,0,0,1-10.36,6A36.17,36.17,0,0,1,57.63,72C57,72,56.4,72,55.78,72ZM25.51,53.26c.89,1,1.75,1.94,2.6,2.8a47.4,47.4,0,0,0,9.27,7.24,38.45,38.45,0,0,0,9.92,4.17,33.43,33.43,0,0,0,10.15,1,32.35,32.35,0,0,0,10-2.13A36.27,36.27,0,0,0,76.92,61a44.27,44.27,0,0,0,4.41-4c.41-.44,2.13-2.35,3.16-3.58l-1-.87a53.16,53.16,0,0,0-11.8-7.76,39.41,39.41,0,0,0-11-3.37,36.75,36.75,0,0,0-10.05-.09,41.5,41.5,0,0,0-8.86,2.17,48.49,48.49,0,0,0-7.37,3.44A50.94,50.94,0,0,0,25.51,53.26Z"/><path class="cls-3" d="M86.79,46.12a1.69,1.69,0,0,1-1.18-.47c-.69-.64-1.4-1.27-2.12-1.89A53.16,53.16,0,0,0,71.69,36a39.74,39.74,0,0,0-11-3.37,36.75,36.75,0,0,0-10.05-.09,41.54,41.54,0,0,0-8.86,2.18,48.42,48.42,0,0,0-7.37,3.43,50.56,50.56,0,0,0-10.07,7.48,1.73,1.73,0,0,1-2.39-2.49,53.92,53.92,0,0,1,10.75-8,52.07,52.07,0,0,1,7.9-3.68,44.65,44.65,0,0,1,9.61-2.36,40.36,40.36,0,0,1,11,.1,43,43,0,0,1,12,3.66,56.42,56.42,0,0,1,12.58,8.27c.76.65,1.51,1.31,2.24,2a1.73,1.73,0,0,1-1.19,3Z"/><circle class="cls-1" cx="55.45" cy="54.42" r="8.45"/><path class="cls-3" d="M55.45,64.59A10.18,10.18,0,1,1,65.62,54.42,10.19,10.19,0,0,1,55.45,64.59Zm0-16.89a6.72,6.72,0,1,0,6.72,6.72A6.72,6.72,0,0,0,55.45,47.7Z"/></g></g></g></svg>