<svg xmlns="http://www.w3.org/2000/svg" viewBox="0 0 112 112"><defs><style>.cls-1{fill:#fff;stroke:#fcc;stroke-miterlimit:10;stroke-width:4px;}.cls-2{fill:#fcc;}.cls-3{fill:#336;}</style></defs><title>Acne-prone</title><g id="Layer_2" data-name="Layer 2"><g id="Skin_Categories" data-name="Skin Categories"><g id="Acne-prone"><circle class="cls-1" cx="56" cy="56" r="54"/><circle class="cls-2" cx="37.94" cy="55.01" r="16.19"/><path class="cls-3" d="M37.94,73.1A18.09,18.09,0,1,1,56,55,18.12,18.12,0,0,1,37.94,73.1Zm0-32.39A14.3,14.3,0,1,0,52.24,55,14.32,14.32,0,0,0,37.94,40.71Z"/><circle class="cls-2" cx="64.76" cy="34.55" r="8.1"/><path class="cls-3" d="M64.75,44.54a10,10,0,1,1,10-10A10,10,0,0,1,64.75,44.54Zm0-16.19A6.21,6.21,0,1,0,71,34.55,6.21,6.21,0,0,0,64.75,28.35Z"/><circle class="cls-2" cx="77.06" cy="71.73" r="12.81"/><path class="cls-3" d="M77.06,86.44A14.71,14.71,0,1,1,91.77,71.73,14.73,14.73,0,0,1,77.06,86.44Zm0-25.63A10.92,10.92,0,1,0,88,71.73,10.93,10.93,0,0,0,77.06,60.81Z"/></g></g></g></svg>