<svg xmlns="http://www.w3.org/2000/svg" xmlns:xlink="http://www.w3.org/1999/xlink" viewBox="0 0 113.61 112"><defs><style>.cls-1,.cls-4{fill:none;stroke-width:4px;}.cls-1{stroke:#fcc;stroke-miterlimit:10;}.cls-2{clip-path:url(#clip-path);}.cls-3{fill:#fff;}.cls-4{stroke:#336;stroke-linecap:round;stroke-linejoin:round;}</style><clipPath id="clip-path" transform="translate(1.51)"><circle class="cls-1" cx="56" cy="56" r="54"/></clipPath></defs><title>Asset 42</title><g id="Layer_2" data-name="Layer 2"><g id="Skin_Categories" data-name="Skin Categories"><g id="Dry_Skin" data-name="Dry Skin"><g class="cls-2"><circle class="cls-3" cx="57.51" cy="56" r="54"/><polyline class="cls-4" points="21.85 49.87 24.68 41.38 41.55 41.98 47.59 34.78"/><polyline class="cls-4" points="2 52.96 21.45 49.45 28.69 56.93 36.91 49.24 46.67 53.8"/><polyline class="cls-4" points="111.61 47.09 90.49 42.56 80.03 29.98 73.6 40.27 60.26 34.34"/><polyline class="cls-4" points="19.04 92.3 25.83 76.22 37.13 82.9 43.83 70.67 56.58 74.83"/><polyline class="cls-4" points="102.66 83.57 75.07 71.61 85.18 63.37 78.68 53.66"/><line class="cls-4" x1="84.59" y1="75.74" x2="72.74" y2="84.42"/></g><circle class="cls-1" cx="57.51" cy="56" r="54"/><line class="cls-4" x1="73.56" y1="40.39" x2="63.63" y2="50.45"/></g></g></g></svg>