<svg xmlns="http://www.w3.org/2000/svg" viewBox="0 0 112 112"><defs><style>.cls-1{fill:#fff;stroke:#fcc;stroke-miterlimit:10;stroke-width:4px;}.cls-2{fill:#fcc;}.cls-3{fill:#336;}.cls-4{fill:none;}</style></defs><title>Combi Skin</title><g id="Layer_2" data-name="Layer 2"><g id="Skin_Categories" data-name="Skin Categories"><g id="Combi_Skin" data-name="Combi Skin"><circle class="cls-1" cx="56" cy="56" r="54"/><path class="cls-2" d="M49.2,27.33a.26.26,0,0,0-.49,0C45.47,33,41.24,38.08,37.5,43.39c-4.32,6.14-3,15.2,3.94,18.82a16,16,0,0,0,6.74,1.7c7.09.28,14.1-4.85,14-12.33,0-4.62-3.06-8.69-5.62-12.31A96.34,96.34,0,0,1,49.2,27.33Z"/><path class="cls-3" d="M48.72,65.66h-.61a17.57,17.57,0,0,1-7.48-1.9,13.5,13.5,0,0,1-6.93-8.94,15.49,15.49,0,0,1,2.37-12.42c1.19-1.69,2.44-3.37,3.68-5a110.78,110.78,0,0,0,7.44-10.89,2.32,2.32,0,0,1,1.72-1.05,2,2,0,0,1,1.86,1.17A95.7,95.7,0,0,0,58,38.26l.3.42c2.61,3.7,5.58,7.9,5.64,12.88a13.19,13.19,0,0,1-4.08,9.66A16.24,16.24,0,0,1,48.72,65.66Zm.14-35.25c-2,3.22-4.19,6.15-6.31,9-1.23,1.65-2.45,3.3-3.63,5A12,12,0,0,0,37.08,54a10.07,10.07,0,0,0,5.17,6.67,14.06,14.06,0,0,0,6,1.51,12.85,12.85,0,0,0,9.19-3.45,9.65,9.65,0,0,0,3-7.12c0-3.9-2.56-7.46-5-10.9l-.3-.43A105,105,0,0,1,48.86,30.41Z"/><circle class="cls-2" cx="68" cy="32" r="8"/><path class="cls-3" d="M68.36,40.07a9.74,9.74,0,1,1,9.74-9.74A9.75,9.75,0,0,1,68.36,40.07Zm0-16a6.26,6.26,0,1,0,6.25,6.25A6.26,6.26,0,0,0,68.36,24.08Z"/><path class="cls-3" d="M70.45,78.15c-3.35,0-5-2.22-6.35-4s-2-2.61-3.56-2.61-2.31.94-3.56,2.61-3,4-6.34,4-5-2.22-6.35-4-2-2.61-3.55-2.61-2.32.94-3.56,2.61-3,4-6.35,4c-3.55,0-5.2-2-6.4-3.5-.87-1.06-1.25-1.46-1.85-1.46a1.74,1.74,0,0,1,0-3.48c2.31,0,3.55,1.52,4.55,2.74s1.8,2.21,3.7,2.21c1.53,0,2.31-.94,3.56-2.6s3-4,6.35-4,5,2.21,6.34,4,2,2.6,3.56,2.6,2.31-.94,3.56-2.6,3-4,6.34-4,5,2.21,6.35,4,2,2.6,3.56,2.6,2.31-.94,3.55-2.6,3-4,6.35-4A7.1,7.1,0,0,1,85,69.84c.48.43.92.91,1.36,1.39.27.3.53.59.81.87a3.29,3.29,0,0,0,1.65,1,1.74,1.74,0,0,1-.51,3.45,6.42,6.42,0,0,1-3.57-2q-.5-.5-1-1c-.35-.38-.7-.77-1.09-1.12a3.64,3.64,0,0,0-2.38-.91c-1.53,0-2.31.94-3.56,2.61S73.79,78.15,70.45,78.15Z"/><path class="cls-3" d="M81.25,88.55A1.74,1.74,0,0,1,80,88l-4.76-4.77a1.74,1.74,0,0,1,2.46-2.46l4.77,4.76a1.75,1.75,0,0,1-1.24,3Z"/><path class="cls-3" d="M65,88.55A1.74,1.74,0,0,1,63.76,88L59,83.27a1.74,1.74,0,1,1,2.47-2.46l4.76,4.76a1.75,1.75,0,0,1-1.23,3Z"/><path class="cls-3" d="M48.73,88.55A1.73,1.73,0,0,1,47.5,88l-4.77-4.77a1.74,1.74,0,1,1,2.47-2.46L50,85.57A1.75,1.75,0,0,1,50,88,1.73,1.73,0,0,1,48.73,88.55Z"/><path class="cls-3" d="M32.47,88.55A1.73,1.73,0,0,1,31.24,88l-4.77-4.77a1.74,1.74,0,0,1,0-2.46,1.72,1.72,0,0,1,2.46,0l4.77,4.76a1.75,1.75,0,0,1-1.23,3Z"/><path class="cls-3" d="M53.7,55.44a1.74,1.74,0,0,1-1.23-3,3,3,0,0,0,0-4.52,1.74,1.74,0,0,1,2.48-2.45,6.48,6.48,0,0,1,0,9.43A1.77,1.77,0,0,1,53.7,55.44Z"/><rect class="cls-4" x="20" y="20" width="68" height="68"/></g></g></g></svg>