<svg xmlns="http://www.w3.org/2000/svg" viewBox="0 0 112 112"><defs><style>.cls-1{fill:#fff;}.cls-2{fill:#fcc;}.cls-3{fill:#336;}</style></defs><title>Asset 43</title><g id="Layer_2" data-name="Layer 2"><g id="Skin_Categories" data-name="Skin Categories"><g id="Normal_Skin" data-name="Normal Skin"><circle class="cls-1" cx="56" cy="56" r="54"/><path class="cls-2" d="M56,112a56,56,0,1,1,56-56A56.06,56.06,0,0,1,56,112ZM56,4a52,52,0,1,0,52,52A52.06,52.06,0,0,0,56,4Z"/><rect class="cls-3" x="53.7" y="32.01" width="4.4" height="51.3"/><line class="cls-1" x1="29.03" y1="34.15" x2="82.65" y2="34.15"/><path class="cls-3" d="M82.65,36.57H29a2.42,2.42,0,0,1,0-4.84H82.65a2.42,2.42,0,0,1,0,4.84Z"/><line class="cls-1" x1="46.83" y1="85.45" x2="64.97" y2="85.45"/><path class="cls-3" d="M65,87.66H46.83a2.21,2.21,0,0,1,0-4.41H65a2.21,2.21,0,0,1,0,4.41Z"/><path class="cls-2" d="M75,34.53l-10.64,21s.69,10.2,10.81,10.2S85.8,55.68,85.8,55.68Z"/><path class="cls-3" d="M75.14,67.93c-9.63,0-12.72-8-13-12.25a2.4,2.4,0,0,1,.23-1.15L73,33.54a2.2,2.2,0,0,1,2-1.21h0a2.18,2.18,0,0,1,2,1.2L87.76,54.68A2.27,2.27,0,0,1,88,55.8C87.77,60,84.8,67.93,75.14,67.93Zm-8.55-12c.29,1.93,1.72,7.59,8.55,7.59s8.15-5.61,8.4-7.41L75,39.38Z"/><path class="cls-3" d="M85.8,57.88H64.33a2.2,2.2,0,1,1,0-4.4H85.8a2.2,2.2,0,1,1,0,4.4Z"/><path class="cls-2" d="M36.84,34.53l-10.64,21s.69,10.2,10.82,10.2S47.67,55.68,47.67,55.68Z"/><path class="cls-3" d="M37,67.93c-9.64,0-12.73-8-13-12.25a2.18,2.18,0,0,1,.23-1.15l10.63-21a2.22,2.22,0,0,1,2-1.21,2.12,2.12,0,0,1,2,1.2L49.63,54.68a2.16,2.16,0,0,1,.24,1.12C49.65,60,46.68,67.93,37,67.93Zm-8.56-12c.29,1.93,1.73,7.59,8.56,7.59s8.14-5.61,8.4-7.41L36.85,39.38Z"/><line class="cls-1" x1="47.67" y1="55.68" x2="26.2" y2="55.68"/><path class="cls-3" d="M47.67,57.88H26.2a2.2,2.2,0,1,1,0-4.4H47.67a2.2,2.2,0,0,1,0,4.4Z"/></g></g></g></svg>