<svg xmlns="http://www.w3.org/2000/svg" viewBox="0 0 112 112"><defs><style>.cls-1{fill:#fff7f7;}.cls-2{fill:#fcc;}.cls-3{fill:#336;}</style></defs><title>Sensitive Skin</title><g id="Layer_2" data-name="Layer 2"><g id="Skin_Categories" data-name="Skin Categories"><g id="Sensitive_Skin" data-name="Sensitive Skin"><circle class="cls-1" cx="56" cy="56" r="56"/><circle class="cls-2" cx="29.28" cy="86.09" r="2.59"/><circle class="cls-2" cx="47.86" cy="86.09" r="2.59"/><circle class="cls-2" cx="66.45" cy="86.09" r="2.59"/><circle class="cls-2" cx="84.22" cy="86.09" r="2.59"/><circle class="cls-3" cx="28.24" cy="85.05" r="2.59"/><circle class="cls-3" cx="46.83" cy="85.05" r="2.59"/><circle class="cls-3" cx="65.41" cy="85.05" r="2.59"/><circle class="cls-3" cx="83.18" cy="85.05" r="2.59"/><path class="cls-2" d="M79.8,79.37c-3,0-4.57-1.83-5.92-3.45-1.22-1.46-2.28-2.73-4.39-2.73s-3.16,1.27-4.38,2.73c-1.35,1.62-2.88,3.45-5.92,3.45s-4.57-1.83-5.92-3.45c-1.22-1.46-2.28-2.73-4.38-2.73s-3.17,1.27-4.39,2.73c-1.35,1.62-2.87,3.45-5.92,3.45S34,77.54,32.67,75.92c-1.22-1.46-2.28-2.73-4.38-2.73a1,1,0,1,1,0-2c3,0,4.57,1.84,5.91,3.45s2.28,2.73,4.38,2.73,3.17-1.26,4.39-2.73,2.87-3.45,5.92-3.45,4.57,1.84,5.92,3.45,2.27,2.73,4.38,2.73,3.16-1.26,4.38-2.73c1.35-1.62,2.88-3.45,5.92-3.45s4.58,1.83,5.92,3.45c1.23,1.47,2.28,2.73,4.39,2.73s3.16-1.26,4.39-2.73c1.34-1.62,2.87-3.45,5.92-3.45a1,1,0,1,1,0,2c-2.11,0-3.17,1.27-4.39,2.73C84.37,77.54,82.84,79.37,79.8,79.37Z"/><path class="cls-3" d="M76.69,78.34c-3,0-4.57-1.84-5.92-3.45s-2.28-2.74-4.39-2.74S63.22,73.42,62,74.89s-2.88,3.45-5.92,3.45-4.57-1.84-5.92-3.45-2.28-2.74-4.39-2.74-3.16,1.27-4.38,2.74-2.87,3.45-5.92,3.45-4.57-1.84-5.92-3.45-2.27-2.74-4.38-2.74a1,1,0,0,1,0-2c3,0,4.57,1.84,5.92,3.46,1.22,1.46,2.28,2.73,4.38,2.73s3.16-1.27,4.38-2.73c1.35-1.62,2.88-3.46,5.92-3.46s4.58,1.84,5.92,3.46c1.23,1.46,2.28,2.73,4.39,2.73s3.16-1.27,4.38-2.73c1.35-1.62,2.88-3.46,5.92-3.46S71,72,72.3,73.61c1.23,1.46,2.28,2.73,4.39,2.73s3.16-1.27,4.39-2.73C82.42,72,84,70.15,87,70.15a1,1,0,0,1,0,2c-2.11,0-3.17,1.27-4.39,2.74S79.73,78.34,76.69,78.34Z"/><path class="cls-2" d="M45.51,38.39S52,33.62,56.31,35l3.84,2.86s4.67-8.94,16.32,2.44l-4.6,6.42,9.52-1.53,9,12.23s-13.79,8.12-21.2.2l-3,2.12S43.55,57.34,45.51,39"/><path class="cls-3" d="M73.85,60.1a12.45,12.45,0,0,1-8.74-3.18l-2.28,1.63a1,1,0,0,1-.69.18,35.15,35.15,0,0,1-11.48-3.61c-7.5-4-11-10.32-10.17-18.27a1.16,1.16,0,0,1,0-.18,1,1,0,0,1,.37-1.1c.28-.2,7-5.06,11.7-3.53a1.11,1.11,0,0,1,.29.14l3,2.24a7.64,7.64,0,0,1,4.76-2.81c3.64-.58,7.84,1.43,12.49,6a1,1,0,0,1,.11,1.3l-3.2,4.46,7.15-1.15a1,1,0,0,1,1,.39l9,12.24a1,1,0,0,1-.29,1.45C86.52,56.5,80.3,60.1,73.85,60.1Zm-8.64-5.49a1,1,0,0,1,.73.32c5.69,6.07,15.79,1.74,19,.14l-8-10.81L68,45.7a1,1,0,0,1-1-1.57l4.1-5.71c-3.85-3.6-7.34-5.27-10.13-4.84a5.71,5.71,0,0,0-4,2.73,1,1,0,0,1-.67.51,1,1,0,0,1-.81-.17l-3.71-2.76c-2.88-.8-7.37,1.67-9.35,3a.43.43,0,0,1,0,.16c-.76,7.16,2.29,12.63,9.07,16.27A33.73,33.73,0,0,0,62,56.69l2.65-1.89A1.05,1.05,0,0,1,65.21,54.61Z"/><path class="cls-3" d="M86.41,56.41l-.2,0c-30.5-6-58.31-27.58-58.59-27.8A1,1,0,1,1,28.86,27c.27.21,27.72,21.5,57.74,27.41a1,1,0,0,1-.19,2Z"/></g></g></g></svg>