<svg xmlns="http://www.w3.org/2000/svg" viewBox="0 0 112 112"><defs><style>.cls-1{fill:#fff7f7;}.cls-2{fill:#fcc;}.cls-3{fill:#336;}</style></defs><title>Acne Prone</title><g id="Layer_2" data-name="Layer 2"><g id="Skin_Categories" data-name="Skin Categories"><g id="Acne_Prone" data-name="Acne Prone"><circle class="cls-1" cx="56" cy="56" r="56"/><circle class="cls-2" cx="42.52" cy="54.96" r="16.79"/><circle class="cls-2" cx="76.09" cy="69.6" r="12.45"/><circle class="cls-2" cx="73.76" cy="40.16" r="8.4"/><path class="cls-3" d="M38.37,70.68A17.79,17.79,0,1,1,56.16,52.89,17.81,17.81,0,0,1,38.37,70.68Zm0-33.58A15.79,15.79,0,1,0,54.16,52.89,15.8,15.8,0,0,0,38.37,37.1Z"/><path class="cls-3" d="M71.94,81A13.45,13.45,0,1,1,85.39,67.53,13.47,13.47,0,0,1,71.94,81Zm0-24.9A11.45,11.45,0,1,0,83.39,67.53,11.47,11.47,0,0,0,71.94,56.08Z"/><path class="cls-3" d="M69.61,47.48A9.4,9.4,0,1,1,79,38.08,9.41,9.41,0,0,1,69.61,47.48Zm0-16.79A7.4,7.4,0,1,0,77,38.08,7.4,7.4,0,0,0,69.61,30.69Z"/></g></g></g></svg>