<svg xmlns="http://www.w3.org/2000/svg" viewBox="0 0 111.98 111.99"><defs><style>.cls-1{fill:#fff;stroke:#fcc;stroke-miterlimit:10;stroke-width:3.98px;}.cls-2{fill:#fcc;}.cls-3{fill:#336;}</style></defs><title>Sensitive</title><g id="Layer_2" data-name="Layer 2"><g id="Skin_Categories" data-name="Skin Categories"><g id="Sensitive"><circle class="cls-1" cx="55.99" cy="56" r="54"/><path class="cls-2" d="M38.58,39.12s7,19.84,21,20.88c.7-1.72,1.19-2.84,1.19-2.84s3.16,2,3.45,2.22a12.84,12.84,0,0,0,9.35,2.37A34.12,34.12,0,0,0,85,57.45"/><path class="cls-3" d="M71.68,63.7a15.16,15.16,0,0,1-8.48-2.8l-.52-.32-1.11-.71q-.16.38-.33.81a1.77,1.77,0,0,1-1.82,1.13c-15-1.11-22.25-21.23-22.55-22.09a1.81,1.81,0,0,1,3.42-1.2C40.36,38.7,46.59,56,58.4,58L59,56.68a2.14,2.14,0,0,1,.12-.28,1.82,1.82,0,0,1,2-1,1.9,1.9,0,0,1,.78.38c.4.28,1.91,1.23,2.73,1.75l.54.35c2.88,1.87,5.31,2.5,8.11,2.09A31.68,31.68,0,0,0,84.1,55.87,1.82,1.82,0,0,1,85.87,59a35.44,35.44,0,0,1-12.08,4.51A15.19,15.19,0,0,1,71.68,63.7Z"/><path class="cls-2" d="M38.58,39.12S46.2,34.39,52,35.23L54.87,38s5.34-9.14,16.23,2.43l-4.58,6.39,10,.24L85,57.45C65,60.22,27.88,31.93,27.88,31.93"/><path class="cls-3" d="M82.11,59.45c-20.87,0-53.87-25-55.33-26.08A1.81,1.81,0,1,1,29,30.49c.11.09,3.83,2.9,9.45,6.62,2.23-1.25,8.57-4.42,13.85-3.68a1.82,1.82,0,0,1,1,.49l1.45,1.41a8.89,8.89,0,0,1,5.21-2.53c3.89-.42,8.09,1.71,12.48,6.38a1.8,1.8,0,0,1,.15,2.3L70,45.08l6.58.16a1.83,1.83,0,0,1,1.37.67l8.45,10.4a1.81,1.81,0,0,1-1.15,2.94A22.87,22.87,0,0,1,82.11,59.45ZM41.94,39.38c11.27,7.16,27.61,16.09,39.38,16.44l-5.67-7-9.18-.22a1.85,1.85,0,0,1-1.58-1A1.83,1.83,0,0,1,65,45.75l3.7-5.14c-3.12-3-6-4.46-8.4-4.2a5.68,5.68,0,0,0-3.9,2.49,1.83,1.83,0,0,1-1.33.89,1.87,1.87,0,0,1-1.51-.5L51.2,37C48.07,36.75,44.32,38.22,41.94,39.38Z"/><path class="cls-3" d="M75.08,77.17c-5.32,0-11.75-1.57-19.26-6.07-19.3-11.58-32.74-.25-33.3.23a1.81,1.81,0,0,1-2.39-2.73c.16-.13,15.92-13.6,37.56-.61,17.24,10.34,27.84,3.59,31.6.2a1.81,1.81,0,0,1,2.42,2.7A24.68,24.68,0,0,1,75.08,77.17Z"/><circle class="cls-3" cx="25.08" cy="76.24" r="2.72"/><circle class="cls-3" cx="55.93" cy="77.81" r="2.72"/><circle class="cls-3" cx="39.6" cy="72.61" r="2.72"/><circle class="cls-3" cx="72.27" cy="83.5" r="2.72"/><circle class="cls-3" cx="87.89" cy="81.44" r="2.72"/></g></g></g></svg>