<svg xmlns="http://www.w3.org/2000/svg" viewBox="0 0 112 112"><defs><style>.cls-1{fill:#fff7f7;}.cls-2{fill:#336;}.cls-3{fill:#fcc;}</style></defs><title>Blackheads</title><g id="Layer_2" data-name="Layer 2"><g id="Skin_Categories" data-name="Skin Categories"><g id="Blackheads"><circle class="cls-1" cx="56" cy="56" r="56"/><circle class="cls-2" cx="78.36" cy="61.67" r="14.67"/><circle class="cls-2" cx="34.99" cy="48.33" r="9.42"/><circle class="cls-2" cx="59.11" cy="32.1" r="6.08"/><circle class="cls-2" cx="48.23" cy="78.54" r="6.08"/><path class="cls-3" d="M74.21,75.27A15.68,15.68,0,1,1,89.89,59.59,15.69,15.69,0,0,1,74.21,75.27Zm0-29.35A13.68,13.68,0,1,0,87.89,59.59,13.68,13.68,0,0,0,74.21,45.92Z"/><path class="cls-3" d="M30.84,56.68A10.42,10.42,0,1,1,41.26,46.26,10.43,10.43,0,0,1,30.84,56.68Zm0-18.84a8.42,8.42,0,1,0,8.42,8.42A8.43,8.43,0,0,0,30.84,37.84Z"/><path class="cls-3" d="M55,37.1A7.08,7.08,0,1,1,62,30,7.08,7.08,0,0,1,55,37.1ZM55,25A5.08,5.08,0,1,0,60,30,5.07,5.07,0,0,0,55,25Z"/><path class="cls-3" d="M44.08,83.55a7.08,7.08,0,1,1,7.08-7.08A7.08,7.08,0,0,1,44.08,83.55Zm0-12.15a5.08,5.08,0,1,0,5.08,5.07A5.08,5.08,0,0,0,44.08,71.4Z"/></g></g></g></svg>