<svg xmlns="http://www.w3.org/2000/svg" viewBox="0 0 112 112"><defs><style>.cls-1{fill:#fff;stroke:#fcc;stroke-miterlimit:10;stroke-width:4px;}.cls-2{fill:#fcc;}.cls-3{fill:#336;}</style></defs><title>Oily Skin</title><g id="Layer_2" data-name="Layer 2"><g id="Skin_Categories" data-name="Skin Categories"><g id="Oily_Skin" data-name="Oily Skin"><circle class="cls-1" cx="56" cy="56" r="54"/><path class="cls-2" d="M45.28,33.41a.39.39,0,0,0-.73,0c-4.76,8.33-11,15.86-16.53,23.7-6.37,9.06-4.41,22.41,5.82,27.75a23.45,23.45,0,0,0,9.93,2.5c10.46.42,20.8-7.14,20.67-18.17-.08-6.82-4.52-12.82-8.29-18.17A140.62,140.62,0,0,1,45.28,33.41Z"/><path class="cls-3" d="M44.57,89h-.86A24.91,24.91,0,0,1,33.1,86.26,19,19,0,0,1,23.36,73.7a21.89,21.89,0,0,1,3.36-17.51c1.75-2.49,3.57-4.95,5.4-7.42A165.83,165.83,0,0,0,43.17,32.61a1.85,1.85,0,0,1,1.7-1.06,2,2,0,0,1,1.85,1.18A139.24,139.24,0,0,0,57.46,50.09l.44.64C61.68,56.06,66,62.11,66,69.16a18.41,18.41,0,0,1-5.72,13.52A22.9,22.9,0,0,1,44.57,89ZM44.84,36c-3.15,5.21-6.7,10-10.16,14.65-1.81,2.45-3.62,4.88-5.36,7.35A18.65,18.65,0,0,0,26.46,73a15.83,15.83,0,0,0,8.11,10.48,21.66,21.66,0,0,0,9.26,2.33A19.58,19.58,0,0,0,58.1,80.4a15.16,15.16,0,0,0,4.75-11.2c-.07-6.06-4-11.68-7.55-16.63l-.45-.64A149.49,149.49,0,0,1,44.84,36Zm1.21-2.08c-.06.12-.13.23-.2.35A.94.94,0,0,0,46.05,33.94Z"/><circle class="cls-2" cx="74" cy="38" r="14"/><path class="cls-3" d="M49.47,80.21a1.59,1.59,0,0,1-.77-3A9.61,9.61,0,0,0,53.45,70a10.16,10.16,0,0,0-1.13-6,1.59,1.59,0,0,1,2.82-1.49,13.38,13.38,0,0,1,1.48,7.87A12.82,12.82,0,0,1,50.24,80,1.65,1.65,0,0,1,49.47,80.21Z"/><path class="cls-3" d="M73.85,52.3A14.15,14.15,0,1,1,88,38.15,14.16,14.16,0,0,1,73.85,52.3Zm0-24.93A10.78,10.78,0,1,0,84.63,38.15,10.79,10.79,0,0,0,73.85,27.37Z"/><path class="cls-3" d="M75.33,44.42a1.59,1.59,0,0,1-.77-3,4.3,4.3,0,0,0,1.68-5.84A1.6,1.6,0,0,1,79,34,7.49,7.49,0,0,1,76.1,44.22,1.53,1.53,0,0,1,75.33,44.42Z"/><circle class="cls-3" cx="50" cy="58" r="2"/></g></g></g></svg>