<svg xmlns="http://www.w3.org/2000/svg" viewBox="0 0 112 112"><defs><style>.cls-1{fill:#fff7f7;}.cls-2{fill:#fcc;}.cls-3{fill:#fff;}.cls-4{fill:#336;}</style></defs><title>Normal Skin</title><g id="Layer_2" data-name="Layer 2"><g id="Skin_Categories" data-name="Skin Categories"><g id="Normal_Skin" data-name="Normal Skin"><circle class="cls-1" cx="56" cy="56" r="56"/><rect class="cls-2" x="59.04" y="32.16" width="2" height="53.2"/><line class="cls-3" x1="32.18" y1="32.3" x2="87.78" y2="32.3"/><path class="cls-2" d="M87.78,33.3H32.18a1,1,0,1,1,0-2h55.6a1,1,0,1,1,0,2Z"/><line class="cls-3" x1="50.64" y1="85.51" x2="69.45" y2="85.51"/><path class="cls-2" d="M69.45,86.51H50.64a1,1,0,0,1,0-2H69.45a1,1,0,0,1,0,2Z"/><rect class="cls-4" x="54.89" y="30.09" width="2" height="53.2"/><line class="cls-3" x1="28.03" y1="30.23" x2="83.63" y2="30.23"/><path class="cls-4" d="M83.63,31.23H28a1,1,0,0,1,0-2h55.6a1,1,0,0,1,0,2Z"/><line class="cls-3" x1="46.49" y1="83.43" x2="65.3" y2="83.43"/><path class="cls-4" d="M65.3,84.43H46.49a1,1,0,0,1,0-2H65.3a1,1,0,1,1,0,2Z"/><path class="cls-4" d="M86.9,53.56A1,1,0,0,1,86,53L75.67,32.83l-10.14,20a1,1,0,0,1-1.78-.9l11-21.78a1,1,0,0,1,.89-.55h0a1,1,0,0,1,.89.55L87.79,52.1a1,1,0,0,1-.43,1.35A1.11,1.11,0,0,1,86.9,53.56Z"/><path class="cls-2" d="M91,54.63s-.54,10.58-11,10.58S68.76,54.63,68.76,54.63H91"/><path class="cls-4" d="M75.83,64.13c-11.31,0-12.21-11.39-12.22-11.5a1,1,0,0,1,.27-.75,1,1,0,0,1,.73-.32H86.89a1,1,0,0,1,.72.31,1,1,0,0,1,.28.74C87.88,52.72,87.16,64.13,75.83,64.13ZM65.76,53.56c.49,2.52,2.45,8.57,10.07,8.57s9.48-6.06,9.92-8.57Z"/><path class="cls-4" d="M47.49,53.56A1,1,0,0,1,46.6,53L36.27,32.83l-10.15,20a1,1,0,1,1-1.78-.9l11-21.78a1,1,0,0,1,.89-.55h0a1,1,0,0,1,.89.55L48.38,52.1A1,1,0,0,1,48,53.45,1.07,1.07,0,0,1,47.49,53.56Z"/><path class="cls-2" d="M51.63,54.63s-.55,10.58-11.06,10.58S29.35,54.63,29.35,54.63H51.63"/><path class="cls-4" d="M36.42,64.13c-11.31,0-12.21-11.39-12.22-11.5a1,1,0,0,1,.27-.75,1,1,0,0,1,.73-.32H47.48a1,1,0,0,1,.72.31,1,1,0,0,1,.28.74C48.47,52.72,47.75,64.13,36.42,64.13ZM26.35,53.56c.49,2.52,2.45,8.57,10.07,8.57s9.49-6.06,9.93-8.57Z"/></g></g></g></svg>