<svg xmlns="http://www.w3.org/2000/svg" width="14.005" height="16.698" viewBox="0 0 14.005 16.698">
  <path id="icon_helpful" d="M60.862,16.9h-.539a1.347,1.347,0,0,0,0-2.693h-3.5a10.143,10.143,0,0,0,.808-4.309,1.885,1.885,0,0,0-1.885-1.885,1.077,1.077,0,0,0-1.077,1.077,5.831,5.831,0,0,1-2.741,4.945l-.983.614A5.831,5.831,0,0,0,48.2,19.59a5.117,5.117,0,0,0,5.117,5.117h6.6a1.212,1.212,0,1,0,0-2.424h.4a1.347,1.347,0,1,0,0-2.693h.539a1.347,1.347,0,0,0,0-2.693Z" transform="translate(-48.204 -8.009)" fill="#ff846b"/>
</svg>
