<svg xmlns="http://www.w3.org/2000/svg" width="13.704" height="16.556" viewBox="0 0 13.704 16.556">
  <path id="icon_agree" d="M22.443,16.147c-1.727,1.727-2.044,4.393-3.822,6.092a3.551,3.551,0,0,0-.411.442,2.615,2.615,0,0,0-.391,1.638v.106a.573.573,0,0,1-.571.571H12.68a.573.573,0,0,1-.571-.571V22.978a.561.561,0,0,0-.094-.32,4.09,4.09,0,0,1-.474-.9L9.029,14.475a.893.893,0,0,1,.457-1.113.863.863,0,0,1,.714.017.882.882,0,0,1,.4.4l-.973-2.832a.857.857,0,0,1,1.621-.557l1.724,5.024a.856.856,0,0,0,1.644-.086L16.054,9.1a.856.856,0,0,1,1.176-.591.892.892,0,0,1,.48,1.028l-.134.571a.856.856,0,0,1,1.647.465l-1.364,5.858c-.325,1.713.531,1.713.531,1.713a1.986,1.986,0,0,0,.317-.217,2.207,2.207,0,0,0,.214-.188A4.4,4.4,0,0,0,19.531,17c.571-.856,1.77-2,2.341-2s1.142.571.571,1.142Zm0,0" transform="translate(-8.975 -8.44)" fill="#ff98a4"/>
</svg>
