<svg xmlns="http://www.w3.org/2000/svg" viewBox="0 0 112 112"><defs><style>.cls-1{fill:#fcc;}.cls-2,.cls-4{fill:#f99;}.cls-2{stroke:#f99;stroke-width:1.66px;}.cls-2,.cls-3,.cls-4{stroke-miterlimit:10;}.cls-3,.cls-5{fill:none;stroke-width:2.07px;}.cls-3,.cls-4,.cls-5{stroke:#336;}.cls-4{stroke-width:1.84px;}.cls-5{stroke-linecap:round;stroke-linejoin:round;}</style></defs><title>Asset 195</title><g id="Layer_2" data-name="Layer 2"><g id="_5_categories" data-name="5 categories"><circle class="cls-1" cx="56" cy="56" r="56"/><path class="cls-2" d="M56.19,90.6l-3.42-2.12C49.66,86.54,22.35,69,22.36,49.75c0-9.18,5.79-16.61,14.39-18.49,6.06-1.34,14.83,2,20,13.25,5.45-11.24,12.74-14.8,18.91-13.65,9,1.67,15.17,9.18,15.44,18.67,0,22-28.13,37.51-31.34,39.19Z"/><circle class="cls-1" cx="59.7" cy="49.14" r="18.01"/><polyline class="cls-1" points="46.9 62.29 41.09 85.44 49.27 80.55 54.07 88.83 59.73 66.26"/><polyline class="cls-1" points="59.52 66.62 64.67 88.2 69.32 80.74 77.56 85.3 71.72 61.39"/><circle class="cls-3" cx="56.34" cy="48.23" r="18.01"/><path class="cls-4" d="M52.51,54.52a.63.63,0,0,1-.37-.12.64.64,0,0,1-.26-.63l.69-4.38-3.23-3.06a.67.67,0,0,1-.17-.66.64.64,0,0,1,.51-.44l4.39-.7,1.91-4a.66.66,0,0,1,.57-.37.71.71,0,0,1,.58.35l2,4,4.41.57a.66.66,0,0,1,.52.43.64.64,0,0,1-.15.66l-3.14,3.15.82,4.37a.65.65,0,0,1-.93.69l-4-2-3.9,2.12A.68.68,0,0,1,52.51,54.52Z"/><polyline class="cls-5" points="56.63 66.83 61.58 87.17 66.22 79.71 74.46 84.26 68.94 61.79"/><polyline class="cls-5" points="43.8 61.26 37.99 84.41 46.17 79.52 50.97 87.8 56.2 66.49"/></g></g></svg>