<svg xmlns="http://www.w3.org/2000/svg" viewBox="0 0 112 112"><defs><style>.cls-1,.cls-4{fill:#ffe5e5;}.cls-2{fill:#fcc;}.cls-3,.cls-5{fill:none;stroke-width:2px;}.cls-3,.cls-4,.cls-5{stroke:#9999b2;}.cls-3,.cls-4{stroke-miterlimit:10;}.cls-4{stroke-width:1.78px;}.cls-5{stroke-linecap:round;stroke-linejoin:round;}</style></defs><title>Asset 194</title><g id="Layer_2" data-name="Layer 2"><g id="_5_categories" data-name="5 categories"><circle class="cls-1" cx="56" cy="56" r="56"/><circle class="cls-2" cx="58.75" cy="48.44" r="17.44"/><polyline class="cls-2" points="46.36 61.17 40.73 83.58 48.66 78.84 53.3 86.86 58.78 65.01"/><polyline class="cls-2" points="58.57 65.36 63.56 86.25 68.06 79.03 76.03 83.44 70.38 60.3"/><circle class="cls-3" cx="55.5" cy="47.56" r="17.44"/><path class="cls-4" d="M51.79,53.64a.69.69,0,0,1-.36-.11.62.62,0,0,1-.25-.61l.66-4.24-3.12-3a.63.63,0,0,1,.33-1.07L53.3,44l1.85-3.89a.61.61,0,0,1,.55-.35.68.68,0,0,1,.56.34l2,3.83,4.26.55a.63.63,0,0,1,.51.42.61.61,0,0,1-.15.64l-3,3,.78,4.23a.61.61,0,0,1-.24.61.61.61,0,0,1-.65.06l-3.83-2-3.78,2.06A.63.63,0,0,1,51.79,53.64Z"/><polyline class="cls-5" points="55.78 65.56 60.56 85.25 65.06 78.03 73.03 82.44 67.69 60.69"/><polyline class="cls-5" points="43.36 60.17 37.73 82.58 45.66 77.84 50.3 85.86 55.36 65.23"/></g></g></svg>