<svg xmlns="http://www.w3.org/2000/svg" viewBox="0 0 112 112"><defs><style>.cls-1{fill:#ffe5e5;}.cls-2{fill:#fcc;}.cls-3,.cls-4{fill:none;stroke:#9999b2;stroke-width:2px;}.cls-3{stroke-miterlimit:10;}.cls-4{stroke-linecap:round;stroke-linejoin:round;}</style></defs><title>Asset 196</title><g id="Layer_2" data-name="Layer 2"><g id="_5_categories" data-name="5 categories"><circle class="cls-1" cx="56" cy="56" r="56"/><path class="cls-2" d="M70.35,29.41a.22.22,0,0,0-.42,0c-2.79,4.87-6.45,9.28-9.68,13.87-3.73,5.3-2.58,13.12,3.4,16.24A13.88,13.88,0,0,0,69.47,61c6.12.24,12.17-4.18,12.1-10.64,0-4-2.65-7.51-4.85-10.63A82.21,82.21,0,0,1,70.35,29.41Z"/><path class="cls-3" d="M66.35,27.41a.22.22,0,0,0-.42,0c-2.79,4.87-6.45,9.28-9.68,13.87-3.73,5.3-2.58,13.12,3.4,16.24A13.88,13.88,0,0,0,65.47,59c6.12.24,12.17-4.18,12.1-10.64,0-4-2.65-7.51-4.85-10.63A82.21,82.21,0,0,1,66.35,27.41Z"/><path class="cls-4" d="M71.66,44.27a7,7,0,0,1-.64,8"/><path class="cls-2" d="M52.58,71.49H66.07c4.5-3.78-.24-5.92-.24-5.92s-7.1-.23-10.17-.23a8.25,8.25,0,0,0-7.58-5.21H29.86V74.57h7.81L56.6,81.43s1.66,1.66,5.92-.47,20.59-11.6,20.59-11.6,1.82-4.1-2.84-4.26c-3.08,1.42-14,6.39-14,6.39"/><path class="cls-4" d="M48.78,69.59H62.27c4.5-3.78-.23-5.91-.23-5.91s-7.1-.24-10.18-.24a8.27,8.27,0,0,0-7.58-5.21H26.06V72.67h7.81L52.8,79.53s1.66,1.66,5.92-.47,20.59-11.6,20.59-11.6,1.82-4.1-2.84-4.26c-3.07,1.42-14,6.39-14,6.39"/></g></g></svg>