<svg xmlns="http://www.w3.org/2000/svg" viewBox="0 0 112 112"><defs><style>.cls-1{fill:#ffe5e5;}.cls-2,.cls-4{fill:none;stroke-linecap:round;stroke-linejoin:round;stroke-width:2px;}.cls-2{stroke:#fcc;}.cls-3{fill:#fcc;}.cls-4{stroke:#9999b2;}</style></defs><title>Asset 198</title><g id="Layer_2" data-name="Layer 2"><g id="_5_categories" data-name="5 categories"><circle class="cls-1" cx="56" cy="56" r="56"/><line class="cls-2" x1="29.3" y1="88.78" x2="56.23" y2="61.85"/><path class="cls-3" d="M82.47,43.34c.17,0,.1-1.24.08-1.41-.11-1.17-.54-5.09-1.38-5.45a43.43,43.43,0,0,0-5.62-1l-2.17-.21a.29.29,0,0,0-.3.38l1.61,6.83c0,.11,3.87,1.49,4,1.5Z"/><path class="cls-3" d="M74.42,47.17c4.22-8.82-.33-14-2.61-16.17a.28.28,0,0,0-.47.25,5.48,5.48,0,0,1-2.23,5.3s-1.18.7-1.22.7l-1.24-1.44a.28.28,0,0,0-.27.36l3.7,13.9a.27.27,0,0,0,.23.2l9.56,1.27a.3.3,0,0,0,.29-.14L82,48.06a.3.3,0,0,0,0-.3l-3.57-5a.27.27,0,0,0-.21-.12l-3.59-.17a.29.29,0,0,0-.3.29Z"/><path class="cls-3" d="M76,43s6.94-.91,10.84,3.19a.29.29,0,0,1-.2.48c-2.12.07-3.19.61-4.74,2.8"/><path class="cls-3" d="M63.31,64.47s15.82-13.09,1.94-32.56a.29.29,0,0,0-.52.22c.44,2.72.88,3.59-2.12,6.46-3.37,3.23-14.74,10-6.36,22.88a.27.27,0,0,0,.07.08c11.66,10,24.43-7.49,26.54-8.61a2.62,2.62,0,0,1,2.1-.18.28.28,0,0,0,.27-.49c-2-1.68-6.17-4-13.62-4.54"/><path class="cls-3" d="M49.64,68.14s6.47-1.12,11.53,8c0,0-14.9,7.45-15.89-4.22"/><path class="cls-3" d="M42.84,74.06s1-6.49-8.25-11.37c0,0-7.15,15.06,4.54,15.81"/><line class="cls-4" x1="26.3" y1="86.78" x2="53.23" y2="59.85"/><path class="cls-4" d="M72.55,33.5a43.43,43.43,0,0,1,5.62,1c1,.43,1.41,5.77,1.41,5.77"/><path class="cls-4" d="M66.08,33.78a4.09,4.09,0,0,0,2-5.48c1.68,1.54,8.15,6.89,3.37,16.87"/><path class="cls-4" d="M73,41s7.45-1,11.25,3.66c-2.53,0-3.66.42-5.35,2.81"/><path class="cls-4" d="M60.31,62.47S76.62,49,61.58,29c.42,3.66,1.4,4.36-2,7.59s-14.77,10-6.33,22.93C65,69.64,77.75,52.06,79.86,50.94s4.08,1.12,4.08,1.12-3.38-5.48-15.33-6.33"/><path class="cls-4" d="M48.64,65.14s6.47-1.12,11.53,8c0,0-14.9,7.45-15.89-4.22"/><line class="cls-4" x1="45.27" y1="68.23" x2="52.16" y2="70.34"/><path class="cls-4" d="M36,75.83s-11.25.28-3.65-15.75c0,0,10,6.33,7.73,12.51"/><line class="cls-4" x1="34.72" y1="68.8" x2="36.83" y2="75.27"/></g></g></svg>