<svg xmlns="http://www.w3.org/2000/svg" viewBox="0 0 509.64 397.89"><defs><style>.cls-1{fill:#f69ba0;}.cls-2{fill:none;}.cls-3{fill:#ffe2b8;}.cls-4,.cls-5{fill:#232161;}.cls-5{stroke:#232161;stroke-miterlimit:10;}.cls-6{fill:#fff;}</style></defs><title>Asset 18</title><g id="Layer_2" data-name="Layer 2"><g id="USP"><path class="cls-1" d="M288.33,110.58C296-41.55,485.65-20.6,497.77,76.4c4.14,33.07,6.66,66.31,8.48,99.58,1.17,21.44,7.12,45-.2,66-17.87,51.2-76.61,40.21-119.06,40.21-6.29,0-97.22.13-97.22,0Z"/><path class="cls-2" d="M325.89,100.54s87.26,37.12,142,3.47c4.45,16.68,20.45,91.71-73.05,136.06C329.36,208.92,312.86,187.8,325.89,100.54Z"/><path class="cls-3" d="M353.18,304.19l34.72,2.89,41,.79-7.35-91.13c-.1-.4-58.79,7.35-58.79,7.35Z"/><path class="cls-3" d="M322.87,99.1c0-.09.08-.17.13-.26,47.17,14.28,99,14.18,146.31.48A117.28,117.28,0,0,1,406.44,238c-3.93,1.85-8.08,3.5-12.43,3.54s-8.28-1.45-12.14-3.14a108.94,108.94,0,0,1-54.79-53.86C316.68,161.85,311.09,122.52,322.87,99.1Z"/><path class="cls-1" d="M252.53,153.15l-32.33-50s17.37-60.41-57.45-88.87c0,0-37.89-17.24-89.23,1.81C2.19,42.59-14.13,138,11.21,201.76,44.73,286.1,102.67,353,182.63,395.48c2.42,1.29,5,2.61,7.74,2.38a13.36,13.36,0,0,0,5.92-2.46c41.8-26.63,44.61-76.07,51.51-120.43C253.21,240.12,267.09,187.27,252.53,153.15Z"/><path class="cls-4" d="M215.3,58.1c-24-4.9-42.63-1-59.28,16.17-8.33,6.86-18,26.25-25,43.6-2,10.29-6.86,14.7-.18,30.71,6.55,22,21.39,52.52,39.37,66.79,6.37,8.82,24.85,7.28,70.17,9.49,9.53-26.38,11.09-54.13,20.62-80.52-15.38-14.85-25-21.15-28.66-43.51C229.54,83.69,225.35,72.26,215.3,58.1Z"/><path class="cls-4" d="M237.78,225.21c-15-.45-30,.8-45.17-.56a81.91,81.91,0,0,1-11.33-1.81,48.84,48.84,0,0,1-5.57-1.7c-.92-.32-1.82-.75-2.72-1.13s-1.79-.86-2.63-1.39a26.23,26.23,0,0,1-4.85-3.59c-.35-.35-.76-.7-1.07-1.06l-1-1.06-1.92-2.11-1.93-2.12c-.63-.71-1.2-1.47-1.81-2.21-1.19-1.49-2.42-2.95-3.58-4.46a180,180,0,0,1-12.51-19.12,217.2,217.2,0,0,1-10-20.53c-3-7-5.53-14.2-7.82-21.48a178.5,178.5,0,0,1-5.46-22.26h0a3.52,3.52,0,0,1,0-1c.22-1.9.49-3.58.8-5.35s.66-3.48,1-5.2c.78-3.44,1.67-6.86,2.73-10.22s2.2-6.69,3.47-10,2.74-6.5,4.28-9.66A99,99,0,0,1,135.88,68c.9-1.51,1.89-3,2.86-4.43s2-2.88,3.14-4.25a77.4,77.4,0,0,1,14.86-14.74.36.36,0,0,1,.49.07.38.38,0,0,1,0,.46,102.64,102.64,0,0,0-12.29,16.31,124.33,124.33,0,0,0-9,18.12c-1.28,3.12-2.42,6.3-3.46,9.5s-2,6.44-2.86,9.7-1.61,6.54-2.27,9.84c-.32,1.65-.63,3.3-.91,5s-.54,3.34-.71,4.87l0-1a226.89,226.89,0,0,0,11.42,42.8,201,201,0,0,0,9.06,20.29,175.93,175.93,0,0,0,11.55,19c1.09,1.5,2.23,3,3.34,4.44.57.73,1.1,1.49,1.69,2.2l1.8,2.11,1.8,2.12.9,1.06c.3.35.6.62.9.94a22.26,22.26,0,0,0,4.09,3.24,38.41,38.41,0,0,0,9.88,4.25A79.87,79.87,0,0,0,192.91,222c14.76,2,29.9,1.29,44.91,2.5a.35.35,0,0,1,.32.38A.37.37,0,0,1,237.78,225.21Z"/><path class="cls-4" d="M215.18,58.43a80.9,80.9,0,0,0-32,3.58,61.11,61.11,0,0,0-25.25,16.46,81.11,81.11,0,0,0-9.56,12.22c-1.53,2.14-2.76,4.5-4.16,6.77-.72,1.12-1.25,2.37-1.9,3.54s-1.29,2.37-1.9,3.57c-4.86,9.71-8.87,20.07-13.31,30.67l0,.08a.34.34,0,0,1-.65-.2l1.59-8.31c.58-2.76,1.31-5.48,2-8.23.31-1.38.77-2.71,1.17-4.07l1.24-4.05c.86-2.69,1.91-5.31,2.86-8,.54-1.31,1.12-2.6,1.68-3.9S138,96,138.64,94.73c1.31-2.51,2.52-5.07,4.05-7.46a74.84,74.84,0,0,1,10.15-13.61A60.85,60.85,0,0,1,166.08,63a57.23,57.23,0,0,1,15.74-6.41,63.58,63.58,0,0,1,16.89-1.7,62.53,62.53,0,0,1,16.71,2.9.35.35,0,0,1-.14.67Z"/><path class="cls-5" d="M330.06,191.49s24.26,35.27,50.74,46.8C357.26,233,329.41,196.85,330.06,191.49Z"/><path class="cls-4" d="M401.93,196a15.42,15.42,0,0,0-6.31,4.51,15.39,15.39,0,0,0-6.3-4.51c-3.21-1.13-7.15-.63-9.46,1.87-2.86,3.1-2.34,8.23,0,11.72s6.13,5.72,9.78,7.84q2.06,1.2,4.12,2.39a2.33,2.33,0,0,0,1.83.42,2.36,2.36,0,0,0,1.84-.42l4.12-2.39c3.64-2.12,7.41-4.35,9.78-7.84s2.88-8.62,0-11.72C409.07,195.34,405.14,194.84,401.93,196Z"/><path class="cls-4" d="M312,283.13c-.09,13.33,1.53,36.22,1.53,36.22l-50.18,2.24.84-39.9s.28-10.93-5.88-20.18-14-27.2-12.9-46,12.55-61.88,14-68.68c1.55-7.2,4.65-4,4.65-4"/><path class="cls-6" d="M312.23,283.14c.21,6,.67,12.05,1.18,18.07s1,12,1.59,18a1.41,1.41,0,0,1-1.26,1.53h-.11l-50.17,2.56a1.74,1.74,0,0,1-1.83-1.66v-.13L262,298.1l.18-11.73.05-2.94,0-1.46v-.67l0-.67a37,37,0,0,0-.67-5.52,35.78,35.78,0,0,0-3.67-10.4c-.43-.82-.91-1.53-1.42-2.37s-1.1-1.71-1.59-2.58c-1-1.73-2-3.51-2.85-5.31a83.57,83.57,0,0,1-7.39-22.76,68.66,68.66,0,0,1-1.05-12,82.52,82.52,0,0,1,1-11.93c1.18-7.81,2.86-15.47,4.64-23.11s3.69-15.22,5.71-22.79L258,150.56l.75-2.83a28.67,28.67,0,0,1,.82-2.86,5.75,5.75,0,0,1,1.7-2.58,2,2,0,0,1,1.6-.37,2.75,2.75,0,0,1,1.37.79.21.21,0,0,1,0,.29.21.21,0,0,1-.27,0v0a2.29,2.29,0,0,0-1.18-.57,1.44,1.44,0,0,0-1.15.35,5.09,5.09,0,0,0-1.3,2.36c-.28.91-.44,1.84-.64,2.82l-.61,2.87-2.49,11.47c-1.66,7.64-3.33,15.27-4.83,22.93q-1.12,5.75-2.11,11.5c-.68,3.84-1.28,7.68-1.77,11.52a81.86,81.86,0,0,0-.73,11.44A64.66,64.66,0,0,0,248.35,231a85,85,0,0,0,7.29,21.63c.85,1.7,1.74,3.39,2.72,5,.48.83,1,1.61,1.51,2.41s1.12,1.73,1.61,2.64a38.23,38.23,0,0,1,4.06,11.64,43.09,43.09,0,0,1,.69,6.12v1.59l0,1.47-.08,2.93-.32,11.72-.66,23.45-1.84-1.79,50.2-1.92-1.37,1.53-.31-9.08c-.09-3-.18-6.05-.19-9.07-.05-6.06-.05-12.12.2-18.17a.2.2,0,0,1,.21-.19A.21.21,0,0,1,312.23,283.14Z"/><path class="cls-4" d="M295.84,158.06s.65-6.17,5.63-6c4.18.17,5.59,4.38,8.57,19.14,3.95,19.54,2.52,34.48,3.09,37.56s3.92,8.13,5.6,19.07-5,41.21-7,46.53c-.47,1.28-.66,4.53-.69,8.73L269,159.89l5.53-11.73,12.83,1.11Z"/><path class="cls-4" d="M262.82,201.51s2.69-58.75,3.93-65.88c1.12-6.44,8.31-9.53,12.92-2.72,3.46,5.09,2.22,60.47,3.06,68.6"/><path class="cls-6" d="M262.82,201.51q0-19.09.79-38.17c.22-6.36.54-12.71.92-19.08.12-1.59.19-3.18.34-4.78a40.55,40.55,0,0,1,.63-5,9.85,9.85,0,0,1,2.77-4.79,7.75,7.75,0,0,1,5.34-2.15,8.09,8.09,0,0,1,5.28,2.16,11.85,11.85,0,0,1,1.79,2l.2.27c.07.1.16.27.24.4a6.89,6.89,0,0,1,.31.73,11.07,11.07,0,0,1,.37,1.32,68.59,68.59,0,0,1,1.1,9.71c.32,6.39.44,12.76.43,19.13s-.11,12.74-.24,19.1-.42,12.71-.36,19.07c-.42-3.16-.56-6.35-.72-9.52l-.43-9.54L281,163.39c-.25-6.35-.44-12.7-.92-19a66.23,66.23,0,0,0-1.1-9.22,7.2,7.2,0,0,0-.28-1,2.82,2.82,0,0,0-.15-.36l-.07-.11-.15-.22a8.72,8.72,0,0,0-1.37-1.52,5.22,5.22,0,0,0-3.34-1.41,4.77,4.77,0,0,0-3.3,1.32,7.06,7.06,0,0,0-1.95,3.36,38,38,0,0,0-.58,4.49l-.42,4.72c-.53,6.33-.94,12.67-1.43,19Q264.53,182.49,262.82,201.51Z"/><path class="cls-4" d="M296.19,205.16s.28-33.92,0-52.42A44.43,44.43,0,0,0,295,142.33c-.78-3-2.21-6.26-5.54-7.08a7.66,7.66,0,0,0-3.81,0,6.63,6.63,0,0,0-2.95,2.56c-1.68,3.3-1.26,7.38-1.29,11,0,1.23.18,2.6.15,3.83-.11,3.83,1.18,46.11,1.14,49.93"/><path class="cls-6" d="M296.09,205.16Q296,187,295.8,168.87c-.08-6-.13-12.11-.33-18.12a37.86,37.86,0,0,0-1.3-8.79,12.22,12.22,0,0,0-1.8-3.84,5.37,5.37,0,0,0-3.26-2.11,5.89,5.89,0,0,0-2-.15c-.34,0-.69.08-1.05.14l-.24.05-.11,0a3,3,0,0,0-.36.21,7.92,7.92,0,0,0-1.48,1.36,3.61,3.61,0,0,0-.28.37,1.29,1.29,0,0,0-.09.16l-.1.24a7.38,7.38,0,0,0-.38,1c-.85,2.67-.63,5.66-.59,8.71,0,.8,0,1.43.07,2.2s.12,1.54.11,2.36c0,1.45.05,3,.07,4.49l.16,9.07c.1,12.09.36,24.19,0,36.3a.11.11,0,0,1-.11.1.09.09,0,0,1-.09-.09h0c-.77-12.07-1.32-24.16-1.78-36.25l-.25-9.08c0-1.53-.05-3,0-4.58,0-.69,0-1.41-.07-2.18a22.77,22.77,0,0,1-.05-2.33c0-3-.18-6.15.87-9.28.15-.39.29-.77.47-1.14l.14-.28a2.59,2.59,0,0,1,.19-.33c.14-.21.28-.37.41-.54a10,10,0,0,1,1.88-1.66,4,4,0,0,1,.63-.35,2.41,2.41,0,0,1,.43-.14l.31,0c.39-.06.79-.11,1.2-.14a7.21,7.21,0,0,1,2.5.22,7,7,0,0,1,4.13,2.78,13.49,13.49,0,0,1,2,4.37,38.42,38.42,0,0,1,1.21,9.14c.1,6.08,0,12.11,0,18.17q-.17,18.15-.52,36.29a.1.1,0,0,1-.1.1A.09.09,0,0,1,296.09,205.16Z"/></g></g></svg>