<svg xmlns="http://www.w3.org/2000/svg" viewBox="0 0 449.87 413.91"><defs><style>.cls-1{fill:#f69ba0;}.cls-2{fill:#232161;}.cls-3,.cls-4{fill:#fff;stroke:#fff;stroke-linecap:round;stroke-linejoin:round;}.cls-3{stroke-width:8px;}</style></defs><title>Asset 13</title><g id="Layer_2" data-name="Layer 2"><g id="USP"><circle class="cls-1" cx="244.15" cy="208.19" r="205.71"/><path class="cls-2" d="M273.61,260.49A267.68,267.68,0,0,1,290,318.83a9.39,9.39,0,0,1,0,4.41,9.6,9.6,0,0,1-2.71,3.66c-3.89,3.8-7.9,7.67-12.89,9.81-3.86,1.66-8.64,2.58-10.53,6.33-2.05,4.06.6,9-.16,13.46-.44,2.56-2,4.79-3.44,6.92l-31.56,45.52c-4.29,6.2-10.19,3.88-17,2.67-5-.88-9.91-2-14.85-3.1-21-4.58-48.65-17.59-62.37-26-4.29-2.63-12.39-5.75-15-11.5-1.85-4,16.48-19,18.48-24.77,2.28-6.52,1.49-13.66,2.11-20.54,1.38-15.18,9.58-28.78,17.58-41.76a33,33,0,0,1,5.71-7.53,38.39,38.39,0,0,1,7.86-4.87A123.81,123.81,0,0,0,193,256.71c5.87-4.95,11.36-10.41,17.74-14.69,8.93-6,19.26-9.49,29.46-12.92,19.58-6.57,26.35,14.45,32.49,29.11Z"/><path class="cls-2" d="M193.29,175.46c-11.07,6.78-22.24,15.3-35.82,14.74-14.44-.59-26.61-10.87-36-21.88a31.37,31.37,0,0,1-4.54-6.46,34.67,34.67,0,0,1-2.5-9.34L111.81,137c-.32-1.91-.72-4-2.15-5.26-5.76-5.22-15.25,19.68-15,24.41l.64,11.21c.83,14.53-3.89,27.66-12.77,39.07a12.8,12.8,0,0,1-3.13,3.1c-5.72,3.56-15.79.1-20-4.34a19.63,19.63,0,0,1-3.16-5.07C53,193.38,48.75,186.5,46.3,179.2c-2.78-8.31-3.68-14.09-1.58-22.31a218,218,0,0,1,14.15-38.71c10.77-22.37,22.7-39.09,40.48-56.4C129.52,32.41,174,6.45,216.31,1.2Q220,.74,223.66.5c45.15-2.92,90,6.94,127.75,32.08a12.41,12.41,0,0,1,2.1,1.44c.38.52-.36,1.51-.48,2.13-2,10.55,4.46,20.77,11.74,27.79,8,7.71,17.81,13.61,24.49,22.49,1.07,1.43,1.95,3.72.49,4.76a3.46,3.46,0,0,1-1.8.47,73.25,73.25,0,0,1-14.8-.48c-5.1-.69-10.36-1.9-15.28-.43-7.34,2.2-11.83,9.69-18.66,13.15-9.34,4.74-20.63,1-30.1-3.47-2.94-1.39-6.07-3.06-7.44-6-2.1-4.56.89-9.94,0-14.89-1.2-6.8-9.4-11.51-8.65-18.38.39-3.62,3.22-6.4,5.18-9.46s2.86-7.68,0-9.93a8.88,8.88,0,0,0-4.48-1.41c-11.84-1.46-43.51-9.34-40,11.42,1.78,10.49,6.8,20.88,4.8,31.73-1,5.61-3.94,10.74-5,16.36-1.92,10.37,2.95,20.87.72,31.18-2,9-10.09,14.21-17.52,18.61-6.49,1.63-14.13,8.39-19.93,11.83l-21.82,13Z"/><path class="cls-2" d="M330.65,394.83c-1.86.18-3.37-.08-4.32-1-1.85-1.79-1.37-4.82-.75-7.32,2.87-11.57,6-23.6,13.75-32.64,6-7,14.36-11.57,21-17.94a6.18,6.18,0,0,0,1.91-2.69c.41-1.46-.22-3-.88-4.37-3.47-7.2-8.1-14-9.91-21.76-1.3-5.56-.82-12.16,2.5-17,3.06-4.43,9.77-7.27,3.39-12.72-1.95-1.67-4.38-2.8-6.05-4.75-3-3.5-2.8-8.95-.54-13s6.2-6.81,10.25-9c13.84-7.46,30.19-9.16,45.83-7.63,4.76.47,9.82,1.17,14.13-.91,8.32-4,9.17-15.55,15-22.69.88-1.07,2.2-2.13,3.52-1.69s1.68,1.83,2,3.07c4.22,18,4.12,33.62-.77,51a206.67,206.67,0,0,1-18.08,44.17,174.74,174.74,0,0,1-40.87,49.68,165.21,165.21,0,0,1-26.58,18.06C351.4,385.9,338.19,394.07,330.65,394.83Z"/><path class="cls-3" d="M211.94,266.61,238,298.46l31.14-20.14,105.6-72.12a8.82,8.82,0,0,0,2.05-1.85c5.9-7.23,36.19-46.79-20.68-30.83a8.81,8.81,0,0,0-2.49,1.15C311.65,202.72,246,244,246,244Z"/><polygon class="cls-3" points="348.94 225.18 348.8 325.36 329.08 340.78 301.39 257.75 348.94 225.18"/><polygon class="cls-3" points="326.75 189.17 234.82 149.15 215.38 162.75 280.82 221.93 326.75 189.17"/><polygon class="cls-3" points="226.77 258.32 191.38 240.62 181.66 248.99 217.12 280.33 226.77 258.32"/><polygon class="cls-3" points="250.69 292.69 257.06 328.98 244.69 336.33 226.44 292.53 250.69 292.69"/><path class="cls-4" d="M87.29,341.93C6.24,343,8.56,248.59,25.36,207.86c4.78-11.58,11.93-28.53,11.93-28.53l5.21-14.92C-48.56,291.91,27.93,360,88.62,361.84,133.39,363.17,229,298.46,229,298.46L225,287l-12.58-9.73S137.72,341.27,87.29,341.93Z"/></g></g></svg>