<svg xmlns="http://www.w3.org/2000/svg" viewBox="0 0 359.66 403.61"><defs><style>.cls-1,.cls-5{fill:#fff;}.cls-1{stroke:#232161;stroke-miterlimit:10;}.cls-1,.cls-4{stroke-width:8px;}.cls-2{fill:#f69ba0;}.cls-3{fill:#232161;}.cls-4{fill:none;stroke:#fff;stroke-linecap:round;stroke-linejoin:round;}</style></defs><title>Asset 11</title><g id="Layer_2" data-name="Layer 2"><g id="USP"><path class="cls-1" d="M183.4,160.11s7.24-10.54,18.09-10.54c7.55,0,22.65,7.39,20.44,23.9-1.73,10.7-25.89,33.27-38.53,37.59-7.72-3.33-39.69-22.72-38.37-42.3C146.29,150,171.13,142.33,183.4,160.11Z"/><path class="cls-1" d="M287.23,159.35s7.23-10.54,18.08-10.54c7.55,0,22.65,7.4,20.45,23.91-1.73,10.69-25.9,33.27-38.53,37.59-7.73-3.33-39.7-22.72-38.38-42.31C250.11,149.29,275,141.58,287.23,159.35Z"/><path class="cls-1" d="M82.09,162.46s7.23-10.54,18.08-10.54c7.55,0,22.65,7.4,20.45,23.91-1.73,10.69-25.9,33.27-38.53,37.59-7.72-3.34-39.69-22.72-38.38-42.31C45,152.4,69.82,144.69,82.09,162.46Z"/><path class="cls-2" d="M307.29,300.55c49.21-75,52.37-155.29,52.37-155.29V46c0-5-3.21-9.31-7.65-10.24L181.29,0,8.8,33.76C4.32,34.64,1.62,39,1,44-.5,57.41.12,103.06.12,142.15,8.53,303,123.39,380.78,181.29,403.61c15-6,50.44-29.38,62.26-38.39"/><circle class="cls-3" cx="287.39" cy="304.69" r="56.68"/><path class="cls-4" d="M255.13,310.68l12.57,12.56a3.72,3.72,0,0,0,5.27,0l43-43"/><path class="cls-5" d="M183.4,147.66s7.24-10.54,18.09-10.54c7.55,0,22.65,7.39,20.44,23.9-1.73,10.7-25.89,33.27-38.53,37.59-7.72-3.33-39.69-22.72-38.37-42.3C146.29,137.59,171.13,129.88,183.4,147.66Z"/><path class="cls-5" d="M287.23,146.9s7.23-10.54,18.08-10.54c7.55,0,22.65,7.4,20.45,23.91-1.73,10.69-25.9,33.27-38.53,37.59-7.73-3.33-39.7-22.72-38.38-42.31C250.11,136.84,275,129.13,287.23,146.9Z"/><path class="cls-5" d="M82.09,150s7.23-10.54,18.08-10.54c7.55,0,22.65,7.39,20.45,23.91-1.73,10.69-25.9,33.27-38.53,37.59-7.72-3.34-39.69-22.73-38.38-42.31C45,139.94,69.82,132.24,82.09,150Z"/></g></g></svg>