<svg xmlns="http://www.w3.org/2000/svg" viewBox="0 0 372.86 435.95"><defs><style>.cls-1{fill:#fabbaf;}.cls-2{fill:none;stroke:#070668;stroke-miterlimit:10;stroke-width:8px;}.cls-3{fill:#070668;}</style></defs><title>Asset 53</title><g id="Layer_2" data-name="Layer 2"><g id="USP"><path class="cls-1" d="M177.06,29.66c4.29-2.71,21.16-24,45.9,2.51,6.09,4.3,17.21,6.09,26.89.72s30.83,3.22,33,17.92c1.79,5,10.4,15.78,20.8,15.42s30.83,6.1,29,31.19c.11,5.15,1.43,18.29,13.62,23.31S369.24,139,359.92,157.3s-.12,25.46,3.53,31.55,16.55,19.72-5.32,38.72c-5,4.66-12.55,15.06-8.61,25.46s3.23,29.82-17.93,35.89-19.36,14.66-21.15,22.55-6.81,23.31-29.76,22.95C269.5,333,259.89,333.7,252,345.53c-6.32,9.49-17.56,16.56-29.17,12.92-4.62-1.44-8.79-4-13.16-6.07s-9.15-3.74-14-3.21c-6.32.71-10,5.51-15.63,7.56A34.37,34.37,0,0,1,169.82,359c-10.71.48-21.25-5.83-26.46-15.21-1.79-3.23-8.61-12.91-24-9.68-13,2.73-26.74-5-31.82-17.54-5.61-13.92-3.23-24.15-21.61-27.6A24.85,24.85,0,0,1,46.11,271a27.71,27.71,0,0,1-.48-12.22c1.12-6.12,4.55-10.62,3.51-17.28a21.65,21.65,0,0,0-7.45-13.13c-3.85-3.2-8.16-5-11-9.29a24.73,24.73,0,0,1-4.15-8.95c-1.73-9,4.44-17.79,9.63-24.53,7.16-13.57,3.94-19.36-1.44-32.62s5.38-29.76,16.14-32.27c13.26-6.1,13.45-17.15,13.62-31.19.17-13.35,11.56-24.39,29-23,13.72-.09,18.29-8,21.51-18.9,5.38-12.65,18.81-17.91,32.63-15.16C163.7,35.72,167.13,36,177.06,29.66Z"/><polyline class="cls-1" points="147.53 339.51 97.08 432.07 77.65 375.09 23.17 384.12 75.04 286.78"/><polyline class="cls-1" points="248.64 340.18 250.6 344.1 299 432.66 318.37 375.66 372.86 384.62 320.25 286.19"/><polyline class="cls-2" points="233.1 333.47 235.07 337.4 283.47 425.96 302.83 368.95 357.33 377.91 304.72 279.48"/><polyline class="cls-2" points="131.71 333.47 81.26 426.04 61.83 369.06 7.34 378.09 59.22 280.74"/><path class="cls-2" d="M129.55,337.42"/><line class="cls-2" x1="59.22" y1="280.74" x2="62.79" y2="274.04"/><path class="cls-2" d="M163.06,14.66c4.29-2.71,21.16-24,45.9,2.51,6.09,4.3,17.21,6.09,26.89.72s30.83,3.22,33,17.92c1.79,5,10.4,15.78,20.8,15.42s30.83,6.1,29,31.19c.11,5.15,1.43,18.29,13.62,23.31S355.24,124,345.92,142.3s-.12,25.46,3.53,31.55,16.55,19.72-5.32,38.72c-5,4.66-12.55,15.06-8.61,25.46s3.23,29.82-17.93,35.89-19.36,14.66-21.15,22.55-6.81,23.31-29.76,22.95C255.5,318,245.89,318.7,238,330.53c-6.32,9.49-17.56,16.56-29.17,12.92-4.62-1.44-8.79-4-13.16-6.07s-9.15-3.74-14-3.21c-6.32.71-10,5.51-15.63,7.56A34.37,34.37,0,0,1,155.82,344c-10.71.48-21.25-5.83-26.46-15.21-1.79-3.23-8.61-12.91-24-9.68-13,2.73-26.74-5-31.82-17.54-5.61-13.92-3.23-24.15-21.61-27.6A24.85,24.85,0,0,1,32.11,256a27.71,27.71,0,0,1-.48-12.22c1.12-6.12,4.55-10.62,3.51-17.28a21.65,21.65,0,0,0-7.45-13.13c-3.85-3.2-8.16-5-11-9.29a24.73,24.73,0,0,1-4.15-8.95c-1.73-9,4.44-17.79,9.63-24.53,7.16-13.57,3.94-19.36-1.44-32.62s5.38-29.76,16.14-32.27c13.26-6.1,13.45-17.15,13.62-31.19.17-13.35,11.56-24.39,29-23,13.72-.09,18.29-8,21.51-18.9,5.38-12.65,18.81-17.91,32.63-15.16C149.7,20.72,153.13,21,163.06,14.66Z"/><path class="cls-3" d="M105.11,146.93v60.86H91V158.23H78.85v-11.3Z"/><path class="cls-3" d="M115.72,177.36c0-20.09,11.13-31.48,26.08-31.48s26.08,11.39,26.08,31.48-11,31.47-26.08,31.47S115.72,197.44,115.72,177.36Zm38,0c0-13.83-4.87-19.56-11.91-19.56S130,163.53,130,177.36s4.86,19.56,11.82,19.56S153.71,191.18,153.71,177.36Z"/><path class="cls-3" d="M174.76,177.36c0-20.09,11.12-31.48,26.08-31.48s26.08,11.39,26.08,31.48-11,31.47-26.08,31.47S174.76,197.44,174.76,177.36Zm38,0c0-13.83-4.87-19.56-11.91-19.56S189,163.53,189,177.36s4.87,19.56,11.83,19.56S212.75,191.18,212.75,177.36Z"/><path class="cls-3" d="M232.75,163c0-10.26,6.26-16.78,15.13-16.78s15,6.44,15,16.78-6.17,16.78-15,16.78S232.75,173.27,232.75,163Zm21.48,0c0-6.52-2.52-9.65-6.35-9.65s-6.35,3.22-6.35,9.65,2.61,9.65,6.35,9.65S254.23,169.53,254.23,163Zm29.91-16.08h10.34l-41.56,60.86H242.58Zm-10,44.77c0-10.26,6.26-16.78,15-16.78s15.13,6.52,15.13,16.78-6.26,16.78-15.13,16.78S274.14,202,274.14,191.7Zm21.38,0c0-6.43-2.52-9.65-6.34-9.65s-6.35,3.13-6.35,9.65,2.61,9.65,6.35,9.65S295.52,198.14,295.52,191.7Z"/><polygon class="cls-3" points="127.15 85.17 138.91 86.44 130.75 95.01 133.19 106.58 122.52 101.47 112.26 107.37 113.82 95.64 105.05 87.7 116.68 85.56 121.52 74.77 127.15 85.17"/><polygon class="cls-3" points="190.97 57.63 202.73 58.89 194.58 67.46 197.01 79.04 186.34 73.92 176.08 79.82 177.64 68.09 168.87 60.16 180.5 58.02 185.34 47.22 190.97 57.63"/><polygon class="cls-3" points="251.59 84.97 263.36 86.24 255.2 94.81 257.64 106.38 246.97 101.27 236.71 107.17 238.27 95.44 229.49 87.5 241.13 85.36 245.97 74.57 251.59 84.97"/><polygon class="cls-3" points="125.78 261.96 137.55 263.23 129.39 271.8 131.83 283.38 121.16 278.26 110.89 284.16 112.46 272.43 103.68 264.49 115.32 262.36 120.16 251.56 125.78 261.96"/><polygon class="cls-3" points="191.23 291.15 202.99 292.41 194.83 300.98 197.27 312.56 186.6 307.45 176.34 313.34 177.9 301.61 169.13 293.68 180.76 291.54 185.6 280.74 191.23 291.15"/><polygon class="cls-3" points="251.04 261.76 262.81 263.03 254.65 271.6 257.08 283.18 246.41 278.06 236.15 283.96 237.72 272.23 228.94 264.29 240.58 262.16 245.41 251.36 251.04 261.76"/></g></g></svg>