<svg xmlns="http://www.w3.org/2000/svg" viewBox="0 0 112 112"><defs><style>.cls-1{fill:#fcc;}.cls-2{fill:#f99;stroke:#f99;stroke-miterlimit:10;stroke-width:1.66px;}.cls-3{fill:none;stroke:#336;stroke-linecap:round;stroke-linejoin:round;stroke-width:2px;}</style></defs><title>Asset 193</title><g id="Layer_2" data-name="Layer 2"><g id="_5_categories" data-name="5 categories"><circle class="cls-1" cx="56" cy="56" r="56"/><path class="cls-2" d="M56.19,90.6l-3.42-2.12C49.66,86.54,22.35,69,22.36,49.75c0-9.18,5.79-16.61,14.39-18.49,6.06-1.34,14.83,2,20,13.25,5.45-11.24,12.74-14.8,18.91-13.65,9,1.67,15.17,9.18,15.44,18.67,0,22-28.13,37.51-31.34,39.19Z"/><path class="cls-1" d="M62.58,34.74h23a.89.89,0,0,1,.89,1l-4.7,38a3,3,0,0,1-3,2.62h-9a3,3,0,0,1-3-2.58L61.69,35.75A.89.89,0,0,1,62.58,34.74Z"/><path class="cls-3" d="M59.17,33h23a.89.89,0,0,1,.89,1l-4.7,38a3,3,0,0,1-3,2.62h-9a3,3,0,0,1-3-2.58L58.29,34.05A.89.89,0,0,1,59.17,33Z"/><line class="cls-3" x1="59.08" y1="39.84" x2="82.29" y2="39.84"/><path class="cls-1" d="M68.21,75.7h11.5a0,0,0,0,1,0,0v1.08A5.75,5.75,0,0,1,74,82.53h0a5.75,5.75,0,0,1-5.75-5.75V75.7A0,0,0,0,1,68.21,75.7Z"/><path class="cls-3" d="M65.21,74.7h11.5a0,0,0,0,1,0,0v1.08A5.75,5.75,0,0,1,71,81.53h0a5.75,5.75,0,0,1-5.75-5.75V74.7A0,0,0,0,1,65.21,74.7Z"/><path class="cls-1" d="M50.3,42.9v.93c0,5.59,8.38.93,8.38,9.31V79.68a4.22,4.22,0,0,1-4.22,4.22H36.82a4.22,4.22,0,0,1-4.22-4.22V52.45C32.6,44.7,41,49,41,43.6l.08-1.27"/><rect class="cls-1" x="40.05" y="35.46" width="11.18" height="7.45"/><path class="cls-3" d="M46.57,42c0,5.59,8.38.93,8.38,9.31V77.82A4.22,4.22,0,0,1,50.73,82H33.09a4.22,4.22,0,0,1-4.22-4.22V50.59c0-7.75,8.41-3.45,8.41-8.85"/><rect class="cls-3" x="36.32" y="33.6" width="11.18" height="7.45"/></g></g></svg>