<svg xmlns="http://www.w3.org/2000/svg" viewBox="0 0 471.58 361.67"><defs><style>.cls-1{fill:#fabbaf;}.cls-2,.cls-4{fill:none;}.cls-3{fill:#fff;}.cls-4{stroke:#070668;stroke-linecap:round;stroke-linejoin:round;stroke-width:8px;}.cls-5{fill:#070668;}</style></defs><title>Asset 55</title><g id="Layer_2" data-name="Layer 2"><g id="USP"><path class="cls-1" d="M346.1,241.12s-16.35,19.4-34.29,32.78a6.88,6.88,0,0,0,4.11,12.42c31.71-.09,69.94-.65,91.78-1a6.88,6.88,0,0,0,4.54-11.95c-11-10.11-26-24.6-32.6-34.29A154,154,0,0,0,346.1,241.12Z"/><path class="cls-1" d="M264.18,111.29c5.29-74.86,60.27-105.5,116.23-99.37,1.26.14,2.51.21,3.76.46,16.47,3.22,55.61,24.11,69.78,53l8.26,18.23s11.75,34,8.94,128.31c0,1.69-2.3,7-3.25,8.47-7.36,11.34-17.32,18.54-41.53,30.32L307.5,252.56l-4.88-59-7.73-40.68-12.81-3.56-1.83-18.41-15.87.81Z"/><path class="cls-2" d="M299.57,89s78.8,33.51,128.24,3.13c4,15.06,18.47,82.81-65.95,122.86C302.71,186.89,287.81,167.83,299.57,89Z"/><path class="cls-3" d="M298.15,85.76s74.24,23.9,132.22,3.25c10.57,30.11,4,100.45-68.76,128.15C298.55,197.64,284.65,144.46,298.15,85.76Z"/><path class="cls-4" d="M396.39,65.36l11.35,30.89,24.39-12.52c23.76,87.13-44.36,125.94-70.5,135.45q-4.67-1.43-8.95-3s-38.26-9.55-51.28-44.54"/><path class="cls-5" d="M368.22,183.17a13.91,13.91,0,0,0-5.69,4.07,13.91,13.91,0,0,0-5.69-4.07c-2.9-1-6.45-.57-8.54,1.69-2.58,2.79-2.12,7.43,0,10.58s5.54,5.16,8.84,7.08l3.71,2.16a3.82,3.82,0,0,0,3.32,0l3.72-2.16c3.29-1.92,6.69-3.93,8.83-7.08s2.61-7.79,0-10.58C374.68,182.6,371.12,182.15,368.22,183.17Z"/><path class="cls-4" d="M367,99.15S317.13,97.66,296.78,80c-.9,3.42-3.13,12.93-4.32,20.18"/><path class="cls-4" d="M427.29,258.77c26.13-17.82,26.61-19.16,34.79-32.88,1.05-1.76,3.69-8.2,3.61-10.25-4.05-104.82-10-142.65-10-142.65C444.72-14.6,273.51-33.52,266.54,103.85"/><path class="cls-1" d="M16,122.64C10.34,203.09,135.42,329.19,196.7,350.47c2.44.84,5.16.5,6.7-1.54a97,97,0,0,0,24.45-43.38c7.91-31-2.21-73.53-2.72-84.06-.19-3.83-6-4.82-10-5.12-12.81-1-29.66-5.45-39.59-9.09-38.39-14.09-50.3-69.45-50.3-69.45s-5.36-26-2.34-37.22c.1-.4,5.59-7.39,5.84-7.73,17.45-23.7,53.62-23.3,73.71-23.65,6.23-.11,6.12-3.78,4.11-8.1C166.23-25.36,25-4.9,16,122.64Z"/><path class="cls-4" d="M217.1,312.22c-10.88,33.08-39.87,45.45-39.87,45.45C69.15,315.7,3.52,175,4,133.52,4.51,90.4,22.69,31,71.69,12.8c46.36-17.2,80.57-1.63,80.57-1.63,67.56,25.7,64.46,93.24,64.46,93.24l26.6,25.2"/><path class="cls-4" d="M207.79,208.32C185.45,207,155.25,210.68,143,197.5c-25.4-27.23-36.29-65.5-39.68-85.65,0,0,4.37-41.87,31.53-66.08"/><path class="cls-4" d="M194.84,58.17s-69.53-23.44-87.33,69.17"/><path class="cls-4" d="M241.63,351.1l1-47.23s.34-12.94-7-23.88-16.59-32.19-15.27-54.42,11.35-74.93,16.59-81.29a27.5,27.5,0,0,1,7.41-6.41"/><path class="cls-4" d="M241,209s3.17-69.54,4.64-78c1.33-7.63,9.29-15.93,14.6-8.3,4.16,6,3.32,76.65,4.31,86.27"/><path class="cls-4" d="M263.2,142.29s2-10.62,6.3-11.61c4.87-1.11,10.62-1.33,10.95,20.57s0,62.05,0,62.05"/><path class="cls-4" d="M281.23,157.55s.77-7.3,6.66-7.06c4.95.21,6.61,5.19,10.14,22.66,4.68,23.12,3,40.81,3.65,44.46s4.65,9.62,6.64,22.56-6,48.77-8.29,55.08,1,53.2,1,53.2"/><path class="cls-4" d="M387.69,232.85s.85,25.88,38.09,47.45"/><path class="cls-4" d="M343.39,234.27s-1.19,28.13-41.89,51.21"/></g></g></svg>