<svg xmlns="http://www.w3.org/2000/svg" width="24.329" height="20.475" viewBox="0 0 24.329 20.475">
  <g id="shoping_cart" transform="translate(-334.671 -47.768)">
    <path id="Union_11" data-name="Union 11" d="M-428.6,20.475h-11.314a1.966,1.966,0,0,1-1.82-1.586l-1.384-7.5h-.449A1.434,1.434,0,0,1-445,9.95V9.359a1.434,1.434,0,0,1,1.435-1.435h19.455a1.44,1.44,0,0,1,1.439,1.43v.591a1.434,1.434,0,0,1-1.435,1.435h-.729l-1.394,7.509a1.965,1.965,0,0,1-1.82,1.586Zm-2.278-7.353v4.539a.81.81,0,0,0,.811.812.81.81,0,0,0,.812-.812V13.122a.81.81,0,0,0-.812-.811A.81.81,0,0,0-430.876,13.122Zm-2.6,0v4.539a.81.81,0,0,0,.811.812.81.81,0,0,0,.812-.812V13.122a.81.81,0,0,0-.812-.811A.828.828,0,0,0-433.48,13.122Zm-2.618,0v4.539a.81.81,0,0,0,.812.812.81.81,0,0,0,.811-.812V13.122a.828.828,0,0,0-.811-.811A.81.81,0,0,0-436.1,13.122Zm-2.6,0v4.539a.81.81,0,0,0,.812.812.811.811,0,0,0,.811-.812V13.122a.81.81,0,0,0-.811-.811A.81.81,0,0,0-438.7,13.122Zm-1.609-5.705,2.9-6.842c.234-.554.752-.736,1.156-.415a1.421,1.421,0,0,1,.3,1.586l-2.4,5.671Zm11,0-2.4-5.666a1.413,1.413,0,0,1,.3-1.586c.4-.328.922-.139,1.156.415l2.9,6.836Z" transform="translate(779.67 47.768)" fill="#7270af"/>
    <g id="Ellipse_10" data-name="Ellipse 10" transform="translate(347 50)" fill="#ec155a" stroke="#cad6ec" stroke-width="2">
      <circle cx="6" cy="6" r="6" stroke="none"/>
      <circle cx="6" cy="6" r="5" fill="none"/>
    </g>
  </g>
</svg>
