<svg xmlns="http://www.w3.org/2000/svg" viewBox="0 0 323.22 389.77"><defs><style>.cls-1{fill:#232161;}.cls-2{fill:#f69ba0;}</style></defs><title>Asset 17</title><g id="Layer_2" data-name="Layer 2"><g id="USP"><polygon class="cls-1" points="210.31 307.9 255.01 389.69 272.89 337.04 323.22 345.32 271.9 249.3 206.67 300.62 210.31 307.9"/><polygon class="cls-1" points="112.87 307.92 68.27 389.77 50.32 337.14 0 345.48 51.21 249.39 116.5 300.63 112.87 307.92"/><path class="cls-2" d="M143.81,9.84c4-2.5,19.54-22.18,42.39,2.32,5.63,4,15.89,5.63,24.83.66s28.48,3,30.46,16.56C243.15,34,251.1,44,260.7,43.62s28.48,5.63,26.82,28.81c.1,4.75,1.33,16.88,12.58,21.52s21.2,16.89,12.59,33.77-.11,23.51,3.25,29.14,15.29,18.21-4.91,35.76c-4.64,4.31-11.59,13.91-7.95,23.51s3,27.55-16.55,33.15S268.65,262.82,267,270.11s-6.29,21.52-27.48,21.19c-10.32-1.32-19.21-.66-26.49,10.26-5.84,8.76-16.22,15.3-26.94,11.94-4.26-1.34-8.12-3.69-12.15-5.62s-8.45-3.45-12.89-2.95c-5.85.65-9.28,5.08-14.44,7a31.36,31.36,0,0,1-9.47,2.06c-9.9.43-19.63-5.39-24.44-14-1.66-3-8-11.92-22.19-8.94-12,2.52-24.69-4.59-29.38-16.2-5.19-12.86-3-22.3-20-25.49a23,23,0,0,1-18.29-16.53,25.43,25.43,0,0,1-.43-11.28c1-5.66,4.19-9.82,3.23-16a19.9,19.9,0,0,0-6.88-12.13c-3.56-3-7.54-4.66-10.16-8.59a22.71,22.71,0,0,1-3.84-8.26C3.2,168.2,8.9,160.1,13.68,153.88c6.62-12.53,3.64-17.88-1.32-30.13s5-27.48,14.9-29.8c12.25-5.63,12.42-15.84,12.58-28.81C40,52.82,50.52,42.63,66.66,44c12.67-.08,16.89-7.36,19.87-17.45,5-11.69,17.37-16.54,30.13-14C131.47,15.44,134.64,15.65,143.81,9.84Z"/><path class="cls-1" d="M90.29,132v56.22h-13V142.43H66V132Z"/><path class="cls-1" d="M100.09,160.1c0-18.55,10.28-29.07,24.09-29.07s24.09,10.52,24.09,29.07-10.2,29.07-24.09,29.07S100.09,178.65,100.09,160.1Zm35.09,0c0-12.77-4.5-18.07-11-18.07s-10.92,5.3-10.92,18.07,4.5,18.07,10.92,18.07S135.18,172.87,135.18,160.1Z"/><path class="cls-1" d="M154.61,160.1c0-18.55,10.28-29.07,24.09-29.07s24.1,10.52,24.1,29.07-10.2,29.07-24.1,29.07S154.61,178.65,154.61,160.1Zm35.1,0c0-12.77-4.5-18.07-11-18.07s-10.92,5.3-10.92,18.07,4.5,18.07,10.92,18.07S189.71,172.87,189.71,160.1Z"/><path class="cls-1" d="M208.17,146.85c0-9.48,5.79-15.5,14-15.5S236,137.29,236,146.85s-5.7,15.5-13.89,15.5S208.17,156.32,208.17,146.85Zm19.84,0c0-6-2.33-8.92-5.86-8.92s-5.87,3-5.87,8.92,2.41,8.91,5.87,8.91S228,152.87,228,146.85ZM255.63,132h9.56L226.8,188.21h-9.55Zm-9.23,41.36c0-9.48,5.78-15.5,13.89-15.5s14,6,14,15.5-5.79,15.5-14,15.5S246.4,182.83,246.4,173.35Zm19.76,0c0-5.94-2.33-8.92-5.87-8.92s-5.86,2.9-5.86,8.92,2.41,8.91,5.86,8.91S266.16,179.29,266.16,173.35Z"/><polygon class="cls-1" points="110.64 74.97 121.51 76.13 113.98 84.05 116.22 94.74 106.37 90.02 96.89 95.46 98.34 84.63 90.23 77.3 100.98 75.33 105.45 65.36 110.64 74.97"/><polygon class="cls-1" points="169.59 49.52 180.45 50.69 172.92 58.6 175.16 69.3 165.31 64.58 155.84 70.02 157.28 59.19 149.17 51.86 159.92 49.89 164.39 39.91 169.59 49.52"/><polygon class="cls-1" points="225.58 74.78 236.44 75.95 228.91 83.86 231.16 94.56 221.3 89.84 211.82 95.28 213.27 84.45 205.16 77.12 215.91 75.14 220.38 65.17 225.58 74.78"/><polygon class="cls-1" points="109.39 238.24 120.25 239.4 112.72 247.32 114.97 258.01 105.11 253.29 95.64 258.74 97.08 247.9 88.97 240.57 99.72 238.6 104.19 228.63 109.39 238.24"/><polygon class="cls-1" points="169.82 265.19 180.69 266.36 173.16 274.27 175.4 284.96 165.55 280.24 156.07 285.69 157.52 274.86 149.41 267.53 160.16 265.55 164.63 255.58 169.82 265.19"/><polygon class="cls-1" points="225.06 238.05 235.93 239.22 228.4 247.13 230.65 257.83 220.79 253.11 211.31 258.55 212.76 247.72 204.65 240.39 215.4 238.41 219.87 228.44 225.06 238.05"/></g></g></svg>