<svg xmlns="http://www.w3.org/2000/svg" viewBox="0 0 112 112"><defs><style>.cls-1{fill:#ffe5e5;}.cls-2{fill:#fcc;}.cls-3{fill:none;stroke:#9999b2;stroke-linecap:round;stroke-linejoin:round;stroke-width:2px;}.cls-4{fill:#9999b2;}</style></defs><title>Asset 190</title><g id="Layer_2" data-name="Layer 2"><g id="_5_categories" data-name="5 categories"><circle class="cls-1" cx="56" cy="56" r="56"/><rect class="cls-2" x="38.57" y="54.83" width="41.55" height="26.61"/><polyline class="cls-2" points="49.46 55.37 49.46 33.31 69.3 33.31 69.34 55.29"/><polygon class="cls-2" points="69.89 36.35 81.62 39.85 77.36 54.38 76.71 56.56 66.72 56.26 66.92 36.28 68 35.39 69.89 36.35"/><polygon class="cls-2" points="41.29 55.57 36.53 39.59 50.3 35.39 53.16 56.26 41.29 55.57"/><rect class="cls-3" x="34.35" y="52.72" width="41.55" height="26.61"/><rect class="cls-3" x="63.17" y="62.42" width="12.65" height="8.65"/><polyline class="cls-3" points="45.24 52.25 45.24 31.2 65.08 31.2 65.12 52.17"/><polyline class="cls-3" points="65.67 34.24 77.4 37.74 73.14 52.27"/><polyline class="cls-3" points="44.97 33.66 32.31 37.48 36.57 52.01"/><path class="cls-4" d="M60.87,46.27h-.65A4.1,4.1,0,0,1,60,47.38a2.28,2.28,0,0,1-.61.81,2.76,2.76,0,0,1-.64.43,1.62,1.62,0,0,1-.6.14.73.73,0,0,1-.53-.22A.78.78,0,0,1,58,47.23a1.38,1.38,0,0,0,1-1H56.48c-.14.5-.27.9-.38,1.2a2.65,2.65,0,0,1-.49.8,2.42,2.42,0,0,1-.8.58,2.61,2.61,0,0,1-1,.2,2.78,2.78,0,0,1-1.3-.32,2.67,2.67,0,0,1-1-1,3.52,3.52,0,0,1-.45-1.5H49.53A1.57,1.57,0,0,1,49,46.2a.3.3,0,0,1-.16-.31.34.34,0,0,1,.13-.31.76.76,0,0,1,.41-.09H51a4,4,0,0,1,.34-1.24,3,3,0,0,1,.63-.89,2.63,2.63,0,0,1,.79-.52,2,2,0,0,1,.81-.17.76.76,0,0,1,.53.22.81.81,0,0,1,.23.57.76.76,0,0,1-.13.46.62.62,0,0,1-.36.27,6.49,6.49,0,0,0-.76.28,1.41,1.41,0,0,0-.48.37,1.6,1.6,0,0,0-.34.65h2.83a8,8,0,0,1,.5-1.36,2.42,2.42,0,0,1,.79-.89,2.38,2.38,0,0,1,1.31-.34,2.32,2.32,0,0,1,1.72.67,3,3,0,0,1,.78,1.92h.64q.51,0,.51.39C61.37,46.14,61.2,46.27,60.87,46.27Zm-6,0H52.23a1.7,1.7,0,0,0,.49.94,1.24,1.24,0,0,0,.87.34,1,1,0,0,0,.82-.33A2.54,2.54,0,0,0,54.89,46.27Zm1.81-.78H59a2,2,0,0,0-.4-.79,1,1,0,0,0-.76-.29.91.91,0,0,0-.72.27A2.51,2.51,0,0,0,56.7,45.49Z"/><circle class="cls-4" cx="67.24" cy="66.72" r="1.72"/></g></g></svg>