<?xml version="1.0" encoding="utf-8"?>
<!-- Generator: Adobe Illustrator 16.0.0, SVG Export Plug-In . SVG Version: 6.00 Build 0)  -->
<!DOCTYPE svg PUBLIC "-//W3C//DTD SVG 1.1//EN" "http://www.w3.org/Graphics/SVG/1.1/DTD/svg11.dtd">
<svg version="1.1" id="Layer_1" xmlns="http://www.w3.org/2000/svg" xmlns:xlink="http://www.w3.org/1999/xlink" x="0px" y="0px"
	 width="298.667px" height="121px" viewBox="0 0 298.667 121" enable-background="new 0 0 298.667 121" xml:space="preserve">
<g>
	<path fill-rule="evenodd" clip-rule="evenodd" fill="#010101" d="M43.531,46.438c-3.99,0.237-7.971,0.605-12.631,0.97
		c3.117-6.982,6.128-13.468,8.903-20.068c1.027-2.442,2.612-3.548,5.129-3.785c6.45-0.601,12.887-1.582,19.385-0.676
		c2.199,0.304,2.827-0.096,2.074-2.462c-1.793-5.645-4.027-7.131-10.328-6.405c-11.311,1.304-22.633,2.271-34.035,1.876
		c-1.355-0.042-3.122-1.098-3.954,0.528c-0.937,1.821-0.892,3.928,0.118,5.832c1.019,1.926,2.82,3.239,4.807,3.29
		c3.485,0.088,3.092,1.916,2.401,4.134c-1.638,5.208-3.458,10.369-4.877,15.633c-0.92,3.411-2.469,5.589-6.24,5.953
		c-1.135,0.107-3.012,0.238-3.257,1.659c-0.26,1.49,1.092,2.733,2.364,3.294c2.588,1.154,2.133,2.748,1.313,4.796
		c-2.821,7.078-5.481,14.212-8.283,21.296C3.92,88.624,5.22,92.196,11.26,95.428c2.235,1.196,3.579,1.659,4.189-1.808
		c2.008-11.365,5.656-22.272,9.914-32.987c0.69-1.744,1.422-2.754,3.526-3.069c5.703-0.852,11.369-1.783,17.169-1.632
		c1.438,0.032,3.483,1.142,4.26-0.696c0.77-1.823,0.515-3.955-0.538-5.833C48.398,46.914,46.109,46.289,43.531,46.438z"/>
	<path fill-rule="evenodd" clip-rule="evenodd" fill="#010101" d="M176.176,47.786c-0.191-3.828-2.605-3.593-5.101-3.163
		c-3.633,0.617-4.264-0.646-2.874-3.832c1.614-3.682,2.813-7.557,4.541-11.18c2.331-4.897,4.303-10.101,9.04-13.405
		c0.392,0.977,0.784,1.948,1.176,2.92l0.003-0.004l-0.003,0.004c0.664,3.592,1.325,7.185,2.088,11.347
		c2.281-1.723,3.228-3.634,3.978-5.594c1.343-3.481,2.394-7.081,3.817-10.523c1.455-3.521-0.608-3.626-3.062-3.491
		c-1.864,0.103-3.338,1.641-5.359,1.4c-6.833-0.815-11.914,2.497-16.288,7.217c-4.459,4.813-7.977,10.381-9.92,16.552
		c-1.991,6.304-4.356,11.33-12.047,11.161c-0.799-0.011-2.272,0.129-1.853,1.696c0.339,1.274,1.434,1.181,2.475,1.078
		c0.719-0.076,1.45-0.04,2.154-0.174c3.735-0.724,4.668,0.356,3.581,4.226c-4.881,17.299-9.551,34.655-12.291,52.463
		c-0.384,2.473,3.135,9.149,5.732,10.702c4.581-19.786,10.695-39.083,16.834-58.376c2.642-8.308,2.633-8.364,11.071-8.607
		C175.718,50.146,176.279,49.824,176.176,47.786z"/>
	<path fill-rule="evenodd" clip-rule="evenodd" fill="#010101" d="M212.934,43.805c-1.96-0.311-3.291,0.117-4.444,1.706
		c-2.226,3.044-3.867,6.366-5.214,9.874c-4.038,10.51-11.094,19.071-18.087,27.656c-0.491,0.606-1.069,1.398-2.248,1.107
		c-0.986-2.239-0.191-4.457,0.318-6.629c2.502-10.605,7.22-20.27,12.727-29.572c2.955-4.998,2.191-6.491-3.703-7.311
		c-2.71-0.377-3.997,1.4-5.281,3.023c-8.397,10.61-13.361,22.694-15.114,36.106c-0.355,2.753,0.456,5.098,2.39,7.086
		c4.867,4.999,9.289,4.746,13.608-0.848c2.727-3.537,5.375-7.121,8.6-11.406c0.384,10.645,3.412,14.163,13.133,15.416
		c-3.964-8.032-2.241-15.374,0.704-22.551c2.184-5.314,4.714-10.478,7.084-15.711C220.059,45.895,219.406,44.838,212.934,43.805z"/>
	<path fill-rule="evenodd" clip-rule="evenodd" fill="#010101" d="M91.756,48.585c-3.506-1.509-4.655-0.084-6.017,2.846
		c-3.701,7.96-7.885,15.682-12.779,22.988c-2.008,2.999-4.092,5.946-6.885,8.283c-1.082,0.909-2.338,2.323-3.738,1.678
		c-1.708-0.78-1.319-2.725-1.001-4.267c2.632-12.916,8.835-23.318,21.084-29.276c1.806-0.884,1.964-1.515,1.003-3.159
		c-3.384-5.804-7.3-6.958-12.801-2.909c-9.71,7.156-15.143,17.091-17.643,28.76c-0.868,4.051-0.838,8.028,0.834,11.865
		c2.392,5.494,6.529,6.696,11.368,3.229c4.903-3.5,8.244-8.383,11.401-13.402c0.298,0.618,0.603,1.229,0.902,1.846
		c-0.171,2.86-0.899,5.696-0.358,8.599c0.87,4.725,6.236,6.771,10.021,3.791c0.615-0.48,0.904-0.865,0.386-1.723
		c-2.533-4.185-1.574-8.628-0.736-13.016c1.286-6.823,3.619-13.318,6.439-19.637C94.42,52.437,95.677,50.268,91.756,48.585z"/>
	<path fill-rule="evenodd" clip-rule="evenodd" fill="#010101" d="M260.082,9.969c-2.71-2.431-5.792-4.71-9.344-5.044
		c-2.355-0.223-3.227,2.965-4.348,4.865c-11.01,18.729-18.171,39.016-23.957,59.848c-1.583,5.706-2.75,11.493-1.61,17.466
		c0.812,4.254,3.674,6.736,7.625,9.21c0.154-5.712,0.448-10.694,1.536-15.586c5.456-24.507,13.827-47.751,29.426-67.866
		C260.038,12.047,261.419,11.16,260.082,9.969z"/>
	<path fill-rule="evenodd" clip-rule="evenodd" fill="#010101" d="M139.582,40.679c-2.292-0.887-2.949,0.467-3.526,2.384
		c-0.996,3.291-2.115,6.56-3.409,9.757c-4.677,11.561-11.293,21.855-20.78,30.388c0.353-1.817,0.729-3.632,1.055-5.455
		c1.616-9.115,0.998-18.389,1.854-27.55c0.519-5.505-1.836-7.62-7.234-5.879c-3.479,1.122-4.346,3.875-4.341,7.14
		c0.025,11.631,0.916,23.324-3.175,34.615c-0.939,2.586,0.99,4.561,3.017,6.18c2.161,1.729,3.7,0.345,5.323-0.841
		c13.137-9.593,23.224-21.825,30.937-36.064c1.781-3.288,2.781-6.918,3.596-10.584C143.538,41.896,141.453,41.403,139.582,40.679z"
		/>
	<path fill-rule="evenodd" clip-rule="evenodd" fill="#EA215D" d="M288.052,60.745c-4.565-3.785-9.512-3.603-13.644,0.354
		c-2.273,2.185-2.993,2.412-5.249,0.034c-3.087-3.244-7.234-4.036-11.466-1.86c-3.769,1.93-6.026,4.962-6.242,9.469
		c0.102,0.739,0.077,1.652,0.351,2.463c3.222,9.47,11.443,14.021,19.061,19.11c0.505,0.339,1.743,0.084,2.356-0.318
		c6.607-4.317,13.366-8.523,17.31-15.729C293.321,69.173,292.575,64.492,288.052,60.745z"/>
</g>
</svg>
