<svg xmlns="http://www.w3.org/2000/svg" xmlns:xlink="http://www.w3.org/1999/xlink" width="455.345" height="469.163" viewBox="0 0 455.345 469.163">
  <defs>
    <clipPath id="clip-path">
      <path id="Path_438" data-name="Path 438" d="M245.467,182.989c55.637-5.154,23-29.024,68.868-.106,23.329,14.706,45.373,36.755,46.85,64.293.793,14.815-4.529,29.268-5.572,44.067-1.994,28.263-41.468-76.189-32.523-49.306s12.4,59.539-6.251,80.868c-11.431,13.074-29.732,19.914-37.857,35.263-5.008,9.462-5.252,20.613-7.377,31.106-4.714,23.288,17.225,59.963-3.16,72.171s58.936-26.989,36.179-33.826c-20.786-6.245,43.727,22.844,22.178,20.269-28.932-3.459-55.82,14.42-84.466,19.75-29.343,5.46-63.4-5.082-77.674-31.3-6.836-12.554-9.274-28.308-20.518-37.136-7.568-5.942-17.576-7.406-26.912-9.734-40.957-10.212-75.9-41.933-90.013-81.714-5.213-14.693-7.675-31.012-2.855-45.837,5.526-17,65.643-10.022,75.6-24.866A101.429,101.429,0,0,0,117,178.95c-.212-10.965-2.17-22.272,1.305-32.672,3.187-9.535,10.548-17.026,18.036-23.734,63.852-57.2-6.073,30.094,77.926,47.2" transform="matrix(0.921, -0.391, 0.391, 0.921, -192.453, 5.492)" fill="#b9d4dd"/>
    </clipPath>
  </defs>
  <g id="header_girl" transform="translate(132.023 40.52)" clip-path="url(#clip-path)">
    <g id="Group_255" data-name="Group 255" transform="translate(-506.242 -123.801)">
      <path id="Path_86" data-name="Path 86" d="M-179.722-636.546s-72.508-52.035-28.009-81.226c23.024-8.825,13.707-39.716,13.707-39.716s-4.107-19.43,26.968-26.123c28.411-11.636-5.1-49.72-5.1-49.72s-9.68-15.458,14.968-31.361c1.292-.834,3.27-5.266,3.27-5.266a27.344,27.344,0,0,0,.6-5.561c-.433-28.44,27.694-34.146,27.694-34.146s22.948-24.382,43.824,3.984c28.685-.319,32.509,20.557,32.509,20.557s24.541,46.533,5.1,60.238,18.964,28.047,18.964,28.047S11.8-786.845.272-751.58c-6.375,20.725,31.394,41.752,31.394,41.752s49.911,34.593-45.258,69c-8.765-2.868-82.707-32.987-106.133,2.231S-179.722-636.546-179.722-636.546Z" transform="translate(685.342 1126.905)" fill="#7270af"/>
      <path id="Path_88" data-name="Path 88" d="M-442.777-123.569s16.375-2.883,17.643,15.683c-1.614,17.989,8.764,23.755,8.764,23.755s10.955,9.225,0,24.216c-14.3,32.865,4.151,39.9,4.151,39.9s20.6,8.981,29.927,21.661-2.591,26.552,6.122,39.464" transform="translate(1054.813 351.212)" fill="none" stroke="#8a89ca" stroke-width="2"/>
      <path id="Path_14" data-name="Path 14" d="M544.366,464.6l.184-1.292c.3.8.514,1.424,1.194,1.634,1.394,4.068.32,7.885-1.41,11.525-2.122,4.467-5.909,7.026-10.565,8.352-4.319,1.23-8.728,2.085-13.132,2.947a88.743,88.743,0,0,0-12.01,3.016,21.443,21.443,0,0,0-14.984,20.891c-.026,6.183,1.374,12.151,2.569,18.154,1.348,6.769,3.128,13.473,3.006,20.457a5.213,5.213,0,0,1-.947,3.633c-.718.018-1.019,1.072-1.871.754,1.491-7.028.024-13.837-1.437-20.67-1.77-8.273-3.992-16.543-3.187-25.1.833-8.846,5.54-15.188,13.612-18.925,7.05-3.264,14.776-4.025,22.218-5.835,2.14-.52,4.295-1.017,6.385-1.7,7.042-2.308,9.712-7.465,10.374-14.634C544.461,466.747,544.37,465.67,544.366,464.6Z" transform="translate(-16.263 -146.285)" fill="#6d6aab"/>
      <path id="Path_87" data-name="Path 87" d="M-646.624,216.976a137.14,137.14,0,0,1-30.489,15.882c-.727-.161-30.033,1.706-32.109,28.92s8.286,69.91,8.286,69.91,36.837,33.307,60.119-5.78c33.235-31.371,86.245-2.309,86.245-2.309s16.622,5.456,21.865,1.424c.928-.675,5.766-32.027,10.629-64.127,4.762-21.876.071-42.718-11.649-42.633-12.547-2.533-29.586-2.272-29.586-2.272s-26-2.252-25.9-5.562C-589.433,208.517-646.624,216.976-646.624,216.976Z" transform="translate(1208.295 159.858)" fill="#ff846b"/>
      <path id="Path_15" data-name="Path 15" d="M610.995,342.795c3.108-1.253,4.805,1.231,7.1,2.767.3-2.468.166-4.866,1.044-7.144,2.119-5.495,5.614-9.477,11.387-11.285,4.895-1.533,9.933-2.482,14.873-3.845,10.584-2.92,16.141-10.36,19.085-20.315a34.733,34.733,0,0,1,2.708-6.714,1.387,1.387,0,0,1,1.653-.879c6.714.807,9.209,3.086,11,9.977,1.264,4.863,3.5,9.038,8.183,11.109,3.536,1.565,4.837,4.179,5.541,7.628a94.356,94.356,0,0,1,2.08,21.616c-.184,6.386-.551,12.8-2.152,19.045-.127.5-.655,1.168.136,1.466.837.316,1.081-.441,1.284-1.057a3.614,3.614,0,0,1,3.834-2.758c.455-.28.611.181.882.357,1.741,1.266,2.335,2.952,1.055,4.719-1.094,1.511.248,2.619.177,3.916-.358.666.031,1.477-.408,2.128-3.348,7.708-6.322,15.565-9.4,23.38-1.323,3.92-2.652,7.838-3.717,11.839-.774,3.506-1,7.178-3.161,10.264a3.081,3.081,0,0,0-.262,1.871c-2.914,4.18-4.281,9.1-6.448,13.633-.791,1.656-1.332,3.459-2.15,5.106-3.182,6.414-2.128,12.87-.347,19.34.6,2.19,1.494,4.3,1.914,6.543q4.319,12.3,9.145,24.411c3.714,9.333,7.457,16.08,11.289,25.363,1.14,2.763,2.45,5.461,3.556,8.241.379.953,1.127,1.861.687,3.016-6.846-1.829-14.089-3.081-21.048-4.462a104.236,104.236,0,0,0-14.529-.355c-.42-2.154-.423-3.119-.751-4.326-2.7-9.9-5.021-17.345-7.334-27.337-1.317-5.687-2.454-11.414-3.68-17.121-.579-2.7-.683-2.662-3.376-2.5a44.256,44.256,0,0,1-4.913.024c-1.79-.092-2.707.706-3.282,2.363-3.221,9.28-6.542,18.526-9.615,27.857-1.18,3.583-2.679,7.057-3.618,10.722-.143.56-7.657,37.481-13.192,40.871-.242.069-8.418,5.72-26.465,0-4.3-1.224-11.908-4.966-12.443-6.3-1.056-2.627,23.2-33.741,22.676-36.562.786-2.052,1.373-4.2,2.758-5.977.887-1.072,7.151-16.49,7.447-17.144q4.888-10.82,9.89-21.59a98.372,98.372,0,0,1,6.616-13.615,25.752,25.752,0,0,0,3.324-13.257q.111-11.31,1.045-22.568c.125-1.5-.223-2.977-.148-4.474a4.5,4.5,0,0,1,.566-2.662c-2.838-13.412-8.335-25.839-14.143-38.15-.349-.742-.705-1.641-.339-2.257,1.047-1.759-.024-2.378-1.184-3.458-4.673-4.35-8.644-14.521-6.12-19.843C610.282,344,610.095,342.962,610.995,342.795Z" transform="translate(-65.254 -50.244)" fill="#d7b99f"/>
      <path id="Path_25" data-name="Path 25" d="M645.721,614.52c-.19-1.049-1.17-1.17-1.891-1.529a54.8,54.8,0,0,1-21.416-18.562,14.849,14.849,0,0,1-.96-2.084,81.067,81.067,0,0,0,8.358-3.392,51.85,51.85,0,0,1,6.257-2.9c3.627-2.139,3.827-2.084,6.823-3.815s5.1-3.1,8.027-4.969c1.29-.825,2.922-1.817,2.56-3.735-.9-4.793-1.94-9.594-1.881-14.522.027-2.3,1.316-3.1,3.386-1.93a2.5,2.5,0,0,0,1.761.4c.393,6.945-.267,13.849-.765,20.763-.174,2.413-.048,4.849-.037,7.274a67.952,67.952,0,0,1-.813,9.308,11.679,11.679,0,0,1-1.6,3.672C650.891,603.822,648.319,609.177,645.721,614.52Z" transform="translate(-90.517 -199.604)" fill="#d0b099"/>
      <path id="Path_26" data-name="Path 26" d="M581.387,368.361c6.759-5.705,12.094-12.429,14.4-21.119.931-3.51-.275-6.851-1.922-10.009-2.965-5.685-6.786-10.85-9.933-16.419a29.666,29.666,0,0,1-4.249-13.234c-.221-4.368-.3-8.593,1.621-12.665,1.511-3.194,4.187-5.3,6.7-7.564,2.58-2.322,5.768-3.946,7.957-6.711,2.064-2.607,2.676-5.821,3.013-8.978a19.548,19.548,0,0,1,14.239-16.845c4.636-1.258,9.452-2.11,13.478-5.032,2.69-1.952,5.371-3.914,8.07-5.852,5.361-3.85,10.754-3.519,15.692.894a25.645,25.645,0,0,1,5.5,7.023c.319.592.771,1.236-.036,2.107a48.334,48.334,0,0,0-5.165-7.229c-4.718-5.13-9.995-5.638-15.707-1.64-4.387,3.07-8.392,6.759-13.578,8.632-2.69.972-5.578,1.064-8.223,2.163-4.6,1.909-8.864,4.215-11.15,8.964a35.258,35.258,0,0,0-2.584,9.812,13.4,13.4,0,0,1-5.429,9.249c-2.806,2.044-5.511,4.245-8.119,6.538-3.8,3.337-5.228,7.633-5.422,12.683-.287,7.472,2.184,13.929,6.088,20.06,2.595,4.077,5.207,8.138,7.624,12.333,4.248,7.372,3.066,14.219-1.216,21.077a70.812,70.812,0,0,1-9.284,11.362c-.539.562-1.252,1.089-1.757,1.683-.982.85-1.541,1.428-2.806,2.521a99.779,99.779,0,0,1-13.108,8.262c-1.265.634-2.633,1.057-3.93,1.628-4.327,1.905-6.011,5.459-5.911,9.944.113,5.037,1.2,10.025.829,15.093a19.915,19.915,0,0,1-4.444,11.842c-.013-2.009,1.3-3.547,1.96-5.308a26.223,26.223,0,0,0,1.388-12.116c-.4-4.024-.99-8.078-.571-12.125s2.932-6.62,6.569-8.237c5.788-2.572,11.332-5.555,16.081-9.833A26.645,26.645,0,0,0,581.387,368.361Z" transform="translate(-51.156 -19.31)" fill="#8a89ca"/>
      <path id="Path_31" data-name="Path 31" d="M718.412,320.468c-3.076,9.461-9.911,13.792-18.474,16.038-3.229.847-6.492,1.564-9.741,2.335-5.107,1.211-9.656,3.352-12.9,8.018-.474-1.889.779-2.552,1.7-3.29,5-4,10.709-6.746,16.561-9.2a60.937,60.937,0,0,1,7.641-2.709,25.014,25.014,0,0,0,13.519-9.186C717.149,321.916,717.623,321.4,718.412,320.468Z" transform="translate(-122.39 -64.603)" fill="#d9bb9f"/>
      <path id="Path_34" data-name="Path 34" d="M653.693,332.876c-.48.5-.215,1.6-1.3,1.622-1.947-13.339,2.414-24.192,13.042-32.419,3.793-2.936,8.323-4.563,12.853-6.056,5.382-1.774,10.922-3.114,16.1-5.449,5.692-2.567,10.591-6.112,13.3-12.031.071-.155.27-.253.581-.53a5.586,5.586,0,0,1-1.23,4.057,25.529,25.529,0,0,1-7.758,7.178c-5.394,3.338-11.515,4.77-17.428,6.752-6.67,2.236-13.4,4.362-18.754,9.253a31.969,31.969,0,0,0-7.978,11.958,33.769,33.769,0,0,0-2.3,12.669A4.6,4.6,0,0,0,653.693,332.876Z" transform="translate(-107.952 -40.325)" fill="#8a89cb"/>
      <path id="Path_35" data-name="Path 35" d="M528.284,748.612c.482.51.335,1.127.292,1.727a24.977,24.977,0,0,1-5.351-4.137c-6.091-5.331-11.985-10.825-16.358-17.81-3.132-5-3.427-10.346-2.84-15.827.775-7.227,3.948-13.706,7.006-20.185.2-.431.41-1.14.98-.918.839.326.22.965.015,1.413a109.763,109.763,0,0,0-5.861,14.575c-2.745,9.327-1.479,17.633,4.945,25.063a129.819,129.819,0,0,0,16.029,15.6A1.8,1.8,0,0,0,528.284,748.612Z" transform="translate(-23.226 -276.729)" fill="#8a89cb"/>
      <path id="Path_36" data-name="Path 36" d="M620.164,545.2c.151-.308,3.11-4.258,4.185-6.029a64.674,64.674,0,0,0,9.147-23.818,12.137,12.137,0,0,1,.428-1.645,3.986,3.986,0,0,1,.45-.7c.84,1.892,0,3.517-.308,5.044a67.321,67.321,0,0,1-7.924,20.308c-.385.667-.677,1.162-1.159,2.153-1.154,1.835-1.93,3.7-3.108,5.518a29.731,29.731,0,0,1-2.69,3.1c-2.013,1.866-3.531,4.183-5.55,6.041a61.6,61.6,0,0,1-5.788,4.854c-1.677.5-2.7,1.991-4.189,2.78-.391.207-.783.846-1.219.169-.332-.514.322-.643.54-.956.69-.991,2.06-1.16,2.648-2.251a22.442,22.442,0,0,1,6-5.225q2.965-2.875,5.933-5.748C617.865,548.5,619.778,545.6,620.164,545.2Z" transform="translate(-79.59 -174.709)" fill="#8989cc"/>
      <path id="Path_50" data-name="Path 50" d="M1019.247,705.456l-1.214-.213a25.215,25.215,0,0,0-6.087-7.828c-2.8-2.49-5.5-5.15-8.863-6.955-.387-.207-.968-.6-.606-1.168.282-.439.759-.161,1.125.09,5.855,4,11.189,8.54,15.2,14.468A2.005,2.005,0,0,1,1019.247,705.456Z" transform="translate(-308.337 -275.381)" fill="#8b8acb"/>
      <path id="Path_53" data-name="Path 53" d="M837.262,592.95a53.757,53.757,0,0,1-4.2,12.9,48.113,48.113,0,0,1-14.507,17.824,60.59,60.59,0,0,1-13.332,7.507c-.634.257-1.413.416-1.494,1.325-1.69-5.167-3.308-10.339-3.824-15.8-.436-4.616,1.429-8.609,3.119-12.661,1.934-4.636,3.977-9.226,5.891-13.87a7.384,7.384,0,0,1,2.265-2.938,6.212,6.212,0,0,1,1.845.465,59.582,59.582,0,0,0,18.245,4.48C831.705,592.211,834.3,592.656,837.262,592.95Z" transform="translate(-192.523 -217.151)" fill="#d0b099"/>
      <path id="Path_61" data-name="Path 61" d="M680.836,439.39c-1.022-.3-1.138-.589-.379-1.506,1.79-2.163,4.213-2.118,6.669-1.725a3.653,3.653,0,0,1,3.031,2.679c1.088,3.332,2.308,4.057,5.855,3.508,4.256-.659,6.247,1.067,6.247,5.42a13.3,13.3,0,0,1-.06,2.562c-.72,3.608,1.075,5.914,3.788,7.884,1.962,1.424,3.776,2.977,4.112,5.685a4.834,4.834,0,0,1-2.691,5.432,2.8,2.8,0,0,1-1.455-1.5,36.942,36.942,0,0,0-6.372-8.963c-2.053-2.2-2.882-5.192-4.058-7.927-1.354-3.149-2.675-6.263-5.976-7.994a8.83,8.83,0,0,1-2.4-2.4C684.868,437.784,684.071,437.639,680.836,439.39Z" transform="translate(-123.976 -130.64)" fill="#fdfdfd"/>
      <path id="Path_63" data-name="Path 63" d="M769.042,541.379a18.524,18.524,0,0,0-.7,2.809c-.44,3.62-3.14,5.935-5.292,8.482-1.117,1.323-2.795.041-4.183-.221-1.929-.364-3.808-.987-5.734-1.372-1.779-.356-2.769-1.139-2.721-3.138.042-1.76-.3-3.525-.367-5.292-.041-1.02.246-1.275,1.42-.79a19.706,19.706,0,0,0,12.9.936C765.911,542.377,767.6,542.434,769.042,541.379Z" transform="translate(-164.048 -190.929)" fill="#c6a48f"/>
      <path id="Path_65" data-name="Path 65" d="M682,441.608c1.79-2.222,4.126-2.41,5.861-.3,1.488,1.806,2.894,3.59,5.078,4.686,1.2.6,1.847,1.947,2.431,3.164q1.518,3.162,2.9,6.392a20.189,20.189,0,0,0,4.545,7.1c2.631,2.474,3.809,5.947,5.76,8.9-1.379.3-1.641-.908-2.132-1.683-.875-1.38-1.561-2.88-2.449-4.251-.851-1.313-1.785-2.613-3.729-2.181-.823.182-1.051-.464-1.29-1.1-1.361-3.649-2.728-7.3-4.142-10.924a21.81,21.81,0,0,0-1.633-3.433,2.761,2.761,0,0,0-4.1-.722c-1.109.893-1.517.6-1.981-.494-.385-.91-.9-1.767-1.293-2.673A3.606,3.606,0,0,0,682,441.608Z" transform="translate(-125.138 -132.858)" fill="#d1d1d0"/>
      <path id="Path_66" data-name="Path 66" d="M780.408,429.4a19.943,19.943,0,0,1-5.3-.554c-.72-.142-1.789-.3-1.527-1.362.218-.877,1.112-.631,1.828-.471a23.641,23.641,0,0,0,7.2.627c2.461-.214,2.968-.988,2.33-3.327a42.727,42.727,0,0,1-1.3-9.915c-.156-4.839-.034-9.688-.008-14.533,0-.782.02-1.763,1.144-1.647,1.048.109.647.965.629,1.672-.218,8.251-.629,16.513,1.46,24.634.617,2.4-.415,3.936-2.85,4.634A15.185,15.185,0,0,1,780.408,429.4Z" transform="translate(-177.488 -109.061)" fill="#6e6daf"/>
      <path id="Path_67" data-name="Path 67" d="M804.518,483.648c-.218-.447-.556-.919-.318-1.409,1.362-2.806,1.556-5.862,1.993-8.872a2.859,2.859,0,0,1,2.71-2.569,15.163,15.163,0,0,0,2.076-.463c1.776-.513,3-1.423,3.051-3.543a2.566,2.566,0,0,1,1.979-2.721c1.295-.245,2.663-.334,3.442,1.145a19.8,19.8,0,0,1-6.6,7.886c-3.256,2.137-4.691,5.793-6.5,9.087C805.963,482.9,805.927,484.176,804.518,483.648Z" transform="translate(-194.971 -146.641)" fill="#fcfcfb"/>
      <path id="Path_69" data-name="Path 69" d="M734.777,381.539c-.321.954-1.012.76-1.792.423a28.882,28.882,0,0,0-6.922-2,22.931,22.931,0,0,0-12.114,1.239c-.331.127-.677.214-1.008.342-.573.222-1.161.339-1.453-.349-.3-.709.255-.992.784-1.264a19.5,19.5,0,0,1,6.522-1.85,26.084,26.084,0,0,1,14.541,2.122C733.9,380.464,734.57,380.634,734.777,381.539Z" transform="translate(-141.953 -97.412)" fill="#6f6eae"/>
      <path id="Path_70" data-name="Path 70" d="M826.068,383.406c-.2.593-.491,1.065-1.224.732a3.559,3.559,0,0,1-.656-.54c-4.565-3.671-9.579-3.941-14.888-1.962-.267.1-.522.23-.787.335-.664.265-1.474.673-1.832-.246-.3-.78.529-1.051,1.091-1.31a16.263,16.263,0,0,1,14.232-.225,24.751,24.751,0,0,1,3.267,2.007A1.514,1.514,0,0,1,826.068,383.406Z" transform="translate(-196.401 -97.878)" fill="#6e6eae"/>
      <path id="Path_71" data-name="Path 71" d="M805.051,485.366c.835-.031.923-.752,1.211-1.3,2.134-4.049,3.993-8.218,8.3-10.695,2.465-1.418,3.65-4.25,5.42-6.438-.5,2.8-2.756,4.7-3.679,7.286-5.545,1.553-6.013,7.2-8.789,10.976C806.6,486.439,805.958,486.521,805.051,485.366Z" transform="translate(-195.505 -148.359)" fill="#d2d2d1"/>
    </g>
  </g>
</svg>
