<svg xmlns="http://www.w3.org/2000/svg" width="36" height="36" viewBox="0 0 36 36">
  <g id="icon_trendlist" transform="translate(2.108 2.188)">
    <g id="Group_259" data-name="Group 259" transform="translate(-2.108 -2.15)">
      <ellipse id="Ellipse_17" data-name="Ellipse 17" cx="17.959" cy="17.962" rx="17.959" ry="17.962" fill="#ffe8ea"/>
      <path id="Path_493" data-name="Path 493" d="M130.066,199.565l1.49,1.491a.524.524,0,0,1,0,.744l-3.981,3.923-1.972-2.128a3.15,3.15,0,0,0-4.483-.137l-6.474,6.18a15.325,15.325,0,0,0,2.286,4.244l6.3-6.009,2,2.154a3.148,3.148,0,0,0,4.534.086l5.087-5.028a.524.524,0,0,1,.739,0l1.5,1.5a.524.524,0,0,0,.9-.371v-6.755a.785.785,0,0,0-.785-.785h-6.754A.524.524,0,0,0,130.066,199.565Z" transform="translate(-109.195 -188.275)" fill="#ffd4d9"/>
    </g>
    <g id="Group_260" data-name="Group 260" transform="translate(-2.28 -2.359)">
      <g id="Ellipse_18" data-name="Ellipse 18" transform="translate(0.172 0.172)" fill="none" stroke="#ff98a4" stroke-width="1.6">
        <circle cx="18" cy="18" r="18" stroke="none"/>
        <circle cx="18" cy="18" r="17.2" fill="none"/>
      </g>
      <path id="Path_498" data-name="Path 498" d="M99.593,117.01a8.764,8.764,0,0,0,.848,1.687q.145.267.3.53a16.048,16.048,0,0,0,1.028,1.523l.454.508a9.324,9.324,0,0,1,1.177-.9l5.14-4.905,1.443,1.556a3.858,3.858,0,0,0,5.555.108l4.838-4.782,1.3,1.3a1.275,1.275,0,0,0,2.177-.9v-6.652a1.534,1.534,0,0,0-1.532-1.532h-6.651a1.275,1.275,0,0,0-.9,2.177h0l1.295,1.3-3.188,3.142-1.41-1.522a3.861,3.861,0,0,0-5.495-.168l-5.723,5.431C99.29,115.515,98.935,115.667,99.593,117.01Zm7.429-6.435a2.342,2.342,0,0,1,3.333.1l1.942,2.1a.759.759,0,0,0,.539.243.768.768,0,0,0,.55-.218l3.92-3.863a1.275,1.275,0,0,0,.007-1.81l-1.054-1.054h6.065a.014.014,0,0,1,.014.014v6.066l-1.058-1.059a1.278,1.278,0,0,0-1.8-.005l-5.013,4.955a2.341,2.341,0,0,1-3.372-.064l-1.967-2.121a.759.759,0,0,0-1.081-.033l-5.567,5.313a14.4,14.4,0,0,1-1.476-2.821Z" transform="translate(-93.793 -94.597)" fill="#ff98a4"/>
    </g>
  </g>
</svg>
