<svg xmlns="http://www.w3.org/2000/svg" width="26.319" height="27.022" viewBox="0 0 26.319 27.022">
  <g id="icon_authentic" transform="translate(-303 -469)">
    <path id="Path_899" data-name="Path 899" d="M150,10.234h-6.668L144.4,2.888a2.526,2.526,0,0,0-4.836-1.322c-1.392,3.39-2.97,7.233-5.466,8.8a.848.848,0,0,0-.4.718V24.106a.848.848,0,0,0,.363.7l2.965,2.067a.848.848,0,0,0,.485.152h9.16a4.522,4.522,0,0,0,3.9-2.247l1.717-2.96a7.394,7.394,0,0,0,1-3.705V13.516A3.286,3.286,0,0,0,150,10.234Z" transform="translate(176.038 469)" fill="#fff1e8"/>
    <path id="Path_901" data-name="Path 901" d="M14.2,193.146H7.472a.848.848,0,0,0-.848.848v12.533a3.411,3.411,0,0,0,3.407,3.407H14.2a.848.848,0,0,0,.848-.848V193.994A.848.848,0,0,0,14.2,193.146Z" transform="translate(296.376 286.088)" fill="#fff1e8"/>
    <path id="Path_903" data-name="Path 903" d="M29.661,10.234H22.993l1.064-7.346a2.526,2.526,0,0,0-4.836-1.322c-1.355,3.3-2.887,7.029-5.27,8.668H7.472a.848.848,0,0,0-.848.848V23.614a3.411,3.411,0,0,0,3.407,3.407H14.2a.848.848,0,0,0,.848-.848v-.443c1.75,1.22,1.762,1.291,2.118,1.291h9.16a4.522,4.522,0,0,0,3.9-2.247l1.717-2.96a7.394,7.394,0,0,0,1-3.705V13.516a3.286,3.286,0,0,0-3.282-3.282Zm-16.3,15.092H10.031a1.714,1.714,0,0,1-1.712-1.712V11.929h5.037ZM31.248,18.11a5.7,5.7,0,0,1-.768,2.855l-1.717,2.96a2.822,2.822,0,0,1-2.433,1.4H17.436l-2.384-1.662V11.532c2.714-1.96,4.316-5.861,5.737-9.322a.83.83,0,0,1,1.59.435l-1.2,8.315a.848.848,0,0,0,.839.969h7.648a1.588,1.588,0,0,1,1.586,1.586Z" transform="translate(296.376 469)" fill="#ffbc95"/>
    <circle id="Ellipse_22" data-name="Ellipse 22" cx="0.934" cy="0.934" r="0.934" transform="translate(306.283 482.511)" fill="#ffbc95"/>
  </g>
</svg>
