<svg xmlns="http://www.w3.org/2000/svg" width="32" height="31.855" viewBox="0 0 32 31.855">
  <g id="icon_recommendation" transform="translate(-172 -467)">
    <path id="Path_897" data-name="Path 897" d="M35.339,190.339l5.32-10.64v-.093A9.322,9.322,0,0,1,33.5,174.2l-.153.18-5.985,10.64h5.32Zm0,0" transform="translate(146.468 307.252)" fill="#d5e4ff"/>
    <path id="Path_898" data-name="Path 898" d="M32.679,190.339l-5.32-10.64v-.093a9.322,9.322,0,0,0,7.162-5.406l.153.18,5.985,10.64h-5.32Zm0,0" transform="translate(162.316 307.252)" fill="#d5e4ff"/>
    <path id="Path_894" data-name="Path 894" d="M424.491,466.478l.5-.02,5.832,11.662,3.16-6.312h6.184l-6.6-11.736.086-.228a9.952,9.952,0,0,0,.628-3.469,10.112,10.112,0,0,0-20.224,0,9.924,9.924,0,0,0,.638,3.493l.087.231-6.612,11.707h6.194l3.16,6.312,5.831-11.665.481.022C424.054,466.488,424.272,466.489,424.491,466.478Zm12.935,3.728h-4.444l-2.165,4.331-4.167-8.335.591-.187a9.981,9.981,0,0,0,4.99-3.535l.486-.647Zm-19.909,4.332-2.165-4.332H410.9l4.71-8.372.486.648a9.961,9.961,0,0,0,4.99,3.535l.59.186Zm5.639-9.714,0,0-.2-.025a8.423,8.423,0,0,1-6.544-4.946,8.336,8.336,0,0,1-.745-3.478,8.508,8.508,0,1,1,17.015,0,8.327,8.327,0,0,1-.748,3.481,8.414,8.414,0,0,1-6.541,4.939,8.71,8.71,0,0,1-1.217.086A8.571,8.571,0,0,1,423.156,464.825Z" transform="translate(-236.168 20.735)" fill="#80adff"/>
    <path id="Path_896" data-name="Path 896" d="M161.819,83.686a3.231,3.231,0,1,1-3.23-3.327A3.28,3.28,0,0,1,161.819,83.686Zm0,0" transform="translate(29.425 393.438)" fill="#d5e4ff"/>
    <path id="Path_895" data-name="Path 895" d="M423.31,451.3a4.535,4.535,0,1,0,4.536,4.535A4.539,4.539,0,0,0,423.31,451.3Zm0,7.554h0a3.018,3.018,0,1,1,3.017-3.018A3.022,3.022,0,0,1,423.311,458.853Z" transform="translate(-235.312 21.142)" fill="#80adff"/>
  </g>
</svg>
