<svg xmlns="http://www.w3.org/2000/svg" width="40.316" height="51.827" viewBox="0 0 40.316 51.827">
  <g id="icon_normal_skin" transform="translate(-56.866 0)">
    <path id="Path_911" data-name="Path 911" d="M104.888,132.2a31.324,31.324,0,0,0-7.745,11.813c-.107,8.877,7.142,24.3,16.066,24.3,8.874,0,16.068-15.231,16.068-24.108C129.276,131.07,113.817,128.143,104.888,132.2ZM116.2,161.53a4.358,4.358,0,0,1-5.987,0,.794.794,0,0,1,.545-1.371h4.9A.794.794,0,0,1,116.2,161.53Z" transform="translate(-36.199 -117.294)" fill="#e8f0ff"/>
    <g id="Group_331" data-name="Group 331" transform="translate(56.866 0)">
      <path id="Path_912" data-name="Path 912" d="M173.955,275.613a.81.81,0,0,0-1.08-.38,3.959,3.959,0,0,1-4.233-.307,1.877,1.877,0,0,0-1.994-.008.81.81,0,0,0,.621,1.5l.422-.175a5.585,5.585,0,0,0,5.883.456A.81.81,0,0,0,173.955,275.613Z" transform="translate(-155.088 -246.82)" fill="#80adff"/>
      <path id="Path_913" data-name="Path 913" d="M274.466,276.423a.81.81,0,0,0,.621-1.5,1.885,1.885,0,0,0-1.994.008,3.959,3.959,0,0,1-4.233.307.81.81,0,1,0-.7,1.46,5.586,5.586,0,0,0,5.883-.456Z" transform="translate(-246.361 -246.83)" fill="#80adff"/>
      <path id="Path_914" data-name="Path 914" d="M222.329,415.505h-4.9a1.6,1.6,0,0,0-1.1,2.769,5.172,5.172,0,0,0,7.1,0A1.6,1.6,0,0,0,222.329,415.505Zm-4.856,1.619h4.816A3.552,3.552,0,0,1,217.473,417.124Z" transform="translate(-199.738 -373.45)" fill="#80adff"/>
      <path id="Path_926" data-name="Path 926" d="M93.148,7.492A19.526,19.526,0,0,0,76.9,0h-.8A19.254,19.254,0,0,0,56.867,19.239a18.108,18.108,0,0,0,2.609,10.333.8.8,0,0,0,.886.357c1.256,8.793,7.894,21.9,16.647,21.9,8.632,0,15.186-12.715,16.582-21.469,5.067-6.657,4.636-16.29-.443-22.866Zm-20.827,5.4c1.925-1.454,3.976-3.074,5.794-4.66A17.029,17.029,0,0,1,90.865,14.1a21.709,21.709,0,0,1,4.37,8.734,15.92,15.92,0,0,1-1.349,3.986c-.057-11.074-10.936-16.13-21.566-13.93Zm23.2,5.76C92.431,11.383,86.514,7.383,79.807,6.7a16.807,16.807,0,0,0,3.548-4.216A17.619,17.619,0,0,1,95.521,18.652ZM58.491,20.673a18.679,18.679,0,0,1,5.164-6.83.81.81,0,0,0-1.068-1.217,23.006,23.006,0,0,0-3.961,4.407,17.636,17.636,0,0,1,16.913-15.4c-1.761,2.815-4.984,5.36-7.741,7.2a.81.81,0,0,0,.9,1.348c3.191-2.125,6.957-5.133,8.713-8.553a18.24,18.24,0,0,1,4.347.42C79.131,6.435,71.273,11.1,67.465,14.973a32.022,32.022,0,0,0-7.505,12.09A15.757,15.757,0,0,1,58.491,20.673ZM77.009,50.208c-8.3,0-15.359-14.978-15.258-23.338A30.761,30.761,0,0,1,69.157,15.58c8.394-3.712,23.11-1.119,23.11,11.329,0,8.412-6.938,23.3-15.259,23.3Z" transform="translate(-56.866 0)" fill="#80adff"/>
      <path id="Path_927" data-name="Path 927" d="M135.381,105.419a.81.81,0,1,0-.81-.811A.812.812,0,0,0,135.381,105.419Z" transform="translate(-126.706 -93.292)" fill="#80adff"/>
    </g>
  </g>
</svg>
