<svg xmlns="http://www.w3.org/2000/svg" width="22.626" height="20.428" viewBox="0 0 22.626 20.428">
  <path id="icon_favorite" data-name="icon favorite" d="M24.415,10.837A6.25,6.25,0,0,0,18.812,7,5.9,5.9,0,0,0,14,9.174,5.9,5.9,0,0,0,9.194,7a6.25,6.25,0,0,0-5.6,3.837,6.507,6.507,0,0,0,1.253,7.214,110.59,110.59,0,0,0,8.493,8.621,1.06,1.06,0,0,0,1.381,0c.051-.026,3.991-3.607,8.493-8.621A6.583,6.583,0,0,0,24.415,10.837ZM21.652,16.7C18.326,20.4,15.308,23.321,14,24.549,12.7,23.321,9.68,20.43,6.354,16.7a4.6,4.6,0,0,1-.921-5.039,4.317,4.317,0,0,1,3.76-2.609A3.651,3.651,0,0,1,13.005,11.6a.986.986,0,0,0,.972.767h0a1.067,1.067,0,0,0,1-.767,3.677,3.677,0,0,1,3.812-2.558,4.3,4.3,0,0,1,3.76,2.635A4.515,4.515,0,0,1,21.652,16.7Z" transform="translate(-2.691 -6.75)" fill="#f6d8c5" stroke="#f6d8c5" stroke-width="0.5"/>
</svg>
