<svg xmlns="http://www.w3.org/2000/svg" width="17.15" height="17.151" viewBox="0 0 17.15 17.151">
  <path id="icon_filter" d="M-431.422,16.437V7.146h-.893a1.252,1.252,0,0,1-1.251-1.25V4.824a1.252,1.252,0,0,1,1.251-1.251h.893V.715A.715.715,0,0,1-430.708,0a.715.715,0,0,1,.715.715V3.573h.894a1.252,1.252,0,0,1,1.25,1.251V5.9a1.251,1.251,0,0,1-1.25,1.25h-.894v9.291a.715.715,0,0,1-.715.715A.715.715,0,0,1-431.422,16.437Zm-5.717,0V14.293h-.894a1.252,1.252,0,0,1-1.25-1.251V11.97a1.252,1.252,0,0,1,1.25-1.251h.894v-10A.715.715,0,0,1-436.424,0a.715.715,0,0,1,.715.715v10h.893a1.252,1.252,0,0,1,1.251,1.251v1.072a1.252,1.252,0,0,1-1.251,1.251h-.893v2.144a.715.715,0,0,1-.715.715A.715.715,0,0,1-437.139,16.437Zm-5.717,0V7.146h-.894A1.251,1.251,0,0,1-445,5.9V4.824a1.252,1.252,0,0,1,1.25-1.251h.894V.715A.715.715,0,0,1-442.141,0a.715.715,0,0,1,.715.715V3.573h.893a1.252,1.252,0,0,1,1.251,1.251V5.9a1.252,1.252,0,0,1-1.251,1.25h-.893v9.291a.715.715,0,0,1-.715.715A.714.714,0,0,1-442.856,16.437Z" transform="translate(445)" fill="#d7b19b"/>
</svg>
