<svg xmlns="http://www.w3.org/2000/svg" width="20.604" height="19.573" viewBox="0 0 20.604 19.573">
  <g id="icon_user" transform="translate(-730.748 -3408.177)">
    <path id="Path_2134" data-name="Path 2134" d="M732,3426.5h18.147v-2.221l-1.8-3-3.119-2.52.9-4.679-1.14-2.939-3.359-1.38h-2.579l-1.92,1.68-1.5,2.639.42,3.3,1.08,1.68-2.879,2.22-1.8,3.239Z" fill="#ffb4cb"/>
    <path id="icon_user-2" data-name="icon_user" d="M-444.274,17.073a.753.753,0,0,1-.569-.249.616.616,0,0,1-.152-.49,9.157,9.157,0,0,1,4.821-6.927,5.958,5.958,0,0,0,4.224,1.752,5.961,5.961,0,0,0,4.224-1.752,9.154,9.154,0,0,1,4.82,6.927.612.612,0,0,1-.151.49.753.753,0,0,1-.569.249Zm4.876-8.032q-.158-.14-.3-.292c-.1-.1-.191-.206-.279-.316a5.152,5.152,0,0,1-1.152-3.25A5.19,5.19,0,0,1-435.95,0a5.188,5.188,0,0,1,5.182,5.183,5.152,5.152,0,0,1-1.151,3.25c-.089.11-.184.214-.28.316s-.2.2-.3.292a5.155,5.155,0,0,1-3.448,1.324A5.153,5.153,0,0,1-439.4,9.041Z" transform="translate(1177 3409.427)" fill="none" stroke="#ff78a4" stroke-width="2.5"/>
  </g>
</svg>
