<svg xmlns="http://www.w3.org/2000/svg" width="32.521" height="26.446" viewBox="0 0 32.521 26.446">
  <g id="icon_cult" transform="translate(0 -47.779)">
    <path id="Path_505" data-name="Path 505" d="M46.3,71.916c0,9.154-15.257,16.274-15.257,16.274s-8.582-4.005-12.873-9.869a10.955,10.955,0,0,1-2.384-6.4,8.138,8.138,0,0,1,15.257-3.941A8.137,8.137,0,0,1,46.3,71.916Z" transform="translate(-14.782 -14.983)" fill="#e6e5ff"/>
    <g id="Group_261" data-name="Group 261" transform="translate(0 47.779)">
      <path id="Path_507" data-name="Path 507" d="M330.074,152.409a1.017,1.017,0,1,0-1.885.765c1.188,2.927-2.805,6.66-5.314,8.6a1.017,1.017,0,1,0,1.244,1.61C327.59,160.7,331.718,156.457,330.074,152.409Z" transform="translate(-301.979 -145.163)" fill="#b3b1ff"/>
      <path id="Path_508" data-name="Path 508" d="M368.545,115.8c.394.1.463.2.763.2a1.017,1.017,0,0,0,.383-1.96,5.076,5.076,0,0,0-.637-.21,1.017,1.017,0,0,0-.509,1.97Z" transform="translate(-344.402 -109.602)" fill="#b3b1ff"/>
      <path id="Path_509" data-name="Path 509" d="M23.381,47.779a9.163,9.163,0,0,0-7.12,3.4,9.163,9.163,0,0,0-7.12-3.4c-6.842,0-12.681,7.814-6.574,16.16a27.249,27.249,0,0,0,5.447,5.372,46.9,46.9,0,0,0,7.817,4.819,1.017,1.017,0,0,0,.86,0,46.907,46.907,0,0,0,7.817-4.819,27.249,27.249,0,0,0,5.447-5.372c6.1-8.335.282-16.16-6.574-16.16Zm-7.12,24.3c-2.424-1.221-14.24-7.566-14.24-15.141a7.121,7.121,0,0,1,13.351-3.448,1.018,1.018,0,0,0,1.779,0A7.121,7.121,0,0,1,30.5,56.933C30.5,64.508,18.685,70.853,16.261,72.074Z" transform="translate(0 -47.779)" fill="#b3b1ff"/>
    </g>
  </g>
</svg>
