<svg xmlns="http://www.w3.org/2000/svg" width="20" height="20" viewBox="0 0 20 20">
  <g id="icon_home" transform="translate(-113 -2948)">
    <path id="Path_15" data-name="Path 15" d="M27.988,770.387l9.067-6.248,9.169,6.781-.33,10.9H27.988Z" transform="translate(86 2185)" fill="#ffb4cb"/>
    <path id="home_menu_house_main_menu_interface" data-name="home, menu, house, main menu, interface" d="M19.476,6.483,10.726.233a1.251,1.251,0,0,0-1.453,0L.524,6.483A1.25,1.25,0,0,0,0,7.5V18.75A1.25,1.25,0,0,0,1.25,20h17.5A1.25,1.25,0,0,0,20,18.75V7.5a1.249,1.249,0,0,0-.524-1.017ZM8.75,17.5v-5h2.5v5Zm8.75,0H13.75V11.25A1.249,1.249,0,0,0,12.5,10h-5a1.249,1.249,0,0,0-1.25,1.25V17.5H2.5V8.143L10,2.785l7.5,5.358Z" transform="translate(113 2948)" fill="#ff78a4"/>
  </g>
</svg>
