<svg xmlns="http://www.w3.org/2000/svg" width="32" height="32" viewBox="0 0 32 32">
  <g id="icon_worldwide" transform="translate(-42 -467)">
    <path id="Path_887" data-name="Path 887" d="M38.021,12.216a5.274,5.274,0,0,0-4.988,5.523c0,5.565-4.174,5.565-4.174,5.565a2.783,2.783,0,1,0,0,5.565s4.174,0,4.174,2.783c0,3.59,1.517,4.536,2.31,4.779A15.3,15.3,0,0,1,25.27,38.449a6.487,6.487,0,0,0,.111-1.231,6.955,6.955,0,0,0-10.866-5.753,15.154,15.154,0,0,1-1.955-4.7A7.831,7.831,0,0,0,17.033,24.7a7.682,7.682,0,0,0,2.087-4.87A3.6,3.6,0,0,1,21.9,16.348a4.044,4.044,0,0,0,2.783-4.174,3.535,3.535,0,0,0-2.31-3.3,15.325,15.325,0,0,1,15.645,3.346Z" transform="translate(30.532 459.696)" fill="#fedcd5"/>
    <path id="Path_888" data-name="Path 888" d="M27.033,4.408h0A16.019,16.019,0,0,0,10.677.909h0A16.007,16.007,0,0,0,.414,19.619h0a15.821,15.821,0,0,0,2.045,4.911h0a15.957,15.957,0,0,0,11.24,7.3h0a15.991,15.991,0,0,0,10.534-2.109h0a16.009,16.009,0,0,0,2.8-25.315ZM10.877,2.317A2.774,2.774,0,0,1,12.522,4.87a3.364,3.364,0,0,1-2.237,3.494,4.255,4.255,0,0,0-3.329,4.158A7.032,7.032,0,0,1,5.074,16.9a7.442,7.442,0,0,1-3.433,1.795A14.617,14.617,0,0,1,10.877,2.317ZM4.029,24.379a6.261,6.261,0,0,1,9.189,5.534c0,.145,0,.287-.014.426A14.563,14.563,0,0,1,4.029,24.379Zm10.553,6.146c.016-.2.027-.4.027-.612A7.645,7.645,0,0,0,3.3,23.2a14.355,14.355,0,0,1-1.324-3.156,8.773,8.773,0,0,0,4.086-2.159,8.342,8.342,0,0,0,2.29-5.361,2.9,2.9,0,0,1,2.256-2.8A4.764,4.764,0,0,0,13.913,4.87a3.972,3.972,0,0,0-1.342-3.064,14.567,14.567,0,0,1,12.49,2.733,5.738,5.738,0,0,0-4.192,5.9c0,4.688-3.126,4.865-3.478,4.87a3.354,3.354,0,0,0-3.478,3.478,3.353,3.353,0,0,0,3.477,3.478c.035,0,3.48.035,3.48,2.087,0,2.653.8,4.032,1.6,4.751A14.584,14.584,0,0,1,14.582,30.525Zm9.227-2.175c-.611-.315-1.548-1.249-1.548-4S19.075,20.87,17.4,20.87A1.985,1.985,0,0,1,15.3,18.783,1.984,1.984,0,0,1,17.391,16.7c.049,0,4.87-.072,4.87-6.261a4.489,4.489,0,0,1,4.054-4.784,14.617,14.617,0,0,1-2.506,22.7Z" transform="translate(42 467)" fill="#ffa18e"/>
  </g>
</svg>
