<svg xmlns="http://www.w3.org/2000/svg" width="25.2" height="31.627" viewBox="0 0 25.2 31.627">
  <g id="icon_ranking" transform="translate(-38.317 -631.675)">
    <path id="Path_904" data-name="Path 904" d="M95.886,85.9V56H72V85.9L83.943,79.6Z" transform="translate(-33.026 576.749)" fill="#e8f0ff"/>
    <path id="Path_905" data-name="Path 905" d="M65.257,31.537,76.6,26.231l11.343,5.305a1,1,0,0,0,.838,0,.677.677,0,0,0,.418-.595V.688A.776.776,0,0,0,88.36,0H64.84A.776.776,0,0,0,64,.688V30.94a.677.677,0,0,0,.418.595A1,1,0,0,0,65.257,31.537ZM65.68,1.375H87.52v2.75H65.68Zm0,4.125H87.52V29.755l-10.5-4.913a1,1,0,0,0-.833,0l-10.5,4.913Z" transform="translate(-25.683 631.675)" fill="#80adff"/>
    <path id="Path_906" data-name="Path 906" d="M140.508,77.007a.444.444,0,0,0-.424-.275l-4.22-.282-1.572-3.926a.4.4,0,0,0-.784,0l-1.572,3.926-4.22.282a.4.4,0,0,0-.242.746l3.248,2.708-1.036,4.1a.4.4,0,0,0,.635.461L133.9,82.5l3.58,2.252a.4.4,0,0,0,.635-.461l-1.036-4.1,3.248-2.708A.444.444,0,0,0,140.508,77.007Z" transform="translate(-83.084 568.428)" fill="#c4d8ff"/>
    <path id="Path_907" data-name="Path 907" d="M119.382,70.519l3.319,2.768-1.058,4.187a.938.938,0,0,0,.318,1.024.85.85,0,0,0,.5.162,1.054,1.054,0,0,0,.565-.174l3.194-2.02a.464.464,0,1,0-.494-.785L122.542,77.7l1.128-4.466a.464.464,0,0,0-.152-.47l-3.538-2.95,4.6-.307a.463.463,0,0,0,.4-.29l1.712-4.276,1.712,4.276a.463.463,0,0,0,.4.29l4.6.307-3.538,2.95a.463.463,0,0,0-.152.47l1.128,4.466-3.9-2.453a.464.464,0,0,0-.494,0l-.7.441a.464.464,0,0,0,.494.785l.454-.285,3.655,2.3a.9.9,0,0,0,1.391-1.007l-1.058-4.19,3.317-2.766a.9.9,0,0,0-.528-1.634l-4.312-.288-1.605-4.009a.9.9,0,0,0-1.717,0L124.223,68.6l-4.309.288a.9.9,0,0,0-.533,1.632Z" transform="translate(-75.872 575.648)" fill="#80adff"/>
  </g>
</svg>
