<svg xmlns="http://www.w3.org/2000/svg" width="12.491" height="16.169" viewBox="0 0 12.491 16.169">
  <path id="icon_empowerd" d="M3.173,16.169V13.5c0-.721.023-1.443-.014-2.162a1.145,1.145,0,0,0-.289-.678C2.1,9.851,1.3,9.08.51,8.291A1.3,1.3,0,0,1,.5,6.236q.9-.91,1.807-1.807a1.285,1.285,0,0,1,1.986,0Q5.727,5.849,7.146,7.28c.46.464.411.741-.175,1.045A1.331,1.331,0,0,1,5.651,8.27c-.637-.365-1.243-.784-1.861-1.182-.124-.08-.231-.216-.363-.242a.514.514,0,0,0-.411.1.385.385,0,0,0,.032.379,6.871,6.871,0,0,0,3.219,1.78.446.446,0,0,1,.456.44,3.4,3.4,0,0,1-.316,2.243c-.123.231-.251.5.083.6.126.039.41-.154.495-.31a3.94,3.94,0,0,0,.275-3.084c1.178-1.067,1.178-1.067-.277-2.88.2.034.339.015.4.074a1.688,1.688,0,0,0,2.392.3,1.609,1.609,0,0,0,2.007.654,2.9,2.9,0,0,1-.1,1.832,10.883,10.883,0,0,1-1.106,1.879,1.317,1.317,0,0,0-.317.828c.015,1.31.006,2.621.006,3.931v.555Zm7.793-9.585a.763.763,0,0,1-.673-.83q.234-1.621.566-3.228a.783.783,0,0,1,.95-.575.887.887,0,0,1,.68.993c-.173.957-.345,2.021-.565,3.075a.763.763,0,0,1-.786.579A1,1,0,0,1,10.967,6.584ZM8.672,6.176a.937.937,0,0,1-.931-1.039c.171-1.161.378-2.318.608-3.47A.94.94,0,0,1,9.482.97a.968.968,0,0,1,.76,1.095q-.268,1.642-.575,3.277a.96.96,0,0,1-.961.835ZM5.144,4.331a.528.528,0,0,1-.086-.393c.16-.986.326-1.971.514-2.951A1.086,1.086,0,0,1,6.8.1a1.057,1.057,0,0,1,.92,1.2C7.527,2.561,7.3,3.817,7.043,5.068a2.889,2.889,0,0,1-.457.753C6.048,5.27,5.584,4.811,5.144,4.331ZM2.5,3.3c.162-.848.308-1.792.533-2.718A.9.9,0,0,1,4.115.025a.935.935,0,0,1,.752,1.051c-.116.837-.283,1.666-.412,2.406Z" fill="#80adff"/>
</svg>
