<?xml version="1.0" encoding="utf-8"?>
<!-- Generator: Adobe Illustrator 24.0.0, SVG Export Plug-In . SVG Version: 6.00 Build 0)  -->
<svg version="1.1" id="Layer_1" xmlns="http://www.w3.org/2000/svg" xmlns:xlink="http://www.w3.org/1999/xlink" x="0px" y="0px"
	 viewBox="0 0 24.3 20.5" style="enable-background:new 0 0 24.3 20.5;" xml:space="preserve">
<style type="text/css">
	.st0{fill:#7270AF;}
</style>
<g id="shoping_cart" transform="translate(-334.671 -47.768)">
	<path id="Union_11" class="st0" d="M351.1,68.2h-11.3c-0.9-0.1-1.6-0.7-1.8-1.6l-1.4-7.5h-0.4c-0.8,0-1.4-0.6-1.4-1.4c0,0,0,0,0,0
		v-0.6c0-0.8,0.6-1.4,1.4-1.4c0,0,0,0,0,0h19.5c0.8,0,1.4,0.6,1.4,1.4v0.6c0,0.8-0.6,1.4-1.4,1.4c0,0,0,0,0,0h-0.7l-1.4,7.5
		c-0.2,0.9-0.9,1.5-1.8,1.6H351.1z M348.8,60.9v4.5c0,0.4,0.4,0.8,0.8,0.8c0,0,0,0,0,0c0.4,0,0.8-0.4,0.8-0.8c0,0,0,0,0,0v-4.5
		c0-0.4-0.4-0.8-0.8-0.8c0,0,0,0,0,0C349.2,60.1,348.8,60.4,348.8,60.9L348.8,60.9z M346.2,60.9v4.5c0,0.4,0.4,0.8,0.8,0.8
		c0,0,0,0,0,0c0.4,0,0.8-0.4,0.8-0.8c0,0,0,0,0,0v-4.5c0-0.4-0.4-0.8-0.8-0.8c0,0,0,0,0,0C346.6,60.1,346.2,60.4,346.2,60.9
		L346.2,60.9z M343.6,60.9v4.5c0,0.4,0.4,0.8,0.8,0.8c0,0,0,0,0,0c0.4,0,0.8-0.4,0.8-0.8c0,0,0,0,0,0v-4.5c0-0.4-0.4-0.8-0.8-0.8
		C343.9,60.1,343.6,60.4,343.6,60.9C343.6,60.9,343.6,60.9,343.6,60.9L343.6,60.9z M341,60.9v4.5c0,0.4,0.4,0.8,0.8,0.8c0,0,0,0,0,0
		c0.4,0,0.8-0.4,0.8-0.8c0,0,0,0,0,0v-4.5c0-0.4-0.4-0.8-0.8-0.8c0,0,0,0,0,0C341.3,60.1,341,60.4,341,60.9
		C341,60.9,341,60.9,341,60.9L341,60.9z M339.4,55.2l2.9-6.8c0.2-0.6,0.8-0.7,1.2-0.4c0.4,0.4,0.5,1,0.3,1.6l-2.4,5.7H339.4z
		 M350.4,55.2l-2.4-5.7c-0.2-0.5-0.1-1.2,0.3-1.6c0.4-0.3,0.9-0.1,1.2,0.4l2.9,6.8L350.4,55.2z"/>
</g>
</svg>
