<svg xmlns="http://www.w3.org/2000/svg" viewBox="0 0 359.02 387.93"><defs><style>.cls-1{fill:#f69ba0;}.cls-2{fill:#fff;}.cls-3{fill:none;stroke:#262262;stroke-linecap:round;stroke-linejoin:round;stroke-width:8px;}.cls-4{fill:#262262;}</style></defs><title>Asset 9</title><g id="Layer_2" data-name="Layer 2"><g id="USP"><path class="cls-1" d="M288,375.66c27.2-6.07,53.71-29.63,65.28-47.34,1.48-2.27,5-10.58,5.1-13.22,4.41-147.22-14-200.33-14-200.33l-13-28.47C309,41.18,247.53,8.57,221.64,3.54c-1.95-.38-3.92-.51-5.91-.72C127.79-6.75,4,41,18.69,318.63c.74,14.12,4.48,17.87,4.48,17.87,18.51,24.11,50.26,38.11,89.67,44.1Z"/><path class="cls-2" d="M81.85,124.87s112.65,45.86,210.23,2.84C299,153.27,324,268.31,186.47,338.12,89,291.38,64.17,259.22,81.85,124.87Z"/><path class="cls-3" d="M82.74,30.54C117.27,6.43,156.42,1.35,190.29,5.12c2,.22,4,.35,5.94.74,26,5.22,74.44,7.26,110.37,86.58,0,0,17.7,37.19,20.16,61.67"/><path class="cls-3" d="M97.27,377c-37-4.53-67.2-17.12-85.33-40,0,0-3.63-3.54-4.82-17.3C-7.34,152.94,30.44,69.71,80.88,31.9"/><path class="cls-3" d="M297,163.82c-.23-13.68-2.3-22.61-6.67-39.64l-33,16.95L241.93,100.3"/><path class="cls-3" d="M250.64,293.73c-19.63,25.46-45.35,37.68-61.45,44.08,0,0-149.95-21.93-107.34-212.94,30,8.76,42.92,13.49,87.69,19.08"/><path class="cls-4" d="M237.16,172.37s4.54,22.73,24.16,23c14.86.21,21.31-10.94,23.55-23h33.68v29s20.14,4.38,21.26,20.08c.5,6.89-.56,21.58-21.26,24.36v27.6H284.87s-3.08,22.32-23,23c-13.14.48-21.84-9.69-23.77-23H205.82V246.74s19.34-3.16,19.34-22.49c0-11.77-11.77-21.3-19.34-23.35V172.37Z"/><path class="cls-3" d="M337.26,293.87v43.78a12.17,12.17,0,0,1-2.62,7.58c-7.42,9.35-31.2,33.89-79.3,38.7"/></g></g></svg>