<svg xmlns="http://www.w3.org/2000/svg" viewBox="0 0 409.3 405.81"><defs><style>.cls-1{fill:#f69ba0;}.cls-2{fill:#fff;}.cls-2,.cls-3,.cls-4{stroke:#232161;}.cls-2,.cls-4{stroke-miterlimit:10;}.cls-2,.cls-3,.cls-4,.cls-5{stroke-width:8px;}.cls-3,.cls-5{fill:none;stroke-linecap:round;stroke-linejoin:round;}.cls-4{fill:#232161;}.cls-5{stroke:#fff;}</style></defs><title>Asset 8</title><g id="Layer_2" data-name="Layer 2"><g id="USP"><path class="cls-1" d="M353.48,306.93C405.93,235,409.3,158,409.3,158V62.72a10,10,0,0,0-8.15-9.82l-182-34.3L35.32,51c-4.77.84-7.65,5-8.26,9.81-1.65,12.88-1,56.67-1,94.17,9,154.28,131.39,228.94,193.1,250.84,15.93-5.75,53.77-28.2,66.36-36.83"/><path class="cls-2" d="M198.27,157.6s6.94-10.11,17.35-10.11c7.24,0,21.72,7.09,19.61,22.93-1.66,10.26-24.84,31.92-37,36.06-7.41-3.19-38.08-21.79-36.82-40.58C162.66,147.94,186.5,140.55,198.27,157.6Z"/><path class="cls-2" d="M297.87,156.88s6.94-10.11,17.35-10.11c7.24,0,21.73,7.09,19.62,22.93-1.66,10.26-24.85,31.92-37,36.06-7.41-3.2-38.08-21.8-36.81-40.59C262.26,147.22,286.1,139.83,297.87,156.88Z"/><path class="cls-2" d="M101.07,159.86s6.94-10.11,17.35-10.11c7.24,0,21.73,7.09,19.62,22.93-1.66,10.26-24.85,31.92-37,36.06C93.66,205.55,63,187,64.25,168.16,65.46,150.2,89.3,142.81,101.07,159.86Z"/><path class="cls-3" d="M331.54,292.34c52.45-71.95,55.82-149,55.82-149V48.13a10,10,0,0,0-8.15-9.83L197.24,4,13.38,36.39c-4.77.84-7.65,5-8.27,9.81-1.64,12.88-1,56.68-1,94.17,9,154.28,131.39,228.94,193.11,250.84C213.17,385.46,251,363,263.6,354.38"/><circle class="cls-1" cx="308.35" cy="311.01" r="43.3"/><circle class="cls-4" cx="300.36" cy="299.67" r="62.56"/><path class="cls-5" d="M264.75,306.27l13.87,13.87a4.1,4.1,0,0,0,5.81,0l47.42-47.42"/></g></g></svg>