<svg xmlns="http://www.w3.org/2000/svg" viewBox="0 0 466.36 421.76"><defs><style>.cls-1{fill:#f69ba0;}.cls-2{fill:none;}.cls-2,.cls-3{stroke:#232161;stroke-linecap:round;stroke-linejoin:round;stroke-width:8px;}.cls-3{fill:#232161;}</style></defs><title>Asset 6</title><g id="Layer_2" data-name="Layer 2"><g id="USP"><path class="cls-1" d="M347.13,399.2c-14.47,5,4.5-35.42,4.5-35.42s5.88-8.85,10-11.18,16.9-12.83,17.48-15.16-7-14.57-8.74-18.07-3.5-16.32-2.92-19.82,9.91-7.57,9.33-15.15c-33.22-21.57,16.9-35.56,16.9-35.56s19.82-2.91,31.48-1.16,15.16-1.75,18.65-7,7-18.07,11.66-18.65,6.41,33.22,6.41,33.22S448.86,364,347.13,399.2Z"/><path class="cls-1" d="M283.17,269.58c1.7,13,16.37,45.35,15.38,64.37-1.22,1.29-5.31,4.56-6.85,6-15.93,14.6-11.63,3.65-17.26,9.95s-.66,13.94-2.65,18.59S256.52,389.69,254.53,393s-12.05,17.48-12.05,17.48l-6.65,11.27s-69.55.45-103.4-48c0,0,14.6-13.93,15.27-20.57s0-32.51,8-41.14,10-27,19.91-28.53c2.33-.37,12.47-7.09,18-11.51l13.37-9.4a22.12,22.12,0,0,1,3.21-3.32,38.13,38.13,0,0,1,2.22-3.42c4-5.53,28.06-14.56,41.14-18.58,0,0,5.58-6.37,16.25,7.58Z"/><circle class="cls-2" cx="256.64" cy="209.71" r="205.71"/><path class="cls-3" d="M234.68,269l6.94,12.6,42.7-11,105.61-72.12a9.22,9.22,0,0,0,2.05-1.84c5.9-7.24,36.18-46.8-20.68-30.84a8.87,8.87,0,0,0-2.5,1.15c-42,28.06-107.63,69.35-107.63,69.35Z"/><path class="cls-1" d="M209.51,186.54c-3.19,1.87-6.86,4.65-6.86,4.65l-10,7.3s-8,2.65-14.6,2.65c-12.24,0-19.91-3.32-25.22-6.63s-16.59-17.26-19.24-19.91-3.32-25.88-8-31.85-14.6,20.57-14.6,20.57,1.33,25.21.66,31.85-15.92,26.54-15.92,26.54-16.59-.66-19.91-4.64S60,183.23,60,183.23C77.9,78.71,174.13,16.29,240.15,12c78.56-5.08,129.73,33.84,129.73,33.84-.66,4-4.65,10,10.62,29.86C413,99,406.38,102.93,406.38,102.93s-6.64,1.33-19.91-.66-14.6,0-25.22,9.29-21.23,6.63-33.84,1.32-10-9.95-9.29-17.91-4-11.28-8-17.26,8-16.59,6.63-21.89-15.92-4.65-33.18-6-15.26,10-11.94,19.25,5.31,28.53,2,31.85-5.31,23.23-2.66,32.52-3.07,17.43-11.28,23.22c-3.49,2.47-11.74,7.92-19.46,12.61Z"/><polygon class="cls-3" points="364.08 217.41 363.94 317.59 344.23 333.01 316.54 249.98 364.08 217.41"/><polygon class="cls-3" points="341.89 181.4 249.96 141.38 230.52 154.98 295.97 214.16 341.89 181.4"/><polygon class="cls-3" points="244.35 255.92 209.97 238.74 201.89 244.21 237.34 275.55 244.35 255.92"/><polygon class="cls-3" points="261.74 282.02 256.37 320.08 247.28 323.63 237.99 277.1 261.74 282.02"/><path class="cls-2" d="M457.13,255.52s-4-38.39-8.69-37.81-8.16,13.41-11.66,18.65-7,8.75-18.65,7-31.48,1.16-31.48,1.16-50.12,14-16.9,35.56c.58,7.58-8.74,11.66-9.33,15.16s1.17,16.32,2.92,19.81,9.32,15.74,8.74,18.07S358.68,346,354.6,348.28s-10,11.18-10,11.18-10.3,21.25-4.51,35.42"/><path class="cls-2" d="M54.33,175.89s12.61,29.86,15.93,33.84,19.91,4.65,19.91,4.65,15.26-19.91,15.92-26.55-.66-31.85-.66-31.85,9.95-26.54,14.6-20.57,5.31,29.2,8,31.85,13.94,16.59,19.24,19.91,13,6.64,25.22,6.64c6.64,0,14.6-2.66,14.6-2.66l9.95-7.3a82.46,82.46,0,0,1,6.86-4.64L234.61,162c7.72-4.68,16-10.14,19.46-12.6,8.21-5.8,13.94-13.94,11.28-23.23s-.66-29.2,2.66-32.52,1.33-22.56-2-31.85S260.71,41.18,278,42.51s31.85.66,33.18,6-10.62,15.93-6.63,21.9,8.62,9.29,8,17.25-3.32,12.61,9.29,17.92,23.23,8,33.84-1.33,11.95-11.28,25.22-9.29,19.91.66,19.91.66,6.63-4-25.88-27.2c-15.27-19.91-11.28-25.88-10.62-29.86"/><path class="cls-2" d="M220.45,412.13l15.71-8.63s9.29-15.26,11.28-18.58S262.7,365,264.69,360.37s-2.88-12.39,2.65-18.58,1.33,4.64,17.26-10c1.54-1.41,5.59-4.72,6.86-6l-7.14-55.31-32.9-40.47c-13.08,4-29.54,11-34.51,10.84-5.75-.22-6.86,2.84-12.67,7.5"/><path class="cls-2" d="M125.34,365.68s14.59-13.94,15.26-20.57,0-32.52,8-41.15,8.74-37.33,17.92-33.18c2.86,1.3,31.13-12.33,35.61-20.13"/><path class="cls-3" d="M48.33,304.25c-53-5-32.53-58.6-14.33-98.73a278.48,278.48,0,0,1,19-34.79l3.51-8.56C-34.52,289.67,8.16,323.54,68.85,325.35c44.77,1.33,161.37-29.08,161.37-29.08l-1.14-12.63-8.45-9.5S94.93,308.67,48.33,304.25Z"/></g></g></svg>